<svg width="100%" height="100%" viewBox="0 0 81 65" fill="none" xmlns="http://www.w3.org/2000/svg">
  <path
    d="M14.4184 28.9152L27.2813 31.3929C29.39 31.7882 31.4196 30.444 31.815 28.3353L34.319 15.4723C34.7144 13.3637 33.3701 11.3341 31.2615 10.9387L18.3985 8.46099C16.2898 8.06561 14.2602 9.40989 13.8649 11.5186L11.3872 24.3815C10.9391 26.4638 12.3097 28.4934 14.4184 28.9152Z"
    fill="#E0E0E0" />
  <path d="M20.0591 41.7253H63.6033V46.0745H20.0591V41.7253Z" fill="currentColor" />
  <g opacity="0.4">
    <path d="M20.0591 41.7253H63.6033V46.0745H20.0591V41.7253Z" fill="black" />
  </g>
  <path d="M41.3038 46.6282H54.1667V50.661H41.3038V46.6282Z" fill="#333333" />
  <path d="M70.5354 44.8093V47.577H38.4835L36.7175 50.1337H32.342V44.8093H70.5354Z" fill="#211F1F" />
  <path
    d="M32.4475 34.793V44.572H25.0408C23.6701 44.572 22.4576 45.4155 21.9832 46.6807L21.2452 48.6312H13.7857L13.3376 42.7533C13.3113 41.6463 13.4958 39.4058 13.7593 38.3251C14.0756 37.0599 15.6572 34.5558 16.3952 33.4224C17.3968 31.8673 18.8202 29.5214 20.1117 28.9151C21.7987 28.098 30.0489 27.729 31.7622 27.6499C31.9467 27.6499 32.0785 27.7817 32.1048 27.9662L32.4475 34.793Z"
    fill="currentColor" />
  <path
    d="M17.4495 31.9992C14.8664 36.2165 14.6555 37.3499 14.471 37.6663C14.3656 37.8771 14.0229 38.0089 13.7857 38.0616C13.7857 38.0353 13.8121 38.0089 13.8121 37.9826C14.2602 36.6383 15.6835 34.4242 16.3425 33.3962C17.1069 32.1837 18.1349 30.5231 19.1628 29.5215C19.0047 29.9696 18.2403 30.7076 17.4495 31.9992Z"
    fill="#333333" />
  <path
    d="M28.2828 29.0996C28.7836 29.0996 29.2053 29.5213 29.2053 30.0222V34.4767C29.2053 34.8985 28.9417 35.2938 28.5464 35.4256L19.6899 38.7205C19.5581 38.7732 19.4527 38.7995 19.3209 38.7995H15.947C15.9206 38.7995 15.9207 38.7995 15.8943 38.7995C15.8152 38.7732 15.7889 38.6941 15.8152 38.615L17.1068 35.2938C17.1859 35.083 19.1364 30.523 20.8497 29.9431C22.1676 29.495 26.3059 29.205 28.2037 29.0996C28.2564 29.0996 28.2564 29.0996 28.2828 29.0996Z"
    fill="#211F1F" />
  <path
    d="M19.3474 38.4833C19.4265 38.4833 19.4792 38.4833 19.5583 38.457L20.6917 36.7173C20.9816 36.2692 21.4561 35.9793 21.9832 35.9002L28.5201 35.0831C28.731 35.004 28.8892 34.7932 28.8892 34.5559V30.0486C28.8892 29.706 28.6256 29.4424 28.2829 29.4424H28.2566C24.54 29.6533 21.9042 29.9959 20.9816 30.2595C19.98 30.5758 18.5039 33.3962 17.8713 34.7932C17.4496 35.7157 16.2107 38.5097 16.2107 38.5097L19.3474 38.4833Z"
    fill="#333333" />
  <path
    d="M20.7179 36.401C20.6915 36.401 20.6652 36.4274 20.6388 36.401C20.5334 36.401 20.4806 36.2956 20.4806 36.2165L21.0869 30.1277L20.7706 30.2331L19.5317 38.457L21.7458 35.9793L20.7179 36.401Z"
    fill="#211F1F" />
  <path
    d="M13.2585 44.6249C13.2585 44.7304 13.3112 44.8095 13.364 44.8095L14.5765 44.5986C14.6292 44.5986 14.6819 44.4668 14.6819 44.3086L14.6292 43.3861C14.6292 43.1752 14.5237 42.9907 14.4183 42.9907L13.2322 43.0962C13.1795 43.0962 13.1531 43.1752 13.1531 43.2807L13.2585 44.6249Z"
    fill="#EBEBEB" />
  <path d="M13.153 47.5769H21.7458V51.0299H13.153V47.5769Z" fill="#211F1F" />
  <path
    d="M27.3075 54.6148C24.7162 54.6148 22.6157 52.5142 22.6157 49.923C22.6157 47.3318 24.7162 45.2312 27.3075 45.2312C29.8987 45.2312 31.9993 47.3318 31.9993 49.923C31.9993 52.5142 29.8987 54.6148 27.3075 54.6148Z"
    fill="#211F1F" />
  <path
    d="M31.9993 49.9755C31.9466 52.585 29.8379 54.641 27.2284 54.6146C24.6453 54.5883 22.5629 52.4532 22.5893 49.8438L31.9993 49.9755Z"
    fill="#211F1F" />
  <path
    d="M27.3603 46.628C29.1791 46.6544 30.6288 48.1568 30.6024 49.9756C30.5761 51.7943 29.0736 53.244 27.2549 53.2177C25.4362 53.1913 23.9865 51.6889 24.0128 49.8701C24.0392 48.0514 25.5416 46.6017 27.3603 46.628Z"
    fill="#FAFAFA" />
  <path
    d="M30.6024 49.9756L24.0128 49.8701C24.0392 48.0514 25.5416 46.6017 27.3603 46.628C29.1791 46.6544 30.6288 48.1568 30.6024 49.9756Z"
    fill="#E0E0E0" />
  <path
    d="M27.3338 47.9198C28.4409 47.9461 29.3371 48.8423 29.3107 49.9494C29.2844 51.0564 28.3882 51.9526 27.2811 51.9262C26.1741 51.8999 25.2779 51.0037 25.3042 49.8966C25.3042 48.7896 26.2268 47.8934 27.3338 47.9198Z"
    fill="#211F1F" />
  <path
    d="M17.0277 32.8689V35.9792C17.0277 36.4009 17.3704 36.7699 17.8185 36.7699H18.1875C18.6093 36.7699 18.9783 36.4273 18.9783 35.9792V32.8689C18.9783 32.4471 18.6356 32.0781 18.1875 32.0781H17.7921C17.3704 32.0781 17.0277 32.4471 17.0277 32.8689Z"
    fill="#211F1F" />
  <path
    d="M16.2105 34.7141C16.2105 34.266 16.5532 33.9233 17.0013 33.9233H17.2385V33.8179H17.0013C16.5005 33.8179 16.1051 34.2132 16.1051 34.7141V39.6695H16.2105V34.7141Z"
    fill="#211F1F" />
  <path
    d="M16.9752 39.6694L16.7116 35.0567V35.0303C16.7116 34.7667 16.9225 34.5559 17.186 34.5559V34.4504H17.1597C16.8434 34.4768 16.5798 34.7404 16.6061 35.0567L16.8697 39.6694H16.9752Z"
    fill="#211F1F" />
  <path d="M15.8681 39.2214H17.186V40.7502H15.8681V39.2214Z" fill="#211F1F" />
  <path d="M16.1843 36.2957H16.7114V36.4011H16.1843V36.2957Z" fill="#211F1F" />
  <path
    d="M21.2979 29.2314L21.6406 29.2051L22.9849 29.0469L27.9666 28.4934C28.2302 28.467 28.4938 28.4407 28.7837 28.4143C28.9155 28.4143 29.0737 28.4143 29.2055 28.4407C29.3373 28.467 29.4691 28.5197 29.6009 28.5988C29.8644 28.7306 30.0753 28.9678 30.2071 29.2314C30.2862 29.3632 30.3125 29.5214 30.3389 29.6531C30.3653 29.8113 30.3653 29.9694 30.3653 30.1276C30.3653 31.3928 30.3653 32.7634 30.3653 34.1868C30.3653 37.0599 30.3653 40.2756 30.3653 43.7022L30.3916 43.6759H25.2517C24.9618 43.6759 24.6718 43.6759 24.3819 43.7286C23.143 43.9131 22.0887 44.7566 21.6406 45.9163C21.5879 46.0218 21.5615 46.1272 21.5352 46.2326C21.5088 46.3381 21.4824 46.4435 21.4561 46.5753L21.4297 46.7334V46.8125V46.8916V47.0497V47.1288C21.4034 47.1552 21.4561 47.1025 21.4561 47.1025H14.9455L14.9719 47.1288C14.9719 45.6527 14.9719 44.2294 14.9719 42.8587C14.9719 42.1734 14.9719 41.5145 14.9719 40.8555V39.9066C14.9719 39.7484 14.9719 39.5903 14.9719 39.4321C14.9719 39.274 14.9983 39.1158 14.9983 38.984C15.0773 38.4042 15.2618 37.8243 15.5518 37.2971L16.3425 35.821C16.8434 34.8721 17.3178 34.0023 17.7132 33.2115L18.8202 31.1029L19.0575 30.6548C19.0838 30.5757 19.1365 30.523 19.1629 30.4439C19.1893 30.3912 19.242 30.3121 19.2947 30.2594C19.4528 30.0485 19.6637 29.864 19.8746 29.7059C20.1909 29.495 20.5335 29.3368 20.8762 29.2578C21.008 29.2314 21.0871 29.2051 21.1661 29.2051L21.2716 29.1787C21.1398 29.1787 21.008 29.2051 20.9026 29.2314C20.5335 29.3105 20.1909 29.4686 19.8746 29.6795C19.6637 29.8377 19.4528 30.0222 19.2683 30.233C19.2156 30.2857 19.1893 30.3648 19.1365 30.4175C19.0838 30.4966 19.0575 30.5493 19.0311 30.6284C18.952 30.7602 18.873 30.9184 18.7939 31.0765L17.6605 33.1852L16.2635 35.7947C15.9999 36.2691 15.7363 36.7699 15.4727 37.2707C15.1828 37.7979 14.9983 38.3778 14.9192 38.9577C14.8928 39.1158 14.8928 39.274 14.8928 39.4321C14.8928 39.5903 14.8928 39.7484 14.8928 39.9066V40.8555C14.8928 41.5145 14.8928 42.1734 14.8928 42.8587C14.8928 44.2294 14.8928 45.6527 14.8928 47.1288V47.1552H21.4297C21.4297 47.1552 21.4824 47.1025 21.4561 47.1288V47.0497V46.8916V46.8125V46.7334L21.4824 46.5753C21.5088 46.4699 21.5352 46.3644 21.5615 46.259C21.5879 46.1536 21.6142 46.0481 21.667 45.9427C22.115 44.7829 23.143 43.9658 24.3819 43.7813C24.6718 43.7549 24.9618 43.7286 25.2517 43.7286H30.418V43.7022C30.418 40.2756 30.418 37.0599 30.418 34.1868C30.418 32.7371 30.418 31.3928 30.418 30.1276V29.8904C30.418 29.8113 30.418 29.7322 30.3916 29.6531C30.3653 29.495 30.3125 29.3368 30.2598 29.2051C30.128 28.9415 29.9172 28.7042 29.6536 28.5724C29.5218 28.4934 29.39 28.4407 29.2318 28.4143C29.1 28.3879 28.9419 28.3879 28.8101 28.3879C28.5202 28.4143 28.2566 28.4407 27.993 28.467L23.0112 29.0205L21.667 29.1787L21.2979 29.2314Z"
    fill="#211F1F" />
  <path
    d="M28.9154 40.0385C28.9945 40.0385 29.0736 40.0121 29.1263 39.9594C29.2317 39.9067 29.3108 39.8012 29.3372 39.6958C29.3635 39.6167 29.3635 39.5377 29.3635 39.4849C29.3635 39.195 29.1263 38.9578 28.8364 38.9578H28.1774H26.7013C26.4114 38.9578 26.1742 39.1686 26.1478 39.4586C26.1214 39.5904 26.1478 39.7222 26.2269 39.8276C26.2796 39.933 26.385 40.0121 26.4905 40.0648C26.5432 40.0912 26.5959 40.0912 26.675 40.0912C26.7277 40.0912 26.7804 40.0912 26.8331 40.0912C26.7277 40.0912 26.6222 40.0912 26.5168 40.0648C26.4114 40.0121 26.3323 39.933 26.2796 39.854C26.2269 39.7485 26.2005 39.6431 26.2269 39.5113C26.2532 39.2477 26.4641 39.0632 26.7277 39.0632H28.2038H28.8627C29.0472 39.0632 29.2054 39.1686 29.3108 39.3268C29.3372 39.4059 29.3635 39.4849 29.3635 39.564C29.3635 39.6431 29.3635 39.6958 29.3372 39.7749C29.3108 39.8803 29.2317 39.9857 29.1263 40.0385C29.0472 40.0121 28.9681 40.0385 28.9154 40.0385C28.8627 40.0648 28.8364 40.0648 28.8364 40.0648C28.8627 40.0648 28.8891 40.0648 28.9154 40.0385Z"
    fill="#211F1F" />
  <path
    d="M27.8084 38.8261C27.5184 38.8261 27.2549 38.8261 26.9649 38.8525C27.2549 38.8788 27.5184 38.8788 27.8084 38.8788C28.0983 38.8788 28.3619 38.8788 28.6519 38.8525C28.3619 38.8261 28.0983 38.7997 27.8084 38.8261Z"
    fill="white" />
  <path
    d="M22.9321 46.2855C23.5647 45.3102 24.0655 45.1521 24.8563 45.0203C25.5943 44.8885 26.3587 44.9148 27.1231 44.9676H27.3076C28.9682 45.0203 32.4212 44.9676 32.4475 44.9676V44.1768C32.4212 44.1768 28.9945 44.2295 27.3603 44.1768H27.1758C26.3851 44.1504 25.5679 44.1241 24.7508 44.2559C23.881 44.414 23.0903 44.6249 22.2995 45.8637C21.8778 46.5227 21.5878 48.1833 21.3769 51.0036L22.1677 51.0564C22.4049 47.6034 22.7476 46.5754 22.9321 46.2855Z"
    fill="#211F1F" />
  <path d="M32.8692 19.0571H71.4844V44.783H32.8692V19.0571Z" fill="currentColor" />
  <path
    d="M71.0364 19.637L33.2647 19.6106H33.2383V19.637C33.2383 28.388 33.2383 36.7172 33.2383 44.2558V44.2821H33.2647L71.01 44.2558L33.2647 44.2294L33.291 44.2558C33.291 36.7172 33.291 28.388 33.291 19.637L33.2647 19.6633L71.0364 19.637H70.9837C70.9837 34.6613 71.01 44.0976 71.01 44.2558C71.0364 44.0976 71.0364 34.6613 71.0364 19.637Z"
    fill="#211F1F" />
  <path
    d="M27.334 31.2612L27.2286 31.3403L26.8068 31.6039L25.4626 32.4737L24.0919 33.3435L23.6702 33.6071L23.5647 33.6862C23.5384 33.7126 23.5384 33.7126 23.5384 33.7126C23.5647 33.7126 23.5647 33.7126 23.5911 33.6862L23.6965 33.6335C23.802 33.5808 23.9338 33.5017 24.1183 33.3699C24.4873 33.159 24.9617 32.8427 25.4889 32.5264C26.0161 32.1838 26.4905 31.8675 26.8332 31.6302C26.9913 31.5248 27.1495 31.4194 27.2286 31.3403L27.334 31.2612C27.3604 31.2612 27.3867 31.2349 27.3867 31.2349C27.3604 31.2349 27.334 31.2612 27.334 31.2612Z"
    fill="#FAFAFA" />
  <path
    d="M25.647 31.7092L25.5416 31.7883L25.1198 32.0519L23.7755 32.9217L22.4049 33.7915L21.9832 34.0551L21.8777 34.1342L21.8514 34.1606C21.8777 34.1606 21.8777 34.1606 21.9041 34.1342L22.0095 34.0815C22.115 34.0288 22.2467 33.9497 22.4313 33.8443C22.8003 33.6334 23.2747 33.3171 23.8019 32.9744C24.3291 32.6318 24.8035 32.3155 25.1462 32.1046C25.3307 31.9992 25.4625 31.8937 25.5416 31.8147L25.647 31.7092C25.6733 31.7092 25.6997 31.6829 25.6997 31.6829C25.6733 31.6829 25.6733 31.6829 25.647 31.7092Z"
    fill="#FAFAFA" />
  <path
    d="M17.3968 34.2132C17.3441 33.9497 17.3177 33.6861 17.3177 33.3961C17.3177 33.1325 17.3705 32.869 17.4759 32.6054C17.5286 32.4999 17.5813 32.4209 17.6604 32.3154C17.634 32.3418 17.6077 32.3418 17.6077 32.3681C17.555 32.4209 17.5023 32.4999 17.4759 32.579C17.3441 32.8162 17.2914 33.1062 17.2914 33.3698C17.2914 33.6334 17.3177 33.9233 17.3968 34.1869C17.4232 34.2923 17.4495 34.3714 17.4495 34.4241C17.4495 34.4505 17.4759 34.4768 17.4759 34.5032C17.4232 34.4241 17.4232 34.3187 17.3968 34.2132Z"
    fill="#FAFAFA" />
  <path
    d="M13.4693 41.3827C13.4693 41.3036 13.4957 41.1982 13.4957 41.0927C13.522 40.8291 13.522 40.4865 13.5747 40.1175C13.6011 39.7484 13.6275 39.4058 13.6538 39.1422L13.6802 38.8523C13.6802 38.8259 13.6802 38.7732 13.6802 38.7468C13.6802 38.7732 13.6538 38.8259 13.6538 38.8523C13.6538 38.9313 13.6275 39.0104 13.6011 39.1422C13.5747 39.4058 13.522 39.7484 13.4957 40.1175C13.4693 40.4865 13.443 40.8555 13.443 41.0927C13.443 41.1982 13.443 41.3036 13.4693 41.3827C13.443 41.409 13.443 41.4617 13.443 41.4881C13.4693 41.4617 13.4693 41.409 13.4693 41.3827Z"
    fill="#FAFAFA" />
  <path
    d="M24.0655 43.4123C24.0127 43.4123 23.96 43.4387 23.9073 43.4387C23.8546 43.4651 23.7755 43.4651 23.6964 43.4914C23.5119 43.5441 23.3538 43.5968 23.1956 43.6759C22.9848 43.7814 22.8003 43.8868 22.6157 44.0186C22.4312 44.1504 22.2731 44.3085 22.1149 44.4667C21.9831 44.5985 21.8777 44.7566 21.7723 44.8884C21.7196 44.9411 21.6932 45.0202 21.6668 45.0729C21.6405 45.1256 21.6141 45.152 21.5878 45.2047C21.5614 45.2311 21.5351 45.2838 21.5351 45.3365C21.5351 45.3365 21.6141 45.1784 21.7986 44.9148C21.9041 44.7566 22.0095 44.6248 22.1413 44.493C22.4576 44.1767 22.8003 43.9131 23.1956 43.7023C23.3538 43.6232 23.5119 43.5441 23.6964 43.4914C23.9864 43.386 24.1709 43.3596 24.1709 43.3596C24.1445 43.386 24.0918 43.386 24.0655 43.4123Z"
    fill="#FAFAFA" />
  <path
    d="M33.8445 37.4289C33.8445 37.4026 33.8445 37.3499 33.8445 37.2972C33.8445 37.1917 33.8445 37.0336 33.8445 36.8227C33.8445 36.401 33.8445 35.8211 33.8445 35.083C33.8445 33.607 33.7918 31.5774 33.7654 29.3105C33.7391 27.0437 33.6863 25.0141 33.66 23.538C33.66 22.8 33.6336 22.1937 33.6336 21.7984C33.6336 21.5875 33.6336 21.4293 33.6336 21.3239C33.6336 21.2712 33.6336 21.2185 33.6336 21.1921C33.6336 21.1658 33.6336 21.1658 33.6336 21.1394C33.6336 21.1394 33.6336 21.1658 33.6336 21.1921V21.3239C33.6336 21.4293 33.6336 21.5875 33.6336 21.7984C33.6336 22.2201 33.6336 22.8 33.6336 23.538C33.66 25.0141 33.6863 27.0437 33.7127 29.3105C33.739 31.5774 33.7918 33.607 33.8181 35.083C33.8181 35.8211 33.8445 36.4273 33.8445 36.8227C33.8445 37.0336 33.8445 37.1917 33.8445 37.2972C33.8445 37.3499 33.8445 37.4026 33.8445 37.4289C33.8445 37.4553 33.8445 37.4553 33.8445 37.4817C33.8445 37.4553 33.8445 37.4289 33.8445 37.4289Z"
    fill="#FAFAFA" />
  <path
    d="M62.0216 54.6148C59.4304 54.6148 57.3298 52.5142 57.3298 49.923C57.3298 47.3318 59.4304 45.2312 62.0216 45.2312C64.6128 45.2312 66.7134 47.3318 66.7134 49.923C66.7134 52.5142 64.6128 54.6148 62.0216 54.6148Z"
    fill="#211F1F" />
  <path
    d="M66.7134 49.9755C66.687 52.585 64.552 54.6673 61.9425 54.6146C59.3594 54.5883 57.277 52.4532 57.3034 49.8438L66.7134 49.9755Z"
    fill="#211F1F" />
  <path
    d="M62.0744 46.628C63.8932 46.6544 65.3429 48.1568 65.3165 49.9756C65.2902 51.7943 63.7877 53.244 61.969 53.2177C60.1503 53.1913 58.7006 51.6889 58.7269 49.8701C58.7533 48.0514 60.2557 46.6017 62.0744 46.628Z"
    fill="#FAFAFA" />
  <path
    d="M62.0744 46.628C63.8932 46.6544 65.3429 48.1568 65.3165 49.9756L58.7269 49.8701C58.7533 48.0514 60.2557 46.6017 62.0744 46.628Z"
    fill="#E0E0E0" />
  <path
    d="M62.0479 47.9198C63.155 47.9461 64.0512 48.8423 64.0248 49.9494C63.9985 51.0564 63.1023 51.9526 61.9952 51.9262C60.8882 51.8999 59.992 51.0037 60.0183 49.8966C60.0447 48.7896 60.9409 47.8934 62.0479 47.9198Z"
    fill="#211F1F" />
  <path
    d="M56.8554 51.2934C56.8554 51.2934 56.3546 45.5209 62.048 45.5209C67.7415 45.5209 67.2143 51.1616 67.2143 51.1616H68.2159C68.2686 50.2918 68.4004 44.5457 62.048 44.5457C55.1421 44.5457 55.8538 51.2143 55.8538 51.2143C56.4337 51.2671 56.8554 51.2934 56.8554 51.2934Z"
    fill="#333333" />
  <path
    d="M59.4912 45.2312C59.4649 45.2312 59.4122 45.2576 59.3331 45.2576C59.1486 45.3103 58.9377 45.3894 58.7532 45.4684C57.5143 46.022 56.5918 47.1027 56.2491 48.4469C56.1964 48.6314 56.1701 48.8423 56.1437 49.0532C56.1437 49.1323 56.1437 49.185 56.1437 49.2113C56.1437 49.185 56.1437 49.1323 56.1701 49.0532C56.1964 48.8423 56.2491 48.6578 56.3019 48.4733C56.6445 47.1817 57.5407 46.101 58.7795 45.5211C58.9641 45.4421 59.1486 45.363 59.3331 45.3103C59.4122 45.2839 59.4649 45.2576 59.4912 45.2312Z"
    fill="#FAFAFA" />
  <path
    d="M24.1972 24.9352V20.9814C24.1972 20.6651 24.0654 20.3752 23.8282 20.1116C23.5909 19.848 23.2746 19.7426 22.9583 19.7426H19.3736C19.3736 19.479 19.2945 19.2681 19.11 19.0573C18.9255 18.8728 18.7146 18.7673 18.451 18.7673C18.1874 18.7673 17.9766 18.8728 17.7921 19.0573C17.6076 19.2418 17.5021 19.479 17.5021 19.7426V24.9616H20.3225V22.8793C20.3225 22.7211 20.3752 22.6157 20.4806 22.4839C20.5861 22.3784 20.7179 22.3257 20.876 22.3257C21.0342 22.3257 21.166 22.3784 21.245 22.4839C21.3505 22.5893 21.4032 22.7211 21.4032 22.8793V24.9616H24.1972V24.9352ZM27.6238 24.9352V18.2929C27.6238 18.0293 27.5447 17.7921 27.4129 17.5812C27.2548 17.3703 27.0703 17.2122 26.833 17.1067L21.1396 14.919C20.9287 14.8399 20.7179 14.8663 20.5333 14.9981C20.3488 15.1299 20.2698 15.3144 20.2698 15.5252V18.8464H23.1165C23.6436 18.8464 24.0917 19.0309 24.4608 19.3999C24.8298 19.769 25.0143 20.217 25.0143 20.7442V24.9089H27.6238V24.9352Z"
    fill="#9E9E9E" />
  <path
    d="M53.3496 51.8734H43.228C43.228 51.8734 44.335 47.1289 48.2888 47.1289C52.2426 47.1289 53.1651 50.8191 53.3496 51.8734Z"
    fill="currentColor" />
  <path opacity="0.2"
    d="M53.3496 51.8734H43.228C43.228 51.8734 44.335 47.1289 48.2888 47.1289C52.2426 47.1289 53.1651 50.8191 53.3496 51.8734Z"
    fill="black" />
  <path
    d="M23.9336 52.3742H13.8119C13.8119 52.3742 14.919 47.6296 18.8728 47.6296C22.8265 47.6296 23.7754 51.3198 23.9336 52.3742Z"
    fill="currentColor" />
  <path opacity="0.2"
    d="M23.9336 52.3742H13.8119C13.8119 52.3742 14.919 47.6296 18.8728 47.6296C22.8265 47.6296 23.7754 51.3198 23.9336 52.3742Z"
    fill="black" />
  <path
    d="M55.6692 43.2542C55.8801 43.5968 56.2755 47.3924 56.3018 47.5242C56.3282 47.656 56.6445 48.2359 56.6445 48.3413C56.6445 48.4468 56.7236 50.1601 56.6708 50.2655C56.5654 50.4764 56.46 50.6609 56.3282 50.8454C56.2755 50.9245 54.8258 52.137 54.6676 52.1633C54.5094 52.1897 53.0334 52.1897 53.007 52.1633C52.9807 52.137 52.7961 47.577 48.3152 47.577C43.8343 47.577 43.8606 52.4269 43.7816 52.4533C43.7025 52.4796 23.5382 52.9277 23.5382 52.9277C23.5382 52.1897 23.4855 47.7615 19.0573 47.7615C16.1842 47.7615 14.7345 50.1337 14.6818 51.8734C14.6554 52.6114 14.7872 53.4022 14.7345 53.4022C14.6027 53.4022 14.1546 53.4285 14.0755 53.4022C13.9965 53.3758 13.0476 52.7432 12.9685 52.7169C12.8894 52.6905 12.3359 52.6905 12.2041 52.6378C12.0723 52.6114 11.1498 51.7943 11.1234 51.768C11.097 51.7416 11.0707 51.4253 11.0707 51.3726C11.0707 51.3462 10.1218 50.1864 10.0691 50.0547C10.0163 49.9229 10.0163 48.8685 10.0163 48.7631C10.0163 48.6577 11.7296 45.89 12.125 45.5737C12.5204 45.2574 15.3671 44.2821 16.2106 44.124C17.0541 43.9658 21.6141 43.2805 21.7722 43.1751C21.9304 43.0697 29.7325 38.5887 31.1031 38.2461C32.2102 37.9825 44.915 38.3515 45.5739 38.3778C46.2329 38.4042 48.078 38.7469 48.2625 38.7469C48.447 38.7469 50.4766 38.7469 50.6084 38.7996C50.7402 38.8523 50.6084 39.3531 50.4502 39.4322C50.2394 39.5903 55.2738 42.6479 55.6692 43.2542Z"
    fill="currentColor" />
  <path
    d="M55.3792 42.9642C55.3265 43.0169 54.5357 43.0169 54.4566 42.9905C54.3776 42.9642 49.3695 39.6167 49.3695 39.5376C49.3695 39.4849 50.3184 39.5112 50.4238 39.5112C50.5292 39.5112 55.4583 42.8588 55.3792 42.9642Z"
    fill="#333333" />
  <path
    d="M49.7913 42.9116C49.5804 43.5442 23.301 44.7567 23.1692 44.4404C23.0638 44.2031 25.4097 42.3317 26.5167 41.6991C27.6238 41.0928 30.7604 39.3005 32.3156 39.1159C33.8707 38.9314 37.0074 38.9578 39.7223 39.0105C42.4372 39.0632 45.6266 39.1159 46.76 39.6168C47.7353 40.0121 49.9758 42.3844 49.7913 42.9116Z"
    fill="#211F1F" />
  <path
    d="M49.0532 42.5162C49.0005 42.7534 43.1753 43.386 36.3748 43.7023C29.5743 44.0186 26.2268 44.0713 26.1213 44.045C26.0423 44.0186 26.3586 42.1999 26.464 42.0417C26.5694 41.8836 31.4457 39.4059 32.2101 39.3268C32.9745 39.2477 37.1128 39.2477 39.1951 39.2741C41.2775 39.3004 45.6266 39.564 46.3646 39.854C47.0763 40.1439 49.1323 42.2789 49.0532 42.5162Z"
    fill="#333333" />
  <g opacity="0.1">
    <path
      d="M40.0649 39.3267L43.966 43.2277C44.6513 43.175 45.3103 43.0959 45.8901 43.0432L42.279 39.4321C41.4883 39.3794 40.7239 39.3267 40.0649 39.3267Z"
      fill="white" />
    <path
      d="M26.1739 43.6494L26.5693 44.0447C26.9647 44.0447 27.65 44.0447 28.6252 44.0184L26.5956 41.9888C26.5693 42.0151 26.5429 42.0151 26.5166 42.0415C26.4111 42.1469 26.2266 43.0958 26.1739 43.6494Z"
      fill="white" />
    <path
      d="M37.1655 39.2739L41.3038 43.4122C41.6465 43.3858 41.9628 43.3595 42.2791 43.3331L38.2198 39.2739C37.8772 39.2739 37.5345 39.2739 37.1655 39.2739Z"
      fill="white" />
    <path
      d="M28.2564 41.0927L31.1031 43.9394L32.1047 43.913L28.9417 40.75C28.7309 40.8554 28.4936 40.9872 28.2564 41.0927Z"
      fill="white" />
    <path d="M42.9644 39.4585L46.4701 42.9642L46.7336 42.9378L43.2807 39.4849L42.9644 39.4585Z" fill="white" />
    <path d="M27.6765 41.4089L30.2332 43.9657H30.5232L27.861 41.3035L27.6765 41.4089Z" fill="white" />
    <path d="M31.3403 39.643L35.4522 43.755H35.7422L31.5512 39.564L31.3403 39.643Z" fill="white" />
    <path
      d="M45.732 39.7219L48.6578 42.6477C48.7632 42.6214 48.8423 42.6214 48.895 42.595L46.0747 39.7746C45.9956 39.7746 45.8638 39.7483 45.732 39.7219Z"
      fill="white" />
  </g>
  <path
    d="M45.4158 39.6694C45.3895 39.6694 45.3631 39.6958 45.3895 39.7748C45.5212 40.1438 46.6019 42.2789 46.8655 42.7797C46.8919 42.8324 46.9446 42.8851 47.0237 42.8851L45.1522 43.096C45.2313 43.0696 45.2577 42.9906 45.2577 42.9378C45.2313 42.8324 44.546 40.302 44.3088 39.6958C44.2824 39.643 44.2297 39.5903 44.177 39.564C44.1506 39.564 44.4933 39.564 44.8359 39.6167C45.1522 39.6167 45.4158 39.6694 45.4158 39.6694Z"
    fill="#211F1F" />
  <path
    d="M42.9644 39.4585C42.9644 39.4585 42.938 39.4848 42.938 39.5376C42.938 40.1174 42.8589 43.096 42.9116 43.2541C42.9116 43.2805 42.938 43.2805 42.938 43.2805L42.5953 43.3068C42.6217 43.2805 42.6217 43.2541 42.6217 43.2277C42.6744 42.7269 42.7008 40.012 42.7008 39.5112C42.7008 39.4848 42.6744 39.4585 42.6744 39.4321L42.9644 39.4585Z"
    fill="#211F1F" />
  <path
    d="M37.1392 39.4057C37.0865 39.5375 37.0338 43.4122 37.0338 43.5176C37.0338 43.6231 37.1656 43.6758 37.1656 43.6758L34.9778 43.7812C34.9778 43.7812 35.1096 43.7285 35.136 43.6758C35.1623 43.5967 35.8476 39.4321 35.8476 39.3794C35.8476 39.3266 35.7422 39.2739 35.7422 39.2739H37.271C37.2183 39.3003 37.1656 39.3266 37.1392 39.4057Z"
    fill="#211F1F" />
  <path
    d="M55.2738 43.7813C55.5374 43.8076 56.1436 44.4402 56.1963 44.572C56.249 44.7038 56.4072 45.6 56.3281 45.7318C56.249 45.8636 55.9064 46.2063 55.6428 46.2063C55.3792 46.2063 54.0086 45.5736 53.9031 45.4682C53.7713 45.3628 53.6923 44.6775 53.8241 44.4666C53.9559 44.2557 54.9311 43.7286 55.2738 43.7813Z"
    fill="white" />
  <path
    d="M53.8767 45.4682C54.0085 45.5736 55.3528 46.2326 55.6164 46.2062C55.8273 46.2062 56.0645 45.9954 56.1963 45.8372C56.0381 45.9427 55.8536 46.0217 55.6428 45.9954C55.4846 45.969 54.2194 45.4419 54.0613 45.2837C53.9031 45.1255 53.9031 44.572 53.9031 44.4666C53.9031 44.3612 54.7466 43.834 54.7466 43.834C54.3512 43.9921 53.8767 44.2821 53.7713 44.4139C53.6659 44.7038 53.745 45.3628 53.8767 45.4682Z"
    fill="#EBEBEB" />
  <path
    d="M56.381 48.7894C56.46 48.8684 56.4864 49.422 56.4073 49.4747C56.3283 49.5274 55.8802 49.5274 55.7747 49.4747C55.6957 49.422 55.4584 49.0002 55.4848 48.8684C55.5111 48.7366 56.3019 48.7103 56.381 48.7894Z"
    fill="white" />
  <path
    d="M15.9207 45.679C15.6835 46.0744 13.9175 46.7597 13.2585 46.8652C12.8368 46.9442 11.4134 47.0233 11.3344 46.9442C11.2553 46.8652 11.9406 45.9163 12.3096 45.679C12.6786 45.4418 14.4447 44.8356 14.9982 44.8619C15.5517 44.9146 16.1843 45.2837 15.9207 45.679Z"
    fill="white" />
  <path
    d="M11.3606 46.9444C11.4397 47.0235 12.863 46.918 13.2848 46.8653C13.9437 46.7599 15.7097 46.0746 15.947 45.6792C16.1842 45.2838 15.5516 44.8884 15.0244 44.8621C14.9717 44.8621 14.9453 44.8621 14.8926 44.8621C15.3934 45.0466 15.4989 45.4419 15.1826 45.6528C14.8663 45.8637 13.891 46.3909 13.4956 46.5226C13.1266 46.6281 11.7032 46.8389 11.5978 46.7599C11.5451 46.7072 11.5187 46.6281 11.5451 46.549C11.3869 46.7599 11.3079 46.918 11.3606 46.9444Z"
    fill="#EBEBEB" />
  <g opacity="0.5">
    <path
      d="M49.6596 45.6C49.6596 45.8372 49.7386 46.0745 49.9232 46.2326C50.2658 46.6016 50.8457 46.6016 51.2147 46.259C51.5837 45.9163 51.5837 45.3364 51.2411 44.9674L51.2147 44.941C50.8457 44.5984 50.2922 44.5984 49.9232 44.9674C49.7386 45.1256 49.6596 45.3628 49.6596 45.6ZM49.6596 45.6C49.6596 45.3628 49.765 45.1519 49.9232 44.9674C50.0813 44.8093 50.3185 44.7302 50.5558 44.7302C50.793 44.7302 51.0039 44.8356 51.162 44.9938C51.4783 45.3364 51.4783 45.8636 51.162 46.2063C51.0039 46.3644 50.793 46.4698 50.5558 46.4698C50.3185 46.4698 50.1077 46.3908 49.9232 46.2326C49.765 46.0481 49.6596 45.8372 49.6596 45.6Z"
      fill="black" />
    <path
      d="M53.3497 48.2887C53.4287 48.0779 53.5078 47.8934 53.6133 47.6825C53.6923 47.4716 53.7714 47.2608 53.8505 47.0762C53.9296 46.8654 54.0086 46.6545 54.0613 46.4436C54.1404 46.2328 54.1931 46.0219 54.2722 45.811C54.1931 46.0219 54.1141 46.2064 54.0086 46.4173C53.9032 46.6281 53.8505 46.839 53.7714 47.0235C53.6923 47.208 53.6133 47.4453 53.5605 47.6561C53.4815 47.867 53.4024 48.0779 53.3497 48.2887Z"
      fill="black" />
    <path
      d="M56.46 48.2886C56.0119 48.2886 55.5901 48.2886 55.142 48.2886L53.8241 48.3149L52.5062 48.3413C52.0581 48.3676 51.6364 48.3677 51.1883 48.394C51.6364 48.394 52.0581 48.394 52.5062 48.394L53.8241 48.3677L55.142 48.3413C55.5901 48.3413 56.0119 48.3149 56.46 48.2886Z"
      fill="black" />
    <path
      d="M35.8477 44.0449L35.6895 45.0993L35.6368 45.6264C35.6368 45.7055 35.6104 45.8109 35.6104 45.89C35.6104 45.9691 35.6104 46.0745 35.6104 46.1536L35.6368 48.2886L35.6631 49.3693V49.8965V50.1601L35.6895 50.4237L35.7686 51.5044L35.8477 52.5587L35.7949 51.478L35.7422 50.3973L35.7159 50.1337V49.8701V49.343V48.2623L35.6895 46.1272C35.6895 46.0482 35.6895 45.9427 35.6895 45.8637C35.6895 45.7846 35.6895 45.6791 35.7159 45.6001L35.7686 45.0729L35.8477 44.0449Z"
      fill="black" />
    <path
      d="M24.0654 44.5458L23.8809 45.6265L23.8019 46.1536L23.7755 46.2854C23.7755 46.3382 23.7491 46.3645 23.7491 46.4172C23.7491 46.4963 23.7491 46.6017 23.7491 46.6808C23.7491 47.3925 23.7755 48.1305 23.8019 48.8422C23.8019 49.0267 23.8282 49.2112 23.8282 49.3957C23.8282 49.5802 23.8809 49.7648 23.9336 49.9229C24.0391 50.2656 24.1445 50.6082 24.2763 50.9509C24.4081 51.2935 24.5399 51.6362 24.698 51.9525L24.7771 52.0843C24.8035 52.1107 24.8298 52.1634 24.8562 52.1897C24.8826 52.2161 24.9089 52.2688 24.9353 52.2952L24.988 52.3479C25.0143 52.3742 25.0407 52.3742 25.0671 52.3742C25.2516 52.4006 25.4361 52.4006 25.6206 52.4006C27.0703 52.427 28.52 52.427 29.9434 52.4006C31.3931 52.4006 32.8428 52.3742 34.2662 52.3479C35.6895 52.3215 37.1656 52.2688 38.589 52.2161C39.3006 52.1897 40.0387 52.1634 40.7504 52.1107C40.8558 52.1107 40.9349 52.0843 41.0139 52.0579C41.0667 52.0316 41.093 52.0052 41.1457 52.0052C41.1985 51.9789 41.2248 51.9789 41.2775 51.9525C41.4357 51.8734 41.6202 51.8207 41.7783 51.7416C41.9365 51.6626 42.0946 51.5571 42.2264 51.4517C42.3582 51.3199 42.4637 51.1618 42.5427 51.0036C42.9381 50.3974 43.3335 49.7911 43.7289 49.1849C44.1242 48.5786 44.4933 47.9724 44.8886 47.3398C45.284 46.7335 45.653 46.1009 46.0221 45.4947L46.1538 45.2575L46.1802 45.2047L46.2066 45.1784V45.152L46.2329 45.0202C46.2593 44.8357 46.2593 44.6512 46.2593 44.4667C46.2593 44.414 46.2593 44.3876 46.2593 44.3349C46.2593 44.2822 46.2329 44.2558 46.2329 44.2031C46.2066 44.124 46.1802 44.045 46.1538 43.9395C46.1802 44.0186 46.2066 44.0977 46.2329 44.2031C46.2329 44.2558 46.2593 44.2822 46.2593 44.3349C46.2593 44.3876 46.2593 44.414 46.2593 44.4667C46.2593 44.6512 46.2329 44.8357 46.2066 44.9939L46.1802 45.1257V45.152L46.1538 45.1784C46.1538 45.2047 46.1275 45.2047 46.1275 45.2311L45.9957 45.4683C45.6267 46.0746 45.2313 46.7072 44.8359 47.3134C44.0715 48.5259 43.3071 49.7648 42.49 50.9509C42.3846 51.109 42.2791 51.2408 42.1737 51.3726C42.0419 51.4781 41.8838 51.5835 41.7256 51.6626C41.5675 51.7416 41.4093 51.7944 41.2248 51.8734C41.1721 51.8998 41.1457 51.8998 41.093 51.9261C41.0667 51.9525 41.0139 51.9789 40.9876 51.9789C40.9085 52.0052 40.8031 52.0052 40.724 52.0052C40.0123 52.0579 39.2743 52.0843 38.5626 52.1107C37.1129 52.1634 35.6632 52.1897 34.2398 52.2161C32.7901 52.2425 31.3404 52.2688 29.917 52.2952C28.4937 52.3215 27.0176 52.3215 25.5942 52.2952C25.4097 52.2952 25.2252 52.2952 25.0671 52.2688C25.0407 52.2688 25.0143 52.2688 25.0143 52.2688L24.9616 52.2161C24.9353 52.1897 24.9089 52.137 24.8826 52.1107C24.8562 52.0843 24.8298 52.0316 24.8035 52.0052L24.7244 51.8998C24.5663 51.5835 24.4081 51.2408 24.2763 50.8982C24.1445 50.5555 24.0391 50.2128 23.9336 49.8702C23.8809 49.712 23.8282 49.5275 23.8282 49.343L23.8019 48.7895C23.7755 48.0778 23.7491 47.3398 23.7491 46.6281C23.7491 46.549 23.7491 46.4436 23.7491 46.3645C23.7491 46.3118 23.7491 46.2854 23.7755 46.2327L23.8019 46.1009L23.8809 45.5738L24.0654 44.5458Z"
      fill="black" />
    <path
      d="M14.7608 46.3645C14.9454 46.5227 15.1562 46.6544 15.3671 46.7862C15.578 46.918 15.7888 47.0498 15.9997 47.1816C16.2106 47.3134 16.4214 47.4188 16.6323 47.5506C16.8432 47.6824 17.054 47.7879 17.2913 47.8933C17.0804 47.7615 16.8695 47.6297 16.6587 47.4979L16.0261 47.1289L15.3934 46.7599L15.0771 46.5754C14.9717 46.5227 14.8663 46.4436 14.7608 46.3645Z"
      fill="black" />
    <path
      d="M45.1785 48.4995L42.3845 48.5522L39.5641 48.6577L33.9234 48.8158L28.309 49.0267L25.4887 49.1058L22.6683 49.2375L25.4887 49.1585L28.309 49.0794L33.9234 48.8949L39.5641 48.7104L42.3845 48.6049L45.1785 48.4995Z"
      fill="black" />
    <path
      d="M45.3631 44.4668H45.4685H45.4949C45.4949 44.4668 45.4949 44.4668 45.4949 44.4931C45.4949 44.5195 45.4949 44.5195 45.4949 44.5459C45.4949 44.6249 45.4949 44.6777 45.4949 44.7567C45.4949 44.7831 45.4949 44.8358 45.4949 44.8622C45.4949 44.8885 45.4949 44.8885 45.4949 44.9149H45.4685C45.3895 44.9149 45.3104 44.9149 45.2577 44.9149C44.9677 44.9149 44.6778 44.9412 44.3879 44.9412H43.9398H43.7289H43.6235V44.9149C43.6235 44.8885 43.6235 44.8885 43.6235 44.8622C43.6235 44.7831 43.6235 44.7304 43.6235 44.6513C43.6235 44.6249 43.6235 44.5722 43.6235 44.5459C43.6235 44.5195 43.6235 44.5195 43.6235 44.4931C43.6235 44.4931 43.6498 44.4931 43.6762 44.4931C43.808 44.4668 43.9661 44.4668 44.1243 44.4404C43.9661 44.4404 43.8343 44.4404 43.6762 44.4404C43.6498 44.4404 43.6235 44.4404 43.6235 44.4668C43.5971 44.4931 43.5971 44.4931 43.5971 44.5195C43.5971 44.5459 43.5707 44.5986 43.5707 44.6249C43.5707 44.704 43.5707 44.7831 43.5707 44.8622C43.5707 44.8885 43.5707 44.8885 43.5707 44.9149C43.5707 44.9412 43.5971 44.9676 43.6235 44.994H43.6498H43.6762H43.7025H43.9661H44.4142C44.7042 44.994 44.9941 44.9676 45.284 44.9412C45.3631 44.9412 45.4422 44.9412 45.4949 44.9149H45.5213C45.5213 44.9149 45.5213 44.9149 45.5476 44.9149C45.5476 44.9149 45.5476 44.9149 45.574 44.8885C45.574 44.8622 45.574 44.8622 45.6003 44.8358C45.6003 44.8094 45.6003 44.7567 45.6003 44.7304C45.6003 44.6513 45.6003 44.5722 45.574 44.5195C45.574 44.4931 45.574 44.4931 45.5476 44.4668C45.5476 44.4668 45.5476 44.4668 45.5476 44.4404C45.5476 44.4404 45.5476 44.4404 45.5213 44.4404H45.4949L45.3631 44.4668Z"
      fill="black" />
    <path
      d="M34.5824 44.7302H34.6878H34.7141C34.7141 44.7302 34.7141 44.7302 34.7141 44.7566C34.7141 44.7829 34.7141 44.7829 34.7141 44.8093C34.7141 44.8884 34.7141 44.9411 34.7141 45.0202C34.7141 45.0465 34.7141 45.0992 34.7141 45.1256C34.7141 45.1519 34.7141 45.1519 34.7141 45.1783H34.6878C34.6087 45.1783 34.5296 45.1783 34.4769 45.1783C34.187 45.1783 33.897 45.2047 33.6071 45.2047H33.159H32.9481H32.8691V45.1783C32.8691 45.1519 32.8691 45.1519 32.8691 45.1256C32.8691 45.0465 32.8691 44.9938 32.8691 44.9147C32.8691 44.8884 32.8691 44.8356 32.8691 44.8093C32.8691 44.7829 32.8691 44.7829 32.8691 44.7566C32.8691 44.7566 32.8954 44.7566 32.9218 44.7566C33.0536 44.7302 33.2117 44.7302 33.3699 44.7039C33.2117 44.7039 33.0799 44.7039 32.9218 44.7039C32.8954 44.7039 32.8691 44.7039 32.8691 44.7302C32.8427 44.7566 32.8427 44.7566 32.8427 44.7829C32.8427 44.8093 32.8427 44.862 32.8163 44.8884C32.8163 44.9674 32.8163 45.0465 32.8163 45.1256C32.8163 45.1519 32.8163 45.1519 32.8163 45.1783C32.8163 45.2047 32.8163 45.231 32.8691 45.2574H32.8954H32.9218H32.9481H33.2117H33.6598C33.9497 45.2574 34.2397 45.231 34.5296 45.2047C34.6087 45.2047 34.6878 45.2047 34.7405 45.1783H34.7669C34.7669 45.1783 34.7669 45.1783 34.7932 45.1783C34.7932 45.1783 34.7932 45.1783 34.8196 45.152C34.8196 45.1256 34.8196 45.1256 34.8196 45.0992C34.8196 45.0729 34.8196 45.0202 34.8196 44.9938C34.8196 44.9147 34.8196 44.8356 34.7932 44.7829C34.7932 44.7566 34.7932 44.7566 34.7669 44.7302C34.7669 44.7302 34.7669 44.7302 34.7669 44.7039C34.7669 44.7039 34.7669 44.7039 34.7405 44.7039H34.7141L34.5824 44.7302Z"
      fill="black" />
  </g>
  <path
    d="M48.3678 56.2753C46.0532 56.2753 44.1768 54.3989 44.1768 52.0843C44.1768 49.7697 46.0532 47.8933 48.3678 47.8933C50.6825 47.8933 52.5588 49.7697 52.5588 52.0843C52.5588 54.3989 50.6825 56.2753 48.3678 56.2753Z"
    fill="#211F1F" />
  <path
    d="M48.368 55.1418C46.6793 55.1418 45.3104 53.7729 45.3104 52.0842C45.3104 50.3955 46.6793 49.0266 48.368 49.0266C50.0566 49.0266 51.4255 50.3955 51.4255 52.0842C51.4255 53.7729 50.0566 55.1418 48.368 55.1418Z"
    fill="#DBDBDB" />
  <path
    d="M48.3679 54.9046C46.8102 54.9046 45.5475 53.6419 45.5475 52.0843C45.5475 50.5266 46.8102 49.2639 48.3679 49.2639C49.9255 49.2639 51.1882 50.5266 51.1882 52.0843C51.1882 53.6419 49.9255 54.9046 48.3679 54.9046Z"
    fill="#A6A6A6" />
  <path
    d="M47.9197 51.399H48.8159C48.526 50.9772 49.554 49.4484 49.554 49.4484L49.0795 49.2903C48.7632 49.8175 48.6051 49.9756 48.3678 49.9756C48.1306 49.9756 47.9461 49.8175 47.6561 49.2903L47.1817 49.4484C47.1817 49.4484 48.2097 50.9509 47.9197 51.399Z"
    fill="#DBDBDB" />
  <path
    d="M48.8951 51.4517L49.1586 52.2952C49.4749 51.8734 51.241 52.4006 51.241 52.4006V51.8998C50.6347 51.768 50.4502 51.6626 50.3711 51.4254C50.2921 51.1881 50.3975 50.9773 50.7929 50.5292L50.5029 50.1338C50.5029 50.1338 49.3959 51.5835 48.8951 51.4517Z"
    fill="#DBDBDB" />
  <path
    d="M49.1324 52.3743L48.4207 52.9014C48.9215 53.0596 48.9479 54.9047 48.9479 54.9047L49.4224 54.7465C49.3696 54.1403 49.396 53.9294 49.6069 53.7713C49.8177 53.6131 50.0286 53.6658 50.5821 53.9031L50.8721 53.5077C50.8721 53.5077 49.1324 52.9014 49.1324 52.3743Z"
    fill="#DBDBDB" />
  <path
    d="M48.3152 52.9014L47.6035 52.3743C47.6035 52.9014 45.8638 53.5077 45.8638 53.5077L46.1538 53.9031C46.7073 53.6658 46.9445 53.6131 47.1291 53.7713C47.3399 53.9294 47.3663 54.1403 47.3136 54.7465L47.788 54.9047C47.788 54.9047 47.8144 53.0596 48.3152 52.9014Z"
    fill="#DBDBDB" />
  <path
    d="M47.5772 52.2952L47.8408 51.4517C47.34 51.6099 46.233 50.1338 46.233 50.1338L45.943 50.5292C46.3647 50.9773 46.4438 51.1881 46.3647 51.4254C46.2857 51.6626 46.1012 51.768 45.4949 51.8998V52.4006C45.4949 52.4006 47.2609 51.8734 47.5772 52.2952Z"
    fill="#DBDBDB" />
  <path
    d="M48.3679 52.9013C47.9167 52.9013 47.5508 52.5355 47.5508 52.0842C47.5508 51.6329 47.9167 51.2671 48.3679 51.2671C48.8192 51.2671 49.1851 51.6329 49.1851 52.0842C49.1851 52.5355 48.8192 52.9013 48.3679 52.9013Z"
    fill="#DBDBDB" />
  <path
    d="M18.2294 55.9637C15.9548 55.5352 14.4582 53.344 14.8867 51.0694C15.3151 48.7948 17.5063 47.2983 19.7809 47.7267C22.0555 48.1551 23.5521 50.3464 23.1237 52.6209C22.6952 54.8955 20.504 56.3921 18.2294 55.9637Z"
    fill="#211F1F" />
  <path
    d="M19.0574 55.1681C17.3688 55.1681 15.9998 53.7992 15.9998 52.1106C15.9998 50.4219 17.3688 49.053 19.0574 49.053C20.7461 49.053 22.115 50.4219 22.115 52.1106C22.115 53.7992 20.7461 55.1681 19.0574 55.1681Z"
    fill="#DBDBDB" />
  <path
    d="M19.0573 54.9046C17.4997 54.9046 16.237 53.6419 16.237 52.0843C16.237 50.5266 17.4997 49.2639 19.0573 49.2639C20.615 49.2639 21.8777 50.5266 21.8777 52.0843C21.8777 53.6419 20.615 54.9046 19.0573 54.9046Z"
    fill="#A6A6A6" />
  <path
    d="M18.6092 51.399H19.5054C19.2154 50.9772 20.2434 49.4484 20.2434 49.4484L19.769 49.2903C19.4527 49.8175 19.2945 49.9756 19.0573 49.9756C18.7937 49.9756 18.6355 49.8175 18.3456 49.2903L17.8711 49.4484C17.8711 49.4484 18.8991 50.9509 18.6092 51.399Z"
    fill="#DBDBDB" />
  <path
    d="M19.5581 51.4517L19.8217 52.2952C20.138 51.8734 21.9041 52.4006 21.9041 52.4006V51.8998C21.2978 51.768 21.1133 51.6626 21.0342 51.4254C20.9551 51.1881 21.0606 50.9773 21.456 50.5292L21.166 50.1338C21.1924 50.1338 20.0853 51.5835 19.5581 51.4517Z"
    fill="#DBDBDB" />
  <path
    d="M19.8216 52.3743L19.1099 52.9014C19.6108 53.0596 19.6371 54.9047 19.6371 54.9047L20.1116 54.7465C20.0588 54.1403 20.0852 53.9294 20.2961 53.7713C20.5069 53.6131 20.7178 53.6658 21.2713 53.9031L21.5613 53.5077C21.5613 53.5077 19.8216 52.9014 19.8216 52.3743Z"
    fill="#DBDBDB" />
  <path
    d="M19.0046 52.9014L18.293 52.3743C18.293 52.9014 16.5533 53.5077 16.5533 53.5077L16.8432 53.9031C17.3968 53.6658 17.634 53.6131 17.8185 53.7713C18.0294 53.9294 18.0557 54.1403 18.003 54.7465L18.4775 54.9047C18.4775 54.9047 18.5038 53.0596 19.0046 52.9014Z"
    fill="#DBDBDB" />
  <path
    d="M18.2664 52.2952L18.53 51.4517C18.0292 51.6099 16.9222 50.1338 16.9222 50.1338L16.6322 50.5292C17.054 50.9773 17.133 51.1881 17.054 51.4254C16.9749 51.6626 16.7904 51.768 16.1841 51.8998V52.4006C16.1841 52.4006 17.9501 51.8734 18.2664 52.2952Z"
    fill="#DBDBDB" />
  <path
    d="M19.0574 52.9013C18.6061 52.9013 18.2403 52.5355 18.2403 52.0842C18.2403 51.6329 18.6061 51.2671 19.0574 51.2671C19.5087 51.2671 19.8745 51.6329 19.8745 52.0842C19.8745 52.5355 19.5087 52.9013 19.0574 52.9013Z"
    fill="#DBDBDB" />
  <path
    d="M27.1231 42.4635C27.2812 42.6216 27.2549 43.9923 27.1494 44.0977C27.044 44.2032 25.5152 44.3086 25.4098 43.4651C25.278 42.6216 26.8859 42.2263 27.1231 42.4635Z"
    fill="currentColor" />
  <path
    d="M21.5876 43.2805H22.8265C26.0422 41.1718 30.4441 39.0632 30.4441 39.0632L29.7061 38.8787C27.0438 40.1702 21.8776 43.1224 21.7458 43.2278C21.6931 43.2542 21.6404 43.2805 21.5876 43.2805Z"
    fill="#333333" />
  <g opacity="0.5">
    <path
      d="M53.3496 49.3692C53.086 48.9475 52.7697 48.5521 52.4007 48.2094C52.0317 47.8668 51.6363 47.5768 51.1882 47.3396C50.3184 46.8652 49.3168 46.6279 48.3151 46.6279L47.9461 46.6543H47.7616C47.7089 46.6543 47.6298 46.6806 47.5771 46.6806L47.2081 46.7334C47.0763 46.7597 46.9709 46.7861 46.8391 46.8124C46.3646 46.9442 45.8902 47.1287 45.4684 47.3923C45.0467 47.6559 44.6777 47.9986 44.3614 48.394C44.0451 48.7893 43.7815 49.2111 43.5706 49.6592C43.8078 49.2111 44.0714 48.8157 44.3877 48.4203C44.704 48.0513 45.073 47.7086 45.4948 47.4714C46.3383 46.9442 47.3399 46.7334 48.3151 46.7334C48.816 46.7334 49.2904 46.7861 49.7912 46.8915C50.2657 46.9969 50.7401 47.1815 51.1619 47.4187C51.6099 47.6559 52.0053 47.9459 52.3743 48.2622C52.7434 48.5785 53.0597 48.9475 53.3496 49.3692Z"
      fill="white" />
    <path
      d="M23.9863 49.3692C23.7227 48.9475 23.4064 48.5521 23.0374 48.2094C22.6684 47.8668 22.273 47.5768 21.8249 47.3396C20.9287 46.8652 19.9535 46.6279 18.9519 46.6279L18.5828 46.6543H18.3983C18.3456 46.6543 18.2665 46.6806 18.2138 46.6806L17.8448 46.7334C17.713 46.7597 17.6076 46.7861 17.4758 46.8124C17.0013 46.9442 16.5269 47.1287 16.1051 47.3923C15.6834 47.6559 15.3144 47.9986 14.9981 48.394C14.6818 48.7893 14.4182 49.2111 14.2073 49.6592C14.4446 49.2374 14.7081 48.7893 15.0244 48.4203C15.3407 48.0513 15.7098 47.7086 16.1315 47.4714C16.975 46.9442 17.9766 46.7334 18.9519 46.7334C19.4527 46.7334 19.9271 46.7861 20.4279 46.8915C21.4032 47.1287 22.273 47.6032 23.0111 48.2622C23.3801 48.5785 23.7227 48.9475 23.9863 49.3692Z"
      fill="white" />
    <path
      d="M52.7434 42.4106C52.0844 41.9098 51.4255 41.409 50.7665 40.9082C50.1076 40.4074 49.4222 39.9329 48.7369 39.4848C48.6578 39.4321 48.5524 39.3794 48.4733 39.3267C48.4206 39.3003 48.3943 39.274 48.3415 39.2476C48.2888 39.2212 48.2361 39.1949 48.1834 39.1949C47.9725 39.1422 47.788 39.0895 47.5771 39.0367C47.1818 38.9313 46.76 38.8522 46.3647 38.7731C45.9429 38.6941 45.5475 38.6414 45.1258 38.6414C44.7041 38.6414 44.3087 38.6414 43.887 38.6414C44.3087 38.6414 44.7041 38.6414 45.1258 38.6677C45.5475 38.6941 45.9429 38.7468 46.3647 38.8259C46.76 38.9049 47.1818 39.0104 47.5771 39.1158C47.788 39.1685 47.9725 39.2212 48.1834 39.274C48.2361 39.274 48.2888 39.3003 48.3152 39.3267C48.3679 39.353 48.3943 39.3794 48.447 39.4058C48.5261 39.4585 48.6315 39.5112 48.7106 39.5639C49.3959 40.012 50.0812 40.5128 50.7665 40.9873L52.7434 42.4106Z"
      fill="white" />
  </g>
  <path opacity="0.1"
    d="M20.2434 47.8933C23.4592 48.6313 23.5119 52.2688 23.5119 52.9278C23.5119 52.9278 43.6761 52.4797 43.7552 52.4533C43.8343 52.427 43.8079 49.264 46.1802 48.0515C45.0995 48.5786 43.7288 49.8702 43.228 51.7416C43.1753 51.9525 40.2232 52.2425 35.2151 52.4006C30.2069 52.5588 25.8314 52.4533 24.988 52.3479C24.1445 52.2161 23.1956 47.8933 20.2434 47.8933Z"
    fill="black" />
  <path opacity="0.1"
    d="M10.0426 50.1073C10.0953 50.2391 11.0178 51.3725 11.0442 51.4252C11.0442 51.4516 11.0706 51.7679 11.0969 51.8206C11.1233 51.847 12.0458 52.6641 12.1776 52.6904C12.3094 52.7168 12.8629 52.7432 12.942 52.7695C13.0211 52.7959 13.97 53.4021 14.0491 53.4548C14.1281 53.4812 14.5762 53.4548 14.708 53.4548C14.7608 53.4548 14.629 52.6641 14.6553 51.926C14.6817 50.6608 15.4724 49.053 17.0012 48.2886C16.1841 48.4731 14.7871 49.6065 14.2336 50.7663C13.6801 51.926 13.8118 52.0051 13.6801 52.1633C13.5483 52.2951 13.1265 52.0315 12.9157 51.9788C12.7048 51.926 12.0722 51.8997 11.8086 51.8733C11.5714 51.8206 11.5187 51.3725 11.3605 51.2671C11.2024 51.1616 10.3062 50.3973 10.0426 50.1073Z"
    fill="black" />
</svg>