<svg width="100%" height="100%" viewBox="0 0 86 69" fill="none" xmlns="http://www.w3.org/2000/svg">
  <path
    d="M24.5188 57.7798L15.0334 64.1314C13.4665 65.1667 11.368 64.747 10.3327 63.208L3.95314 53.7226C2.91786 52.1557 3.33757 50.0572 4.8765 49.0219L14.3619 42.6703C15.9288 41.635 18.0273 42.0547 19.0626 43.5937L25.4142 53.0791C26.5054 54.646 26.0857 56.7445 24.5188 57.7798Z"
    fill="#E0E0E0" />
  <path
    d="M14.8096 53.8905C14.2221 54.2822 13.6065 54.4221 12.9909 54.3102C12.3753 54.1983 11.8717 53.8346 11.48 53.247C11.0882 52.6594 10.9483 52.0438 11.0603 51.4282C11.1722 50.8127 11.5359 50.309 12.1235 49.9173C12.7111 49.5255 13.3267 49.3856 13.9423 49.4976C14.5578 49.6095 15.0615 49.9732 15.4812 50.5608C15.8729 51.1484 16.0128 51.764 15.8729 52.3796C15.761 52.9672 15.3972 53.4708 14.8096 53.8905ZM12.935 59.7105L12.7391 59.4307C12.5152 59.0949 12.4033 58.7311 12.4033 58.3674C12.4033 58.0037 12.5152 57.6399 12.7111 57.3321C13.0749 56.7445 13.4666 56.2129 13.8863 55.7652C14.306 55.3175 14.7537 54.9258 15.2573 54.59C15.761 54.2543 16.3206 53.9745 16.8802 53.7786C17.4398 53.5827 18.0834 53.4148 18.7549 53.3029C19.1186 53.219 19.4824 53.247 19.8461 53.3869C20.1819 53.5268 20.4897 53.7786 20.7135 54.1144L20.9094 54.3942C21.1053 54.7019 21.1612 55.0097 21.1053 55.3455C21.0213 55.6813 20.8534 55.9611 20.5457 56.1569L14.6977 60.0742C14.3899 60.2701 14.0822 60.326 13.7464 60.2701C13.4106 60.1861 13.1308 59.9903 12.935 59.7105Z"
    fill="#9E9E9E" />
  <path
    d="M49.3935 20.2579L39.6562 22.1326C38.0613 22.4404 36.5224 21.4051 36.2146 19.8102L34.312 10.073C34.0042 8.4781 35.0395 6.93917 36.6343 6.63139L46.3716 4.75669C47.9665 4.44891 49.5054 5.48419 49.8132 7.07908L51.6879 16.8163C52.0236 18.4112 50.9884 19.9501 49.3935 20.2579Z"
    fill="#E0E0E0" />
  <path
    d="M41.5869 17.6557C41.2511 17.7117 40.9154 17.6557 40.6356 17.4878C40.3278 17.32 40.1599 17.0681 40.076 16.7044L39.7122 16.7883C39.5723 16.8163 39.4604 16.7883 39.3485 16.7044C39.2365 16.6204 39.1806 16.5365 39.1526 16.3966L38.3132 12.0876C38.2572 11.8358 38.3132 11.6119 38.4531 11.3881C38.593 11.1642 38.7889 11.0243 39.0407 10.9963L43.9653 10.045C44.2171 9.98905 44.4409 10.045 44.6648 10.1849C44.8886 10.3248 45.0285 10.5207 45.0565 10.7725L45.1684 11.4161L45.6721 11.3041C45.812 11.2762 45.9519 11.2762 46.1198 11.3041C46.2597 11.3321 46.3996 11.4161 46.4835 11.5L48.0224 12.871C48.0504 12.899 48.0784 12.955 48.1064 12.983C48.1344 13.0389 48.1623 13.0669 48.1623 13.1229L48.4421 14.5219C48.4701 14.6618 48.4421 14.7737 48.3582 14.8856C48.2743 14.9976 48.1903 15.0535 48.0504 15.0815L47.6867 15.1654C47.7426 15.5012 47.6587 15.809 47.4628 16.0888C47.267 16.3686 46.9872 16.5365 46.6514 16.5925C46.3156 16.6484 45.9799 16.5925 45.7001 16.4246C45.3923 16.2567 45.2244 16.0049 45.1404 15.6411L42.6222 16.1168C42.6782 16.4526 42.5942 16.7603 42.3983 17.0401C42.2025 17.4039 41.9227 17.5718 41.5869 17.6557ZM41.447 16.9562C41.6149 16.9282 41.7548 16.8443 41.8387 16.7044C41.9227 16.5645 41.9507 16.3966 41.9227 16.2567C41.8947 16.0888 41.8108 15.9769 41.6709 15.865C41.531 15.753 41.3631 15.7251 41.2232 15.753C41.0553 15.781 40.9154 15.865 40.8314 16.0049C40.7475 16.1448 40.6915 16.3127 40.7475 16.4526C40.7755 16.6204 40.8594 16.7324 40.9993 16.8443C41.1392 16.9562 41.2791 16.9842 41.447 16.9562ZM46.5395 15.9769C46.7074 15.9489 46.8473 15.865 46.9312 15.7251C47.0151 15.5852 47.0431 15.4173 47.0151 15.2774C46.9872 15.1095 46.9032 14.9976 46.7633 14.8856C46.6234 14.7737 46.4555 14.7457 46.3156 14.7737C46.1477 14.8017 46.0078 14.8856 45.9239 15.0255C45.84 15.1654 45.784 15.3333 45.84 15.4732C45.8679 15.6411 45.9519 15.753 46.0918 15.865C46.2037 15.9769 46.3716 16.0049 46.5395 15.9769ZM45.6721 13.8783L47.3229 13.5706L45.8959 12.2835L45.3923 12.3954L45.6721 13.8783Z"
    fill="#9E9E9E" />
  <path
    d="M52.3594 18.663C52.6952 17.7117 53.6185 17.0681 54.6258 17.0681H70.0431C71.0504 17.0401 71.8898 17.8236 71.9458 18.8309C71.9458 18.9428 71.9458 19.0547 71.9178 19.1667L67.9446 52.6034C67.7767 53.7786 66.7694 54.646 65.5662 54.674H16.6003C15.593 54.7019 14.7536 53.9185 14.7256 52.9112C14.7256 52.7993 14.7256 52.6873 14.7536 52.6034L18.1112 24.483C18.2791 23.3078 19.2864 22.4404 20.4896 22.4124H47.155C49.4494 22.3844 51.548 20.8735 52.3594 18.663Z"
    fill="currentColor" />
  <path d="M15.593 53.135H66.7694L69.7074 18.691H18.531L15.593 53.135Z" fill="#F0F0F0" />
  <path d="M15.593 53.135H66.7694L68.8959 18.691H18.531L15.593 53.135Z" fill="#E0E0E0" />
  <path d="M15.593 53.135H66.7694L68.5322 17.5998H17.3558L15.593 53.135Z" fill="#F0F0F0" />
  <path d="M15.593 53.135H66.7694L67.4689 17.5998H17.3558L15.593 53.135Z" fill="#E0E0E0" />
  <path d="M15.593 53.135H66.7694L67.0772 16.6204H15.9008L15.593 53.135Z" fill="#F0F0F0" />
  <path d="M15.5928 53.135H66.7692L65.7339 17.32H14.8933L15.5928 53.135Z" fill="#E0E0E0" />
  <path d="M15.593 53.135H66.7694L65.2584 17.5998H14.082L15.593 53.135Z" fill="#F0F0F0" />
  <path d="M15.5929 53.135H66.7692L64.3629 18.1314H13.1865L15.5929 53.135Z" fill="#E0E0E0" />
  <path d="M15.593 53.135H66.7694L63.9713 18.4392H12.7949L15.593 53.135Z" fill="#F0F0F0" />
  <path
    d="M41.2231 20.8455C41.2231 19.9221 41.9786 19.1946 42.9019 19.1946C42.9299 19.1946 42.9299 19.1946 42.9579 19.1946H58.4031C59.6343 19.2506 60.6696 20.118 60.9494 21.3212L67.0491 52.5474C67.273 53.7226 66.5175 54.674 65.3423 54.674H16.3764C15.2012 54.674 14.054 53.7226 13.8301 52.5474L8.79365 26.8054C8.5698 25.6302 9.32528 24.6788 10.5005 24.6788H37.1659C39.4603 24.6788 41.1391 23.0839 41.2231 20.8455Z"
    fill="currentColor" />
  <path opacity="0.2"
    d="M41.2231 20.8455C41.2231 19.9221 41.9786 19.1946 42.9019 19.1946C42.9299 19.1946 42.9299 19.1946 42.9579 19.1946H58.4031C59.6343 19.2506 60.6696 20.118 60.9494 21.3212L67.0491 52.5474C67.273 53.7226 66.5175 54.674 65.3423 54.674H16.3764C15.2012 54.674 14.054 53.7226 13.8301 52.5474L8.79365 26.8054C8.5698 25.6302 9.32528 24.6788 10.5005 24.6788H37.1659C39.4603 24.6788 41.1391 23.0839 41.2231 20.8455Z"
    fill="currentColor" />
  <path
    d="M69.9592 64.1873L55.1295 60.6898C52.6952 60.1022 51.1843 57.6679 51.7718 55.2616L55.2694 40.4319C55.857 37.9976 58.2913 36.4866 60.6976 37.0742L75.5273 40.5718C77.9616 41.1594 79.4726 43.5937 78.885 46L75.3874 60.8297C74.8278 63.264 72.3935 64.747 69.9592 64.1873Z"
    fill="#E0E0E0" />
  <path
    d="M64.1673 56.4088L65.1467 50.7847L60.7817 47.1752L59.9423 52.0158C59.9143 52.2397 59.9143 52.4635 59.9982 52.6594C60.0822 52.8552 60.1941 53.0511 60.39 53.219L64.1673 56.4088ZM64.9788 56.5487L69.6235 54.8698C69.8474 54.7859 70.0432 54.646 70.1831 54.4781C70.3231 54.3102 70.407 54.1144 70.463 53.8905L71.3304 48.9939L65.9861 50.9526L64.9788 56.5487ZM68.7561 49.0499L70.9666 48.2664L67.2452 45.1606C67.0493 45.0207 66.8535 44.9367 66.6296 44.8808C66.4058 44.8528 66.2099 44.8528 65.9861 44.9367L64.4751 45.4964L68.7561 49.0499ZM65.6503 50.1691L67.8048 49.3856L63.4958 45.8041L61.3693 46.6156L65.6503 50.1691Z"
    fill="#9E9E9E" />
</svg>