<?xml version="1.0" encoding="UTF-8"?>
<svg id="Calque_1" xmlns="http://www.w3.org/2000/svg" viewBox="0 0 611.47 611.69">
  <defs>
    <style>
      .cls-1 {
        fill: #211f1f;
      }

      .cls-1,
      .cls-2 {
        stroke-width: 0px;
      }

      .cls-2 {
        fill: #FECA16;
      }
    </style>
  </defs>
  <path class="cls-2"
    d="M500.25,45.95l-12.4-5.66C378.41-9.32,253.52-13.23,141.03,29.19l-12.62,4.79c-36.77,13.92-66.36,41.56-82.46,77.46l-5.66,12.4C-9.32,233.28-13.23,358.17,29.19,470.66l4.79,12.62c13.92,36.55,41.56,66.36,77.24,82.46l12.4,5.66c109.44,49.61,234.33,53.52,346.82,11.1l12.62-4.79c36.55-13.92,66.36-41.56,82.46-77.24l5.66-12.4c49.61-109.44,53.52-234.33,11.1-346.82l-4.79-12.62c-13.71-36.99-41.56-66.58-77.24-82.68h0Z" />
  <path class="cls-1"
    d="M320.1,483.06l-.22.22-1.96-1.96-.44-.44c-12.84-10.88-26.76-21.76-40.25-32.2-38.29-29.81-78.11-60.7-100.52-100.74l-.22-.22-.22-.22-1.09-1.96c-.22-.44-.65-1.09-1.09-1.74-.22-.22-.22-.44-.22-.44-.22-.22-.22-.44-.44-.87l-.22-.65c-.22-.44-.44-1.09-.87-1.31-.22-.44-.44-1.09-.87-1.52-.22-.44-.44-1.09-.87-1.31-.22-.22-.22-.65-.44-.87-.22-.44-.44-1.09-.87-1.52l-.22-.65v-.22c-4.57-10.23-7.83-21.54-10.23-33.94-.87-5-1.52-9.79-1.96-14.36h0l-.22-1.31c-5.44-82.03,56.79-153.39,138.6-158.83,3.26-.22,6.74-.44,10.23-.44,29.81,0,58.75,8.92,83.33,25.67,24.37,16.54,43.08,39.6,54.18,66.58,6.09,14.8,9.79,30.46,10.88,46.56v.44c.44,6.09.44,11.53.22,17.19-.44,11.31-2.39,22.63-5.66,33.72,0,.22-.22.44-.22.65l-.65,2.39c-.22.22-.22.65-.22.87l-.87,2.18c-.22.44-.22.87-.44,1.09-.22.44-.22.87-.44,1.09-.22.22-.22.44-.22.87-.22.22-.22.44-.22.87-.22.22-.22.65-.44.87s-.22.44-.22.87v.22c-.22.65-.44,1.31-.87,1.96l-.22.44c-16.97,42.65-52.22,78.55-86.16,113.36-11.75,12.18-24.15,24.8-35.46,37.21l-1.74,3.48v-1.09h.05Z" />
  <path class="cls-1"
    d="M305.95,129.06c59.83,0,112.49,36.77,134.46,90.08,5.66,14.14,9.36,29.37,10.66,45.47v.22c.44,5.66.44,11.31.22,16.75-.44,11.53-2.39,22.63-5.66,33.29v.22c-.22.87-.44,1.74-.87,2.61-.22.44-.44,1.09-.44,1.52-.22.44-.44,1.09-.44,1.74-.22.87-.44,1.31-.87,2.18-.22.44-.44.87-.44,1.31-.22.65-.44,1.31-.65,1.74-.22.87-.65,1.52-.87,2.18,0,.22-.22.22-.22.44-22.63,56.79-77.46,100.96-120.97,149.48l-.22-.22v.22c-49.61-42.43-110.09-78.76-140.12-131.85,0-.22-.22-.22-.22-.22-.44-.65-.87-1.31-1.09-1.96-.44-.65-.65-1.09-.87-1.74-.22-.44-.44-.87-.65-1.31-.44-.65-.65-1.31-1.09-1.96-.22-.44-.44-1.09-.87-1.52-.22-.44-.44-.87-.65-1.31-.44-.87-.87-1.52-1.09-2.39v-.22c-5.44-12.18-8.49-24.37-10.23-33.72-1.74-9.14-1.96-15.45-1.96-15.45-5.22-80.5,55.26-149.69,135.33-155.13,3.26-.44,6.53-.44,9.79-.44h.03ZM305.95,121.88c-3.48,0-6.96.22-10.44.44-40.69,2.83-77.67,21.1-104.44,51.78-26.76,30.68-40.03,69.84-37.21,110.53l.22,2.61h0c.44,4.35,1.09,8.92,1.74,13.49,2.39,12.4,5.66,23.72,10.01,33.94v.22l.65,1.31c.22.44.44,1.09.87,1.74.22.22.22.65.44.87.22.44.44,1.09.87,1.52.22.44.44,1.09.87,1.52.22.44.44,1.09.87,1.52l.22.65c.22.22.22.44.44.87.15.15.22.29.22.44.44.65.87,1.31,1.09,1.96.22.44.44.65.44,1.09.22.44.44.65.44,1.09l.22.44.22.22c22.85,40.47,62.88,71.58,101.39,101.61,13.49,10.44,45.26,37.21,45.26,37.21,0,0,28.72-31.11,40.47-43.08,34.38-35.03,69.62-71.15,87.03-114.45l.22-.22.22-.22v-.22h0c.22-.65.44-1.31.87-1.96v-.44c.22-.22.22-.44.22-.87.22-.44.22-.65.44-1.09.22-.22.22-.44.22-.87,0-.22.22-.44.22-.44v-.44c.22-.44.22-.87.44-1.09s.22-.65.44-1.09h0l.22-.87.22-.65v-.44c0-.22.22-.22.22-.44.22-.44.22-.87.44-1.09.22-.44.22-.87.44-1.31.22-.22.22-.65.22-.87.22-.22.22-.65.22-1.09,3.26-11.31,5.22-23.06,5.66-34.59.22-5.66.22-11.31-.22-17.41h0v-.44c-1.09-16.54-4.79-32.42-11.1-47.65-11.31-27.85-30.68-51.35-55.48-68.1-25.67-16.54-55.26-25.67-85.94-25.67h0l-.08.03Z" />
  <path class="cls-2"
    d="M450.86,264.83v-.22c-1.09-16.1-4.79-31.33-10.66-45.47l-16.1,8.49h0l-58.96,31.55h0l-56.79,32.2v68.1l55.48-31.55h0l57.66-30.9h0l29.16-15.45c.65-5.44.65-11.1.22-16.75h0Z" />
  <polygon class="cls-2" points="302.04 359.69 241.99 325.53 241.99 257.43 302.04 291.59 302.04 359.69" />
  <polygon class="cls-2" points="305.3 275.93 245.25 241.77 307.69 207.82 367.75 241.77 305.3 275.93" />
  <path class="cls-1"
    d="M336.78,247.4l-12.25-7.51c4.44-2.15,4.11-4.79-.99-7.91-4.45-2.73-8.33-3.36-11.63-1.9-1.52.67-2.03,1.53-1.52,2.56.43.87,2.59,3.33,6.48,7.37,3.66,3.85,5.83,6.86,6.48,9.04,1.2,3.73-1.03,6.84-6.71,9.34-6.2,2.74-13.1,3.54-20.73,2.4-6.66-.98-13.01-3.33-19.07-7.04-7.34-4.5-10.92-8.83-10.73-12.97.12-3.63,3.15-6.81,9.11-9.53l12.94,7.93c-5.71,2.81-5.51,6.09.59,9.83,5,3.06,9.42,3.75,13.25,2.06,1.78-.79,2.46-1.77,2.02-2.96-.44-1.18-2.42-3.74-5.91-7.66-4.24-4.76-6.38-8.26-6.44-10.51-.06-2.64,2.25-4.98,6.92-7.05,5.57-2.46,11.97-3.15,19.21-2.09,6.32.94,12.23,3.09,17.73,6.47,6.56,4.02,9.75,7.89,9.57,11.6-.17,3.22-2.94,6.06-8.31,8.53h-.01Z" />
</svg>
