<svg width="100%" height="100%" viewBox="0 0 35 35" fill="none" xmlns="http://www.w3.org/2000/svg">
  <path d="M17.5187 28.262L0 18.1176V4.79144L17.5187 14.8984V28.262Z" fill="#191818" />
  <path d="M17.0695 15.2353V27.4759L0.486572 17.8556V5.6524L17.0695 15.2353Z" fill="#211F1F" />
  <path d="M17.0695 24.2192V25.0802L0.486572 15.4973V14.6364L17.0695 24.2192Z" fill="white" />
  <path d="M8.53467 17.3315L8.87157 18.4171L17.0694 23.1337V22.2727L8.53467 17.3315Z" fill="white" />
  <path d="M25.7913 10.1444V15.7968L17.5186 20.4759V14.8984L25.7913 10.1444Z" fill="#191818" />
  <path d="M25.3797 10.9305V15.6096L18.0054 19.5401V15.1979L25.3797 10.9305Z" fill="#211F1F" />
  <path d="M25.7914 10.1444L8.27272 0L0 4.79144L17.5187 14.8984L25.7914 10.1444Z" fill="#302F2F" />
  <path d="M24.8554 10.0695L17.5185 14.2994L0.898193 4.71657L8.27252 0.449188L24.8554 10.0695Z" fill="#211F1F" />
  <path
    d="M0.486572 13.5508V12.2781L6.66304 15.8716L5.91438 13.3636L17.0695 19.8396V21.1497L7.524 15.6096L8.16037 17.9679L0.486572 13.5508Z"
    fill="white" />
  <path d="M22.4972 22.4973L17.5186 19.6898L25.7538 14.8984L30.7325 17.7807L22.4972 22.4973Z" fill="#FFC215" />
  <path d="M17.5186 19.6898V28.262L26.0907 33.2032V28.9733L22.4972 22.4973L17.5186 19.6898Z" fill="#FFC215" />
  <path d="M34.2887 24.2567V28.4492L26.0908 33.1658V28.9733L34.2887 24.2567Z" fill="#F7BA21" />
  <path d="M22.4973 22.4973L26.0909 28.9732L34.2888 24.2567L30.7326 17.7807L22.4973 22.4973Z" fill="#F9CA55" />
  <path
    d="M23.5079 23.2085L26.0534 27.7754C26.2031 28.0374 26.5026 28.1123 26.7646 27.9626L33.1657 24.2941C33.4277 24.1444 33.54 23.77 33.3903 23.508L30.8074 18.8289C30.6951 18.6417 30.4331 18.5668 30.2459 18.6791L23.77 22.4225C23.4705 22.5722 23.3582 22.9091 23.5079 23.2085Z"
    fill="#493E47" />
  <path d="M35 28.1497L26.3904 33.1283V34.139L35 29.1604V28.1497Z" fill="#493E47" />
  <path d="M26.3903 33.1283V34.139L24.8181 33.2032V32.1925L26.3903 33.1283Z" fill="#3D333B" />
  <path
    d="M25.1924 31.9679L26.3903 32.6791L34.6256 27.9251L34.9999 28.1497L26.3903 33.1283L24.8181 32.1925L25.1924 31.9679Z"
    fill="#7C6B7C" />
  <path d="M32.23 27.5508V27.9251L28.2996 30.2085V29.8342L32.23 27.5508Z" fill="#3D333B" />
  <path d="M32.23 28.262V28.5989L28.2996 30.8823V30.508L32.23 28.262Z" fill="#3D333B" />
  <path d="M32.23 26.877V27.2513L28.2996 29.4973V29.123L32.23 26.877Z" fill="#3D333B" />
  <path d="M32.23 26.1658V26.5401L28.2996 28.8235V28.4492L32.23 26.1658Z" fill="#3D333B" />
  <path d="M32.6042 27.0642L34.2887 26.1283V27.3636L32.6042 28.3369V27.0642Z" fill="white" />
  <path d="M27.925 29.7593V31.0321L26.0908 32.1176V30.8449L27.925 29.7593Z" fill="white" />
  <path d="M27.925 28.6363V29.4599L26.0908 30.508V29.6845L27.925 28.6363Z" fill="#FFC85A" />
  <path d="M34.2888 24.9305V25.754L32.4546 26.8021V25.9786L34.2888 24.9305Z" fill="#FFC85A" />
  <path
    d="M34.2141 26.8021C34.2141 27.0642 34.0643 27.3636 33.8772 27.4385C33.69 27.5508 33.5403 27.4385 33.5403 27.1765C33.5403 26.9144 33.69 26.615 33.8772 26.5401C34.0643 26.4278 34.2141 26.5775 34.2141 26.8021Z"
    fill="#FFC85A" />
  <path
    d="M26.9145 30.9572C26.9145 31.2192 26.7648 31.5187 26.5776 31.5936C26.3905 31.7059 26.2407 31.5936 26.2407 31.3315C26.2407 31.0695 26.3905 30.77 26.5776 30.6952C26.7648 30.5829 26.9145 30.6952 26.9145 30.9572Z"
    fill="#FFC85A" />
  <path
    d="M27.7756 30.4706C27.7756 30.7326 27.6259 31.0321 27.4387 31.1069C27.2515 31.2192 27.1018 31.107 27.1018 30.8449C27.1018 30.5829 27.2515 30.2834 27.4387 30.2086C27.5884 30.0963 27.7756 30.2086 27.7756 30.4706Z"
    fill="#FFC85A" />
  <path
    d="M33.4653 27.2513C33.4653 27.5134 33.3156 27.8128 33.1284 27.8877C32.9412 28 32.7915 27.8877 32.7915 27.6257C32.7915 27.3636 32.9412 27.0642 33.1284 26.9893C33.2781 26.877 33.4653 26.9893 33.4653 27.2513Z"
    fill="#FFC85A" />
  <path
    d="M20.3264 28.1123C21.1873 28.4492 21.9734 29.7219 22.1231 30.8823C22.3477 30.9946 22.8344 31.2941 22.9841 31.369C22.9092 31.8182 22.6846 32.1176 22.3852 32.2299L21.1873 32.9412L20.4012 31.1818C20.1766 30.8075 19.9895 30.3957 19.8397 29.9839L19.0911 28.3369C19.3905 28 19.8397 27.9251 20.3264 28.1123Z"
    fill="#282027" />
  <path
    d="M18.4172 29.647C18.4172 30.8823 19.1659 32.3048 20.1017 32.8289C21.0376 33.3529 21.7862 32.7914 21.7862 31.5561C21.7862 30.3208 21.0376 28.8984 20.1017 28.3743C19.1659 27.8503 18.4172 28.4118 18.4172 29.647Z"
    fill="#3D333B" />
  <path
    d="M19.0161 30.0214C19.0161 30.8075 19.5027 31.7433 20.1017 32.0802C20.7006 32.4171 21.1872 32.0428 21.1872 31.2567C21.1872 30.4706 20.7006 29.5347 20.1017 29.1978C19.5027 28.861 19.0161 29.2353 19.0161 30.0214Z"
    fill="#969696" />
  <path
    d="M19.3154 30.2085C19.3154 30.77 19.6523 31.4438 20.1015 31.7059C20.5133 31.9679 20.8876 31.7059 20.8876 31.1069C20.8876 30.5454 20.5507 29.8716 20.1015 29.6096C19.6523 29.385 19.3154 29.647 19.3154 30.2085Z"
    fill="white" />
  <path
    d="M19.7273 30.4331C19.7273 30.6952 19.877 31.0321 20.1016 31.1444C20.3262 31.2567 20.476 31.1444 20.476 30.8449C20.476 30.5829 20.3262 30.246 20.1016 30.1337C19.877 30.0214 19.7273 30.1711 19.7273 30.4331Z"
    fill="#383838" />
  <path
    d="M20.0266 29.8342C20.0266 29.8716 20.064 29.9465 20.1015 29.9839C20.1389 30.0214 20.1763 29.9839 20.1763 29.9465C20.1763 29.9091 20.1389 29.8342 20.1015 29.7968C20.064 29.7593 20.0266 29.7968 20.0266 29.8342Z"
    fill="#383838" />
  <path
    d="M19.54 29.8342C19.54 29.8716 19.5775 29.9465 19.6149 29.9839C19.6523 30.0214 19.6898 29.9839 19.6898 29.9465C19.6898 29.9091 19.6523 29.8342 19.6149 29.7968C19.5775 29.7593 19.54 29.7968 19.54 29.8342Z"
    fill="#383838" />
  <path
    d="M20.4758 30.3583C20.4758 30.3957 20.5133 30.4706 20.5507 30.508C20.5881 30.5454 20.6256 30.508 20.6256 30.4706C20.6256 30.4331 20.5881 30.3583 20.5507 30.3208C20.5133 30.2834 20.4758 30.3208 20.4758 30.3583Z"
    fill="#383838" />
  <path
    d="M19.54 30.8449C19.54 30.8823 19.5775 30.9572 19.6149 30.9946C19.6523 31.0321 19.6898 30.9946 19.6898 30.9572C19.6898 30.9198 19.6523 30.8449 19.6149 30.8075C19.5775 30.77 19.54 30.8075 19.54 30.8449Z"
    fill="#383838" />
  <path
    d="M20.4758 31.369C20.4758 31.4064 20.5133 31.4813 20.5507 31.5187C20.5881 31.5561 20.6256 31.5187 20.6256 31.4813C20.6256 31.4438 20.5881 31.369 20.5507 31.3315C20.5133 31.2941 20.4758 31.3315 20.4758 31.369Z"
    fill="#383838" />
  <path
    d="M19.4277 30.2834C19.4277 30.3208 19.4652 30.3957 19.5026 30.4331C19.54 30.4706 19.5775 30.4331 19.5775 30.3957C19.5775 30.3583 19.54 30.2834 19.5026 30.246C19.4652 30.2085 19.4277 30.246 19.4277 30.2834Z"
    fill="#383838" />
  <path
    d="M20.6257 30.9946C20.6257 31.0321 20.6632 31.1069 20.7006 31.1444C20.738 31.1818 20.7755 31.1444 20.7755 31.1069C20.7755 31.0695 20.738 30.9946 20.7006 30.9572C20.6632 30.9198 20.6257 30.9198 20.6257 30.9946Z"
    fill="#383838" />
  <path
    d="M20.0266 31.369C20.0266 31.4064 20.064 31.4813 20.1015 31.5187C20.1389 31.5561 20.1763 31.5187 20.1763 31.4813C20.1763 31.4438 20.1389 31.369 20.1015 31.3315C20.064 31.2941 20.0266 31.3315 20.0266 31.369Z"
    fill="#383838" />
  <path
    d="M3.59369 18.4171C4.45465 18.754 5.24075 20.0267 5.39048 21.1872C5.61508 21.2995 6.10171 21.5989 6.25144 21.6738C6.17658 22.123 5.95198 22.4225 5.65251 22.5347L4.45465 23.2085L3.66856 21.4492C3.44396 21.0749 3.25679 20.6631 3.10706 20.2513L2.3584 18.6043C2.6953 18.3048 3.10706 18.2299 3.59369 18.4171Z"
    fill="#282027" />
  <path
    d="M1.72192 19.9519C1.72192 21.1872 2.47059 22.6096 3.40642 23.1337C4.34224 23.6577 5.09091 23.0962 5.09091 21.8609C5.09091 20.6257 4.34224 19.2032 3.40642 18.6791C2.47059 18.1551 1.72192 18.7166 1.72192 19.9519Z"
    fill="#3D333B" />
  <path
    d="M2.28345 20.3262C2.28345 21.1123 2.77008 22.0481 3.36901 22.385C3.96794 22.7219 4.45457 22.3476 4.45457 21.5615C4.45457 20.7754 3.96794 19.8396 3.36901 19.5027C2.77008 19.1658 2.28345 19.5401 2.28345 20.3262Z"
    fill="#969696" />
  <path
    d="M2.58301 20.5134C2.58301 21.0748 2.91991 21.7486 3.3691 22.0107C3.78087 22.2727 4.1552 22.0107 4.1552 21.4117C4.1552 20.8502 3.8183 20.1765 3.3691 19.9144C2.95734 19.6524 2.58301 19.9144 2.58301 20.5134Z"
    fill="white" />
  <path
    d="M2.99463 20.738C2.99463 21 3.14436 21.3369 3.36896 21.4492C3.59356 21.5615 3.74329 21.4492 3.74329 21.1497C3.74329 20.8877 3.59356 20.5508 3.36896 20.4385C3.18179 20.3262 2.99463 20.4759 2.99463 20.738Z"
    fill="#383838" />
  <path
    d="M3.29395 20.139C3.29395 20.1764 3.33138 20.2513 3.36881 20.2887C3.40624 20.3262 3.44368 20.2887 3.44368 20.2513C3.44368 20.2139 3.40624 20.139 3.36881 20.1016C3.33138 20.0642 3.29395 20.0642 3.29395 20.139Z"
    fill="#383838" />
  <path
    d="M2.80762 20.139C2.80762 20.1764 2.84505 20.2513 2.88248 20.2887C2.91992 20.3262 2.95735 20.2887 2.95735 20.2513C2.95735 20.2139 2.91992 20.139 2.88248 20.1016C2.84505 20.0642 2.80762 20.0642 2.80762 20.139Z"
    fill="#383838" />
  <path
    d="M3.74341 20.6631C3.74341 20.7005 3.78084 20.7754 3.81827 20.8128C3.85571 20.8503 3.89314 20.8128 3.89314 20.7754C3.89314 20.738 3.85571 20.6631 3.81827 20.6257C3.78084 20.5882 3.74341 20.6257 3.74341 20.6631Z"
    fill="#383838" />
  <path
    d="M2.80762 21.1497C2.80762 21.1872 2.84505 21.262 2.88248 21.2995C2.91992 21.3369 2.95735 21.2995 2.95735 21.262C2.95735 21.2246 2.91992 21.1497 2.88248 21.1123C2.84505 21.0749 2.80762 21.0749 2.80762 21.1497Z"
    fill="#383838" />
  <path
    d="M3.74341 21.6738C3.74341 21.7112 3.78084 21.7861 3.81827 21.8235C3.85571 21.861 3.89314 21.8235 3.89314 21.7861C3.89314 21.7487 3.85571 21.6738 3.81827 21.6364C3.78084 21.5989 3.74341 21.6364 3.74341 21.6738Z"
    fill="#383838" />
  <path
    d="M2.69531 20.5882C2.69531 20.6256 2.73275 20.7005 2.77018 20.7379C2.80761 20.7754 2.84505 20.7379 2.84505 20.7005C2.84505 20.6631 2.80761 20.5882 2.77018 20.5508C2.73275 20.5134 2.69531 20.5508 2.69531 20.5882Z"
    fill="#383838" />
  <path
    d="M3.89307 21.2995C3.89307 21.3369 3.9305 21.4118 3.96793 21.4492C4.00537 21.4866 4.0428 21.4492 4.0428 21.4118C4.0428 21.3743 4.00537 21.2995 3.96793 21.262C3.9305 21.2246 3.89307 21.2246 3.89307 21.2995Z"
    fill="#383838" />
  <path
    d="M3.29395 21.6738C3.29395 21.7112 3.33138 21.7861 3.36881 21.8235C3.40624 21.861 3.44368 21.8235 3.44368 21.7861C3.44368 21.7487 3.40624 21.6738 3.36881 21.6364C3.33138 21.5989 3.29395 21.6364 3.29395 21.6738Z"
    fill="#383838" />
  <path
    d="M29.0106 21.7486C28.1871 22.1978 25.8662 23.508 24.4812 24.2567L26.278 27.4759L32.1924 24.0321C31.3689 22.5347 30.0962 21.1497 29.0106 21.7486Z"
    fill="#779CC9" />
  <path
    d="M30.6578 19.2032C30.5455 19.016 30.3209 18.9412 30.1337 19.0535L24.1444 22.4973C23.8824 22.647 23.7701 22.9839 23.9198 23.246L24.4813 24.2567C25.8289 23.508 28.1872 22.1978 29.0108 21.7487C30.0963 21.1497 31.4065 22.5347 32.1926 24.0321L33.0535 23.5454L30.6578 19.2032Z"
    fill="#5D80B3" />
  <path d="M22.198 26.1283L23.6579 26.9519L22.198 23.9946V26.1283Z" fill="#779CC9" />
  <path d="M18.0054 23.6952L21.861 25.9412V23.8075L18.0054 21.7112V23.6952Z" fill="#779CC9" />
  <path d="M22.198 22.9091V23.9946L23.6579 26.9519L24.5937 27.5134L22.198 22.9091Z" fill="#5D80B3" />
  <path d="M18.0054 20.4011V21.7112L21.861 23.8075V22.6845L18.0054 20.4011Z" fill="#5D80B3" />
  <path d="M18.0054 23.6952V20.4011L21.861 22.6845V22.9091L18.1925 20.7754V23.8075L18.0054 23.6952Z" fill="#493E47" />
  <path d="M22.198 22.8342V23.246L24.2194 27.2888L24.5937 27.5134L22.198 22.8342Z" fill="#493E47" />
  <path d="M17.5186 24.2941V24.6684L26.0907 29.6096V29.2353L17.5186 24.2941Z" fill="#FFC215" />
  <path d="M21.8608 25.9412V29.1604L22.1977 29.385V26.0909L21.8608 25.9412Z" fill="#FFC215" />
</svg>
