<svg width="100%" height="100%" viewBox="0 0 33 23" fill="none" xmlns="http://www.w3.org/2000/svg">
  <g clip-path="url(#clip0_354_1595)">
    <path
      d="M6.69466 9.94476L5.57892 9.28762C5.45018 9.2 5.32144 8.98095 5.32144 8.76191V8.19238C5.32144 7.97333 5.45018 7.88572 5.57892 7.97333L6.69466 8.63048C6.82339 8.7181 6.95213 8.93714 6.95213 9.15619V9.72572C6.99504 9.94476 6.86631 10.0324 6.69466 9.94476Z"
      fill="#FFC215" />
    <path
      d="M5.23566 8.10476C5.23566 8.10476 5.40731 7.97333 5.45023 7.97333C5.49314 7.97333 5.3644 8.19238 5.3644 8.19238L5.23566 8.10476Z"
      fill="#FFC215" />
    <path
      d="M6.65167 10.0762C6.65167 10.0762 6.86624 10.0324 6.90915 9.94476C6.95206 9.85714 6.90915 9.72571 6.90915 9.72571C6.90915 9.72571 6.65167 9.90095 6.65167 10.0762Z"
      fill="#EA990A" />
    <path
      d="M6.56577 10.0324L5.45003 9.37523C5.32129 9.28762 5.19255 9.06857 5.19255 8.84952V8.32381C5.19255 8.10476 5.32129 8.01714 5.45003 8.10476L6.56577 8.7619C6.6945 8.84952 6.82324 9.06857 6.82324 9.28762V9.85714C6.82324 10.0324 6.6945 10.12 6.56577 10.0324Z"
      fill="#DEEFFF" />
    <path
      d="M16.0065 19.1886L12.7452 17.2609C12.7452 17.2609 13.303 16.1219 14.7192 16.5162C16.0924 16.9105 16.9077 17.3924 16.9077 17.3924L16.0065 19.1886Z"
      fill="#7C6B7C" />
    <path
      d="M14.6763 18.6629C14.6763 19.9771 13.9038 21.5543 12.9168 22.1238C11.9298 22.6933 11.1574 22.08 11.1574 20.7657C11.1574 19.4514 11.9298 17.8743 12.9168 17.3048C13.9038 16.7352 14.6763 17.3486 14.6763 18.6629Z"
      fill="#282027" />
    <path d="M11.8012 22.2114L12.9598 22.9124L15.1055 17.8305L13.9039 17.1295L11.8012 22.2114Z" fill="#282027" />
    <path
      d="M15.835 19.3638C15.835 20.6781 15.0625 22.2552 14.0755 22.8248C13.0885 23.3943 12.3161 22.7809 12.3161 21.4667C12.3161 20.1524 13.0885 18.5752 14.0755 18.0057C15.0625 17.3924 15.835 18.0057 15.835 19.3638Z"
      fill="#3D333B" />
    <path
      d="M15.3198 19.6267C15.3198 20.5905 14.762 21.6857 14.0324 22.1238C13.3458 22.5181 12.7451 22.08 12.7451 21.16C12.7451 20.1962 13.3029 19.101 14.0324 18.6629C14.762 18.2248 15.3198 18.6629 15.3198 19.6267Z"
      fill="white" />
    <path
      d="M14.7622 20.021C14.7622 20.5029 14.4618 21.0724 14.1185 21.2914C13.7752 21.5105 13.4748 21.2914 13.4748 20.8095C13.4748 20.3276 13.7752 19.7581 14.1185 19.5391C14.5047 19.2762 14.7622 19.4952 14.7622 20.021Z"
      fill="#3D333B" />
    <path
      d="M14.6763 20.0648C14.6763 20.459 14.4188 20.941 14.1184 21.1162C13.818 21.2914 13.5605 21.1162 13.5605 20.6781C13.5605 20.2838 13.818 19.8019 14.1184 19.6267C14.4188 19.4514 14.6763 19.6705 14.6763 20.0648Z"
      fill="#7C6B7C" />
    <path
      d="M29.5241 11.2152L26.2627 9.28762C26.2627 9.28762 26.8206 8.14857 28.2367 8.54285C29.6099 8.93714 30.4253 9.41904 30.4253 9.41904L29.5241 11.2152Z"
      fill="#7C6B7C" />
    <path
      d="M32.2279 4.24952C32.2279 4.24952 28.3228 1.00762 25.2331 0.306664C23.9457 -2.22027e-06 22.5725 0.657141 21.4997 0.74476L20.341 1.88381L28.6232 7.14095L32.0562 5.25714C32.3566 5.0819 32.5712 4.42476 32.2279 4.24952Z"
      fill="#FFC215" />
    <path
      d="M6.09339 10.4267C6.47961 10.8648 7.20913 11.5657 8.66816 12.6171C12.187 15.1581 14.7189 14.939 14.7189 14.939L16.6929 11.4343C14.6331 10.4705 11.5862 9.06857 10.2559 8.80571C8.92564 8.58667 7.16621 9.6381 6.09339 10.4267Z"
      fill="#5D80B3" />
    <path
      d="M9.09748 5.69524L5.8361 9.63809C5.8361 9.63809 5.62153 9.81333 6.13649 10.4705C7.20931 9.6819 8.96874 8.63047 10.2561 8.89333C11.5864 9.15619 14.6332 10.5143 16.6931 11.5219L17.208 10.5143L9.09748 5.69524Z"
      fill="#45649B" />
    <path
      d="M9.09764 5.69523C9.09764 5.69523 9.44095 6.22094 11.5866 7.75427C13.5606 9.15618 17.2082 10.5143 17.2082 10.5143C17.2082 10.5143 19.783 8.49904 21.8428 7.35999C23.9026 6.17713 27.4644 4.68761 27.4644 4.68761L21.4995 0.788561C21.4995 0.788561 19.9117 -0.788582 17.2082 0.657132C16.1783 1.18285 14.3759 2.3657 11.8012 3.94285C10.8142 4.51237 9.87008 5.1257 9.09764 5.69523Z"
      fill="#F9CD53" />
    <path
      d="M9.355 6.13333C9.355 6.13333 11.1573 5.03809 13.6892 3.54857C16.264 2.05904 19.5683 0.087616 19.5683 0.087616L19.8687 0.175235C19.8687 0.175235 18.4954 1.00762 17.2081 1.75238C16.1352 2.36571 9.48374 6.35238 9.48374 6.35238L9.355 6.13333Z"
      fill="#FECA16" />
    <path
      d="M15.6632 9.90095C15.6632 9.90095 17.4655 8.80572 19.9974 7.31619C22.5721 5.82667 25.8764 3.85524 25.8764 3.85524L26.2197 3.94286C26.2197 3.94286 24.8465 4.77524 23.5591 5.52C22.4863 6.13334 15.8348 10.12 15.8348 10.12L15.6632 9.90095Z"
      fill="#FECA16" />
    <path
      d="M26.6061 4.24953L28.3226 4.55619L30.082 5.52C30.082 5.52 26.6919 5.08191 26.3486 4.90667C26.0053 4.73143 26.6061 4.24953 26.6061 4.24953Z"
      fill="#F9CD53" />
    <path
      d="M28.2368 10.6895C28.2368 12.0038 27.4644 13.5809 26.4774 14.1505C25.4904 14.72 24.718 14.1067 24.718 12.7924C24.718 11.4781 25.4904 9.90094 26.4774 9.33142C27.4215 8.7619 28.2368 9.37523 28.2368 10.6895Z"
      fill="#282027" />
    <path d="M25.3617 14.2381L26.5204 14.939L28.666 9.85713L27.4645 9.15617L25.3617 14.2381Z" fill="#282027" />
    <path
      d="M29.3955 11.3466C29.3955 12.6609 28.6231 14.2381 27.6361 14.8076C26.6491 15.3771 25.8767 14.7638 25.8767 13.4495C25.8767 12.1352 26.6491 10.5581 27.6361 9.98855C28.5802 9.41903 29.3955 10.0324 29.3955 11.3466Z"
      fill="#3D333B" />
    <path
      d="M28.8804 11.6533C28.8804 12.6171 28.3225 13.7124 27.593 14.1505C26.9064 14.5447 26.3056 14.1066 26.3056 13.1866C26.3056 12.2228 26.8635 11.1276 27.593 10.6895C28.3225 10.2514 28.8804 10.6895 28.8804 11.6533Z"
      fill="white" />
    <path
      d="M28.3228 12.0038C28.3228 12.4857 28.0224 13.0552 27.6791 13.2743C27.3358 13.4933 27.0354 13.2743 27.0354 12.7924C27.0354 12.3105 27.3358 11.7409 27.6791 11.5219C28.0224 11.3028 28.3228 11.5219 28.3228 12.0038Z"
      fill="#3D333B" />
    <path
      d="M28.1938 12.0914C28.1938 12.4857 27.9364 12.9676 27.636 13.1428C27.3356 13.3181 27.0781 13.1428 27.0781 12.7048C27.0781 12.3105 27.3356 11.8286 27.636 11.6533C27.9793 11.4781 28.1938 11.6971 28.1938 12.0914Z"
      fill="#7C6B7C" />
    <path
      d="M32.2277 4.24953C31.4553 4.38096 30.7687 5.52 29.3954 5.25715C29.0092 5.16953 27.8077 4.73143 26.8636 4.77524C25.8337 4.86286 25.2329 5.25715 24.3317 5.82667C23.6022 6.26477 20.9416 7.7981 18.9247 9.11238C17.809 9.85715 16.9936 10.2952 16.7361 10.7771C16.5216 11.1276 15.7921 12.8362 15.1054 14.1943C14.9767 14.4571 14.8051 14.72 14.5905 14.939L1.80246 12.5295C1.80246 12.5295 1.07294 13.2743 0.600899 14.6762C0.429249 15.2019 -0.128616 16.5162 0.12886 17.6991C0.343426 18.7943 1.11586 19.8895 2.44616 20.7219C7.12366 23.4819 9.78425 22.8686 11.7153 21.7295C11.7153 19.9771 12.7882 17.9181 14.0755 17.1733C15.3629 16.4286 16.3928 17.2171 16.4357 18.9695C19.1822 17.3486 22.701 15.2895 25.5333 13.6248C25.5762 13.1429 25.8337 11.6533 26.0911 11.2152C26.6061 10.3391 27.8506 9.11238 28.4514 9.15619C30.2537 9.33143 29.5242 11.2591 29.8246 11.0838C30.2537 10.821 30.5112 10.6895 30.5112 10.6895C31.9273 9.85715 32.6568 8.19238 32.8714 7.14096C32.9143 6.57143 32.8714 4.64381 32.2277 4.24953Z"
      fill="#FECA16" />
    <path
      d="M29.9102 10.6457C29.9102 8.67428 28.7515 7.79809 27.2925 8.63048C26.6488 8.98095 26.0909 9.63809 25.6189 10.4267C25.3614 10.5581 25.1039 10.7333 24.8464 10.9086C23.4732 11.7848 17.5942 15.2457 15.4485 16.4724C14.9765 16.2095 14.4186 16.2533 13.7749 16.6038C12.3159 17.4362 11.1572 19.7143 11.1572 21.6857C11.2431 21.6419 11.286 21.5981 11.3718 21.5543C11.4147 21.5543 11.5005 21.4667 11.6722 21.379L11.9726 21.2476C11.9726 19.6267 12.8308 17.8305 14.0324 17.1295C14.2899 16.9981 14.5044 16.9105 14.719 16.8667C14.6761 16.8667 14.6761 16.9105 14.6761 16.9105L15.4485 17.0857C15.7918 17.3924 16.0064 17.9619 16.0064 18.7943V18.8381C16.1351 18.7505 16.3068 18.6629 16.4355 18.5752C16.4355 17.8743 16.2639 17.3048 16.0064 16.9105C16.0064 16.9105 20.3835 14.4133 21.8425 13.581C22.6579 13.1429 24.9752 12.0476 24.9752 12.0476C24.8464 12.3543 24.7606 12.88 24.7177 13.6686C24.8035 13.6248 24.8464 13.581 24.9323 13.5371C24.9752 13.5371 25.061 13.4495 25.2327 13.3619L25.533 13.2305C25.533 12.5733 25.6618 11.9162 25.9193 11.3029L26.0051 11.259L26.7346 10.1638L27.7216 9.2C27.8933 9.11238 27.5929 9.24381 26.9921 9.59428C27.1637 9.41905 27.3783 9.24381 27.5929 9.15619C28.7944 8.45524 29.6527 9.15619 29.6527 10.7771C29.6527 10.7771 29.5239 10.821 29.5239 10.8648C29.6527 10.821 29.7814 10.7333 29.9102 10.6457Z"
      fill="#F9CD53" />
    <path
      d="M14.0328 17.1733C12.7454 17.9181 11.6726 19.9771 11.6726 21.7295C11.7155 21.6857 11.8013 21.6419 11.8442 21.6419C11.8872 21.6419 11.973 21.5543 12.1017 21.5105V21.4667C12.1017 20.021 12.96 18.3124 14.0328 17.6991C15.1056 17.0857 15.9639 17.7429 15.9639 19.1886V19.2324C16.0926 19.1448 16.2214 19.101 16.3501 19.0133C16.3501 17.2171 15.3202 16.3848 14.0328 17.1733Z"
      fill="#E8B115" />
    <path
      d="M22.2719 1.22666C22.2719 1.22666 23.4735 0.394281 24.8896 0.700948C26.2628 1.05142 27.8506 2.23428 27.8506 2.23428L25.4046 3.2419L22.2719 1.22666Z"
      fill="#F9CD53" />
    <path
      d="M27.5501 9.2C26.2627 9.94476 25.1899 12.0038 25.1899 13.7562C25.2328 13.7124 25.3186 13.6686 25.3615 13.6686C25.4044 13.6686 25.4902 13.5809 25.619 13.5371V13.4933C25.619 12.0476 26.4772 10.339 27.5501 9.72571C28.6229 9.11238 29.4811 9.76952 29.4811 11.2152V11.259C29.6099 11.1714 29.7386 11.1276 29.8674 11.04C29.9103 9.24381 28.8804 8.41142 27.5501 9.2Z"
      fill="#E8B115" />
    <path
      d="M5.83633 9.63809C5.83633 9.63809 4.24855 10.7771 2.01709 12.3105C0.90135 13.0552 0.515134 15.1581 3.13282 16.9105C6.13672 18.9257 8.45401 18.7067 10.3422 17.5676C12.402 16.3409 14.7622 14.9829 14.7622 14.9829C14.7622 14.9829 13.1744 14.9829 9.99888 13.0552C7.38119 11.4781 5.83633 9.63809 5.83633 9.63809Z"
      fill="#FFC215" />
    <path d="M7.16647 17.8305L12.7881 14.5448L13.5176 14.8514C13.5176 14.8514 8.75425 17.9181 7.16647 17.8305Z"
      fill="#F9CD53" />
    <path
      d="M6.09398 10.12C6.09398 10.12 3.43338 11.8724 2.40347 12.7486C1.37356 13.6248 1.88851 14.8952 1.88851 14.8952L7.76758 11.3467L6.09398 10.12Z"
      fill="#F9CD53" />
    <path
      d="M16.0925 14.72C15.835 14.8514 15.5346 14.5886 15.6634 14.3257C16.1783 13.0552 17.2082 10.7333 17.6374 10.4705C18.1952 10.12 20.1692 8.89333 22.5294 7.44762C24.2889 6.39619 25.8766 5.43238 26.6061 5.65143C26.9065 5.73904 27.679 6.26476 28.2368 6.70285C28.5372 6.9219 28.5372 7.40381 28.1939 7.57904L16.0925 14.72Z"
      fill="#3D333B" />
    <path
      d="M19.4399 -3.91714e-06C19.4399 -3.91714e-06 21.843 1.35809 22.9158 2.05904C24.5036 3.15428 26.6921 4.33714 26.6921 4.33714L29.1382 4.99428C28.4945 4.6 29.1382 4.99428 27.8508 4.24952C26.0055 3.19809 24.0316 1.88381 23.6882 1.70857C23.2591 1.44571 22.3579 0.963806 21.9288 0.700948C20.9847 0.219044 19.7403 -0.0438134 19.4399 -3.91714e-06Z"
      fill="#779CC9" />
    <path
      d="M6.13681 19.9333C6.39429 19.4514 6.86633 19.0571 7.38129 19.1448C7.81041 19.1886 7.85333 19.1448 8.53993 19.0571C9.26945 18.9695 9.99897 18.6629 10.3423 18.4438C10.8143 18.1371 10.8572 18.6629 10.8143 18.8381C10.5998 19.539 10.0848 20.0648 9.39819 20.2838C7.72459 20.8095 6.13681 19.9333 6.13681 19.9333Z"
      fill="white" />
    <path
      d="M5.40695 18.2686C5.83608 18.3562 6.30812 18.4876 6.60851 18.5314L6.69434 18.4438C6.69434 18.4438 4.54869 17.9619 3.08966 16.9105C2.10266 16.2095 1.67353 15.4648 1.67353 15.4648L1.63062 15.64C1.71644 15.8152 1.88809 16.0781 2.18848 16.4286C2.74635 17.2171 4.67743 18.0933 5.40695 18.2686Z"
      fill="#3D333B" />
    <path
      d="M5.23545 18.6629C5.57876 18.7505 5.96497 18.8381 6.26536 18.8819L6.43701 18.6629C6.09371 18.5752 5.66458 18.4876 5.23545 18.3562C4.42011 18.1371 3.26146 17.5238 2.48903 16.9543C1.97407 16.6038 1.67368 16.1219 1.54494 15.8152L1.45912 16.1219C1.58786 16.2971 1.75951 16.56 2.01699 16.8229C2.66068 17.6114 4.50593 18.4876 5.23545 18.6629Z"
      fill="#3D333B" />
    <path
      d="M2.23163 17.8743C1.80251 17.5676 1.50211 17.1733 1.33046 16.8667C1.33046 17.1733 1.4592 17.4362 1.67377 17.6552C1.97416 17.9181 2.40328 18.2686 2.91824 18.5752C3.90524 19.1009 4.54893 19.4076 4.97806 19.5828C5.23553 19.6705 5.53592 19.6267 5.75049 19.4952C5.49301 19.4514 5.23553 19.3638 4.97806 19.32C4.16271 19.0571 2.96115 18.4 2.23163 17.8743Z"
      fill="#3D333B" />
    <path
      d="M2.35995 17.3924C1.93082 17.0857 1.58752 16.6476 1.41587 16.3409L1.37296 16.56C1.37296 16.56 1.37296 16.56 1.37296 16.6038C1.5017 16.779 1.63043 17.0419 1.88791 17.3048C2.48869 18.0933 4.37686 18.9257 5.14929 19.1009C5.40677 19.1448 5.70716 19.2324 5.96463 19.2762L6.1792 19.0133C5.87881 18.9257 5.49259 18.8819 5.14929 18.7505C4.33395 18.5752 3.13238 17.9619 2.35995 17.3924Z"
      fill="#3D333B" />
    <path
      d="M1.84515 17.3486C1.63059 17.0419 1.45893 16.8229 1.3302 16.6476C1.3302 16.7352 1.28728 16.8229 1.28728 16.8667C1.45893 17.1733 1.75932 17.6114 2.18845 17.8743C2.96088 18.4 4.16245 19.0571 4.97779 19.2762C5.23527 19.3638 5.53566 19.4076 5.75022 19.4514C5.79314 19.4076 5.87896 19.3638 5.92188 19.32C5.6644 19.2762 5.36401 19.1886 5.10653 19.1448C4.37701 18.9695 2.44593 18.0933 1.84515 17.3486Z"
      fill="#7C6B7C" />
    <path
      d="M5.23517 18.6629C4.50566 18.4876 2.61749 17.6114 1.97379 16.8667C1.71632 16.56 1.54467 16.3409 1.41593 16.1657L1.37302 16.3848C1.58758 16.6914 1.88797 17.1295 2.3171 17.4362C3.08953 17.9619 4.24818 18.619 5.06352 18.8381C5.40682 18.9257 5.79304 19.0133 6.09343 19.1009L6.22217 18.9257C6.0076 18.8381 5.62139 18.7067 5.23517 18.6629Z"
      fill="#7C6B7C" />
    <path
      d="M2.53168 16.9981C3.30411 17.5238 4.46276 18.1809 5.2781 18.4C5.70723 18.5314 6.13636 18.619 6.47966 18.7067L6.6084 18.5752C6.30801 18.4876 5.83597 18.4 5.40684 18.3124C4.67732 18.1371 2.74624 17.3048 2.14546 16.5162C1.88798 16.1657 1.71633 15.9029 1.58759 15.7276L1.54468 15.9029C1.71633 16.1657 2.01672 16.6476 2.53168 16.9981Z"
      fill="#7C6B7C" />
    <path
      d="M0.987305 13.5371C0.987305 13.5371 0.944392 14.2381 0.944392 14.939C0.944392 15.5086 0.729828 16.2533 0.729828 16.2533C0.729828 16.2533 0.472351 15.2019 0.515264 14.8514C0.558177 14.1067 0.987305 13.5371 0.987305 13.5371Z"
      fill="white" />
    <path
      d="M0.986977 18.9695C0.986977 18.9695 0.986978 17.6114 1.80232 18.1809C2.57475 18.7505 3.21845 19.1448 3.77631 19.4076C4.37709 19.7143 4.84914 19.9333 5.02079 20.24C5.19244 20.5905 5.23535 21.4667 5.23535 21.4667C5.23535 21.4667 4.63457 21.4229 2.66058 20.2838C1.11572 19.4514 0.986977 18.9695 0.986977 18.9695Z"
      fill="#3D333B" />
    <path
      d="M1.63091 18.4438V19.2762C1.63091 19.2762 2.23169 19.7143 2.74664 20.0648C3.04703 20.2838 4.2915 20.8533 4.2915 20.8533V20.0648C4.2915 20.0648 3.43325 19.6705 2.74664 19.2762C2.10295 18.8381 1.63091 18.4438 1.63091 18.4438Z"
      fill="white" />
    <path
      d="M0.000247002 17.1733C0.000247002 17.1733 -0.128492 18.3562 0.472287 19.1886C1.03016 20.0209 2.48919 21.5543 5.06397 22.3428C7.93913 23.1752 9.78438 22.9124 10.8572 22.4305C11.93 21.9486 12.0588 21.9924 12.0588 21.4667C12.1017 20.9409 11.6296 21.2914 11.6296 21.2914C11.6296 21.2914 11.1576 22.08 8.92613 22.2552C7.72457 22.3428 6.22261 22.1238 4.93523 21.7295C3.81949 21.379 2.70376 20.6781 1.58803 19.8457C0.0860739 18.7067 0.000247002 17.1733 0.000247002 17.1733Z"
      fill="#E8B115" />
    <path
      d="M6.82312 21.0724C6.69438 21.0724 6.60856 21.2038 6.69438 21.3352C6.78021 21.4667 6.86603 21.6419 6.99477 21.7295C7.38099 22.08 9.05459 22.1238 9.22624 21.9048C9.39789 21.7295 9.26915 21.16 8.84002 21.16C8.23924 21.2038 7.38099 21.0724 6.82312 21.0724Z"
      fill="#3D333B" />
    <path
      d="M0.128948 16.0343C0.128948 16.0343 0.257687 16.6038 0.343512 16.8667C0.429338 17.0857 0.0431203 17.1733 0.0431203 17.1733C0.0431203 17.1733 0.000209361 16.4724 0.128948 16.0343Z"
      fill="#3D333B" />
    <path
      d="M3.73379 18.0933C3.69088 18.2686 3.39049 18.2686 3.0901 18.1371C2.78971 18.0057 2.57514 17.7428 2.61805 17.5676C2.66097 17.3924 2.96136 17.3924 3.26175 17.5238C3.56214 17.699 3.7767 17.9181 3.73379 18.0933Z"
      fill="white" />
    <path
      d="M5.49311 9.85714C5.49311 9.85714 5.70768 10.339 6.82341 11.2152C7.89623 12.0914 10.2564 13.7562 11.8013 14.4133C13.3462 15.0267 14.3332 15.421 14.7194 14.9829C15.1056 14.501 17.0796 10.4267 17.0796 10.4267L16.865 10.339C16.865 10.339 14.7623 14.5009 14.5048 14.72C14.2473 14.939 12.2733 14.1943 8.84032 11.8724C7.51002 10.9962 5.83642 9.59428 5.83642 9.59428L5.49311 9.85714Z"
      fill="#3D333B" />
    <path
      d="M9.09774 5.69524L8.92609 5.87047C8.92609 5.87047 10.1276 7.05333 11.6725 7.97333C13.2174 8.89333 16.9079 10.6019 16.9079 10.6019L17.0366 10.3829C17.0366 10.3829 13.6036 8.89333 11.7583 7.66666C9.956 6.44 9.09774 5.69524 9.09774 5.69524Z"
      fill="#3D333B" />
    <path d="M25.4904 13.0552L16.2212 18.5314V19.0571L16.35 18.9695L25.6191 13.4933L25.4904 13.0552Z" fill="#E8B115" />
    <path
      d="M21.1562 8.63048V11.3905L17.1654 13.7124C17.1654 13.7124 17.1654 12.661 17.1654 12.2229C17.1654 11.96 17.2512 11.6095 17.4228 11.259C17.5516 10.9962 17.852 10.6019 18.2382 10.3829C19.311 9.76953 21.1562 8.63048 21.1562 8.63048Z"
      fill="#45649B" />
    <path
      d="M21.671 8.41142V11.1714L25.8765 8.67428C25.8765 8.67428 25.8765 7.62285 25.8336 7.31619C25.7906 7.05333 25.619 6.22095 25.619 6.22095L21.671 8.41142Z"
      fill="#45649B" />
    <path
      d="M26.0056 6.04572C26.0056 6.04572 26.1772 6.83429 26.2201 7.09714C26.2631 7.36 26.306 8.41143 26.306 8.41143C26.306 8.41143 27.2501 7.84191 27.4646 7.71048C27.6792 7.57905 27.8508 7.27238 27.293 6.83429C26.8209 6.52762 26.0056 6.04572 26.0056 6.04572Z"
      fill="#45649B" />
    <path
      d="M32.6139 5.08189L32.571 5.1257C32.3994 5.21332 32.3135 5.38856 32.3135 5.60761V6.22094C32.3135 6.74666 32.2277 7.35999 32.2277 7.35999L32.8285 7.00951C32.8285 7.00951 33.1289 6.39618 33.0002 5.69523C32.8714 5.25713 32.6139 5.08189 32.6139 5.08189Z"
      fill="#3D333B" />
    <path
      d="M29.3957 8.98095C29.3957 8.98095 31.1551 8.14856 32.3996 7.22856C32.6142 7.09714 32.9145 6.70285 32.9145 6.70285C32.9145 6.70285 33.0862 6.9219 32.5283 7.71047C32.3567 7.97333 30.3827 9.41904 29.7819 9.63809C29.4815 8.98095 29.3957 8.98095 29.3957 8.98095Z"
      fill="#F9CD53" />
    <path
      d="M17.1224 15.9905L16.0067 15.3333C15.8779 15.2457 15.7492 15.0267 15.7492 14.8076V14.2381C15.7492 14.019 15.8779 13.9314 16.0067 14.019L17.1224 14.6762C17.2511 14.7638 17.3799 14.9829 17.3799 15.2019V15.7714C17.3799 15.9467 17.2511 16.0781 17.1224 15.9905Z"
      fill="#FFC215" />
    <path
      d="M15.6633 14.1505C15.6633 14.1505 15.8349 14.019 15.8778 14.019C15.9636 14.019 15.792 14.2381 15.792 14.2381L15.6633 14.1505Z"
      fill="#FFC215" />
    <path
      d="M17.0364 16.0781C17.0364 16.0781 17.251 16.0343 17.2939 15.9467C17.3368 15.859 17.2939 15.7276 17.2939 15.7276C17.2939 15.7276 17.0364 15.9029 17.0364 16.0781Z"
      fill="#FFC215" />
    <path
      d="M16.9505 16.0781L15.8348 15.421C15.7061 15.3333 15.5773 15.1143 15.5773 14.8952V14.3257C15.5773 14.1067 15.7061 14.019 15.8348 14.1067L16.9505 14.7638C17.0793 14.8514 17.208 15.0705 17.208 15.2895V15.859C17.208 16.0343 17.0793 16.1657 16.9505 16.0781Z"
      fill="#DEEFFF" />
  </g>
  <defs>
    <clipPath id="clip0_354_1595">
      <rect width="33" height="23" fill="white" transform="matrix(-1 0 0 1 33 0)" />
    </clipPath>
  </defs>
</svg>
