<svg width="100%" height="100%" viewBox="0 0 42 30" fill="none" xmlns="http://www.w3.org/2000/svg">
  <g clip-path="url(#clip0_355_2188)">
    <path
      d="M4.27687 13.7571L7.74123 11.7429C7.74123 11.7429 7.14245 10.5857 5.64551 10.9714C4.19133 11.4 3.33594 11.9143 3.33594 11.9143L4.27687 13.7571Z"
      fill="#FFC215" />
    <path
      d="M5.51733 13.2857C5.51733 14.4857 6.24442 15.9 7.14259 16.4143C8.04076 16.9286 8.76784 16.3714 8.76784 15.1714C8.76784 13.9714 8.04076 12.5571 7.14259 12.0429C6.24442 11.5286 5.51733 12.0857 5.51733 13.2857Z"
      fill="#282027" />
    <path d="M8.16898 16.5429L7.09974 17.1429L5.13232 12.5571L6.20157 11.9143L8.16898 16.5429Z" fill="#282027" />
    <path
      d="M4.448 13.9286C4.448 15.1286 5.17509 16.5429 6.07325 17.0571C6.97142 17.5714 7.69851 17.0143 7.69851 15.8143C7.69851 14.6143 6.97142 13.2 6.07325 12.6857C5.17509 12.1714 4.448 12.7286 4.448 13.9286Z"
      fill="#3D333B" />
    <path
      d="M4.91846 14.1857C4.91846 15.0429 5.4317 16.0714 6.11601 16.4571C6.75756 16.8429 7.31357 16.4143 7.31357 15.5571C7.31357 14.7 6.80033 13.6714 6.11601 13.2857C5.4317 12.9 4.91846 13.3286 4.91846 14.1857Z"
      fill="white" />
    <path
      d="M5.43164 14.5286C5.43164 14.9571 5.68826 15.4714 6.03042 15.6857C6.37258 15.8571 6.6292 15.6857 6.6292 15.2143C6.6292 14.7857 6.37258 14.2714 6.03042 14.0571C5.68826 13.8429 5.43164 14.0571 5.43164 14.5286Z"
      fill="#3D333B" />
    <path
      d="M5.51733 14.5714C5.51733 14.9571 5.73118 15.3857 6.03057 15.5143C6.28719 15.6857 6.54381 15.5143 6.54381 15.1286C6.54381 14.7429 6.32996 14.3143 6.03057 14.1857C5.73118 14.0143 5.51733 14.1857 5.51733 14.5714Z"
      fill="#7C6B7C" />
    <path d="M11.5051 0V4.8L15.5683 7.15714L15.996 5.31429L18.6477 6.3L19.8025 9.6L24.4644 12.3429V7.54286L11.5051 0Z"
      fill="#FFC215" />
    <path d="M11.5051 0L0 6.47143L13.002 14.0143L22.8819 6.6L11.5051 0Z" fill="#F9C646" />
    <path
      d="M21.7271 10.8857L25.7475 8.65714L11.5479 0.428572L0.898193 6.47143L4.87579 8.78572L11.5479 5.01429L21.7271 10.8857Z"
      fill="#FFC215" />
    <path d="M19.503 9.6L11.5478 5.01429L4.87573 8.78571L12.7882 13.3714L19.503 9.6Z" fill="#FCBA15" />
    <path d="M11.5479 5.01429V0.428572L23.5662 7.37143L20.6151 10.2429L11.5479 5.01429Z" fill="#FFC215" />
    <path
      d="M31.9917 15.4714H32.0345C32.12 15.4286 33.6598 14.6571 34.3013 14.1857C34.8145 13.8 34.7718 13.2 34.7718 12.5143C34.7718 12.3857 34.7718 12.2571 34.7718 12.1286C34.7718 12.0857 34.729 12 34.6435 12C34.6007 12 34.5151 12.0429 34.5151 12.1286C34.5151 12.2571 34.5151 12.3857 34.5151 12.5143C34.5151 13.1571 34.5579 13.6714 34.1302 13.9714C33.4887 14.4429 31.9062 15.2571 31.9062 15.2571C31.8634 15.3 31.8206 15.3429 31.8634 15.3857C31.9062 15.4286 31.949 15.4714 31.9917 15.4714Z"
      fill="#DEEFFF" />
    <path
      d="M22.283 24.2143L25.7046 22.2C25.7046 22.2 25.1058 21.0429 23.6089 21.4286C22.1547 21.8571 21.2993 22.3714 21.2993 22.3714L22.283 24.2143Z"
      fill="#FFC215" />
    <path
      d="M23.4805 23.7429C23.4805 24.9429 24.2076 26.3571 25.1057 26.8714C26.0039 27.3857 26.731 26.8286 26.731 25.6286C26.731 24.4286 26.0039 23.0143 25.1057 22.5C24.2503 21.9857 23.4805 22.5429 23.4805 23.7429Z"
      fill="#282027" />
    <path d="M26.1751 27L25.1059 27.6L23.0957 22.9714L24.2077 22.3714L26.1751 27Z" fill="#282027" />
    <path
      d="M22.4541 24.3857C22.4541 25.5857 23.1812 27 24.0794 27.5143C24.9775 28.0286 25.7046 27.4714 25.7046 26.2714C25.7046 25.0714 24.9775 23.6571 24.0794 23.1429C23.1812 22.5857 22.4541 23.1429 22.4541 24.3857Z"
      fill="#3D333B" />
    <path
      d="M22.8818 24.6429C22.8818 25.5 23.3951 26.5286 24.0794 26.9143C24.7209 27.3 25.2769 26.8714 25.2769 26.0143C25.2769 25.1571 24.7637 24.1286 24.0794 23.7429C23.4378 23.3571 22.8818 23.7857 22.8818 24.6429Z"
      fill="white" />
    <path
      d="M23.395 24.9857C23.395 25.4143 23.6516 25.9286 23.9938 26.1429C24.336 26.3143 24.5926 26.1429 24.5926 25.6714C24.5926 25.2429 24.336 24.7286 23.9938 24.5143C23.6944 24.3 23.395 24.5143 23.395 24.9857Z"
      fill="#3D333B" />
    <path
      d="M23.5234 25.0286C23.5234 25.4143 23.7373 25.8429 24.0367 25.9714C24.2933 26.1429 24.5499 25.9714 24.5499 25.5857C24.5499 25.2 24.3361 24.7714 24.0367 24.6429C23.7373 24.4714 23.5234 24.6429 23.5234 25.0286Z"
      fill="#7C6B7C" />
    <path
      d="M33.9165 14.6571C33.7027 13.9286 33.4033 12.9 33.0183 11.6571C32.6762 10.5 32.334 9.81429 31.9919 9.34286L28.2281 11.5286L24.2077 13.8857L21 15.7286L23.3096 20.8286L29.7678 17.1L33.9165 14.6571Z"
      fill="#FCBA15" />
    <path
      d="M30.6659 8.27143C29.5967 7.67143 24.9775 4.97143 23.8227 4.28571C23.4378 4.07143 23.1384 3.94286 22.8818 3.85714C16.8512 7.28571 13.002 9.6 13.002 9.6L20.5294 15.9857L24.2077 13.8429L32.0345 9.3C31.6496 8.82857 31.2219 8.57143 30.6659 8.27143Z"
      fill="#F9C646" />
    <path d="M33.9165 14.6571L24.0366 20.4L31.6497 25.2L41.5295 19.4571L33.9165 14.6571Z" fill="#F9C646" />
    <path
      d="M31.6496 25.2C29.9816 24.1714 25.6191 21.3857 24.0366 20.4C23.8227 19.6714 23.5233 18.6429 23.1384 17.4C22.4113 15.0429 21.8553 14.6571 20.7861 14.0143C19.7168 13.4143 15.0977 10.7143 13.9429 10.0286C13.558 9.81428 13.2158 9.68571 13.002 9.6V18.8143L22.1975 24.1286L22.4969 22.2857L24.0366 22.4571L26.004 23.9571L26.5172 26.6571L31.6496 29.6571C31.6496 29.6571 31.6924 26.9143 31.6496 25.2Z"
      fill="#FFC215" />
    <path d="M31.6494 29.6571V25.2L41.5293 19.4571V23.8714L31.6494 29.6571Z" fill="#FCBA15" />
    <path d="M34.2586 24.0857L31.9062 25.4571V27.4714L34.2586 26.1V24.0857Z" fill="#3D333B" />
    <path d="M32.847 25.1143L32.0771 25.5857V27.1714L32.847 26.7429V25.1143Z" fill="#FAC155" />
    <path d="M38.7066 21.5143L34.5151 23.9571V26.2714L38.7066 23.8286V21.5143Z" fill="#3D333B" />
    <path d="M38.5353 21.8143L34.686 24.0857V25.9714L38.5353 23.7429V21.8143Z" fill="#7C6B7C" />
    <path d="M38.5353 21.9429L34.686 24.2143V24.4286L38.5353 22.2V21.9429Z" fill="#3D333B" />
    <path d="M38.5353 22.4571L34.686 24.6857V24.9429L38.5353 22.6714V22.4571Z" fill="#3D333B" />
    <path d="M38.5353 22.8857L34.686 25.1143V25.3714L38.5353 23.1V22.8857Z" fill="#3D333B" />
    <path d="M38.5353 23.4L34.686 25.6286V25.8429L38.5353 23.6143V23.4Z" fill="#3D333B" />
    <path d="M41.3157 19.9714L38.9634 21.3429V23.3571L41.3157 21.9857V19.9714Z" fill="#3D333B" />
    <path
      d="M25.9612 23.4857C25.5763 22.7571 24.9347 22.2429 24.3787 21.9C23.0529 21.1286 21.7698 22.1143 21.7698 23.8714C21.8553 23.9143 22.1119 24.0857 22.1119 24.0857C22.1119 22.5857 23.0529 21.7286 24.1649 22.3714C24.336 22.5 24.9775 23.3143 24.9775 23.3143L25.6618 24.3L25.7474 24.3429C25.9612 24.9 26.0468 25.7571 26.0468 26.3571C26.2606 26.5286 26.7311 26.7857 26.8166 26.7857C26.8166 26.0571 26.6455 24.7714 25.9612 23.4857Z"
      fill="#F9C646" />
    <path
      d="M24.1222 22.3714C25.7047 23.3143 26.3034 24.9429 26.3034 26.5286C26.2607 26.4857 26.0041 26.3571 25.8757 26.2714V26.2286C25.8757 24.9 25.0631 23.3571 24.0794 22.8C23.0957 22.2429 22.2831 22.8429 22.2831 24.1714V24.2143C22.1548 24.1286 22.0692 24.0857 21.9409 24C21.9409 22.4143 22.9246 21.6857 24.1222 22.3714Z"
      fill="#FCBA15" />
    <path
      d="M34.045 25.2C34.045 25.5857 33.8312 26.0143 33.5318 26.1429C33.2752 26.3143 33.0186 26.1429 33.0186 25.7571C33.0186 25.3714 33.2324 24.9429 33.5318 24.8143C33.7884 24.6857 34.045 24.8571 34.045 25.2Z"
      fill="white" />
    <path d="M41.1019 20.3143L40.332 20.7429V22.3714L41.1019 21.9V20.3143Z" fill="#FAC155" />
    <path
      d="M40.1608 21.6429C40.1608 22.0286 39.9469 22.4571 39.6475 22.5857C39.3909 22.7571 39.1343 22.5857 39.1343 22.2C39.1343 21.8143 39.3481 21.3857 39.6475 21.2571C39.9041 21.1286 40.1608 21.3 40.1608 21.6429Z"
      fill="white" />
    <path d="M31.6927 30L31.6499 28.5429L42.0002 22.5V23.9571L31.6927 30Z" fill="#493E47" />
    <path d="M38.5356 24.7714L35.1567 26.7429V27.6857L38.5356 25.7143V24.7714Z" fill="white" />
    <path d="M28.8267 28.3286L31.6922 30L31.6495 28.5429L28.8267 26.8714V28.3286Z" fill="#3D333B" />
    <path
      d="M28.8267 26.8714L29.126 26.7429L31.6495 28.1571L41.5293 22.4143V22.2L41.9998 22.5L31.6495 28.5429L28.8267 26.8714Z"
      fill="#7C6B7C" />
    <path
      d="M40.1181 19.8857L32.6333 24.2143C32.6333 24.2143 31.1792 23.0143 30.5376 22.5429C29.8961 22.0714 25.448 19.3286 25.448 19.3286L32.9327 14.9571C32.9327 14.9571 36.8676 17.3143 37.5946 17.8714C38.9633 18.8143 40.1181 19.8857 40.1181 19.8857Z"
      fill="#FCBA15" />
    <path
      d="M25.448 19.5857L32.5906 24.2571C32.5906 24.2571 31.9918 23.5286 30.11 22.2429C28.1425 20.8714 25.4053 19.3714 25.4053 19.3714V19.5857H25.448Z"
      fill="#FFC431" />
    <path
      d="M23.3951 14.7857C22.8819 15.1286 23.053 15.4714 23.3524 16.1571C23.6517 16.8429 23.9511 17.9143 24.1222 18.5571C24.2933 19.2 24.4216 19.6714 25.3198 19.2C26.1752 18.7714 32.6334 14.9143 33.1039 14.5714C33.5744 14.2286 33.3605 13.9714 33.2322 13.4143C33.0611 12.6 32.334 10.7143 32.0774 10.3714C31.8636 10.0714 31.4786 10.1143 31.0509 10.3714C30.666 10.6714 23.8656 14.4857 23.3951 14.7857Z"
      fill="#3D333B" />
    <path
      d="M32.7189 14.2286L32.7617 14.1857C33.1039 13.8857 32.9756 13.6714 32.7189 12.7286C32.4195 11.7429 31.9063 10.3714 31.4786 10.5429C31.2648 10.6286 30.9654 10.8 30.4094 11.1C29.7678 11.4429 28.8269 11.9571 28.4419 12.1714C27.8432 12.5143 24.4216 14.4429 24.0367 14.7C23.5662 15 23.224 15.2143 23.4806 15.8571C23.5234 15.9429 23.5662 16.0286 23.609 16.1571C24.892 15.4714 27.2872 14.2286 28.6558 13.5857C30.4521 12.6857 31.6069 12.3429 32.7189 14.2286Z"
      fill="#5D80B3" />
    <path
      d="M25.2341 18.6429C26.2178 18.1286 28.3136 16.9286 29.2117 16.3714C30.4093 15.6 32.3339 14.5714 32.7189 14.2286C31.5641 12.3857 30.4521 12.7286 28.6557 13.5857C27.2871 14.2714 24.892 15.5143 23.6089 16.1571C23.9083 16.8857 24.3787 18.1714 24.5071 18.4714C24.5498 18.6 24.6781 18.9 25.2341 18.6429Z"
      fill="#779CC9" />
    <path
      d="M22.5825 17.2286C22.1975 15.6429 21.7271 15.0429 20.444 14.2714C19.2892 13.5429 15.4399 11.4857 14.3707 10.8429C14.1996 10.7143 14.0285 10.6286 13.8574 10.5429V10.8C14.0285 10.8857 14.1996 11.0143 14.4134 11.1429C15.4399 11.7429 19.1181 13.7571 20.2301 14.4429C21.4705 15.2143 21.9409 15.7286 22.2831 17.2714C22.5825 18.5571 22.7536 19.4571 22.8391 19.7571L23.1385 19.9286C23.1812 19.9286 22.9674 18.8571 22.5825 17.2286Z"
      fill="#3D333B" />
    <path
      d="M22.3258 17.2714C21.9409 15.7286 21.5132 15.1714 20.2729 14.4429C19.1608 13.7571 15.4399 11.7857 14.4562 11.1429C14.2423 11.0143 14.0712 10.8857 13.9001 10.8V12C16.0814 13.1571 19.0753 14.8286 19.8024 15.3429C21.0427 16.2 21.3849 17.2714 21.6843 18.7714C21.727 18.9 21.727 18.9857 21.727 19.0714L22.9246 19.7571C22.839 19.4571 22.6252 18.5571 22.3258 17.2714Z"
      fill="#5D80B3" />
    <path
      d="M13.8574 14.5286L21.6843 19.0714C21.6843 18.9857 21.6415 18.8571 21.6415 18.7714C21.3421 17.2714 21.0428 16.2 19.7597 15.3429C19.0326 14.8714 16.0387 13.2 13.8574 12V14.5286Z"
      fill="#779CC9" />
    <path d="M16.8513 16.2857L16.6802 16.1571V12.3L16.8513 12.4286V16.2857Z" fill="#3D333B" />
    <path
      d="M18.3483 17.7L17.4929 17.1857C17.4073 17.1429 17.3218 17.1857 17.3218 17.3143C17.3218 17.4429 17.4073 17.5714 17.4929 17.6143L18.3483 18.1286C18.4338 18.1714 18.5193 18.1286 18.5193 18C18.5193 17.9143 18.4338 17.7429 18.3483 17.7Z"
      fill="#7C6B7C" />
    <path
      d="M13.8147 9.12857C13.8147 9.12857 16.167 10.5 17.7495 11.3571C19.332 12.2143 22.0265 14.0571 22.0265 14.0571C22.0265 14.0571 20.1446 12.3857 17.9206 11.1857C15.7393 9.94286 13.8147 9.12857 13.8147 9.12857Z"
      fill="#FFC431" />
    <path
      d="M22.2402 4.24286C22.2402 4.24286 24.5926 5.61429 26.1751 6.47143C27.7575 7.32857 30.452 9.17143 30.452 9.17143C30.452 9.17143 28.5702 7.5 26.3461 6.3C24.1221 5.05714 22.2402 4.24286 22.2402 4.24286Z"
      fill="#FFC431" />
    <path d="M13.8575 14.5286L13.6008 14.3571V10.4571L13.8575 10.5857V14.5286Z" fill="#3D333B" />
    <path
      d="M0 6.47143V11.3143L4.06314 13.6286L4.49083 11.7857L7.14257 12.7714L8.29735 16.1143L13.002 18.8143V14.0143L0 6.47143Z"
      fill="#FFC215" />
    <path
      d="M7.95512 13.0286C7.57019 12.3 6.92864 11.7857 6.37263 11.4429C5.04677 10.6714 3.76367 11.6571 3.76367 13.4143C3.84921 13.4571 4.10583 13.6286 4.10583 13.6286C4.10583 12.1286 5.04677 11.2714 6.15878 11.9143C6.32986 12.0429 6.97141 12.8571 6.97141 12.8571L7.65573 13.8429L7.74127 13.8857C7.95512 14.4429 8.04066 15.3 8.04066 15.9C8.25451 16.0714 8.72498 16.3286 8.81052 16.3286C8.81052 15.6 8.63944 14.3143 7.95512 13.0286Z"
      fill="#F9C646" />
    <path
      d="M6.11608 11.9143C7.69856 12.8571 8.29734 14.4857 8.29734 16.0714C8.25457 16.0286 7.99795 15.9 7.86964 15.8143V15.7714C7.86964 14.4429 7.05701 12.9 6.07331 12.3429C5.0896 11.7857 4.27697 12.3857 4.27697 13.7143V13.7571C4.14866 13.6714 4.06312 13.6286 3.93481 13.5429C3.93481 11.9571 4.91852 11.2286 6.11608 11.9143Z"
      fill="#FCBA15" />
    <path
      d="M7.99805 13.6286C8.12636 13.9714 8.2119 14.3143 8.29744 14.6571L22.1121 22.6714C22.2404 22.4571 22.4115 22.2857 22.6253 22.1571L7.99805 13.6286Z"
      fill="#F9C646" />
    <path d="M4.66191 11.7L0 9V9.85714L4.14868 12.2571C4.27699 12.0429 4.44807 11.8286 4.66191 11.7Z" fill="#F9C646" />
    <path d="M16.8513 21.0857L16.6802 20.9571V16.1571L16.8513 16.2857V21.0857Z" fill="#FFC215" />
    <path
      d="M21.9836 20.9571C22.1547 20.9571 22.283 20.8714 22.4541 20.7857L23.5233 20.1429C23.5661 20.1 23.6089 20.0571 23.5661 20.0143C23.5233 19.9714 23.4806 19.9286 23.4378 19.9714L22.3685 20.6143C22.1547 20.7429 21.9836 20.7857 21.9408 20.7429C21.727 20.6143 21.7698 19.7571 21.7698 19.5C21.7698 19.4571 21.727 19.3714 21.6842 19.3714C21.6415 19.3714 21.5559 19.4143 21.5559 19.4571C21.5131 20.3571 21.5987 20.7857 21.8553 20.9143C21.8981 20.9571 21.9408 20.9571 21.9836 20.9571Z"
      fill="#DEEFFF" />
    <path
      d="M22.2832 18.9857C22.2832 19.5 21.9838 20.0571 21.5989 20.2714C21.2139 20.4857 20.9146 20.2714 20.9146 19.7571C20.9146 19.2429 21.2139 18.6857 21.5989 18.4714C21.9838 18.2571 22.2832 18.5143 22.2832 18.9857Z"
      fill="#FFC215" />
    <path d="M21.4278 20.4429L21.1284 20.3143L22.0266 18.4286L22.2832 18.6L21.4278 20.4429Z" fill="#FFC215" />
    <path
      d="M22.5398 19.1571C22.5398 19.6714 22.2404 20.2286 21.8555 20.4429C21.4705 20.6571 21.1711 20.4429 21.1711 19.9286C21.1711 19.4143 21.4705 18.8571 21.8555 18.6429C22.2404 18.4286 22.5398 18.6429 22.5398 19.1571Z"
      fill="#FCBA15" />
    <path
      d="M35.2422 11.8286C35.2422 12.3429 34.9428 12.9 34.5579 13.1143C34.1729 13.3286 33.8735 13.1143 33.8735 12.6C33.8735 12.0857 34.1729 11.5286 34.5579 11.3143C34.9428 11.1429 35.2422 11.3571 35.2422 11.8286Z"
      fill="#FFC215" />
    <path d="M34.4298 13.3286L34.1304 13.1571L35.0285 11.3143L35.2424 11.4429L34.4298 13.3286Z" fill="#FFC215" />
    <path
      d="M35.499 12C35.499 12.5143 35.1996 13.0714 34.8147 13.2857C34.4298 13.5 34.1304 13.2857 34.1304 12.7714C34.1304 12.2571 34.4298 11.7 34.8147 11.4857C35.1996 11.2714 35.499 11.4857 35.499 12Z"
      fill="#FCBA15" />
  </g>
  <defs>
    <clipPath id="clip0_355_2188">
      <rect width="42" height="30" fill="white" />
    </clipPath>
  </defs>
</svg>
