<svg width="100%" height="100%" viewBox="0 0 48 48" fill="none" xmlns="http://www.w3.org/2000/svg">
<mask id="mask0_1603_8309" style="mask-type:alpha" maskUnits="userSpaceOnUse" x="0" y="0" width="48" height="48">
<rect width="100%" height="100%" fill="#D9D9D9"/>
</mask>
<g mask="url(#mask0_1603_8309)">
<path d="M23.9982 46.3C22.7661 46.3 21.7083 45.825 20.825 44.875C19.9417 43.925 19.5 42.75 19.5 41.35H28.5C28.5 42.75 28.0578 43.925 27.1733 44.875C26.2887 45.825 25.2304 46.3 23.9982 46.3ZM17.3467 37.95C16.8164 37.95 16.3844 37.7801 16.0506 37.4403C15.7169 37.1005 15.55 36.6721 15.55 36.1553C15.55 35.6526 15.7204 35.2261 16.0612 34.8757C16.4021 34.5252 16.8317 34.35 17.35 34.35H30.7C31.2042 34.35 31.6219 34.5253 31.9531 34.8759C32.2844 35.2265 32.45 35.6532 32.45 36.1562C32.45 36.6591 32.2844 37.0838 31.9531 37.4303C31.6219 37.7768 31.2042 37.95 30.7 37.95H17.3467ZM15.8 31C13.4 29.4333 11.4583 27.4701 9.975 25.1103C8.49167 22.7505 7.75 20.0805 7.75 17.1002C7.75 12.7084 9.35343 8.90209 12.5603 5.68126C15.7672 2.46042 19.5755 0.850006 23.9853 0.850006C28.3951 0.850006 32.2167 2.46042 35.45 5.68126C38.6833 8.90209 40.3 12.7083 40.3 17.1C40.3 20.0667 39.5667 22.7333 38.1 25.1C36.6333 27.4667 34.6667 29.4333 32.2 31H15.8Z" fill="currentColor"/>
</g>
</svg>
