<svg width="22" height="22" viewBox="0 0 22 22" fill="none" xmlns="http://www.w3.org/2000/svg">
<g clip-path="url(#clip0_109_3722)">
<path d="M1 6L5.41 1.59C5.79 1.21 6.3 1 6.83 1H15.17C15.7 1 16.21 1.21 16.59 1.59L21 6" stroke="currentColor" stroke-width="2" stroke-linecap="round" stroke-linejoin="round"/>
<path d="M19 12.6V11" stroke="currentColor" stroke-width="2" stroke-linecap="round" stroke-linejoin="round"/>
<path d="M3 11V19C3 20.1 3.9 21 5 21H13.77" stroke="currentColor" stroke-width="2" stroke-linecap="round" stroke-linejoin="round"/>
<path d="M13.53 15.71C13.16 15.28 12.61 15 12 15H10C8.9 15 8 15.9 8 17V21" stroke="currentColor" stroke-width="2" stroke-linecap="round" stroke-linejoin="round"/>
<path d="M1 6H21" stroke="currentColor" stroke-width="2" stroke-linecap="round" stroke-linejoin="round"/>
<path d="M21 6V9C21 10.1 20.1 11 19 11C18.42 10.97 17.86 10.75 17.41 10.37C17.17 10.19 16.83 10.19 16.59 10.37C16.14 10.75 15.58 10.97 15 11C14.42 10.97 13.86 10.75 13.41 10.37C13.17 10.19 12.83 10.19 12.59 10.37C12.14 10.75 11.58 10.97 11 11C10.42 10.97 9.86 10.75 9.41 10.37C9.17 10.19 8.83 10.19 8.59 10.37C8.14 10.75 7.58 10.97 7 11C6.42 10.97 5.86 10.75 5.41 10.37C5.17 10.19 4.83 10.19 4.59 10.37C4.14 10.75 3.58 10.97 3 11C1.9 11 1 10.1 1 9V6" stroke="currentColor" stroke-width="2" stroke-linecap="round" stroke-linejoin="round"/>
<path d="M14.39 18H20.39" stroke="currentColor" stroke-width="2" stroke-linecap="round" stroke-linejoin="round"/>
<path d="M17.39 15V21" stroke="currentColor" stroke-width="2" stroke-linecap="round" stroke-linejoin="round"/>
</g>
<defs>
<clipPath id="clip0_109_3722">
<rect width="22" height="22" fill="white"/>
</clipPath>
</defs>
</svg>
