<svg width="100%" height="100%" viewBox="0 0 9 9" fill="none" xmlns="http://www.w3.org/2000/svg">
<path d="M0.520833 3.40629L2.27083 1.65629C2.36806 1.55906 2.48264 1.48962 2.61458 1.44795C2.74653 1.40629 2.88194 1.39934 3.02083 1.42712L3.5625 1.5417C3.1875 1.98615 2.89236 2.38892 2.67708 2.75004C2.46181 3.11115 2.25347 3.54865 2.05208 4.06254L0.520833 3.40629ZM2.65625 4.3542C2.81597 3.8542 3.03299 3.38198 3.30729 2.93754C3.5816 2.49309 3.91319 2.07642 4.30208 1.68754C4.91319 1.07642 5.61111 0.619827 6.39583 0.317744C7.18056 0.0156606 7.91319 -0.0763532 8.59375 0.0417023C8.71181 0.722258 8.62153 1.4549 8.32292 2.23962C8.02431 3.02434 7.56944 3.72226 6.95833 4.33337C6.57639 4.71531 6.15972 5.04691 5.70833 5.32816C5.25694 5.60941 4.78125 5.8299 4.28125 5.98962L2.65625 4.3542ZM5.53125 3.1042C5.69097 3.26392 5.88715 3.34379 6.11979 3.34379C6.35243 3.34379 6.54861 3.26392 6.70833 3.1042C6.86806 2.94448 6.94792 2.7483 6.94792 2.51566C6.94792 2.28302 6.86806 2.08684 6.70833 1.92712C6.54861 1.7674 6.35243 1.68754 6.11979 1.68754C5.88715 1.68754 5.69097 1.7674 5.53125 1.92712C5.37153 2.08684 5.29167 2.28302 5.29167 2.51566C5.29167 2.7483 5.37153 2.94448 5.53125 3.1042ZM5.23958 8.11462L4.57292 6.58337C5.08681 6.38198 5.52604 6.17365 5.89062 5.95837C6.25521 5.74309 6.65972 5.44795 7.10417 5.07295L7.20833 5.61462C7.23611 5.75351 7.22917 5.89066 7.1875 6.02608C7.14583 6.16149 7.07639 6.27781 6.97917 6.37504L5.23958 8.11462ZM1.1875 5.68754C1.43056 5.44448 1.72569 5.32122 2.07292 5.31774C2.42014 5.31427 2.71528 5.43406 2.95833 5.67712C3.20139 5.92017 3.32292 6.21531 3.32292 6.56254C3.32292 6.90976 3.20139 7.2049 2.95833 7.44795C2.78472 7.62156 2.49479 7.77087 2.08854 7.89587C1.68229 8.02087 1.12153 8.13198 0.40625 8.2292C0.503472 7.51392 0.614583 6.9549 0.739583 6.55212C0.864583 6.14934 1.01389 5.86115 1.1875 5.68754Z" fill="currentColor"/>
</svg>
