<svg width="100%" height="100%" viewBox="0 0 146 146" fill="none" xmlns="http://www.w3.org/2000/svg">
<path d="M52.6248 30.9609C54.0058 24.8752 61.4568 22.5666 66.0367 26.8053L119.595 76.3743C124.174 80.613 122.448 88.2201 116.487 90.067L46.7806 111.665C40.8197 113.512 35.0949 108.214 36.4758 102.128L52.6248 30.9609Z" fill="#FF453A"/>
<path d="M73.2613 87.0504C73.0752 86.4496 73.0092 85.818 73.0671 85.1917C73.125 84.5654 73.3058 83.9567 73.599 83.4002C73.8922 82.8437 74.2921 82.3505 74.7759 81.9486C75.2597 81.5467 75.818 81.244 76.4188 81.0579C77.0196 80.8717 77.6512 80.8057 78.2775 80.8637C78.9038 80.9216 79.5125 81.1023 80.069 81.3955C80.6255 81.6887 81.1187 82.0886 81.5206 82.5725C81.9225 83.0563 82.2252 83.6146 82.4113 84.2154C82.7873 85.4287 82.6658 86.7417 82.0737 87.8656C81.4815 88.9894 80.4672 89.8319 79.2538 90.2079C78.0405 90.5838 76.7275 90.4624 75.6036 89.8702C74.4798 89.2781 73.6373 88.2638 73.2613 87.0504ZM65.1974 59.4385C64.9577 58.8802 64.838 58.2778 64.8461 57.6702C64.8542 57.0627 64.99 56.4636 65.2446 55.9119C65.4991 55.3602 65.8669 54.8682 66.3239 54.4678C66.7809 54.0674 67.317 53.7676 67.8974 53.5878C68.4778 53.4079 69.0895 53.3521 69.6928 53.424C70.2962 53.4958 70.8777 53.6937 71.3996 54.0048C71.9215 54.3159 72.3722 54.7333 72.7224 55.2298C73.0726 55.7263 73.3145 56.2909 73.4324 56.887L76.8024 73.4277C76.9301 74.0699 76.8154 74.7366 76.4804 75.2992C76.1455 75.8618 75.614 76.2804 74.9885 76.4741C74.3631 76.6679 73.6881 76.6232 73.0937 76.3485C72.4993 76.0739 72.0277 75.5889 71.7699 74.987L65.1974 59.4385Z" fill="white"/>
</svg>
