<svg width="100%" height="100%" viewBox="0 0 118 104" fill="none" xmlns="http://www.w3.org/2000/svg">
<path fill-rule="evenodd" clip-rule="evenodd" d="M106.247 56.8507C106.247 82.338 85.657 103 60.2589 103C34.8608 103 14.2715 82.338 14.2715 56.8507C14.2715 31.3635 34.8608 10.7014 60.2589 10.7014C85.657 10.7014 106.247 31.3635 106.247 56.8507Z" stroke="#FF453A" stroke-dasharray="5.02 5.02"/>
<path fill-rule="evenodd" clip-rule="evenodd" d="M94.4097 56.8506C94.4097 75.7776 79.1197 91.1213 60.2589 91.1213C41.3976 91.1213 26.1085 75.7776 26.1085 56.8506C26.1085 37.9235 41.3976 22.5798 60.2589 22.5798C79.1197 22.5798 94.4097 37.9235 94.4097 56.8506Z" stroke="#FF453A" stroke-dasharray="5.05 5.05"/>
<path d="M5.58368 63.0641L4.72986 63.0378" stroke="#E0E0E0" stroke-linecap="round"/>
<path d="M4.97111 61.4395L4.35876 62.0135" stroke="#E0E0E0" stroke-linecap="round"/>
<path d="M3.37515 60.6978L3.3623 61.5355" stroke="#E0E0E0" stroke-linecap="round"/>
<path d="M1.73022 61.2727L2.32485 61.8836" stroke="#E0E0E0" stroke-linecap="round"/>
<path d="M1 62.8284L1.85338 62.8546" stroke="#E0E0E0" stroke-linecap="round"/>
<path d="M1.6123 64.4529L2.22509 63.8789" stroke="#E0E0E0" stroke-linecap="round"/>
<path d="M3.2085 65.1951L3.22135 64.3574" stroke="#E0E0E0" stroke-linecap="round"/>
<path d="M4.85341 64.6197L4.25879 64.0088" stroke="#E0E0E0" stroke-linecap="round"/>
<path d="M116.932 51.1208L116.557 51.5286" stroke="#E0E0E0" stroke-linecap="round"/>
<path d="M115.17 51.4753L115.453 51.7372" stroke="#E0E0E0" stroke-linecap="round"/>
<path d="M114.885 53.2825L115.26 52.8748" stroke="#E0E0E0" stroke-linecap="round"/>
<path d="M116.646 52.9282L116.364 52.6663" stroke="#E0E0E0" stroke-linecap="round"/>
<path d="M82.5589 3.1995L81.651 3.17505" stroke="#E0E0E0" stroke-linecap="round"/>
<path d="M80.2098 1L80.196 1.77857" stroke="#E0E0E0" stroke-linecap="round"/>
<path d="M77.6832 2.98047L78.5911 3.00448" stroke="#E0E0E0" stroke-linecap="round"/>
<path d="M80.0323 5.17993L80.0461 4.40137" stroke="#E0E0E0" stroke-linecap="round"/>
<path fill-rule="evenodd" clip-rule="evenodd" d="M15.328 87.2632C14.6749 87.4593 13.5871 88.4224 13.2149 89.5643C13.1525 88.5033 12.4812 87.1699 11.7426 86.9778C12.6438 86.6581 13.6199 85.4829 13.8796 84.4927C13.8326 85.5305 14.7715 87.0374 15.328 87.2632Z" fill="#FF453A"/>
<path fill-rule="evenodd" clip-rule="evenodd" d="M30.6244 7.36979C30.1206 7.45916 29.2278 8.08166 28.852 8.8998C28.8968 8.10434 28.5117 7.05276 27.9783 6.84556C28.677 6.68549 29.5056 5.89491 29.7843 5.17993C29.6598 5.94916 30.2291 7.15325 30.6244 7.36979Z" fill="#FF453A"/>
<path fill-rule="evenodd" clip-rule="evenodd" d="M97.3975 13.1461C96.7244 13.1315 96.1909 12.5726 96.206 11.8976C96.2206 11.2226 96.7776 10.6873 97.4497 10.702C98.1228 10.7166 98.6563 11.2755 98.6416 11.9505C98.6266 12.6255 98.0701 13.1608 97.3975 13.1461Z" fill="#E0E0E0"/>
<path fill-rule="evenodd" clip-rule="evenodd" d="M97.4005 93.2494C96.8152 93.2369 96.3509 92.7501 96.3633 92.1627C96.3757 91.5749 96.8609 91.1089 97.4466 91.1213C98.0324 91.1342 98.4967 91.6207 98.4839 92.2085C98.471 92.7959 97.9863 93.2623 97.4005 93.2494Z" fill="#FF453A"/>
<path fill-rule="evenodd" clip-rule="evenodd" d="M9.33995 29.3696C8.9775 29.3616 8.68994 29.0606 8.69792 28.6964C8.70545 28.3327 9.00586 28.0446 9.3683 28.0521C9.73075 28.0602 10.0183 28.3612 10.0108 28.7249C10.0028 29.0891 9.70239 29.3776 9.33995 29.3696Z" stroke="#E0E0E0" stroke-linecap="round"/>
<path d="M51.2221 44.1128C52.2442 39.6085 57.759 37.8998 61.1488 41.0371L75.8666 54.6586C79.2563 57.7959 77.9787 63.4263 73.5668 64.7933L54.4113 70.7284C49.9995 72.0954 45.7622 68.1738 46.7843 63.6695L51.2221 44.1128Z" fill="#FF453A"/>
<path d="M60.6055 62.1777C60.5303 61.9349 60.5036 61.6797 60.527 61.4266C60.5504 61.1735 60.6234 60.9275 60.7419 60.7026C60.8604 60.4777 61.022 60.2784 61.2176 60.116C61.4131 59.9536 61.6387 59.8313 61.8815 59.7561C62.1242 59.6808 62.3795 59.6542 62.6326 59.6776C62.8857 59.701 63.1317 59.774 63.3565 59.8925C63.5814 60.011 63.7807 60.1726 63.9432 60.3681C64.1056 60.5636 64.2279 60.7892 64.3031 61.032C64.455 61.5224 64.4059 62.053 64.1667 62.5071C63.9274 62.9613 63.5175 63.3017 63.0271 63.4537C62.5368 63.6056 62.0062 63.5565 61.552 63.3172C61.0979 63.0779 60.7574 62.668 60.6055 62.1777ZM57.3468 51.0195C57.2499 50.7939 57.2015 50.5504 57.2048 50.3049C57.2081 50.0594 57.263 49.8173 57.3658 49.5943C57.4687 49.3714 57.6173 49.1726 57.802 49.0108C57.9867 48.849 58.2033 48.7278 58.4379 48.6551C58.6724 48.5824 58.9196 48.5599 59.1634 48.5889C59.4073 48.618 59.6422 48.6979 59.8532 48.8237C60.0641 48.9494 60.2462 49.118 60.3877 49.3187C60.5292 49.5193 60.627 49.7475 60.6746 49.9884L62.0365 56.6726C62.0881 56.9321 62.0417 57.2016 61.9064 57.4289C61.771 57.6563 61.5562 57.8254 61.3035 57.9037C61.0507 57.982 60.7779 57.964 60.5378 57.853C60.2976 57.742 60.107 57.546 60.0028 57.3027L57.3468 51.0195Z" fill="white"/>
</svg>
