<svg width="100%" height="100%" viewBox="0 0 16 16" fill="none" xmlns="http://www.w3.org/2000/svg">
<path d="M11.9942 6.11666C11.4092 6.11666 10.9111 5.91027 10.5 5.49749C10.0889 5.08483 9.88332 4.5876 9.88332 4.00583C9.88332 3.41305 10.0897 2.91111 10.5025 2.49999C10.9152 2.08888 11.4124 1.88333 11.9942 1.88333C12.5869 1.88333 13.0889 2.08805 13.5 2.49749C13.9111 2.90705 14.1167 3.40983 14.1167 4.00583C14.1167 4.59083 13.9119 5.08888 13.5025 5.49999C13.0929 5.91111 12.5902 6.11666 11.9942 6.11666ZM7.99332 15.0833C7.0221 15.0833 6.10543 14.9 5.24332 14.5333C4.3811 14.1667 3.62777 13.6611 2.98332 13.0167C2.33888 12.3722 1.83332 11.6189 1.46666 10.7567C1.09999 9.89455 0.916656 8.97788 0.916656 8.00666C0.916656 7.01333 1.09882 6.08544 1.46316 5.22299C1.82749 4.36055 2.33343 3.61005 2.98099 2.97149C3.62855 2.33283 4.38488 1.82788 5.24999 1.45666C6.11499 1.08555 7.04277 0.899994 8.03332 0.899994C8.43332 0.899994 8.77499 0.955549 9.05832 1.06666C9.34166 1.17777 9.5111 1.31666 9.56666 1.48333C9.59999 1.60133 9.60832 1.72955 9.59166 1.86799C9.57499 2.00644 9.52221 2.14488 9.43332 2.28333C9.24443 2.53888 9.10555 2.80555 9.01666 3.08333C8.92777 3.36111 8.88332 3.6676 8.88332 4.00283C8.88332 4.86327 9.18743 5.59733 9.79566 6.20499C10.404 6.81277 11.1388 7.11666 12 7.11666C12.2778 7.11666 12.5639 7.07222 12.8583 6.98333C13.1528 6.89444 13.4389 6.75555 13.7167 6.56666C13.8278 6.49999 13.9555 6.45833 14.1 6.44166C14.2444 6.42499 14.3833 6.43333 14.5167 6.46666C14.6944 6.51111 14.8361 6.67222 14.9417 6.94999C15.0472 7.22777 15.1 7.56666 15.1 7.96666C15.1 8.95722 14.9144 9.88499 14.5433 10.75C14.1721 11.6151 13.6672 12.3714 13.0285 13.019C12.3899 13.6666 11.6394 14.1725 10.777 14.5368C9.91455 14.9012 8.98666 15.0833 7.99332 15.0833Z" fill="currentColor"/>
</svg>
