<svg width="20" height="24" viewBox="0 0 20 24" fill="none" xmlns="http://www.w3.org/2000/svg">
<path d="M17.8136 20.9986C16.8176 22.4865 15.7617 23.9384 14.1538 23.9624C12.5459 23.9984 12.0299 23.0145 10.2061 23.0145C8.37019 23.0145 7.80623 23.9384 6.28229 23.9984C4.7104 24.0584 3.52247 22.4145 2.51454 20.9626C0.462677 17.9988 -1.10922 12.5392 1.00264 8.86741C2.04657 7.04353 3.91845 5.89161 5.94631 5.85561C7.48225 5.83161 8.94615 6.89954 9.89409 6.89954C10.83 6.89954 12.6059 5.61563 14.4658 5.80761C15.2457 5.84361 17.4296 6.11959 18.8335 8.18346C18.7255 8.25545 16.2297 9.71935 16.2537 12.7552C16.2897 16.3789 19.4335 17.5908 19.4695 17.6028C19.4335 17.6868 18.9655 19.3307 17.8136 20.9986ZM10.962 1.79988C11.838 0.803947 13.2899 0.0479968 14.4898 0C14.6458 1.40391 14.0818 2.81981 13.2419 3.82775C12.4139 4.84768 11.046 5.63963 9.7021 5.53163C9.52211 4.15172 10.1941 2.71182 10.962 1.79988Z" fill="black"/>
</svg>
