<svg width="100%" height="100%" viewBox="0 0 25 25" fill="none" xmlns="http://www.w3.org/2000/svg">
<mask id="mask0_409_3899" style="mask-type:alpha" maskUnits="userSpaceOnUse" x="0" y="0" width="25" height="25">
<rect width="25" height="25" fill="#D9D9D9"/>
</mask>
<g mask="url(#mask0_409_3899)">
<path d="M18.2032 16.0679L15.573 16.0679C15.3516 16.0679 15.1661 16.1432 15.0164 16.2938C14.8666 16.4444 14.7917 16.631 14.7917 16.8537C14.7917 17.0763 14.8666 17.2614 15.0164 17.409C15.1661 17.5566 15.3516 17.6304 15.573 17.6304L18.5417 17.6304C18.8846 17.6304 19.1743 17.5121 19.4109 17.2756C19.6474 17.039 19.7657 16.7493 19.7657 16.4064L19.7657 13.3595C19.7657 13.1382 19.6904 12.9526 19.5398 12.8029C19.3892 12.6532 19.2025 12.5783 18.9799 12.5783C18.7572 12.5783 18.5721 12.6532 18.4246 12.8029C18.277 12.9526 18.2032 13.1382 18.2032 13.3595L18.2032 16.0679ZM6.823 8.93245H9.45321C9.67456 8.93245 9.86011 8.85715 10.0098 8.70654C10.1596 8.55592 10.2345 8.36929 10.2345 8.14665C10.2345 7.92399 10.1596 7.73888 10.0098 7.59131C9.86011 7.44374 9.67456 7.36995 9.45321 7.36995L6.48446 7.36995C6.14157 7.36995 5.85186 7.48823 5.61532 7.72477C5.37877 7.96132 5.2605 8.25103 5.2605 8.59391L5.2605 11.6408C5.2605 11.8621 5.3358 12.0477 5.48641 12.1974C5.63703 12.3472 5.82367 12.422 6.04631 12.422C6.26896 12.422 6.45407 12.3472 6.60164 12.1974C6.74921 12.0477 6.823 11.8621 6.823 11.6408V8.93245ZM3.88029 21.4845C3.20234 21.4845 2.62486 21.246 2.14787 20.769C1.67087 20.292 1.43237 19.7146 1.43237 19.0366L1.43237 5.9637C1.43237 5.27858 1.67087 4.69498 2.14787 4.2129C2.62486 3.7308 3.20234 3.48975 3.88029 3.48975L21.1199 3.48975C21.805 3.48975 22.3886 3.7308 22.8707 4.2129C23.3528 4.69498 23.5938 5.27858 23.5938 5.9637L23.5938 19.0366C23.5938 19.7146 23.3528 20.292 22.8707 20.769C22.3886 21.246 21.805 21.4845 21.1199 21.4845L3.88029 21.4845Z" fill="#757575"/>
</g>
</svg>
