<svg width="100%" height="100%" viewBox="0 0 13 14" fill="none" xmlns="http://www.w3.org/2000/svg">
<mask id="mask0_3013_2832" style="mask-type:alpha" maskUnits="userSpaceOnUse" x="0" y="0" width="13" height="14">
<rect x="0.404053" y="13.0859" width="12.4238" height="12.4854" transform="rotate(-90 0.404053 13.0859)" fill="#D9D9D9"/>
</mask>
<g mask="url(#mask0_3013_2832)">
<path d="M12.1741 6.8721C12.1741 7.63252 12.0307 8.347 11.7438 9.01554C11.457 9.68408 11.0624 10.2682 10.5602 10.768C10.0579 11.2678 9.47143 11.6604 8.80078 11.9459C8.13013 12.2313 7.41271 12.374 6.64851 12.374C5.87565 12.374 5.1533 12.2313 4.48145 11.9459C3.8096 11.6604 3.22448 11.2685 2.7261 10.7701C2.2277 10.2716 1.83314 9.68842 1.54241 9.02044C1.25169 8.35246 1.10632 7.6379 1.10632 6.87675C1.10632 6.10698 1.25135 5.38731 1.54141 4.71775C1.83146 4.0482 2.22511 3.46579 2.72235 2.9705C3.21959 2.47521 3.80431 2.0831 4.47651 1.79418C5.1487 1.50526 5.8721 1.36081 6.64672 1.36081C7.41211 1.36081 8.13066 1.50545 8.80236 1.79475C9.47407 2.08404 10.0605 2.47666 10.5617 2.97259C11.063 3.46852 11.457 4.05016 11.7438 4.71751C12.0307 5.38485 12.1741 6.10305 12.1741 6.8721ZM9.31287 8.81511L8.46658 7.00078C8.44119 6.95501 8.43066 6.91379 8.43499 6.87712C8.43933 6.84045 8.45017 6.80055 8.46751 6.75741L9.31287 4.91972C9.37357 4.80756 9.35623 4.70403 9.26085 4.60912C9.16548 4.51422 9.04843 4.48834 8.9097 4.53147L3.92854 6.60211C3.81583 6.65388 3.75947 6.74447 3.75947 6.87389C3.75947 7.0033 3.81583 7.09389 3.92854 7.14566L8.9097 9.2163C9.04843 9.25944 9.16548 9.23355 9.26085 9.13865C9.35623 9.04374 9.37357 8.9359 9.31287 8.81511Z" fill="currentColor"/>
</g>
</svg>
