<svg width="11" height="12" viewBox="0 0 11 12" fill="none" xmlns="http://www.w3.org/2000/svg">
<mask id="mask0_4230_2967" style="mask-type:alpha" maskUnits="userSpaceOnUse" x="0" y="0" width="11" height="12">
<rect x="0.864075" y="11.043" width="10.0859" height="10.1359" transform="rotate(-90 0.864075 11.043)" fill="#D9D9D9"/>
</mask>
<g mask="url(#mask0_4230_2967)">
<path d="M10.4193 5.99839C10.4193 6.61572 10.3028 7.19575 10.07 7.73847C9.8371 8.28121 9.51679 8.75545 9.10903 9.16119C8.70128 9.56693 8.22518 9.88566 7.68073 10.1174C7.13628 10.3491 6.55386 10.465 5.93347 10.465C5.30605 10.465 4.71962 10.3491 4.17421 10.1174C3.62878 9.88566 3.15377 9.56748 2.74917 9.16284C2.34456 8.7582 2.02425 8.28474 1.78823 7.74246C1.55221 7.20018 1.4342 6.62008 1.4342 6.00216C1.4342 5.37724 1.55194 4.79301 1.78742 4.24944C2.02289 3.70589 2.34246 3.23307 2.74613 2.83098C3.1498 2.4289 3.62449 2.11058 4.17019 1.87602C4.71589 1.64148 5.30317 1.5242 5.93202 1.5242C6.55338 1.5242 7.13671 1.64163 7.68201 1.87648C8.22732 2.11134 8.70342 2.43007 9.11031 2.83268C9.51721 3.23529 9.8371 3.70747 10.07 4.24924C10.3028 4.79101 10.4193 5.37405 10.4193 5.99839ZM8.09646 7.57576L7.40942 6.10285C7.3888 6.06569 7.38026 6.03223 7.38378 6.00246C7.38729 5.9727 7.39609 5.9403 7.41017 5.90528L8.09646 4.4134C8.14573 4.32235 8.13165 4.2383 8.05422 4.16125C7.9768 4.08421 7.88177 4.0632 7.76915 4.09822L3.72534 5.77921C3.63384 5.82123 3.58809 5.89478 3.58809 5.99984C3.58809 6.1049 3.63384 6.17844 3.72534 6.22047L7.76915 7.90146C7.88177 7.93648 7.9768 7.91546 8.05422 7.83842C8.13165 7.76137 8.14573 7.67382 8.09646 7.57576Z" fill="#AFAFAF"/>
</g>
</svg>
