<svg width="100%" height="100%" viewBox="0 0 41 60" fill="none" xmlns="http://www.w3.org/2000/svg">
<path d="M11.1249 39.25H3.31243C2.10409 39.25 1.21868 38.7292 0.656178 37.6875C0.0936779 36.6458 0.166595 35.625 0.874928 34.625L24.3749 0.749991C24.7916 0.166658 25.3124 -0.218759 25.9374 -0.406259C26.5624 -0.593759 27.1874 -0.562509 27.8124 -0.312509C28.4374 -0.104175 28.9374 0.302075 29.3124 0.906241C29.6874 1.51041 29.8333 2.14582 29.7499 2.81249L27.1874 23.1875H37.1249C38.3749 23.1875 39.2603 23.75 39.7812 24.875C40.302 26 40.1874 27.0417 39.4374 28L13.8124 58.875C13.3958 59.4167 12.8645 59.7604 12.2187 59.9062C11.5728 60.0521 10.9374 59.9792 10.3124 59.6875C9.72909 59.4375 9.28118 59.0312 8.96868 58.4687C8.65618 57.9062 8.54159 57.2708 8.62493 56.5625L11.1249 39.25Z" fill="currentColor"/>
</svg>
