<svg width="100%" height="100%" viewBox="0 0 48 48" fill="none" xmlns="http://www.w3.org/2000/svg">
<mask id="mask0_1603_8303" style="mask-type:alpha" maskUnits="userSpaceOnUse" x="0" y="0" width="48" height="48">
<rect width="100%" height="100%" fill="#D9D9D9"/>
</mask>
<g mask="url(#mask0_1603_8303)">
<path d="M11.45 45.25C10.1483 45.25 9.03958 44.7921 8.12375 43.8763C7.20792 42.9604 6.75 41.8517 6.75 40.55V7.45001C6.75 6.13458 7.20792 5.01406 8.12375 4.08846C9.03958 3.16283 10.1483 2.70001 11.45 2.70001H36.55C37.8654 2.70001 38.986 3.16283 39.9116 4.08846C40.8372 5.01406 41.3 6.13458 41.3 7.45001V40.55C41.3 41.8517 40.8372 42.9604 39.9116 43.8763C38.986 44.7921 37.8654 45.25 36.55 45.25H11.45ZM24.4 7.45001V18.75C24.4 19.1833 24.5956 19.5167 24.9867 19.75C25.3778 19.9833 25.7656 19.9833 26.15 19.75L28.05 18.65C28.407 18.45 28.8046 18.35 29.2428 18.35C29.6809 18.35 30.0833 18.45 30.45 18.65L32.35 19.75C32.7242 19.9833 33.1094 19.9833 33.5056 19.75C33.9019 19.5167 34.1 19.1833 34.1 18.75V7.45001H24.4Z" fill="currentColor"/>
</g>
</svg>
