<svg width="100%" height="100%" viewBox="0 0 48 48" fill="none" xmlns="http://www.w3.org/2000/svg">
  <mask id="mask0_3214_6481" style="mask-type:alpha" maskUnits="userSpaceOnUse" x="0" y="0" width="48" height="48">
    <rect width="100%" height="100%" fill="#D9D9D9" />
  </mask>
  <g mask="url(#mask0_3214_6481)">
    <path
      d="M9.45 43.25C8.125 43.25 7.01042 42.7979 6.10625 41.8938C5.20208 40.9896 4.75 39.875 4.75 38.55V13.9C4.75 13.3706 4.84167 12.853 5.025 12.3471C5.20833 11.8412 5.46667 11.3755 5.8 10.95L9.45 6.20001C9.88333 5.66668 10.399 5.28335 10.997 5.05001C11.5951 4.81668 12.2294 4.70001 12.9 4.70001H35.1C35.7373 4.70001 36.3549 4.81668 36.953 5.05001C37.551 5.28335 38.0667 5.66668 38.5 6.20001L42.25 10.95C42.55 11.3755 42.8 11.8412 43 12.3471C43.2 12.853 43.3 13.3706 43.3 13.9V24.2C42.4667 23.8667 41.6247 23.6167 40.7742 23.45C39.9236 23.2833 39.0489 23.2 38.15 23.2C37.15 23.2 36.1917 23.3333 35.275 23.6C34.3583 23.8667 33.5 24.2167 32.7 24.65V16.05H15.35V29.4C15.35 30.2833 15.7167 30.9625 16.45 31.4375C17.1833 31.9125 17.9333 31.95 18.7 31.55L24 28.9L27.1 30.45C26.7 31.2167 26.4083 32.025 26.225 32.875C26.0417 33.725 25.95 34.6 25.95 35.5C25.95 36.9667 26.2 38.3583 26.7 39.675C27.2 40.9917 27.9167 42.1833 28.85 43.25H9.45ZM35.8 37.85H32.15C31.4917 37.85 30.9354 37.6221 30.4813 37.1663C30.0271 36.7104 29.8 36.1354 29.8 35.4413C29.8 34.7804 30.0271 34.225 30.4813 33.775C30.9354 33.325 31.4917 33.1 32.15 33.1H35.8V29.45C35.8 28.7917 36.0279 28.2354 36.4837 27.7813C36.9396 27.3271 37.4979 27.1 38.1587 27.1C38.8196 27.1 39.375 27.3271 39.825 27.7813C40.275 28.2354 40.5 28.7917 40.5 29.45V33.1H44.15C44.8083 33.1 45.3646 33.3279 45.8188 33.7838C46.2729 34.2396 46.5 34.798 46.5 35.4588C46.5 36.1529 46.2729 36.725 45.8188 37.175C45.3646 37.625 44.8083 37.85 44.15 37.85H40.5V41.45C40.5 42.1417 40.2721 42.7146 39.8162 43.1688C39.3604 43.6229 38.8021 43.85 38.1413 43.85C37.4804 43.85 36.925 43.6229 36.475 43.1688C36.025 42.7146 35.8 42.1417 35.8 41.45V37.85ZM11.15 11.7H36.8L34.9796 9.40001H12.95L11.15 11.7Z"
      fill="currentColor" />
  </g>
</svg>
