<svg width="100%" height="100%" viewBox="0 0 29 28" fill="none" xmlns="http://www.w3.org/2000/svg">
<path d="M3.91375 28C2.95015 28 2.14029 27.6719 1.48418 27.0158C0.828059 26.3597 0.5 25.5499 0.5 24.5863V6.68223C0.5 6.29771 0.56658 5.92173 0.699741 5.55428C0.832901 5.18685 1.02054 4.84861 1.26265 4.53956L3.91375 1.08949C4.22244 0.701295 4.59548 0.422662 5.03288 0.253597C5.47027 0.0845316 5.93251 0 6.41959 0H22.5441C23.0062 0 23.4561 0.0845316 23.8938 0.253597C24.3315 0.422662 24.7047 0.701295 25.0136 1.08949L27.7374 4.53956C27.9553 4.84861 28.1368 5.18685 28.2821 5.55428C28.4274 5.92173 28.5 6.29771 28.5 6.68223V24.5863C28.5 25.5499 28.1684 26.3597 27.5051 27.0158C26.8419 27.6719 26.0235 28 25.0499 28H3.91375ZM5.14851 5.08431H23.7789L22.4566 3.41375H6.4559L5.14851 5.08431ZM20.8009 8.24384H8.19909V17.9403C8.19909 18.5698 8.46541 19.0601 8.99805 19.4112C9.5307 19.7622 10.0754 19.7925 10.6323 19.5019L14.4818 17.5772L18.3314 19.5019C18.8882 19.7925 19.439 19.7622 19.9838 19.4112C20.5285 19.0601 20.8009 18.5698 20.8009 17.9403V8.24384Z" fill="currentColor"/>
</svg>
