<svg width="100%" height="100%" viewBox="0 0 23 24" fill="none" xmlns="http://www.w3.org/2000/svg">
<mask id="mask0_650_751" style="mask-type:alpha" maskUnits="userSpaceOnUse" x="0" y="0" width="23" height="24">
<rect y="0.0322571" width="23" height="23" fill="currentColor"/>
</mask>
<g mask="url(#mask0_650_751)">
<path d="M10.6375 17.2823V17.6896C10.6375 17.8461 10.6982 17.9771 10.8196 18.0825C10.941 18.1879 11.0719 18.2406 11.2125 18.2406H11.8115C11.9552 18.2406 12.083 18.1831 12.1948 18.0681C12.3066 17.9531 12.3625 17.8189 12.3625 17.6656V17.2823H13.6562C13.9142 17.2823 14.1224 17.2053 14.281 17.0514C14.4395 16.8974 14.5188 16.6969 14.5188 16.4497V13.1854C14.5188 12.941 14.4395 12.7362 14.281 12.5709C14.1224 12.4056 13.9122 12.3229 13.6503 12.3229H10.2063V10.7896H13.6802C13.9178 10.7896 14.117 10.7067 14.2777 10.5411C14.4384 10.3755 14.5188 10.1702 14.5188 9.92538C14.5188 9.68732 14.4384 9.48833 14.2777 9.32841C14.117 9.16849 13.9178 9.08852 13.6802 9.08852H12.3625V8.68123C12.3625 8.53748 12.3018 8.4097 12.1804 8.29789C12.059 8.18609 11.9281 8.13019 11.7875 8.13019H11.1885C11.0448 8.13019 10.917 8.18609 10.8052 8.29789C10.6934 8.4097 10.6375 8.53748 10.6375 8.68123V9.08852H9.34375C9.0858 9.08852 8.87756 9.16888 8.71904 9.32959C8.56051 9.49032 8.48125 9.68948 8.48125 9.92706V13.1913C8.48125 13.4453 8.56051 13.6516 8.71904 13.8101C8.87756 13.9686 9.08778 14.0479 9.34969 14.0479H12.7938V15.5812H9.31979C9.0822 15.5812 8.88305 15.662 8.72232 15.8236C8.56161 15.9852 8.48125 16.1855 8.48125 16.4244C8.48125 16.6769 8.56391 16.883 8.72922 17.0427C8.89453 17.2024 9.09938 17.2823 9.34375 17.2823H10.6375ZM5.48646 21.7146C4.86274 21.7146 4.33147 21.4951 3.89263 21.0563C3.45379 20.6175 3.23438 20.0862 3.23438 19.4625V3.60206C3.23438 2.97175 3.45379 2.43483 3.89263 1.99132C4.33147 1.54779 4.86274 1.32602 5.48646 1.32602H13.824L19.7896 7.29164V19.4625C19.7896 20.0862 19.5678 20.6175 19.1243 21.0563C18.6808 21.4951 18.1439 21.7146 17.5135 21.7146H5.48646ZM13.2729 3.60206V6.71664C13.2729 7.0321 13.3817 7.29863 13.5993 7.51625C13.817 7.73388 14.0835 7.84269 14.399 7.84269H17.5135L13.2729 3.60206Z" fill="currentColor"/>
</g>
</svg>
