<svg width="48" height="48" viewBox="0 0 48 48" fill="none" xmlns="http://www.w3.org/2000/svg">
<path d="M40.5 37H8V24L12.5 11H36L40.5 24V37Z" fill="currentColor"/>
<mask id="mask0_6509_5714" style="mask-type:alpha" maskUnits="userSpaceOnUse" x="0" y="0" width="48" height="48">
<rect width="48" height="48" fill="#D9D9D9"/>
</mask>
<g mask="url(#mask0_6509_5714)">
<path d="M10.024 38.099V40.524C10.024 41.027 9.85038 41.4485 9.50305 41.7885C9.15572 42.1289 8.72972 42.299 8.22505 42.299H7.50005C6.99538 42.299 6.56938 42.1254 6.22205 41.778C5.87472 41.4307 5.70105 41.0047 5.70105 40.5V24.237L9.96305 11.4045C10.1457 10.8739 10.4559 10.4554 10.8935 10.149C11.3312 9.84236 11.8334 9.68903 12.4001 9.68903H35.6C36.1667 9.68903 36.6689 9.84236 37.1066 10.149C37.5442 10.4554 37.8544 10.8739 38.037 11.4045L42.311 24.237V40.5C42.311 41.0047 42.1346 41.4307 41.7816 41.778C41.4289 42.1254 41.0017 42.299 40.5 42.299H39.725C39.212 42.299 38.7924 42.1289 38.466 41.7885C38.1394 41.4485 37.9761 41.027 37.9761 40.524V38.099H10.024ZM10.2816 21.3H37.7305L35.0166 13.1075H12.9836L10.2816 21.3ZM14.3481 32.24C15.1147 32.24 15.7584 31.9775 16.279 31.4525C16.7997 30.9275 17.0601 30.29 17.0601 29.54C17.0601 28.7624 16.7956 28.1014 16.2666 27.557C15.7375 27.0124 15.1021 26.74 14.3601 26.74C13.5741 26.74 12.9109 27.0112 12.3706 27.5535C11.8302 28.0955 11.5601 28.7539 11.5601 29.5285C11.5601 30.3029 11.8291 30.9484 12.3671 31.465C12.9054 31.9817 13.5657 32.24 14.3481 32.24ZM33.702 32.24C34.48 32.24 35.1412 31.9775 35.6856 31.4525C36.2299 30.9275 36.502 30.29 36.502 29.54C36.502 28.7624 36.2311 28.1014 35.6891 27.557C35.1467 27.0124 34.4884 26.74 33.7141 26.74C32.9394 26.74 32.2937 27.0112 31.777 27.5535C31.2604 28.0955 31.0021 28.7539 31.0021 29.5285C31.0021 30.3029 31.2645 30.9484 31.7895 31.465C32.3145 31.9817 32.952 32.24 33.702 32.24ZM9.10755 34.6925H38.8925V24.3H9.10755V34.6925Z" fill="#211F1F"/>
</g>
</svg>
