<svg width="100%" height="100%" viewBox="0 0 39 35" fill="none" xmlns="http://www.w3.org/2000/svg">
<path d="M5.35 30.35V31.9C5.35 32.6361 5.09122 33.2618 4.57365 33.7771C4.05608 34.2924 3.42762 34.55 2.68825 34.55C1.92942 34.55 1.29167 34.2889 0.775 33.7667C0.258333 33.2444 0 32.6056 0 31.85V16.15C0 15.8833 0.0166667 15.6333 0.05 15.4C0.0833333 15.1667 0.15 14.9167 0.25 14.65L4.05 3.2C4.35 2.23333 4.90417 1.45833 5.7125 0.875C6.52083 0.291667 7.43333 0 8.45 0H30.05C31.0667 0 31.9792 0.291667 32.7875 0.875C33.5958 1.45833 34.1667 2.23333 34.5 3.2L38.25 14.65C38.35 14.9167 38.425 15.1667 38.475 15.4C38.525 15.6333 38.55 15.8833 38.55 16.15V31.9C38.55 32.6361 38.2875 33.2618 37.7625 33.7771C37.2375 34.2924 36.6 34.55 35.85 34.55C35.1167 34.55 34.475 34.284 33.925 33.7521C33.375 33.2201 33.1 32.5694 33.1 31.8V30.35H5.35ZM5.95 12.6H32.6L30 4.75H8.5L5.95 12.6ZM9.78825 23.35C10.5294 23.35 11.1667 23.0875 11.7 22.5625C12.2333 22.0375 12.5 21.4 12.5 20.65C12.5 19.8722 12.2292 19.2111 11.6875 18.6667C11.1458 18.1222 10.5167 17.85 9.8 17.85C8.9889 17.85 8.31945 18.1211 7.79165 18.6633C7.26388 19.2054 7 19.8637 7 20.6383C7 21.4128 7.26275 22.0583 7.78825 22.575C8.31372 23.0917 8.98038 23.35 9.78825 23.35ZM28.8 23.35C29.5778 23.35 30.2389 23.0875 30.7833 22.5625C31.3278 22.0375 31.6 21.4 31.6 20.65C31.6 19.8722 31.3289 19.2111 30.7867 18.6667C30.2446 18.1222 29.5863 17.85 28.8118 17.85C28.0373 17.85 27.3917 18.1211 26.875 18.6633C26.3583 19.2054 26.1 19.8637 26.1 20.6383C26.1 21.4128 26.3625 22.0583 26.8875 22.575C27.4125 23.0917 28.05 23.35 28.8 23.35Z" fill="currentColor"/>
</svg>
