<svg width="100%" height="100%" viewBox="0 0 55 54" fill="none" xmlns="http://www.w3.org/2000/svg">
<path d="M13.3125 20.3125L24.5625 2.1875C24.8542 1.72917 25.2188 1.38542 25.6562 1.15625C26.0938 0.927083 26.5625 0.8125 27.0625 0.8125C27.5625 0.8125 28.0313 0.927083 28.4688 1.15625C28.9062 1.38542 29.2708 1.72917 29.5625 2.1875L40.875 20.3125C41.1667 20.8542 41.3021 21.3854 41.2812 21.9062C41.2604 22.4271 41.125 22.9167 40.875 23.375C40.6667 23.8333 40.3313 24.1979 39.8688 24.4688C39.4063 24.7396 38.8875 24.875 38.3125 24.875H15.8125C15.2327 24.875 14.7098 24.737 14.2437 24.4609C13.7777 24.1849 13.4464 23.8229 13.25 23.375C13 22.9167 12.8646 22.4271 12.8438 21.9062C12.8229 21.3854 12.9792 20.8542 13.3125 20.3125ZM42.4375 53.875C38.9583 53.875 36.0156 52.6719 33.6094 50.2656C31.2031 47.8594 30 44.9167 30 41.4375C30 37.9583 31.2031 35.0052 33.6094 32.5781C36.0156 30.151 38.9583 28.9375 42.4375 28.9375C45.9167 28.9375 48.8594 30.151 51.2656 32.5781C53.6719 35.0052 54.875 37.9583 54.875 41.4375C54.875 44.9167 53.6719 47.8594 51.2656 50.2656C48.8594 52.6719 45.9167 53.875 42.4375 53.875ZM0.875 49.3125V33.125C0.875 32.3021 1.15885 31.5964 1.72656 31.0078C2.29427 30.4193 3.01042 30.125 3.875 30.125H20.125C20.9479 30.125 21.6432 30.4193 22.2109 31.0078C22.7786 31.5964 23.0625 32.3021 23.0625 33.125V49.3125C23.0625 50.1771 22.7786 50.8932 22.2109 51.4609C21.6432 52.0286 20.9479 52.3125 20.125 52.3125H3.875C3.01042 52.3125 2.29427 52.0286 1.72656 51.4609C1.15885 50.8932 0.875 50.1771 0.875 49.3125Z" fill="currentColor"/>
</svg>
