<svg width="100%" height="100%" viewBox="0 0 48 48" fill="none" xmlns="http://www.w3.org/2000/svg">
  <mask id="mask0_1163_18827" style="mask-type:alpha" maskUnits="userSpaceOnUse" x="0" y="0" width="48" height="48">
    <rect width="100%" height="100%" fill="#D9D9D9" />
  </mask>
  <g mask="url(#mask0_1163_18827)">
    <path d="M3.77293 42.8906L2.88647 4.77289H44.55V36.6854H11.7511L3.77293 42.8906Z" fill="currentColor" />
    <path
      d="M10.9809 38.9237L4.86267 45.042C4.33878 45.5659 3.7307 45.6846 3.03842 45.3981C2.34614 45.1116 2 44.6 2 43.8632V6.36785C2 5.46976 2.33678 4.68392 3.01035 4.01035C3.68392 3.33678 4.46976 3 5.36785 3H43.5368C44.4349 3 45.2207 3.33678 45.8943 4.01035C46.5679 4.68392 46.9047 5.46976 46.9047 6.36785V35.5559C46.9047 36.454 46.5679 37.2398 45.8943 37.9134C45.2207 38.5869 44.4349 38.9237 43.5368 38.9237H10.9809ZM9.52153 35.5559H43.5368V6.36785H5.36785V40.0463L9.52153 35.5559ZM12.6649 29.9989H26.866C27.3431 29.9989 27.743 29.8366 28.0658 29.512C28.3885 29.1873 28.5499 28.7851 28.5499 28.3052C28.5499 27.8253 28.3885 27.4263 28.0658 27.1082C27.743 26.7901 27.3431 26.6311 26.866 26.6311H12.6649C12.1877 26.6311 11.7878 26.7934 11.4651 27.118C11.1423 27.4427 10.9809 27.8449 10.9809 28.3248C10.9809 28.8047 11.1423 29.2037 11.4651 29.5218C11.7878 29.8399 12.1877 29.9989 12.6649 29.9989ZM12.6649 22.7019H36.2398C36.7169 22.7019 37.1168 22.5396 37.4396 22.215C37.7623 21.8903 37.9237 21.4881 37.9237 21.0082C37.9237 20.5282 37.7623 20.1293 37.4396 19.8112C37.1168 19.4931 36.7169 19.3341 36.2398 19.3341H12.6649C12.1877 19.3341 11.7878 19.4964 11.4651 19.821C11.1423 20.1457 10.9809 20.5479 10.9809 21.0278C10.9809 21.5077 11.1423 21.9067 11.4651 22.2248C11.7878 22.5429 12.1877 22.7019 12.6649 22.7019ZM12.6649 15.4049H36.2398C36.7169 15.4049 37.1168 15.2426 37.4396 14.918C37.7623 14.5933 37.9237 14.191 37.9237 13.7112C37.9237 13.2312 37.7623 12.8322 37.4396 12.5142C37.1168 12.1961 36.7169 12.0371 36.2398 12.0371H12.6649C12.1877 12.0371 11.7878 12.1994 11.4651 12.524C11.1423 12.8487 10.9809 13.2509 10.9809 13.7308C10.9809 14.2107 11.1423 14.6097 11.4651 14.9278C11.7878 15.2459 12.1877 15.4049 12.6649 15.4049Z"
      fill="#211F1F" />
  </g>
</svg>
