<svg width="13" height="13" viewBox="0 0 13 13" fill="none" xmlns="http://www.w3.org/2000/svg">
<mask id="mask0_6520_11538" style="mask-type:alpha" maskUnits="userSpaceOnUse" x="0" y="0" width="13" height="13">
<rect x="0.5" y="0.5" width="12" height="12" fill="#D9D9D9"/>
</mask>
<g mask="url(#mask0_6520_11538)">
<path d="M6.5 8.82505C7.15 8.82505 7.7 8.60005 8.15 8.15005C8.6 7.70005 8.825 7.15005 8.825 6.50005C8.825 5.85005 8.6 5.30005 8.15 4.85005C7.7 4.40005 7.15 4.17505 6.5 4.17505C5.85 4.17505 5.3 4.40005 4.85 4.85005C4.4 5.30005 4.175 5.85005 4.175 6.50005C4.175 7.15005 4.4 7.70005 4.85 8.15005C5.3 8.60005 5.85 8.82505 6.5 8.82505ZM6.50173 11.8125C5.76724 11.8125 5.07714 11.6747 4.43141 11.399C3.78568 11.1233 3.22144 10.7441 2.7387 10.2613C2.25596 9.77861 1.87674 9.21494 1.60105 8.57036C1.32535 7.92579 1.1875 7.23626 1.1875 6.50177C1.1875 5.75896 1.32535 5.06469 1.60105 4.41896C1.87674 3.77323 2.2553 3.21086 2.73674 2.73185C3.21817 2.25283 3.78148 1.87361 4.42668 1.59419C5.07187 1.31476 5.76205 1.17505 6.49724 1.17505C7.24075 1.17505 7.93586 1.31444 8.58258 1.59322C9.22928 1.872 9.79183 2.25034 10.2702 2.72825C10.7486 3.20616 11.1273 3.76814 11.4064 4.41421C11.6855 5.06027 11.825 5.75555 11.825 6.50005C11.825 7.23568 11.6853 7.92629 11.4059 8.57189C11.1264 9.21748 10.7472 9.78114 10.2682 10.2629C9.78919 10.7446 9.2274 11.1233 8.58281 11.399C7.93824 11.6747 7.24454 11.8125 6.50173 11.8125Z" fill="#34C759"/>
</g>
</svg>
