<svg width="100%" height="100%" viewBox="0 0 19 18" fill="none" xmlns="http://www.w3.org/2000/svg">
<mask id="mask0_650_736" style="mask-type:alpha" maskUnits="userSpaceOnUse" x="0" y="0" width="19" height="18">
<rect x="0.942627" width="18" height="18" fill="#D9D9D9"/>
</mask>
<g mask="url(#mask0_650_736)">
<path d="M10.0177 7.91249V5.24999C10.0177 5.02811 9.93538 4.83514 9.77069 4.67108C9.60599 4.50702 9.41224 4.42499 9.18944 4.42499C8.96663 4.42499 8.7771 4.50702 8.62085 4.67108C8.4646 4.83514 8.38648 5.02811 8.38648 5.24999V8.21249C8.38648 8.33521 8.40523 8.45027 8.44273 8.55766C8.48023 8.66504 8.54273 8.75624 8.63023 8.83124L9.69898 9.88124C9.86148 10.0562 10.049 10.1437 10.2615 10.1437C10.474 10.1437 10.6677 10.0562 10.8427 9.88124C11.0052 9.71874 11.0865 9.53124 11.0865 9.31874C11.0865 9.10624 11.0052 8.91874 10.8427 8.75624L10.0177 7.91249ZM7.54273 15.0562C5.99272 14.6812 4.7146 13.8687 3.70835 12.6187C2.7021 11.3687 2.19897 9.91249 2.19897 8.24999C2.19897 6.29999 2.8771 4.64374 4.23335 3.28124C5.5896 1.91874 7.24272 1.23749 9.19273 1.23749C11.1427 1.23749 12.799 1.91874 14.1615 3.28124C15.524 4.64374 16.2052 6.29999 16.2052 8.24999C16.2052 8.74999 16.1569 9.23124 16.0602 9.69374C15.9634 10.1562 15.8243 10.5875 15.6427 10.9875H10.6625C9.76044 10.9875 8.99934 11.3062 8.3792 11.9437C7.75905 12.5812 7.44898 13.35 7.44898 14.25C7.44898 14.3875 7.45522 14.525 7.46772 14.6625C7.48023 14.8 7.50523 14.9312 7.54273 15.0562ZM10.6927 16.3687H15.1927C15.7802 16.3687 16.2834 16.1625 16.7021 15.75C17.1209 15.3375 17.3302 14.8375 17.3302 14.25C17.3302 13.6625 17.1209 13.1594 16.7021 12.7406C16.2834 12.3219 15.7802 12.1125 15.1927 12.1125H10.6927C10.1052 12.1125 9.60523 12.3219 9.19273 12.7406C8.78023 13.1594 8.57398 13.6625 8.57398 14.25C8.57398 14.8375 8.78023 15.3375 9.19273 15.75C9.60523 16.1625 10.1052 16.3687 10.6927 16.3687ZM10.6894 14.8125C10.5291 14.8125 10.3959 14.7583 10.2896 14.6498C10.1834 14.5414 10.1302 14.407 10.1302 14.2467C10.1302 14.0864 10.1844 13.9531 10.2929 13.8469C10.4013 13.7406 10.5357 13.6875 10.696 13.6875C10.8563 13.6875 10.9896 13.7417 11.0958 13.8501C11.2021 13.9586 11.2552 14.093 11.2552 14.2533C11.2552 14.4136 11.201 14.5469 11.0926 14.6531C10.9841 14.7594 10.8497 14.8125 10.6894 14.8125ZM12.9394 14.8125C12.7791 14.8125 12.6459 14.7583 12.5396 14.6498C12.4334 14.5414 12.3802 14.407 12.3802 14.2467C12.3802 14.0864 12.4344 13.9531 12.5429 13.8469C12.6513 13.7406 12.7857 13.6875 12.946 13.6875C13.1063 13.6875 13.2396 13.7417 13.3458 13.8501C13.4521 13.9586 13.5052 14.093 13.5052 14.2533C13.5052 14.4136 13.451 14.5469 13.3426 14.6531C13.2341 14.7594 13.0997 14.8125 12.9394 14.8125ZM15.1894 14.8125C15.0291 14.8125 14.8959 14.7583 14.7896 14.6498C14.6834 14.5414 14.6302 14.407 14.6302 14.2467C14.6302 14.0864 14.6844 13.9531 14.7929 13.8469C14.9013 13.7406 15.0357 13.6875 15.196 13.6875C15.3563 13.6875 15.4896 13.7417 15.5958 13.8501C15.7021 13.9586 15.7552 14.093 15.7552 14.2533C15.7552 14.4136 15.701 14.5469 15.5926 14.6531C15.4841 14.7594 15.3497 14.8125 15.1894 14.8125Z" fill="#757575"/>
</g>
</svg>
