<svg width="100%" height="100%" viewBox="0 0 80 81" fill="none" xmlns="http://www.w3.org/2000/svg">
<g clip-path="url(#clip0_79_344)">
<path d="M65.4376 6.00346L63.8154 5.25775C49.503 -1.21813 33.1629 -1.72835 18.445 3.81867L16.7966 4.44663C11.9822 6.26511 8.10975 9.8759 6.00346 14.5726L5.25775 16.1948C-1.21813 30.5202 -1.72835 46.8604 3.81867 61.5783L4.44663 63.2267C6.26511 68.0149 9.88899 71.9135 14.5464 74.0198L16.1686 74.7655C30.4941 81.2414 46.8342 81.7516 61.539 76.2046L63.1874 75.5766C67.9757 73.7582 71.8743 70.1343 73.9806 65.4769L74.7263 63.8546C81.2152 49.5423 81.7255 33.2022 76.1784 18.4842L75.5505 16.8358C73.7582 11.9822 70.1081 8.10975 65.4376 6.00346Z" fill="#FDC917"/>
<path d="M40.4955 41.8073C38.4811 41.8073 36.7685 41.1036 35.3577 39.6964C33.9468 38.2891 33.2414 36.5674 33.2414 34.5314V28.2159C33.2414 27.4617 33.5072 26.8239 34.0388 26.3025C34.5704 25.7812 35.2138 25.5205 35.9691 25.5205C36.4451 25.5205 36.8773 25.6255 37.2658 25.8355C37.6543 26.0454 37.973 26.339 38.2219 26.7163C38.4829 26.3384 38.8075 26.0447 39.1957 25.835C39.584 25.6253 40.0181 25.5205 40.4982 25.5205C40.9782 25.5205 41.4147 25.6272 41.8079 25.8408C42.2009 26.0543 42.5294 26.3462 42.7933 26.7163C43.0328 26.339 43.3492 26.0454 43.7426 25.8355C44.136 25.6255 44.5718 25.5205 45.0501 25.5205C45.8092 25.5205 46.4575 25.7809 46.995 26.3019C47.5325 26.8228 47.8013 27.4605 47.8013 28.215V34.5444C47.8013 36.5735 47.0873 38.2913 45.6592 39.6976C44.2312 41.1041 42.51 41.8073 40.4955 41.8073ZM26.0237 53.604V52.3489C26.0237 51.1257 26.3291 50.0676 26.9399 49.1747C27.5507 48.2817 28.3508 47.6085 29.3401 47.1551C31.2886 46.244 33.1758 45.5718 35.0018 45.1385C36.8278 44.7052 38.6575 44.4886 40.4908 44.4886C42.3551 44.4886 44.1884 44.7163 45.9908 45.1719C47.7932 45.6275 49.6687 46.2885 51.6171 47.1551C52.6393 47.5874 53.4587 48.2525 54.0754 49.1504C54.6921 50.0483 55.0004 51.1144 55.0004 52.3489V53.604C55.0004 54.6057 54.655 55.4482 53.9643 56.1314C53.2735 56.8146 52.4268 57.1562 51.424 57.1562H29.576C28.5799 57.1562 27.7388 56.8146 27.0528 56.1314C26.3667 55.4482 26.0237 54.6057 26.0237 53.604Z" fill="black"/>
</g>
<defs>
<clipPath id="clip0_79_344">
<rect width="79.9958" height="80.0233" fill="white"/>
</clipPath>
</defs>
</svg>
