<svg width="100%" height="100%" viewBox="0 0 17 16" fill="none" xmlns="http://www.w3.org/2000/svg">
<path d="M4.45247 10.5416H12.5464C12.7102 10.5416 12.8475 10.4859 12.9584 10.3744C13.0692 10.2629 13.1246 10.1248 13.1246 9.96007C13.1246 9.7953 13.0692 9.65831 12.9584 9.54911C12.8475 9.4399 12.7102 9.3853 12.5464 9.3853H4.45247C4.28866 9.3853 4.15135 9.44103 4.04054 9.55248C3.92973 9.66395 3.87433 9.80206 3.87433 9.96681C3.87433 10.1316 3.92973 10.2686 4.04054 10.3778C4.15135 10.487 4.28866 10.5416 4.45247 10.5416ZM4.45247 8.03631H12.5464C12.7102 8.03631 12.8475 7.98058 12.9584 7.86913C13.0692 7.75766 13.1246 7.61955 13.1246 7.45479C13.1246 7.29002 13.0692 7.15304 12.9584 7.04383C12.8475 6.93463 12.7102 6.88003 12.5464 6.88003H4.45247C4.28866 6.88003 4.15135 6.93575 4.04054 7.04721C3.92973 7.15867 3.87433 7.29678 3.87433 7.46154C3.87433 7.62631 3.92973 7.7633 4.04054 7.8725C4.15135 7.98171 4.28866 8.03631 4.45247 8.03631ZM4.45247 5.53103H12.5464C12.7102 5.53103 12.8475 5.47531 12.9584 5.36385C13.0692 5.25239 13.1246 5.11428 13.1246 4.94952C13.1246 4.78475 13.0692 4.64776 12.9584 4.53856C12.8475 4.42935 12.7102 4.37475 12.5464 4.37475H4.45247C4.28866 4.37475 4.15135 4.43048 4.04054 4.54193C3.92973 4.6534 3.87433 4.79151 3.87433 4.95626C3.87433 5.12104 3.92973 5.25802 4.04054 5.36723C4.15135 5.47643 4.28866 5.53103 4.45247 5.53103ZM2.12063 14.1068C1.61894 14.1068 1.19159 13.9303 0.838608 13.5773C0.485621 13.2243 0.309128 12.797 0.309128 12.2953V2.62106C0.309128 2.11406 0.485621 1.68218 0.838608 1.32543C1.19159 0.968665 1.61894 0.790283 2.12063 0.790283H14.8783C15.3853 0.790283 15.8171 0.968665 16.1739 1.32543C16.5307 1.68218 16.709 2.11406 16.709 2.62106V15.0125C16.709 15.4148 16.5195 15.692 16.1405 15.8442C15.7615 15.9964 15.4307 15.9247 15.1481 15.6292L13.6256 14.1068H2.12063Z" fill="#211F1F"/>
</svg>
