<svg width="100%" height="100%" viewBox="0 0 80 80" fill="none" xmlns="http://www.w3.org/2000/svg">
<g clip-path="url(#clip0_79_346)">
<path d="M65.4376 6.00149L63.8154 5.25603C49.503 -1.21773 33.1629 -1.72778 18.445 3.81742L16.7966 4.44518C11.9822 6.26306 8.10975 9.87267 6.00346 14.5678L5.25775 16.1895C-1.21813 30.5102 -1.72835 46.845 3.81867 61.5581L4.44663 63.206C6.26511 67.9927 9.88899 71.89 14.5464 73.9956L16.1686 74.7411C30.4941 81.2148 46.8342 81.7249 61.539 76.1797L63.1874 75.5519C67.9757 73.734 71.8743 70.1113 73.9806 65.4555L74.7263 63.8338C81.2152 49.5261 81.7255 33.1913 76.1784 18.4782L75.5505 16.8303C73.7582 11.9783 70.1081 8.1071 65.4376 6.00149Z" fill="#FDC917"/>
<path d="M61.6812 37.9257C61.6288 37.7819 61.5634 37.638 61.498 37.5072L57.5342 32.263C57.2595 31.8968 56.9193 31.6222 56.5138 31.426C56.1083 31.2299 55.6635 31.1252 55.2056 31.1252H53.034V28.3397C53.034 27.5419 52.7462 26.8619 52.1706 26.2864C51.595 25.711 50.9148 25.4233 50.1168 25.4233H32.6655C31.8806 25.4233 31.2003 25.7241 30.6247 26.3126C30.0491 26.9011 29.7482 27.5812 29.7482 28.3397V35.1532L35.0202 38.0827V31.8184C35.0202 31.0599 35.308 30.3667 35.8575 29.8175C36.4069 29.2682 37.1003 28.9805 37.8983 28.9805H41.9536C42.6077 28.9805 43.2488 29.1243 43.8374 29.412C44.4392 29.6998 44.9363 30.1052 45.3288 30.6021L51.0848 37.6249L51.111 37.6642C51.3726 38.0434 51.595 38.4619 51.752 38.8935C51.9221 39.3643 52.0136 39.8612 52.0136 40.3582V48.2572C52.7593 48.7803 53.6096 49.0419 54.5646 49.0419C55.7551 49.0419 56.7885 48.6365 57.6389 47.8387C58.4892 47.041 58.934 46.034 58.9601 44.8308H60.3206C60.7131 44.8308 61.0532 44.687 61.341 44.3992C61.6288 44.1115 61.7727 43.7584 61.7727 43.3399V38.3573C61.7727 38.2265 61.7466 38.0696 61.6812 37.9257ZM55.9382 45.9947C55.5588 46.3871 55.101 46.5832 54.5646 46.5832C54.0282 46.5832 53.5573 46.3871 53.1779 45.9947C52.7985 45.6024 52.6023 45.1447 52.6023 44.6085C52.6023 44.0723 52.7985 43.6146 53.1779 43.2353C53.5573 42.843 54.0282 42.6468 54.5646 42.6468C55.101 42.6468 55.5588 42.843 55.9382 43.2353C56.3176 43.6277 56.5138 44.0854 56.5138 44.6216C56.5138 45.1447 56.3176 45.6024 55.9382 45.9947ZM53.034 39.1289V34.0547H55.2056L59.0255 39.1289H53.034Z" fill="#211F1F"/>
<path d="M18.2362 48.8982V46.5049C18.2362 46.0995 18.3801 45.7464 18.681 45.4587C18.9688 45.171 19.335 45.0271 19.7667 45.0271H34.2615L20.9049 34.7218V38.3967C20.9049 38.789 20.7741 39.116 20.4993 39.3775C20.2377 39.6391 19.9106 39.7699 19.5574 39.7699C19.1911 39.7699 18.8772 39.6391 18.6155 39.3775C18.3539 39.116 18.2231 38.789 18.2231 38.3967V32.9171C18.2231 32.3286 18.4586 31.8839 18.9426 31.5962C19.4266 31.3085 19.9368 31.2954 20.4601 31.5308L36.3677 40.3714V31.8185C36.3677 31.4131 36.5116 31.06 36.8125 30.7723C37.1003 30.4846 37.4666 30.3277 37.8983 30.3277H41.9537C42.3984 30.3277 42.8432 30.4323 43.2619 30.6285C43.6805 30.8246 44.0206 31.0993 44.2953 31.4524L50.0383 38.449C50.2345 38.7367 50.3915 39.0375 50.5092 39.3644C50.627 39.6914 50.6924 40.0314 50.6924 40.3714V48.8982C50.6924 49.3428 50.5485 49.709 50.2738 49.9967C49.9859 50.2844 49.6327 50.4283 49.2141 50.4283H47.1603C47.1341 51.6053 46.7286 52.5861 45.9306 53.3839C45.1326 54.1816 44.1514 54.574 42.9871 54.574C41.8098 54.574 40.8155 54.1816 40.0306 53.3839C39.2326 52.5861 38.8271 51.6053 38.8009 50.4283H29.9968C29.9576 51.6053 29.552 52.5861 28.754 53.3839C27.956 54.1816 26.9749 54.574 25.7975 54.574C24.6201 54.574 23.639 54.1816 22.841 53.3839C22.043 52.5861 21.6375 51.6053 21.6113 50.4283H19.7798C19.3481 50.4283 18.9949 50.2844 18.694 49.9967C18.3801 49.709 18.2362 49.3428 18.2362 48.8982ZM25.7713 52.5207C26.36 52.5207 26.8571 52.3115 27.2758 51.893C27.6944 51.4745 27.8906 50.9645 27.8906 50.3891C27.8906 49.8136 27.6813 49.3036 27.2627 48.8851C26.8441 48.4666 26.3469 48.2574 25.7583 48.2574C25.1696 48.2574 24.6594 48.4666 24.2408 48.8851C23.8221 49.3036 23.6128 49.8136 23.6128 50.4021C23.6128 50.9906 23.8221 51.4876 24.2408 51.9061C24.6855 52.3115 25.1827 52.5207 25.7713 52.5207ZM42.961 52.5207C43.5497 52.5207 44.0598 52.3115 44.4785 51.893C44.8971 51.4745 45.1064 50.9776 45.1064 50.3891C45.1064 49.8006 44.8971 49.3036 44.4654 48.8851C44.0468 48.4666 43.5366 48.2574 42.9479 48.2574C42.3592 48.2574 41.849 48.4666 41.4435 48.8851C41.0248 49.3036 40.8286 49.8136 40.8286 50.4021C40.8286 50.9906 41.0379 51.4876 41.4565 51.9061C41.8621 52.3115 42.3723 52.5207 42.961 52.5207ZM39.0756 39.286H47.2257L42.0845 33.0086H39.0626V39.286H39.0756Z" fill="#211F1F"/>
</g>
<defs>
<clipPath id="clip0_79_346">
<rect width="79.9958" height="79.9971" fill="white"/>
</clipPath>
</defs>
</svg>
