<svg width="100%" height="100%" viewBox="0 0 12 12" fill="none" xmlns="http://www.w3.org/2000/svg">
<mask id="mask0_3554_29741" style="mask-type:alpha" maskUnits="userSpaceOnUse" x="0" y="0" width="12" height="12">
<rect width="12" height="12" fill="#D9D9D9"/>
</mask>
<g mask="url(#mask0_3554_29741)">
<path d="M2.24995 10.925C1.91828 10.925 1.63953 10.8121 1.4137 10.5863C1.18787 10.3604 1.07495 10.0817 1.07495 9.75V4.3125C1.07495 3.97739 1.18787 3.6957 1.4137 3.46742C1.63953 3.23914 1.91828 3.125 2.24995 3.125H3.13745V2.25C3.13745 1.91489 3.25037 1.6332 3.4762 1.40492C3.70203 1.17664 3.98078 1.0625 4.31245 1.0625H7.68745C8.02256 1.0625 8.30425 1.17664 8.53253 1.40492C8.76081 1.6332 8.87495 1.91489 8.87495 2.25V5.1875H9.74995C10.0851 5.1875 10.3668 5.30164 10.595 5.52992C10.8233 5.75821 10.9375 6.0399 10.9375 6.375V9.75C10.9375 10.0817 10.8233 10.3604 10.595 10.5863C10.3668 10.8121 10.0851 10.925 9.74995 10.925H6.66245V8.4375H5.33745V10.925H2.24995ZM2.24995 9.75H3.56245V8.4375H2.24995V9.75ZM2.24995 7.6875H3.56245V6.375H2.24995V7.6875ZM2.24995 5.625H3.56245V4.3125H2.24995V5.625ZM4.31245 7.6875H5.62495V6.375H4.31245V7.6875ZM4.31245 5.625H5.62495V4.3125H4.31245V5.625ZM4.31245 3.5625H5.62495V2.25H4.31245V3.5625ZM6.37495 7.6875H7.68745V6.375H6.37495V7.6875ZM6.37495 5.625H7.68745V4.3125H6.37495V5.625ZM6.37495 3.5625H7.68745V2.25H6.37495V3.5625ZM8.43745 9.75H9.74995V8.4375H8.43745V9.75ZM8.43745 7.6875H9.74995V6.375H8.43745V7.6875Z" fill="currentColor"/>
</g>
</svg>
