<svg width="100%" height="100%" viewBox="0 0 48 48" fill="none" xmlns="http://www.w3.org/2000/svg">
  <mask id="mask0_4181_41" style="mask-type:alpha" maskUnits="userSpaceOnUse" x="2" y="2" width="44" height="44">
    <rect x="2" y="2" width="44" height="44" fill="#D9D9D9" />
  </mask>
  <g mask="url(#mask0_4181_41)">
    <path
      d="M10.6625 36.65C12.4347 35.0306 14.4361 33.7778 16.6667 32.8917C18.8972 32.0056 21.3417 31.5625 24 31.5625C26.6584 31.5625 29.0952 31.9903 31.3104 32.8458C33.5257 33.7014 35.5347 34.9389 37.3375 36.5583V11.5792H10.6625V36.65ZM24 28.6292C22.1972 28.6292 20.6618 27.9951 19.3938 26.7271C18.1257 25.459 17.4917 23.9236 17.4917 22.1208C17.4917 20.3181 18.1257 18.7903 19.3938 17.5375C20.6618 16.2847 22.1972 15.6583 24 15.6583C25.8028 15.6583 27.3382 16.2847 28.6063 17.5375C29.8743 18.7903 30.5083 20.3181 30.5083 22.1208C30.5083 23.9236 29.8743 25.459 28.6063 26.7271C27.3382 27.9951 25.8028 28.6292 24 28.6292ZM10.6625 43.4792C9.46933 43.4792 8.45297 43.0594 7.61346 42.2199C6.77394 41.3804 6.35419 40.364 6.35419 39.1708V11.5792C6.35419 10.3734 6.77394 9.34622 7.61346 8.49775C8.45297 7.64925 9.46933 7.22501 10.6625 7.22501H13.2292V6.35417C13.2292 5.84237 13.4185 5.40122 13.7972 5.03074C14.1759 4.66025 14.6159 4.47501 15.1172 4.47501C15.6315 4.47501 16.0718 4.66025 16.4381 5.03074C16.8044 5.40122 16.9875 5.84237 16.9875 6.35417V7.22501H31.0125V6.35417C31.0125 5.84237 31.2019 5.40122 31.5805 5.03074C31.9592 4.66025 32.3992 4.47501 32.9005 4.47501C33.4148 4.47501 33.8551 4.66025 34.2214 5.03074C34.5877 5.40122 34.7708 5.84237 34.7708 6.35417V7.22501H37.3375C38.5433 7.22501 39.5705 7.64925 40.4189 8.49775C41.2674 9.34622 41.6917 10.3734 41.6917 11.5792V39.1708C41.6917 40.364 41.2674 41.3804 40.4189 42.2199C39.5705 43.0594 38.5433 43.4792 37.3375 43.4792H10.6625Z"
      fill="currentColor" />
  </g>
</svg>
