<svg width="15" height="15" viewBox="0 0 15 15" fill="none" xmlns="http://www.w3.org/2000/svg">
<mask id="mask0_6520_11545" style="mask-type:alpha" maskUnits="userSpaceOnUse" x="0" y="0" width="15" height="15">
<rect width="15" height="15" fill="#D9D9D9"/>
</mask>
<g mask="url(#mask0_6520_11545)">
<path d="M3.95312 13.5156C3.53425 13.5156 3.18214 13.3745 2.89678 13.0922C2.61143 12.8099 2.46875 12.4615 2.46875 12.0469V3.40625H2.29688C2.09115 3.40625 1.91732 3.33503 1.77539 3.19258C1.63346 3.05012 1.5625 2.87564 1.5625 2.66914C1.5625 2.46263 1.63346 2.28906 1.77539 2.14844C1.91732 2.00781 2.09115 1.9375 2.29688 1.9375H5.17187C5.17187 1.72917 5.24284 1.55208 5.38477 1.40625C5.52669 1.26042 5.70052 1.1875 5.90625 1.1875H9.07812C9.28385 1.1875 9.45768 1.2614 9.59961 1.40919C9.74154 1.55697 9.8125 1.73307 9.8125 1.9375H12.7031C12.9089 1.9375 13.0827 2.00872 13.2246 2.15117C13.3665 2.29363 13.4375 2.46811 13.4375 2.67461C13.4375 2.88112 13.3665 3.05469 13.2246 3.19531C13.0827 3.33594 12.9089 3.40625 12.7031 3.40625H12.5312V12.0469C12.5312 12.4615 12.3886 12.8099 12.1032 13.0922C11.8179 13.3745 11.4658 13.5156 11.0469 13.5156H3.95312ZM6.13555 10.8281C6.3056 10.8281 6.44792 10.7695 6.5625 10.6521C6.67708 10.5348 6.73438 10.3956 6.73438 10.2344V5.1875C6.73438 5.0263 6.67545 4.88705 6.55761 4.76973C6.43977 4.65241 6.29986 4.59375 6.13789 4.59375C5.96263 4.59375 5.81771 4.65241 5.70312 4.76973C5.58854 4.88705 5.53125 5.0263 5.53125 5.1875V10.2344C5.53125 10.3956 5.58945 10.5348 5.70586 10.6521C5.82228 10.7695 5.9655 10.8281 6.13555 10.8281ZM8.88075 10.8281C9.04358 10.8281 9.1849 10.7695 9.30469 10.6521C9.42448 10.5348 9.48437 10.3956 9.48437 10.2344V5.1875C9.48437 5.0263 9.42411 4.88705 9.30359 4.76973C9.18307 4.65241 9.03984 4.59375 8.87391 4.59375C8.70797 4.59375 8.5651 4.65241 8.44531 4.76973C8.32552 4.88705 8.26562 5.0263 8.26562 5.1875V10.2344C8.26562 10.3956 8.32744 10.5348 8.45106 10.6521C8.5747 10.7695 8.71793 10.8281 8.88075 10.8281Z" fill="#FF453A"/>
</g>
</svg>
