<svg width="100%" height="100%" viewBox="0 0 15 16" fill="none" xmlns="http://www.w3.org/2000/svg">
<circle opacity="0.3" cx="7.5" cy="8" r="7.5" fill="#F6F6F6"/>
<mask id="mask0_2587_297" style="mask-type:alpha" maskUnits="userSpaceOnUse" x="4" y="4" width="100%" height="100%">
<rect x="4" y="4.5" width="8" height="8" fill="#D9D9D9"/>
</mask>
<g mask="url(#mask0_2587_297)">
<path d="M5.91771 11.35C5.63372 11.35 5.38756 11.2572 5.17922 11.0715C4.97089 10.8859 4.86117 10.6509 4.85006 10.3667H4.53339C4.42367 10.3667 4.33096 10.3288 4.25527 10.2531C4.17957 10.1774 4.14172 10.0847 4.14172 9.975V6.425C4.14172 6.20806 4.21804 6.02326 4.37068 5.87062C4.52332 5.71799 4.70811 5.64167 4.92506 5.64167H8.96672C9.182 5.64167 9.36638 5.7184 9.51985 5.87187C9.67332 6.02535 9.75006 6.20972 9.75006 6.425V6.93333H10.1751C10.2975 6.93333 10.4135 6.96059 10.523 7.0151C10.6325 7.06962 10.7249 7.14792 10.8001 7.25L11.7834 8.55833C11.8056 8.59236 11.8237 8.62944 11.8376 8.66957C11.8514 8.7097 11.8584 8.75318 11.8584 8.8V9.975C11.8584 10.0847 11.8205 10.1774 11.7448 10.2531C11.6692 10.3288 11.5764 10.3667 11.4667 10.3667H11.1667C11.1501 10.65 11.0379 10.8847 10.8302 11.0708C10.6225 11.2569 10.3767 11.35 10.0927 11.35C9.80872 11.35 9.56256 11.2572 9.35422 11.0715C9.14589 10.8859 9.03617 10.6509 9.02506 10.3667H6.98339C6.96672 10.6444 6.85594 10.8778 6.65104 11.0667C6.44613 11.2556 6.20169 11.35 5.91771 11.35ZM5.91672 10.75C6.05006 10.75 6.16395 10.7028 6.25839 10.6083C6.35283 10.5139 6.40006 10.4 6.40006 10.2667C6.40006 10.1333 6.35283 10.0194 6.25839 9.925C6.16395 9.83056 6.05006 9.78333 5.91672 9.78333C5.78339 9.78333 5.6695 9.83056 5.57506 9.925C5.48061 10.0194 5.43339 10.1333 5.43339 10.2667C5.43339 10.4 5.48061 10.5139 5.57506 10.6083C5.6695 10.7028 5.78339 10.75 5.91672 10.75ZM10.0917 10.75C10.2251 10.75 10.3389 10.7028 10.4334 10.6083C10.5278 10.5139 10.5751 10.4 10.5751 10.2667C10.5751 10.1333 10.5278 10.0194 10.4334 9.925C10.3389 9.83056 10.2251 9.78333 10.0917 9.78333C9.95839 9.78333 9.8445 9.83056 9.75006 9.925C9.65561 10.0194 9.60839 10.1333 9.60839 10.2667C9.60839 10.4 9.65561 10.5139 9.75006 10.6083C9.8445 10.7028 9.95839 10.75 10.0917 10.75ZM9.75006 8.95833H11.1001L10.1751 7.725H9.75006V8.95833Z" fill="#F6F6F6"/>
</g>
</svg>
