<svg width="48" height="48" viewBox="0 0 48 48" fill="none" xmlns="http://www.w3.org/2000/svg">
  <g clip-path="url(#clip0_4128_1413)">
    <path
      d="M39.0698 20.0245C36.8372 21.2025 34.6047 22.6749 32.3721 23.8528C29.8605 25.3252 27.0698 26.7976 24.5581 28.2699C24.2791 28.5644 24 28.5644 23.7209 28.2699C18.6977 25.6196 13.9535 22.9693 9.20931 20.319C9.20931 20.319 8.93024 20.319 8.93024 20.0245C10.0465 19.1411 11.1628 18.5522 12.2791 17.9632C15.907 15.6074 19.5349 13.546 23.1628 11.1902C23.7209 10.8957 24 10.8957 24.5581 11.1902C29.3023 14.135 34.0465 17.0798 39.0698 20.0245Z"
      fill="#FFDC64" />
    <path
      d="M8.37213 22.3804C8.6512 22.6748 8.93027 22.6749 9.20934 22.9693C13.6745 25.3252 18.1396 27.9755 22.3256 30.3313C22.6047 30.3313 22.8838 30.6258 22.8838 30.9202C22.8838 36.5153 22.8838 42.1104 22.8838 47.7055C22.8838 47.7055 22.8838 47.7055 22.8838 48C22.6047 48 22.6047 48 22.6047 47.7055C18.1396 45.0552 13.6745 42.4049 9.20934 39.4601C8.6512 39.4601 8.37213 39.1656 8.37213 38.5767C8.37213 33.2761 8.37213 27.9755 8.37213 22.3804Z"
      fill="#FECA16" />
    <path
      d="M39.6279 22.3804C39.6279 22.6748 39.6279 22.9693 39.6279 22.9693C39.6279 27.9755 39.6279 33.2761 39.6279 38.2822C39.6279 39.1656 39.3488 39.4601 38.7907 39.7546C34.3256 42.4049 29.8605 45.0552 25.3954 47.7055C25.3954 47.7055 25.1163 48 24.8372 48C24.8372 47.7055 24.8372 47.7055 24.8372 47.411C24.8372 41.816 24.8372 36.2209 24.8372 30.9202C24.8372 30.6258 24.8372 30.3313 25.1163 30.3313C29.8605 27.681 34.3256 25.0307 39.0698 22.3804C39.3488 22.3804 39.3488 22.3804 39.6279 22.3804Z"
      fill="#E9B500" />
    <path
      d="M25.1163 3.82824C25.1163 5.30063 25.1163 6.47855 25.1163 7.65646C25.1163 8.24542 24.8372 8.5399 24.2791 8.83438C23.721 8.83438 22.8837 8.5399 22.8837 7.65646C22.8837 6.47855 22.8837 5.59511 22.8837 4.4172C22.8837 4.12272 22.8837 4.12272 22.8837 3.82824C22.8837 4.12272 22.6047 4.12272 22.6047 4.12272C22.0465 4.4172 21.4884 4.4172 21.2093 4.12272C20.9303 3.53376 20.6512 2.9448 21.2093 2.65033C22.0465 1.76689 22.6047 0.883455 23.4419 0.294498C23.721 1.92865e-05 24.2791 1.92865e-05 24.8372 0.294498C25.3954 0.883455 26.2326 1.76689 26.7907 2.35585C27.3489 2.9448 27.3489 3.53376 26.7907 4.12272C26.5117 4.4172 25.9535 4.4172 25.1163 3.82824Z"
      fill="#211F1F" />
    <path
      d="M45.2094 41.5215C45.2094 41.227 45.2094 41.227 45.2094 40.9325C45.2094 40.3436 45.4884 39.7546 46.0466 39.7546C46.6047 39.4601 47.1628 39.7546 47.1628 40.3436C47.4419 41.5215 47.721 42.4049 48 43.5828C48 44.1718 47.721 44.4663 47.4419 44.7608C46.6047 45.0552 45.4884 45.3497 44.6512 45.6442C44.0931 45.9387 43.5349 45.3497 43.2559 44.7608C42.9768 44.1718 43.2559 43.5828 44.0931 43.2884H44.3721C43.5349 42.9939 42.9768 42.4049 42.4186 42.1105C42.1396 42.1105 41.8605 41.816 41.8605 41.816C41.3024 41.5215 41.3024 40.9325 41.5814 40.3436C41.8605 39.7546 42.4186 39.4601 42.9768 40.0491C43.814 40.3436 44.3721 40.9325 45.2094 41.5215C45.2094 41.227 44.9303 41.227 45.2094 41.5215Z"
      fill="#211F1F" />
    <path
      d="M2.7907 41.5215C3.62791 40.9325 4.46512 40.6381 5.30233 40.0491C6.13953 39.7546 6.69767 40.0491 6.97674 40.9325C6.97674 41.5215 6.69767 41.816 6.4186 42.1105C5.58139 42.6994 4.74419 42.9939 3.90698 43.5828C4.18605 43.5828 4.18605 43.5828 4.46512 43.8773C5.02326 44.1718 5.30233 44.7608 5.02326 45.0552C5.02326 45.6442 4.46512 45.9387 3.90698 45.9387C2.7907 45.6442 1.67442 45.3497 0.55814 45.0552C0 44.4663 0 44.1718 0 43.5828C0.27907 42.4049 0.55814 41.227 0.837209 40.0491C0.837209 39.4601 1.39535 39.4601 1.95349 39.4601C2.51163 39.4601 2.7907 40.0491 2.7907 40.6381C2.7907 40.9325 2.7907 40.9325 2.7907 41.5215Z"
      fill="#211F1F" />
  </g>
  <defs>
    <clipPath id="clip0_4128_1413">
      <rect width="48" height="48" fill="white" />
    </clipPath>
  </defs>
</svg>
