<svg width="100%" height="100%" viewBox="0 0 25 28" fill="none" xmlns="http://www.w3.org/2000/svg">
<path d="M8.1411 21.6498H16.8589C17.2039 21.6498 17.4928 21.5339 17.7255 21.302C17.9582 21.0702 18.0745 20.7905 18.0745 20.463C18.0745 20.1355 17.9582 19.8621 17.7255 19.6428C17.4928 19.4234 17.2039 19.3137 16.8589 19.3137H8.10637C7.76136 19.3137 7.4725 19.4242 7.2398 19.6451C7.00709 19.866 6.89074 20.1401 6.89074 20.4676C6.89074 20.7951 7.01288 21.074 7.25716 21.3043C7.50145 21.5347 7.79609 21.6498 8.1411 21.6498ZM8.1411 16.0564H16.8589C17.2039 16.0564 17.4928 15.9405 17.7255 15.7086C17.9582 15.4768 18.0745 15.1971 18.0745 14.8696C18.0745 14.5421 17.9582 14.2687 17.7255 14.0494C17.4928 13.83 17.2039 13.7203 16.8589 13.7203H8.10637C7.76136 13.7203 7.4725 13.8308 7.2398 14.0517C7.00709 14.2725 6.89074 14.5467 6.89074 14.8742C6.89074 15.2017 7.01288 15.4806 7.25716 15.7109C7.50145 15.9412 7.79609 16.0564 8.1411 16.0564ZM3.76483 28C2.86064 28 2.09045 27.6987 1.45427 27.096C0.81809 26.4933 0.5 25.7637 0.5 24.9072V3.12573C0.5 2.26011 0.81809 1.52276 1.45427 0.913668C2.09045 0.304556 2.86064 0 3.76483 0H14.9834C15.4305 0 15.8607 0.0877399 16.2739 0.26322C16.687 0.4387 17.0441 0.669017 17.3452 0.954172L23.4928 6.77791C23.7938 7.06306 24.0369 7.40134 24.2221 7.79275C24.4074 8.18418 24.5 8.59169 24.5 9.01528V24.9072C24.5 25.7637 24.1785 26.4933 23.5355 27.096C22.8926 27.6987 22.1142 28 21.2004 28H3.76483ZM14.636 7.69918C14.636 8.13239 14.7938 8.49843 15.1093 8.7973C15.4247 9.09616 15.8111 9.24559 16.2685 9.24559H21.2004L14.636 3.12573V7.69918Z" fill="currentColor"/>
</svg>
