<svg width="100%" height="100%" viewBox="0 0 24 19"  xmlns="http://www.w3.org/2000/svg">
<mask id="mask0_249_1291" style="mask-type:alpha" maskUnits="userSpaceOnUse" x="2" y="0" width="100%" height="100%">
<rect x="2.81104" y="0.892395" width="100%" height="100%" fill="#D9D9D9"/> 

</mask>
<g mask="url(#mask0_249_1291)">
<path d="M9.95889 15.0572C9.71252 15.0572 9.50435 14.9719 9.33438 14.8013C9.16442 14.6307 9.07944 14.4155 9.07944 14.1557C9.07944 13.9084 9.16442 13.7006 9.33438 13.5321C9.50435 13.3637 9.71252 13.2795 9.95889 13.2795H18.1172C18.3636 13.2795 18.5749 13.3648 18.7511 13.5354C18.9273 13.706 19.0154 13.915 19.0154 14.1623C19.0154 14.422 18.9273 14.6361 18.7511 14.8045C18.5749 14.9729 18.3636 15.0572 18.1172 15.0572H9.95889ZM9.95889 10.7535C9.71252 10.7535 9.50435 10.6682 9.33438 10.4976C9.16442 10.327 9.07944 10.118 9.07944 9.87073C9.07944 9.62342 9.16442 9.41557 9.33438 9.24716C9.50435 9.07876 9.71252 8.99455 9.95889 8.99455H18.1172C18.3636 8.99455 18.5749 9.07985 18.7511 9.25044C18.9273 9.42104 19.0154 9.62998 19.0154 9.87728C19.0154 10.1246 18.9273 10.3324 18.7511 10.5008C18.5749 10.6693 18.3636 10.7535 18.1172 10.7535H9.95889ZM5.46807 6.46847C5.2217 6.46847 5.01354 6.38318 4.84357 6.21259C4.67361 6.04199 4.58862 5.8268 4.58862 5.56703C4.58862 5.31973 4.67361 5.11187 4.84357 4.94347C5.01354 4.77506 5.2217 4.69086 5.46807 4.69086H18.1172C18.3636 4.69086 18.5749 4.77615 18.7511 4.94674C18.9273 5.11734 19.0154 5.32629 19.0154 5.57358C19.0154 5.83336 18.9273 6.04746 18.7511 6.21586C18.5749 6.38427 18.3636 6.46847 18.1172 6.46847H5.46807Z" fill="#211F1F"/>
</g>
</svg>
