<svg width="13" height="13" viewBox="0 0 13 13" fill="none" xmlns="http://www.w3.org/2000/svg">
<path d="M4.6595 9.07049C4.45241 9.07049 4.27897 9.0006 4.13919 8.86081C3.9994 8.72103 3.92951 8.54759 3.92951 8.3405V6.7718C3.92951 6.57507 3.96834 6.3861 4.046 6.2049C4.12366 6.0237 4.23497 5.86061 4.37993 5.71565L9.69176 0.419355C9.83672 0.274393 9.99721 0.16826 10.1732 0.100956C10.3493 0.0336519 10.5305 0 10.7168 0C10.8929 0 11.0741 0.0362405 11.2605 0.108722C11.4468 0.181203 11.6125 0.289924 11.7575 0.434886L12.5496 1.227C12.7049 1.38232 12.8188 1.54799 12.8913 1.72401C12.9638 1.90004 13 2.08124 13 2.26762C13 2.454 12.9612 2.64297 12.8835 2.83453C12.8059 3.02609 12.6945 3.19434 12.5496 3.33931L7.28435 8.6356C7.13939 8.78057 6.9763 8.88929 6.7951 8.96177C6.6139 9.03425 6.42493 9.07049 6.2282 9.07049H4.6595ZM10.81 3.35484L11.8507 2.26762L10.7013 1.13381L9.64516 2.18996L10.81 3.35484ZM1.45998 13C1.05615 13 0.711868 12.8576 0.427121 12.5729C0.142374 12.2881 0 11.9438 0 11.54V2.5006C0 2.09677 0.142374 1.7499 0.427121 1.45998C0.711868 1.17005 1.05615 1.02509 1.45998 1.02509H7.73477L3.44803 5.32736C3.30307 5.47232 3.19176 5.6354 3.1141 5.81661C3.03644 5.99781 2.99761 6.18678 2.99761 6.38351V8.52688C2.99761 8.94106 3.13998 9.29052 3.42473 9.57527C3.70948 9.86002 4.05894 10.0024 4.47312 10.0024H6.60096C6.78734 10.0024 6.97372 9.96356 7.1601 9.8859C7.34648 9.80824 7.50697 9.69693 7.64158 9.55197L11.9749 5.23417V11.54C11.9749 11.9438 11.8299 12.2881 11.54 12.5729C11.2501 12.8576 10.9032 13 10.4994 13H1.45998Z" fill="#757575"/>
</svg>
