<svg width="100%" height="100%" viewBox="0 0 13 14" fill="none" xmlns="http://www.w3.org/2000/svg">
<path d="M4.6595 9.57049C4.45241 9.57049 4.27897 9.5006 4.13919 9.36081C3.9994 9.22103 3.92951 9.04759 3.92951 8.8405V7.2718C3.92951 7.07507 3.96834 6.8861 4.046 6.7049C4.12366 6.5237 4.23497 6.36061 4.37993 6.21565L9.69176 0.919355C9.83672 0.774393 9.99721 0.66826 10.1732 0.600956C10.3493 0.533652 10.5305 0.5 10.7168 0.5C10.8929 0.5 11.0741 0.536241 11.2605 0.608722C11.4468 0.681203 11.6125 0.789924 11.7575 0.934886L12.5496 1.727C12.7049 1.88232 12.8188 2.04799 12.8913 2.22401C12.9638 2.40004 13 2.58124 13 2.76762C13 2.954 12.9612 3.14297 12.8835 3.33453C12.8059 3.52609 12.6945 3.69434 12.5496 3.83931L7.28435 9.1356C7.13939 9.28057 6.9763 9.38929 6.7951 9.46177C6.6139 9.53425 6.42493 9.57049 6.2282 9.57049H4.6595ZM10.81 3.85484L11.8507 2.76762L10.7013 1.63381L9.64516 2.68996L10.81 3.85484ZM1.45998 13.5C1.05615 13.5 0.711868 13.3576 0.427121 13.0729C0.142374 12.7881 0 12.4438 0 12.04V3.0006C0 2.59677 0.142374 2.2499 0.427121 1.95998C0.711868 1.67005 1.05615 1.52509 1.45998 1.52509H7.73477L3.44803 5.82736C3.30307 5.97232 3.19176 6.1354 3.1141 6.31661C3.03644 6.49781 2.99761 6.68678 2.99761 6.88351V9.02688C2.99761 9.44106 3.13998 9.79052 3.42473 10.0753C3.70948 10.36 4.05894 10.5024 4.47312 10.5024H6.60096C6.78734 10.5024 6.97372 10.4636 7.1601 10.3859C7.34648 10.3082 7.50697 10.1969 7.64158 10.052L11.9749 5.73417V12.04C11.9749 12.4438 11.8299 12.7881 11.54 13.0729C11.2501 13.3576 10.9032 13.5 10.4994 13.5H1.45998Z" fill="#757575"/>
</svg>
