<svg width="24" height="24" viewBox="0 0 24 24" fill="none" xmlns="http://www.w3.org/2000/svg">
<mask id="mask0_126_8917" style="mask-type:alpha" maskUnits="userSpaceOnUse" x="0" y="0" width="24" height="24">
<rect width="24" height="24" fill="#D9D9D9"/>
</mask>
<g mask="url(#mask0_126_8917)">
<path d="M3.725 20.625C3.07417 20.625 2.51975 20.396 2.06175 19.938C1.60392 19.4801 1.375 18.9258 1.375 18.275V5.72498C1.375 5.06731 1.60392 4.50706 2.06175 4.04423C2.51975 3.58139 3.07417 3.34998 3.725 3.34998H20.275C20.9327 3.34998 21.4929 3.58139 21.9557 4.04423C22.4186 4.50706 22.65 5.06731 22.65 5.72498V18.275C22.65 18.9258 22.4186 19.4801 21.9557 19.938C21.4929 20.396 20.9327 20.625 20.275 20.625H3.725ZM12 13C12.1167 13 12.225 12.9833 12.325 12.95C12.425 12.9166 12.5345 12.8662 12.6535 12.7987L19.925 7.92498C20.0083 7.88331 20.0875 7.80206 20.1625 7.68123C20.2375 7.56039 20.275 7.42273 20.275 7.26823C20.275 6.97889 20.1375 6.74098 19.8625 6.55448C19.5875 6.36814 19.3083 6.37498 19.025 6.57498L12 11.175L5 6.57498C4.71667 6.39164 4.43333 6.37498 4.15 6.52498C3.86667 6.67498 3.725 6.91531 3.725 7.24598C3.725 7.39364 3.76667 7.52706 3.85 7.64622C3.93333 7.76539 4.01825 7.85889 4.10475 7.92673L11.347 12.7987C11.4657 12.8662 11.575 12.9166 11.675 12.95C11.775 12.9833 11.8833 13 12 13Z" fill="#1C1B1F"/>
</g>
</svg>
