<svg width="200" height="200" viewBox="0 0 200 200" fill="none" xmlns="http://www.w3.org/2000/svg">
<path d="M161.94 75.28C160.12 66.1 155.86 56.5 153.88 47.22C153.46 46.24 152.38 45.42 151.42 45.02L44.34 44.96C42.96 45.16 41.86 45.8 41.34 47.16L32.96 75.92C32.68 79.92 34.04 83.72 36.98 86.46C37.66 87.08 40.4 88.62 40.5 89.18V141.92C40.74 143.76 40.62 145.46 42.56 146.34L153.12 146.22L154.62 144.6L154.8 89.18C154.9 88.58 157.32 87.38 158.04 86.72C161.16 83.94 162.76 79.38 161.94 75.28ZM111.7 144.34L112.34 102.06C112.74 101.8 113.16 101.8 113.6 101.76C121.12 101.16 129.42 102.26 137.02 101.76L138.3 102.3L138.68 144.64L111.7 144.34ZM152.98 143.74C152.98 143.74 152.32 144.44 152.2 144.5C151.62 144.76 143.06 144.78 141.94 144.64C141.44 144.6 140.72 144.46 140.54 143.94L140.5 103.22C140.26 101.36 139.8 100.14 137.8 99.94C129.88 99.22 120.86 100.52 112.84 99.96C109.78 100.32 110.2 102.64 109.84 105.02L109.6 144.38L43.1 144.52C42.78 144.34 42.64 144.08 42.58 143.72C42.22 141.78 42.64 138.14 42.58 135.92C42.2 122.24 41.62 106.96 42.3 93.32C42.36 92.16 42.74 91.02 42.58 89.84C47.72 90.92 53.26 87.52 55.3 82.82C57.08 85.12 59.32 88.42 62.3 89.2C66.4 90.26 71.48 89.08 74.4 85.94C74.92 85.38 76.3 82.86 76.48 82.82C76.98 82.68 77.74 84.7 78.16 85.02C82.72 90.34 89.54 90.92 94.92 86.46L97.78 82.82C101.16 88.8 107.72 91.32 113.98 87.86C116.06 86.72 117.56 84.94 118.56 82.82C121.02 87 126.08 91.08 131.2 89.76C134.64 88.86 138.16 86.06 139.6 82.82C141.04 85.16 142.96 87.38 145.52 88.58C146.14 88.86 147.86 89.58 148.42 89.58H152.58C152.58 89.58 152.78 89.24 152.98 89.32V143.74ZM147.78 87.36C144.94 86.48 141.76 83.2 141.1 80.28C140.88 79.32 140.92 76.46 140.4 76.04C138.46 74.46 138.76 78.5 138.62 79.24C136.72 89.94 123.3 90.68 120.26 80.86C119.74 79.16 119.86 77.5 119.44 75.84L118.02 76.06C117.42 81.58 115.96 86.58 109.66 87.42C104.68 88.1 99.68 84.52 98.96 79.54C98.86 78.8 99.2 74.42 97.22 76.04C96.76 76.42 96.5 79.6 96.26 80.54C94.24 88.38 83.88 90.1 79.5 83.42C77.9 80.98 77.92 78.74 77.42 75.96C75.1 74.96 75.54 79.08 75.12 80.68C72.92 89.08 62.22 90.08 57.8 82.54C56.44 80.24 56.34 78.58 56.12 75.96L54.96 75.8C54.14 78.38 54.4 80.7 52.98 83.22C49.14 89.98 40.32 89.2 36.5 82.8C34.16 78.92 34.84 75.96 35.96 71.9C38.16 63.78 40.94 55.8 43.14 47.66C43.66 46.78 45.64 46.74 46.58 46.7C56.3 46.2 66.24 46.96 75.94 46.98C96.4 47.04 116.82 46.64 137.24 46.98C141.9 47.06 146.58 46.86 151.24 47.02C151.92 47.22 152.06 48.24 152.26 48.84C155.38 57.76 157.38 67.44 160.22 76.48C160.88 83.18 154.48 89.38 147.78 87.36Z" fill="#44546F"/>
<path d="M147.78 87.36C144.94 86.48 141.76 83.2 141.1 80.28C140.88 79.32 140.92 76.46 140.4 76.04C138.46 74.46 138.76 78.5 138.62 79.24C136.72 89.94 123.3 90.68 120.26 80.86C119.74 79.16 119.86 77.5 119.44 75.84L118.02 76.06C117.42 81.58 115.96 86.58 109.66 87.42C104.68 88.1 99.6799 84.52 98.9599 79.54C98.8599 78.8 99.1999 74.42 97.2199 76.04C96.7599 76.42 96.4999 79.6 96.2599 80.54C94.2399 88.38 83.8799 90.1 79.4999 83.42C77.8999 80.98 77.9199 78.74 77.4199 75.96C75.0999 74.96 75.5399 79.08 75.1199 80.68C72.9199 89.08 62.2199 90.08 57.7999 82.54C56.4399 80.24 56.3399 78.58 56.1199 75.96L54.9599 75.8C54.1399 78.38 54.3999 80.7 52.9799 83.22C49.1399 89.98 40.3199 89.2 36.4999 82.8C34.1599 78.92 34.8399 75.96 35.9599 71.9C38.1599 63.78 40.9399 55.8 43.1399 47.66C43.6599 46.78 45.6399 46.74 46.5799 46.7C56.2999 46.2 66.2399 46.96 75.9399 46.98C96.3999 47.04 116.82 46.64 137.24 46.98C141.9 47.06 146.58 46.86 151.24 47.02C151.92 47.22 152.06 48.24 152.26 48.84C155.38 57.76 157.38 67.44 160.22 76.48C160.88 83.18 154.48 89.38 147.78 87.36Z" fill="#DCDFE4"/>
<path d="M34.9399 33.62C32.2599 36.96 26.1399 36.1 24.8999 31.8C23.4799 26.82 27.7999 22.68 32.6999 24.52C36.4799 25.94 37.3999 30.56 34.9399 33.64V33.62ZM30.2799 26.02C26.4199 26.1 25.1399 31.74 28.3999 33.22C34.6999 36.06 36.7999 25.9 30.2799 26.02Z" fill="#44546F"/>
<path d="M153.92 166.82C158.62 171.88 150.66 179.3 146.08 174.28C141.5 169.26 149.26 161.8 153.92 166.82ZM148.74 167.3C146.08 167.92 145.88 172.74 148.6 173.56C151.82 174.54 154.08 172.18 153.12 169.04C152.66 167.5 150.14 166.98 148.74 167.3Z" fill="#44546F"/>
<path d="M173.24 32.3C173.52 31.34 175.06 31.72 175.06 32.3V36.72L175.44 37.1H179.6C180.14 37.1 180.14 38.92 179.6 38.92H175.44L175.06 39.3V43.2C175.06 43.74 173.24 43.74 173.24 43.2V39.3L172.86 38.92H168.96C168.96 38.92 168.28 38.32 168.36 38.06L168.96 37.1H172.86L173.24 36.72C173.46 35.54 172.96 33.32 173.24 32.3Z" fill="#DCDFE4"/>
<path d="M22.0001 155.08C24.1001 154.96 24.7001 158.2 22.7601 158.98C19.8001 160.18 18.7401 155.26 22.0001 155.08Z" fill="#DCDFE4"/>
<path d="M57.32 100.02C67.68 100.6 79.28 99.04 89.48 99.94C91 100.08 92.5 100.7 92.72 102.4C93.06 104.88 92.8 109.3 92.82 112.02C92.86 118.76 92.54 125.54 92.72 132.28C92.58 133.38 91.92 134.42 90.9 134.88H56.58L54.98 133.38V101.56C55.46 100.66 56.34 100.22 57.32 100V100.02ZM56.92 132.64L90.38 132.84C90.78 132.32 90.84 131.66 90.9 131.02C91.62 122.26 90.34 112.58 90.9 103.72L90.5 102.3L57.1 102.18C56.58 102.5 56.6 104.14 56.58 104.76C56.14 113.52 56.7 122.58 56.58 131.28C56.58 131.66 56.68 132.38 56.92 132.64Z" fill="#44546F"/>
<path d="M82.78 112.24C83.48 112.92 82.7 113.76 82.2 114.26C79.9 116.6 76.98 118.88 74.52 121.12C73.62 121.94 70.9 125.16 69.98 125.18C67.32 125.2 70.8 121.98 71.4 121.38C73.72 119.14 76.28 117.06 78.68 114.9C79.52 114.14 81.64 111.12 82.76 112.24H82.78Z" fill="#44546F"/>
</svg>
