<svg width="100%" height="100%" viewBox="0 0 792 693" fill="none" xmlns="http://www.w3.org/2000/svg">
  <g id="&#216;&#167;&#217;&#132;&#216;&#167;&#216;&#180;&#216;&#185;&#216;&#167;&#216;&#177;&#216;&#167;&#216;&#170;">
    <path id="Fill 1" fill-rule="evenodd" clip-rule="evenodd"
      d="M503.405 467.83L501.104 476.917L273.965 419.419L276.263 410.332C294.437 414.931 308.534 397.426 310.814 388.432L323.921 336.643C334.301 298.954 368.621 272.875 407.717 272.971C411.065 260.47 423.917 253.054 436.415 256.405C448.916 259.756 456.335 272.605 452.981 285.106C487.268 304.243 504.842 343.69 496.133 381.976L483.44 432.13C480.746 442.759 494.321 465.529 503.405 467.83Z"
      fill="#E0E0E0" />
    <path id="Fill 3" fill-rule="evenodd" clip-rule="evenodd"
      d="M346.711 447.501C348.892 470.691 369.457 487.725 392.647 485.547C405.277 484.362 416.704 477.552 423.76 467.004L346.711 447.501Z"
      fill="#FECA16" />
    <path id="Stroke 5" fill-rule="evenodd" clip-rule="evenodd"
      d="M715.594 379.825C715.594 551.788 576.187 691.195 404.224 691.195C232.261 691.195 92.8569 551.788 92.8569 379.825C92.8569 207.862 232.261 68.4552 404.224 68.4552C576.187 68.4552 715.594 207.862 715.594 379.825Z"
      stroke="#FECA16" stroke-dasharray="5.02 5.02" />
    <path id="Stroke 7" fill-rule="evenodd" clip-rule="evenodd"
      d="M635.45 379.825C635.45 507.526 531.926 611.05 404.225 611.05C276.521 611.05 173.003 507.526 173.003 379.825C173.003 252.124 276.521 148.6 404.225 148.6C531.926 148.6 635.45 252.124 635.45 379.825Z"
      stroke="#FECA16" stroke-dasharray="5.05 5.05" />
    <path id="Fill 13" fill-rule="evenodd" clip-rule="evenodd"
      d="M346.729 447.554C348.91 470.744 369.475 487.778 392.665 485.6C405.295 484.415 416.722 477.605 423.778 467.057L346.729 447.554Z"
      fill="#FECA16" />
    <path id="Fill 15" fill-rule="evenodd" clip-rule="evenodd"
      d="M529.866 308.221C535.155 314.584 539.127 322.078 541.827 330.022C544.578 337.969 545.922 346.411 546.06 354.859C546.06 359.086 545.757 363.307 545.211 367.492C544.491 371.656 543.66 375.79 542.352 379.795C539.823 387.808 536.001 395.407 530.793 401.875C530.568 402.154 530.166 402.196 529.887 401.974C529.671 401.797 529.599 401.509 529.683 401.257C532.395 393.538 534.642 385.924 536.151 378.199C536.43 376.249 536.814 374.329 537.138 372.4C537.36 370.453 537.654 368.521 537.822 366.577C537.948 364.63 538.2 362.695 538.281 360.748C538.311 358.798 538.404 356.851 538.395 354.904C538.44 347.107 537.57 339.322 536.055 331.594C534.498 323.86 532.155 316.243 529.341 308.524C529.284 308.365 529.365 308.188 529.524 308.131C529.65 308.083 529.785 308.125 529.866 308.221Z"
      fill="#FECA16" />
    <path id="Fill 17" fill-rule="evenodd" clip-rule="evenodd"
      d="M559.655 310.923C564.761 316.806 568.607 323.784 571.286 331.191C573.971 338.607 575.522 346.485 575.798 354.411C576.098 362.334 575.132 370.299 573.014 377.886C570.899 385.47 567.602 392.718 562.952 398.964C562.922 399.003 562.865 399.012 562.829 398.985C562.799 398.961 562.787 398.922 562.796 398.889C564.722 391.371 566.336 384.057 567.314 376.704C568.292 369.354 568.613 362.007 568.34 354.687C568.04 347.37 567.155 340.077 565.598 332.838C564.047 325.59 561.854 318.438 559.355 311.097C559.325 311.004 559.373 310.905 559.466 310.872C559.535 310.848 559.61 310.869 559.655 310.923Z"
      fill="#FECA16" />
    <path id="Fill 19" fill-rule="evenodd" clip-rule="evenodd"
      d="M287.376 348.466C285.756 340.399 285.738 331.972 287.022 323.734C288.264 315.475 290.934 307.423 294.642 299.902C298.44 292.426 303.294 285.469 309.156 279.517C314.976 273.544 321.726 268.483 329.172 264.949C329.307 264.886 329.463 264.943 329.526 265.075C329.577 265.183 329.55 265.309 329.463 265.387C323.406 270.886 317.829 276.619 312.9 282.826C308.007 289.045 303.678 295.654 300.18 302.689C296.586 309.679 293.844 317.086 291.759 324.727C289.707 332.386 288.441 340.291 287.634 348.454C287.625 348.523 287.562 348.577 287.49 348.571C287.433 348.565 287.388 348.52 287.376 348.466Z"
      fill="#FECA16" />
    <path id="Fill 21" fill-rule="evenodd" clip-rule="evenodd"
      d="M261.947 332.518C260.414 324.943 260.387 317.05 261.5 309.322C262.649 301.594 264.944 294.001 268.331 286.93C271.682 279.847 276.008 273.22 281.213 267.415C286.394 261.601 292.382 256.519 299.054 252.679C293.606 258.103 288.602 263.761 284.237 269.845C279.887 275.935 276.104 282.358 273.038 289.114C270.002 295.879 267.566 302.905 265.829 310.156C264.044 317.404 262.973 324.841 262.202 332.506C262.193 332.575 262.133 332.626 262.058 332.62C262.004 332.614 261.956 332.572 261.947 332.518Z"
      fill="#FECA16" />
    <path id="Stroke 25" d="M34.0344 421.747L28.2534 421.57" stroke="#E0E0E0" stroke-linecap="round" />
    <path id="Stroke 27" d="M29.8872 410.786L25.7412 414.659" stroke="#E0E0E0" stroke-linecap="round" />
    <path id="Stroke 29" d="M19.0812 405.781L18.9942 411.433" stroke="#E0E0E0" stroke-linecap="round" />
    <path id="Stroke 31" d="M7.94398 409.661L11.97 413.783" stroke="#E0E0E0" stroke-linecap="round" />
    <path id="Stroke 33" d="M3 420.157L8.778 420.334" stroke="#E0E0E0" stroke-linecap="round" />
    <path id="Stroke 35" d="M7.14569 431.118L11.2947 427.245" stroke="#E0E0E0" stroke-linecap="round" />
    <path id="Stroke 37" d="M17.9532 436.125L18.0402 430.473" stroke="#E0E0E0" stroke-linecap="round" />
    <path id="Stroke 39" d="M29.0904 432.243L25.0644 428.121" stroke="#E0E0E0" stroke-linecap="round" />
    <path id="Stroke 41" d="M787.943 341.167L785.402 343.918" stroke="#E0E0E0" stroke-linecap="round" />
    <path id="Stroke 43" d="M776.013 343.557L777.93 345.324" stroke="#E0E0E0" stroke-linecap="round" />
    <path id="Stroke 45" d="M774.079 355.751L776.62 353" stroke="#E0E0E0" stroke-linecap="round" />
    <path id="Stroke 47" d="M786.006 353.36L784.092 351.593" stroke="#E0E0E0" stroke-linecap="round" />
    <path id="Stroke 49" d="M555.211 17.8404L549.064 17.6754" stroke="#E0E0E0" stroke-linecap="round" />
    <path id="Stroke 51" d="M539.306 3L539.213 8.253" stroke="#E0E0E0" stroke-linecap="round" />
    <path id="Stroke 53" d="M522.199 16.3623L528.346 16.5243" stroke="#E0E0E0" stroke-linecap="round" />
    <path id="Stroke 55" d="M538.105 31.2027L538.198 25.9497" stroke="#E0E0E0" stroke-linecap="round" />
    <path id="Fill 57" fill-rule="evenodd" clip-rule="evenodd"
      d="M100.011 585.019C95.589 586.342 88.224 592.84 85.704 600.544C85.281 593.386 80.736 584.389 75.735 583.093C81.837 580.936 88.446 573.007 90.204 566.326C89.886 573.328 96.243 583.495 100.011 585.019Z"
      fill="#FECA16" />
    <path id="Fill 59" fill-rule="evenodd" clip-rule="evenodd"
      d="M203.578 45.9771C200.167 46.5801 194.122 50.7801 191.578 56.3001C191.881 50.9331 189.274 43.8381 185.662 42.4401C190.393 41.3601 196.003 36.0261 197.89 31.2021C197.047 36.3921 200.902 44.5161 203.578 45.9771Z"
      fill="#FECA16" />
    <path id="Fill 61" fill-rule="evenodd" clip-rule="evenodd"
      d="M655.679 84.9507C651.122 84.8517 647.51 81.0807 647.612 76.5267C647.711 71.9727 651.482 68.3607 656.033 68.4597C660.59 68.5587 664.202 72.3297 664.103 76.8837C664.001 81.4377 660.233 85.0497 655.679 84.9507Z"
      fill="#E0E0E0" />
    <path id="Fill 63" fill-rule="evenodd" clip-rule="evenodd"
      d="M655.699 625.408C651.736 625.324 648.592 622.039 648.676 618.076C648.76 614.11 652.045 610.966 656.011 611.05C659.977 611.137 663.121 614.419 663.034 618.385C662.947 622.348 659.665 625.495 655.699 625.408Z"
      fill="#FECA16" />
    <path id="Stroke 65" fill-rule="evenodd" clip-rule="evenodd"
      d="M59.4669 194.41C57.0129 194.356 55.0659 192.325 55.1199 189.868C55.1709 187.414 57.2049 185.47 59.6589 185.521C62.1129 185.575 64.0599 187.606 64.0089 190.06C63.9549 192.517 61.9209 194.464 59.4669 194.41Z"
      stroke="#E0E0E0" stroke-linecap="round" />
  </g>
</svg>
