<svg width="200" height="200" viewBox="0 0 200 200" fill="none" xmlns="http://www.w3.org/2000/svg">
<path d="M129.92 103.18C134.68 91.8 131.92 78.48 122.8 70.22C125.38 65.46 122.38 59.54 116.7 60.18C113.96 60.48 112.64 62.36 111.3 64.48C98.98 61.6 86.52 66.82 80.02 77.6L66.9 103.62L58.9 105.62L55.14 113.04C54.96 113.68 55.48 114.06 55.96 114.34L80.36 126.88L80.44 127.16C75.88 140.7 93.44 149.68 101.42 137.68L113.98 143.98C114.44 144.16 114.88 143.9 115.14 143.54L118.76 136.34C118.78 134.62 116.32 130.7 116.66 129.28C120.58 120.54 126.24 111.94 129.92 103.18ZM94.38 141.52C85.76 143.9 79 135.62 81.64 127.48L100.2 136.88C99.38 139.12 96.64 140.88 94.38 141.52ZM117.18 136.16L114.16 142.24L56.78 113.1L59.9 106.82L67.36 105.3L90.08 116.74C91.06 117.32 91.92 116.14 91.08 115.48L68.46 104.18L70.38 100.1L83.04 106.42C83.74 106.54 84.3 106 83.94 105.3C83.48 104.36 71.24 99.3 71.08 98.6L81.44 78.24C87.94 67.76 99.8 62.98 111.84 66.12C112.72 65.96 113 64.46 113.5 63.76C116.8 59.08 123.96 62.62 121.92 68.4C121.62 69.22 120.58 70.32 121.22 71.08C130.9 79.04 133.12 92.1 128.18 103.44L115.02 129.42C115.28 131.72 116.6 133.9 117.18 136.16Z" fill="#44546F"/>
<path d="M100.2 136.88C99.38 139.12 96.64 140.88 94.38 141.52C85.76 143.9 79 135.62 81.64 127.48L100.2 136.88Z" fill="#DCDFE4"/>
<path d="M63.84 57.92C63.64 58.08 61.02 58.82 60.36 59.14C51.78 63.18 46.8 73.32 47.94 82.62C48.04 83.46 48.94 86.38 48.38 86.76C47.08 87.64 46.6 83.2 46.52 82.44C45.64 73.7 49.32 64.76 56.56 59.72C57.76 58.88 62.22 56.32 63.5 56.66C64.12 56.82 64.28 57.54 63.84 57.92Z" fill="#44546F"/>
<path d="M157.2 105.92L157.98 106.1C161 116.78 156.28 128.64 146.64 134.1C145.76 134.6 142.1 136.52 141.3 135.98C139.96 135.06 143.06 134.28 143.44 134.1C152.94 129.78 158.24 120.94 157.48 110.4C157.4 109.28 156.88 107.78 156.86 106.8C156.86 106.5 156.84 106.04 157.2 105.92Z" fill="#44546F"/>
<path d="M139.56 130.64C139.36 130.5 139.3 129.82 139.52 129.56C139.72 129.32 142.4 128.2 143 127.84C148.94 124.3 152.02 117.64 151.52 110.8C151.46 109.94 150.88 108.18 150.92 107.6C150.96 107.2 151.56 106.82 151.9 107C152.34 107.22 152.58 108.88 152.68 109.44C153.78 116.4 150.94 123.74 145.3 127.98C144.46 128.6 140.36 131.18 139.56 130.66V130.64Z" fill="#44546F"/>
<path d="M66.06 62.58C66.14 62.92 66.18 63.42 65.9 63.66C65.68 63.84 63.74 64.44 63.16 64.72C56.66 68 53.52 74.9 54.12 82.04C54.18 82.68 54.76 84.68 54.68 85C54.58 85.44 53.88 85.72 53.5 85.46C53.24 85.26 52.76 82.36 52.72 81.84C52.18 74.88 55.24 67.88 61.24 64.2C61.9 63.8 65.58 61.82 66.06 62.58Z" fill="#44546F"/>
<path d="M55.46 34.84C60.7 33.94 63.22 40.44 59.1 43.26C55.98 45.4 51.66 42.92 51.82 39.18C51.9 37.22 53.46 35.18 55.46 34.84ZM55.64 36.44C53.8 36.82 52.74 39.18 53.72 40.86C55.46 43.84 60.06 42.44 59.46 38.7C59.18 36.94 57.26 36.1 55.62 36.44H55.64Z" fill="#DCDFE4"/>
<path d="M151.86 155.9C158.44 154.98 159.24 164.86 152.8 165.24C146.84 165.58 145.92 156.72 151.86 155.9ZM151.84 157.3C148.34 157.86 148.32 163.22 151.84 163.8C157.14 164.66 157.2 156.44 151.84 157.3Z" fill="#44546F"/>
<path d="M145.26 108.32C145.5 108.26 145.66 108.32 145.84 108.48C146.26 108.84 146.56 112.26 146.52 113C146.32 117.8 142.96 122.4 138.6 124.26C137.98 124.52 136.62 125.34 136.36 124.34C136.14 123.48 138.4 122.88 139.06 122.52C143.18 120.2 145.42 115.94 145.12 111.2C145.08 110.48 144.22 108.58 145.26 108.32Z" fill="#44546F"/>
<path d="M67.38 68.02C67.6 68.02 67.82 68.18 67.98 68.34C68.14 68.54 68.1 68.74 67.98 68.94C67.86 69.18 64.86 70.74 64.18 71.32C61.78 73.38 60.1 76.84 60.08 80.02C60.08 81.04 60.76 82.94 60.7 83.62C60.68 83.84 60.58 84 60.42 84.14L59.84 84.3C58.68 84 58.78 78.96 58.96 77.88C59.52 74.26 61.94 70.82 65.1 69.04C65.54 68.8 67 68.02 67.4 68.02H67.38Z" fill="#44546F"/>
<path d="M21.32 73.58C24.28 72.92 24.1999 77.86 20.96 76.84C19.5 76.38 19.74 73.92 21.32 73.58Z" fill="#44546F"/>
<path d="M178 133.3C180.4 133 180.88 136.76 178.14 136.68C175.9 136.62 176.02 133.54 178 133.3Z" fill="#DCDFE4"/>
</svg>
