<svg width="200" height="200" viewBox="0 0 200 200" fill="none" xmlns="http://www.w3.org/2000/svg">
<path d="M144.44 59.84L40.04 59.92C36.02 60.42 32.96 64 32.58 67.94V126.72C33.14 131.28 36.3 134.46 40.92 134.82H144.44C149.18 134.3 152.18 130.92 152.54 126.24V68.18C152.18 63.62 149.02 60.28 144.44 59.84ZM150.6 127.44C150.6 129.52 146.92 133.02 144.68 132.9H40.68C38.46 133.2 34.52 129.7 34.52 127.68V90.08H150.6V127.44ZM150.6 88.38H34.52V76.3H150.6V88.38ZM150.6 74.36H34.52V66.98C34.52 64.98 38.66 61.3 40.92 61.78H144.92C147 61.66 150.6 65.12 150.6 66.98V74.36Z" fill="#44546F"/>
<path d="M34.52 90.08V127.68C34.52 129.7 38.46 133.2 40.68 132.9H144.68C146.92 133.02 150.6 129.52 150.6 127.44V90.08H34.52ZM71.88 117.16H43.6L43.02 116.28L43.6 115.48H71.88C72.6 115.48 72.6 117.16 71.88 117.16ZM92.46 105.08H44.3C42.84 104.78 42.52 103.7 44.14 103.2L92.46 103.12L93.78 103.5C94.54 104.54 93.46 105.12 92.46 105.08ZM129.98 125.08C128.78 124.9 126.94 123.56 126.26 123.5C125.76 123.46 123.62 124.92 122.62 125.08C115.14 126.34 109.66 120.38 110.82 113.04C111.36 109.54 115.12 105.86 118.62 105.38C119.7 105.24 121.54 105.2 122.62 105.38C123.56 105.52 126.02 106.96 126.26 106.96C126.82 106.94 128.9 105.56 130.24 105.38C145.56 103.3 145.18 127.44 129.98 125.08Z" fill="#DCDFE4"/>
<path d="M30.0601 39.18C36.0401 39.54 36.8201 49.12 30.6801 50.3C22.2801 51.92 21.3801 38.64 30.0601 39.18ZM29.1401 40.8C23.2401 41.32 25.3801 50.84 30.9601 48.46C35.0201 46.72 33.2001 40.46 29.1401 40.8Z" fill="#44546F"/>
<path d="M144.72 151.56C146.62 151.26 148.9 152.46 149.66 154.24C151.58 158.66 146.44 162.9 142.48 159.72C139.46 157.3 140.96 152.16 144.72 151.56ZM144.98 153.24C141.36 153.94 142.24 159.36 145.62 159.22C149.5 159.04 149.02 152.46 144.98 153.24Z" fill="#44546F"/>
<path d="M164.14 45.34H168.62C169.26 45.34 168.92 47.04 168.38 47.04H164.14V51.28C164.14 51.78 162.44 51.78 162.44 51.28V47.04H158.2C157.5 47.04 157.66 45.34 157.84 45.34H162.44V40.86L163.32 40.3C163.58 40.22 164.12 40.78 164.12 40.86V45.34H164.14Z" fill="#DCDFE4"/>
<path d="M179.56 100.06C180.66 101.22 179.66 103.76 177.44 103.04C174.94 102.22 177.5 97.88 179.56 100.06Z" fill="#44546F"/>
<path d="M23.1 147.7C23.3 147.92 23.54 148.92 23.54 149.22C23.48 151.34 19.76 151.48 20.02 148.76C20.16 147.26 22.16 146.68 23.1 147.72V147.7Z" fill="#DCDFE4"/>
<path d="M130.24 105.38C128.9 105.56 126.82 106.94 126.26 106.96C126.02 106.96 123.56 105.52 122.62 105.38C121.54 105.2 119.7 105.24 118.62 105.38C115.12 105.86 111.36 109.54 110.82 113.04C109.66 120.38 115.14 126.34 122.62 125.08C123.62 124.92 125.76 123.46 126.26 123.5C126.94 123.56 128.78 124.9 129.98 125.08C145.18 127.44 145.56 103.3 130.24 105.38ZM112.7 112.76C114.2 107.8 120.42 105.06 124.72 108.34C121.9 111.18 121.26 114.94 122.6 118.68C123.14 120.14 124.12 121.12 124.72 122.48C118.18 126.08 110.52 119.98 112.7 112.76ZM125.94 121.04C125.1 119.4 123.96 118.26 123.76 116.32C123.46 113.38 124.3 111.72 125.94 109.42C128.74 111.92 129.3 115.64 127.68 119.02C127.5 119.4 126.34 121.32 125.94 121.04ZM137.46 121.2C134.86 123.74 130.64 124.4 127.64 122.12C130.88 118.48 131.08 113.72 128.56 109.6C128.34 109.26 127.68 108.72 127.64 108.56C127.5 107.94 130.12 107.1 130.68 107.02C138.56 105.98 143.1 115.64 137.46 121.2Z" fill="#44546F"/>
<path d="M137.46 121.2C134.86 123.74 130.64 124.4 127.64 122.12C130.88 118.48 131.08 113.72 128.56 109.6C128.34 109.26 127.68 108.72 127.64 108.56C127.5 107.94 130.12 107.1 130.68 107.02C138.56 105.98 143.1 115.64 137.46 121.2Z" fill="#DCDFE4"/>
<path d="M127.68 119.02C127.5 119.4 126.34 121.32 125.94 121.04C125.1 119.4 123.96 118.26 123.76 116.32C123.46 113.38 124.3 111.72 125.94 109.42C128.74 111.92 129.3 115.64 127.68 119.02Z" fill="#44546F"/>
<path d="M122.6 118.68C123.14 120.14 124.12 121.12 124.72 122.48C118.18 126.08 110.52 119.98 112.7 112.76C114.2 107.8 120.42 105.06 124.72 108.34C121.9 111.18 121.26 114.94 122.6 118.68Z" fill="#DCDFE4"/>
<path d="M92.4599 105.08H44.2999C42.8399 104.78 42.5199 103.7 44.1399 103.2L92.4599 103.12L93.7799 103.5C94.5399 104.54 93.4599 105.12 92.4599 105.08Z" fill="#44546F"/>
<path d="M71.88 117.16H43.6L43.02 116.28L43.6 115.48H71.88C72.6 115.48 72.6 117.16 71.88 117.16Z" fill="#44546F"/>
</svg>
