<svg width="200" height="200" viewBox="0 0 200 200" fill="none" xmlns="http://www.w3.org/2000/svg">
<path d="M130.12 64.92L149.96 101.6L151.86 102.82L164.7 95.26L143.92 56.42L130.12 63.8V64.92Z" fill="#DCDFE4"/>
<path d="M45.3 101.08L44.1 101.36C42.6 100.04 33.54 96.44 32.9 95.38C32.66 95 32.72 94.44 32.9 94.04L52.42 57L65.08 63.5C65.24 63.76 65.16 64.34 65.08 64.64L45.3 101.08ZM60.68 118.26C58.52 119.78 54.36 117.58 53.86 115.02C53.18 111.62 57.76 104.86 61.46 104.86C64.94 104.86 67.06 109.04 65.96 112.16C65.68 112.98 61.5 117.68 60.68 118.26ZM67.36 127.84C63.12 129.48 60.24 124.64 61.52 120.88C62.06 119.24 67.1 113.88 68.6 112.78C69.46 112.12 70.7 111.74 71.78 111.72C75.12 111.7 78.1 115.6 76.56 118.74C76.3 119.26 74 121.62 73.4 122.26C72.26 123.48 68.64 127.34 67.36 127.84ZM77.4 134.52C74.02 136.72 69.62 132.98 70.06 129.2C70.26 127.52 72.44 125.92 73.54 124.74C75.86 122.24 78.12 118.6 82.06 119.62C84.44 120.24 86.14 123.64 85.32 125.94C85 126.86 82.7 129.2 81.88 130.08C80.9 131.12 78.42 133.86 77.4 134.52ZM93.3 134.14C92.88 135.52 88.88 139.92 87.56 140.68C84.94 142.18 81.18 141.66 80.08 138.56C78.98 135.5 80.08 134.76 81.98 132.64C83.62 130.8 85.56 128.5 88.06 128.24C91.36 127.9 94.32 130.72 93.3 134.14ZM139.44 120.48C136.52 124.44 133.36 122.5 130.22 120.32C123.3 115.5 116.82 109.94 109.86 105.2C108.68 104.98 108.54 106.2 109.3 106.88L130.04 122.28C134.22 126.22 129.16 132.56 124.26 130.74L104.26 115.94C103.26 115.16 102.36 116.48 103.08 117.34L119.24 129.08C121.78 130.98 122.28 134.56 119.78 136.72C117.26 138.92 115.42 138.54 112.9 136.74C108.54 133.62 104.5 129.9 100.08 126.82C98.98 126.22 97.76 126.78 98.7 127.96L107.64 134.86C109.1 136.52 109.38 138.3 108.36 140.28C105.52 145.78 97.24 139.16 93.8 137.32L93.72 137.02C97.84 132.04 92.92 125.22 87 126.62C88.28 121.56 83.7 116.22 78.52 118.14C79.24 113.12 75.66 109.54 70.66 110.16C69.56 110.3 68.84 110.82 67.82 111C68.76 103.38 59.2 100.38 55.34 106.84L54.88 106.98C53.36 104.1 50.76 101.8 48.16 99.92L65.8 67.14C66.62 66.62 71.7 69.68 72.88 70.1C78.64 72.12 86.12 67.46 92.14 67.92C87.68 71.54 82.78 74.68 78.42 78.42C76.26 80.26 73 83.1 72.34 85.94C71.94 87.62 71.74 90.4 72.82 91.8C73.32 92.46 76.36 94.32 77.12 94.44C78.92 94.74 83.68 92.14 85.44 91.24C90.4 88.72 95.14 85.76 99.96 82.98H100.4C106.5 87.74 112.72 92.36 118.8 97.16C124.68 101.8 131.62 106.9 137.1 111.9C139.72 114.28 142.04 116.96 139.44 120.48ZM158.08 79.74C154.24 72.52 150.16 64.2 145.94 57.28C145.22 56.08 144.48 54.94 142.84 55.6L130.24 62.56C129.28 63.62 129.02 65.18 130.06 66.26C130.06 66.52 126.82 67.68 126.28 67.82C117.92 69.94 109.98 62.82 100.34 64.42C98.48 64.72 96.5 65.92 95.14 66.12C93.64 66.36 91.62 66.04 90.02 66.14C85.02 66.48 80.08 69.32 75.06 68.82C72.22 68.52 69.62 65.84 66.7 65.46C67.3 63.52 66.84 62.54 65.2 61.5C61.68 59.26 57.02 57.64 53.36 55.48C52.62 55.06 51.84 55.42 51.18 55.86C45.22 67.26 38.78 78.44 33.04 89.94C31.8 92.42 29.46 95.28 32.48 97.34C35.62 99.48 40.42 100.92 43.7 103.08C45.04 103.52 46.8 102.84 47.08 101.4C47.4 101.32 47.58 101.44 47.86 101.6C48.54 102.06 50.98 104.66 51.64 105.42C52.46 106.36 53.2 107.44 53.94 108.46C50.2 114.18 52.48 120.62 59.78 120.58C58.04 125.9 62.9 131.56 68.48 129.28C67.9 134.66 73.26 138.36 78.08 135.98C77.5 142.56 84.58 145.44 89.56 141.56C90.22 141.04 92.06 138.66 92.46 138.66C92.88 138.66 98.44 142.2 99.58 142.72C101.94 143.82 104.36 144.82 106.94 143.76C109.6 142.68 110.76 140.08 110.66 137.32C110.82 137.14 112.64 138.74 112.96 138.92C117.96 141.78 124.04 137.58 122.92 131.96C128.42 134.74 133.98 129.96 133.2 124.16C140.28 125.9 144.98 117.94 140.38 112.44C142.6 108.36 145.78 105 149.04 101.72H149.26C150.06 103.18 151.28 103.64 152.82 103.08C156.6 101.7 160.5 98.5 164.28 96.9C164.96 96.22 165.62 95.38 165.56 94.38C163.22 89.46 160.64 84.58 158.08 79.74ZM146.24 102.06C143.36 104.86 141.04 107.68 139.1 111.22C128.74 103.14 118.66 94.7 108.24 86.68C107.04 85.76 101.58 81.32 100.68 81.14C100.2 81.04 99.76 81.04 99.34 81.26C93.2 84.64 86.74 89.26 80.24 91.84C79.34 92.2 78.44 92.68 77.48 92.3C76.9 92.08 74.1 90.3 73.94 89.8C73.18 87.5 74.3 85.24 75.74 83.54C79.32 79.28 93.28 68.42 98.4 66.7C108.72 63.26 116.66 71.88 126.8 69.46C128.24 69.12 129.58 68.4 130.96 67.92L148.34 99.98C148.38 100.54 146.68 101.64 146.24 102.06ZM162.26 96C159.06 98.02 155.24 99.58 152 101.58C151.38 101.7 151.06 101.1 150.78 100.66C147.22 95.32 143.66 87.92 140.52 82.14C137.36 76.34 134.3 70.48 131.18 64.66L131.3 64.14L143.4 57.24H143.76L163.74 94.42C163.84 95.16 162.78 95.66 162.26 96Z" fill="#44546F"/>
<path d="M76.56 118.74C76.3 119.26 74 121.62 73.4 122.26C72.26 123.48 68.64 127.34 67.36 127.84C63.12 129.48 60.24 124.64 61.52 120.88C62.06 119.24 67.1 113.88 68.6 112.78C69.46 112.12 70.7 111.74 71.78 111.72C75.12 111.7 78.1 115.6 76.56 118.74Z" fill="#DCDFE4"/>
<path d="M85.32 125.94C85 126.86 82.7 129.2 81.88 130.08C80.9 131.12 78.42 133.86 77.4 134.52C74.02 136.72 69.62 132.98 70.06 129.2C70.26 127.52 72.44 125.92 73.54 124.74C75.86 122.24 78.12 118.6 82.06 119.62C84.44 120.24 86.14 123.64 85.32 125.94Z" fill="#DCDFE4"/>
<path d="M65.96 112.16C65.68 112.98 61.5 117.68 60.68 118.26C58.52 119.78 54.36 117.58 53.86 115.02C53.18 111.62 57.76 104.86 61.46 104.86C64.94 104.86 67.06 109.04 65.96 112.16Z" fill="#DCDFE4"/>
<path d="M93.3 134.14C92.88 135.52 88.88 139.92 87.56 140.68C84.94 142.18 81.18 141.66 80.08 138.56C78.98 135.5 80.08 134.76 81.98 132.64C83.62 130.8 85.56 128.5 88.06 128.24C91.36 127.9 94.32 130.72 93.3 134.14Z" fill="#DCDFE4"/>
<path d="M148.34 99.98C148.38 100.54 146.68 101.64 146.24 102.06C143.36 104.86 141.04 107.68 139.1 111.22C128.74 103.14 118.66 94.7 108.24 86.68C107.04 85.76 101.58 81.32 100.68 81.14C100.2 81.04 99.76 81.04 99.34 81.26C93.2 84.64 86.74 89.26 80.24 91.84C79.34 92.2 78.44 92.68 77.48 92.3C76.9 92.08 74.1 90.3 73.94 89.8C73.18 87.5 74.3 85.24 75.74 83.54C79.32 79.28 93.28 68.42 98.4 66.7C108.72 63.26 116.66 71.88 126.8 69.46C128.24 69.12 129.58 68.4 130.96 67.92L148.34 99.98Z" fill="#DCDFE4"/>
<path d="M170.08 122C173.02 119.08 178.46 120.32 179.66 124.42C181.22 129.78 177 133.96 171.72 131.92C168.18 130.56 167.58 124.5 170.08 122ZM177.08 129.88C179.28 128.06 178.8 123.82 176.24 122.5C169.86 119.2 167.48 130.72 174.18 130.76C175 130.76 176.44 130.4 177.08 129.88Z" fill="#44546F"/>
<path d="M37.18 40.52C41.16 40.02 44.56 45.1 42.14 48.6C38.8 53.44 31.34 50.28 32.68 44.5C33.12 42.62 35.28 40.74 37.18 40.52ZM37.4 42.3C34.46 42.7 33.02 46.32 35.34 48.5C37.66 50.68 41.54 48.56 41.26 45.48C41.12 43.9 38.96 42.06 37.4 42.28V42.3Z" fill="#DCDFE4"/>
<path d="M111.94 161.24C115.28 160.72 117.66 164.32 115.76 167.28C113.5 170.8 108.38 168.64 108.9 164.44C109.08 163.02 110.54 161.46 111.94 161.24ZM112.14 162.8C109.78 163.32 109.72 167.02 112.1 167.44C115.78 168.08 115.62 162.04 112.14 162.8Z" fill="#DCDFE4"/>
<path d="M98.82 31.1V46.38C98.52 46.92 97.26 46.96 97.26 46.38V31.42C97.26 30.92 98.4 30.78 98.82 31.08V31.1Z" fill="#44546F"/>
<path d="M77.54 37.36C78.02 37.22 78.36 37.72 78.62 38.04C79.96 39.74 83.82 45.9 84.66 47.84C84.98 48.56 85.3 49.18 84.54 49.76C84 50.04 83.86 49.72 83.54 49.4C82.52 48.34 78.02 40.88 77.3 39.36C77.04 38.8 76.72 37.62 77.52 37.38L77.54 37.36Z" fill="#44546F"/>
<path d="M119.1 37.6L119.02 39.12L112.9 49.46C111.94 50.36 110.98 49.44 111.42 48.28C113.52 45.18 115.14 41.76 117.16 38.62C117.68 37.8 117.96 36.96 119.1 37.6Z" fill="#44546F"/>
<path d="M173.96 53.68C175.92 53.26 177.18 55.46 175.7 56.76C173.5 58.7 171.32 54.24 173.96 53.68Z" fill="#44546F"/>
<path d="M21.54 128.24C23.88 128.08 24.2 131.26 22.36 131.7C19.58 132.34 19.22 128.4 21.54 128.24Z" fill="#44546F"/>
</svg>
