<svg width="100%" height="100%" viewBox="0 0 264 231" fill="none" xmlns="http://www.w3.org/2000/svg">
  <path fill-rule="evenodd" clip-rule="evenodd"
    d="M238.531 126.608C238.531 183.929 192.062 230.398 134.741 230.398C77.4203 230.398 30.9523 183.929 30.9523 126.608C30.9523 69.2874 77.4203 22.8184 134.741 22.8184C192.062 22.8184 238.531 69.2874 238.531 126.608Z"
    stroke="#FECA16" stroke-dasharray="5.02 5.02" />
  <path fill-rule="evenodd" clip-rule="evenodd"
    d="M211.816 126.608C211.816 169.175 177.308 203.683 134.741 203.683C92.1735 203.683 57.6675 169.175 57.6675 126.608C57.6675 84.0414 92.1735 49.5334 134.741 49.5334C177.308 49.5334 211.816 84.0414 211.816 126.608Z"
    stroke="#FECA16" stroke-dasharray="5.05 5.05" />
  <path d="M11.3448 140.582L9.41779 140.523" stroke="#E0E0E0" stroke-linecap="round" />
  <path d="M9.96238 136.929L8.58038 138.22" stroke="#E0E0E0" stroke-linecap="round" />
  <path d="M6.36042 135.26L6.33142 137.144" stroke="#E0E0E0" stroke-linecap="round" />
  <path d="M2.64801 136.554L3.99001 137.928" stroke="#E0E0E0" stroke-linecap="round" />
  <path d="M1 140.052L2.926 140.111" stroke="#E0E0E0" stroke-linecap="round" />
  <path d="M2.3819 143.706L3.7649 142.415" stroke="#E0E0E0" stroke-linecap="round" />
  <path d="M5.98438 145.375L6.01337 143.491" stroke="#E0E0E0" stroke-linecap="round" />
  <path d="M9.6968 144.081L8.3548 142.707" stroke="#E0E0E0" stroke-linecap="round" />
  <path d="M262.648 113.722L261.801 114.639" stroke="#E0E0E0" stroke-linecap="round" />
  <path d="M258.671 114.519L259.31 115.108" stroke="#E0E0E0" stroke-linecap="round" />
  <path d="M258.026 118.584L258.873 117.667" stroke="#E0E0E0" stroke-linecap="round" />
  <path d="M262.002 117.787L261.364 117.198" stroke="#E0E0E0" stroke-linecap="round" />
  <path d="M185.07 5.9468L183.021 5.8918" stroke="#E0E0E0" stroke-linecap="round" />
  <path d="M179.769 1L179.738 2.751" stroke="#E0E0E0" stroke-linecap="round" />
  <path d="M174.067 5.4541L176.116 5.5081" stroke="#E0E0E0" stroke-linecap="round" />
  <path d="M179.368 10.4009L179.399 8.6499" stroke="#E0E0E0" stroke-linecap="round" />
  <path fill-rule="evenodd" clip-rule="evenodd"
    d="M33.337 195.006C31.863 195.447 29.408 197.613 28.568 200.181C28.427 197.795 26.912 194.796 25.245 194.364C27.279 193.645 29.482 191.002 30.068 188.775C29.962 191.109 32.081 194.498 33.337 195.006Z"
    fill="#FECA16" />
  <path fill-rule="evenodd" clip-rule="evenodd"
    d="M67.8594 15.3257C66.7224 15.5267 64.7074 16.9267 63.8594 18.7667C63.9604 16.9777 63.0914 14.6127 61.8874 14.1467C63.4644 13.7867 65.3344 12.0087 65.9634 10.4007C65.6824 12.1307 66.9674 14.8387 67.8594 15.3257Z"
    fill="#FECA16" />
  <path fill-rule="evenodd" clip-rule="evenodd"
    d="M218.56 28.3169C217.041 28.2839 215.837 27.0269 215.871 25.5089C215.904 23.9909 217.161 22.7869 218.678 22.8199C220.197 22.8529 221.401 24.1099 221.368 25.6279C221.334 27.1459 220.078 28.3499 218.56 28.3169Z"
    fill="#E0E0E0" />
  <path fill-rule="evenodd" clip-rule="evenodd"
    d="M218.567 208.469C217.246 208.441 216.198 207.346 216.226 206.025C216.254 204.703 217.349 203.655 218.671 203.683C219.993 203.712 221.041 204.806 221.012 206.128C220.983 207.449 219.889 208.498 218.567 208.469Z"
    fill="#FECA16" />
  <path fill-rule="evenodd" clip-rule="evenodd"
    d="M19.8223 64.8033C19.0043 64.7853 18.3553 64.1083 18.3733 63.2893C18.3903 62.4713 19.0683 61.8233 19.8863 61.8403C20.7043 61.8583 21.3533 62.5353 21.3363 63.3533C21.3183 64.1723 20.6403 64.8213 19.8223 64.8033Z"
    stroke="#E0E0E0" stroke-linecap="round" />
  <path
    d="M164.883 104.001H109.498C108.75 104.001 108.034 104.298 107.506 104.827C106.977 105.355 106.68 106.071 106.68 106.819V157.635C106.68 158.382 106.977 159.098 107.506 159.627C108.034 160.155 108.75 160.452 109.498 160.453H164.883C165.63 160.452 166.346 160.155 166.875 159.627C167.403 159.099 167.7 158.382 167.701 157.635V106.819C167.7 106.071 167.403 105.355 166.875 104.826C166.346 104.298 165.63 104.001 164.883 104.001Z"
    fill="#AFAFAF" />
  <path
    d="M161.236 142.794H113.144C111.588 142.794 110.326 141.533 110.326 139.976V95.0777C110.326 93.5215 111.588 92.2598 113.144 92.2598H161.236C162.793 92.2598 164.054 93.5215 164.054 95.0777V139.976C164.054 141.533 162.793 142.794 161.236 142.794Z"
    fill="#FECA16" />
  <path
    d="M111.218 140.868V95.9699C111.218 94.4137 112.48 93.152 114.036 93.152H162.129C162.678 93.152 163.189 93.3117 163.623 93.5838C163.124 92.7894 162.243 92.2598 161.236 92.2598H113.144C111.588 92.2598 110.326 93.5215 110.326 95.0777V139.976C110.326 140.984 110.856 141.864 111.65 142.363C111.378 141.929 111.218 141.418 111.218 140.869V140.868Z"
    fill="url(#paint0_linear_2248_758)" />
  <path
    d="M155.319 101.746H119.062V103.813H155.319V101.746ZM155.319 109.636H119.062V111.702H155.319V109.636ZM155.319 117.527H119.062V119.594H155.319V117.527ZM155.319 125.417H119.062V127.484H155.319V125.417Z"
    fill="#FFFBED" />
  <path d="M167.701 128.611V107.647L164.055 104.001V128.61H167.701V128.611Z" fill="#AFAFAF" />
  <path
    d="M171.972 130.507L168.043 158.317C167.847 159.707 166.657 160.74 165.253 160.74H109.127C107.723 160.74 106.534 159.707 106.337 158.317L101.028 120.739C100.789 119.042 102.105 117.527 103.818 117.527H121.151C122.555 117.527 123.745 118.56 123.941 119.95L124.637 124.871C124.834 126.261 126.023 127.295 127.427 127.295H169.182C170.895 127.295 172.211 128.81 171.972 130.507Z"
    fill="#E0E0E0" />
  <defs>
    <linearGradient id="paint0_linear_2248_758" x1="138.843" y1="119.176" x2="103.206" y2="83.5393"
      gradientUnits="userSpaceOnUse">
      <stop stop-color="white" />
    </linearGradient>
  </defs>
</svg>
