<svg width="100%" height="100%" viewBox="0 0 264 231" fill="none" xmlns="http://www.w3.org/2000/svg">
  <path fill-rule="evenodd" clip-rule="evenodd"
    d="M238.531 126.608C238.531 183.929 192.062 230.398 134.741 230.398C77.4203 230.398 30.9523 183.929 30.9523 126.608C30.9523 69.2874 77.4203 22.8184 134.741 22.8184C192.062 22.8184 238.531 69.2874 238.531 126.608Z"
    stroke="#FECA16" stroke-dasharray="5.02 5.02" />
  <path fill-rule="evenodd" clip-rule="evenodd"
    d="M211.816 126.608C211.816 169.175 177.308 203.683 134.741 203.683C92.1735 203.683 57.6675 169.175 57.6675 126.608C57.6675 84.0414 92.1735 49.5334 134.741 49.5334C177.308 49.5334 211.816 84.0414 211.816 126.608Z"
    stroke="#FECA16" stroke-dasharray="5.05 5.05" />
  <path d="M11.3448 140.582L9.41779 140.523" stroke="#E0E0E0" stroke-linecap="round" />
  <path d="M9.96238 136.929L8.58038 138.22" stroke="#E0E0E0" stroke-linecap="round" />
  <path d="M6.36042 135.26L6.33142 137.144" stroke="#E0E0E0" stroke-linecap="round" />
  <path d="M2.64801 136.554L3.99001 137.928" stroke="#E0E0E0" stroke-linecap="round" />
  <path d="M1 140.052L2.926 140.111" stroke="#E0E0E0" stroke-linecap="round" />
  <path d="M2.3819 143.706L3.7649 142.415" stroke="#E0E0E0" stroke-linecap="round" />
  <path d="M5.98438 145.375L6.01337 143.491" stroke="#E0E0E0" stroke-linecap="round" />
  <path d="M9.6968 144.081L8.3548 142.707" stroke="#E0E0E0" stroke-linecap="round" />
  <path d="M262.648 113.722L261.801 114.639" stroke="#E0E0E0" stroke-linecap="round" />
  <path d="M258.671 114.519L259.31 115.108" stroke="#E0E0E0" stroke-linecap="round" />
  <path d="M258.026 118.584L258.873 117.667" stroke="#E0E0E0" stroke-linecap="round" />
  <path d="M262.002 117.787L261.364 117.198" stroke="#E0E0E0" stroke-linecap="round" />
  <path d="M185.07 5.9468L183.021 5.8918" stroke="#E0E0E0" stroke-linecap="round" />
  <path d="M179.769 1L179.738 2.751" stroke="#E0E0E0" stroke-linecap="round" />
  <path d="M174.067 5.4541L176.116 5.5081" stroke="#E0E0E0" stroke-linecap="round" />
  <path d="M179.368 10.4009L179.399 8.6499" stroke="#E0E0E0" stroke-linecap="round" />
  <path fill-rule="evenodd" clip-rule="evenodd"
    d="M33.337 195.006C31.863 195.447 29.408 197.613 28.568 200.181C28.427 197.795 26.912 194.796 25.245 194.364C27.279 193.645 29.482 191.002 30.068 188.775C29.962 191.109 32.081 194.498 33.337 195.006Z"
    fill="#FECA16" />
  <path fill-rule="evenodd" clip-rule="evenodd"
    d="M67.8594 15.3257C66.7224 15.5267 64.7074 16.9267 63.8594 18.7667C63.9604 16.9777 63.0914 14.6127 61.8874 14.1467C63.4644 13.7867 65.3344 12.0087 65.9634 10.4007C65.6824 12.1307 66.9674 14.8387 67.8594 15.3257Z"
    fill="#FECA16" />
  <path fill-rule="evenodd" clip-rule="evenodd"
    d="M218.56 28.3169C217.041 28.2839 215.837 27.0269 215.871 25.5089C215.904 23.9909 217.161 22.7869 218.678 22.8199C220.197 22.8529 221.401 24.1099 221.368 25.6279C221.334 27.1459 220.078 28.3499 218.56 28.3169Z"
    fill="#E0E0E0" />
  <path fill-rule="evenodd" clip-rule="evenodd"
    d="M218.567 208.469C217.246 208.441 216.198 207.346 216.226 206.025C216.254 204.703 217.349 203.655 218.671 203.683C219.993 203.712 221.041 204.806 221.012 206.128C220.983 207.449 219.889 208.498 218.567 208.469Z"
    fill="#FECA16" />
  <path fill-rule="evenodd" clip-rule="evenodd"
    d="M19.8223 64.8033C19.0043 64.7853 18.3553 64.1083 18.3733 63.2893C18.3903 62.4713 19.0683 61.8233 19.8863 61.8403C20.7043 61.8583 21.3533 62.5353 21.3363 63.3533C21.3183 64.1723 20.6403 64.8213 19.8223 64.8033Z"
    stroke="#E0E0E0" stroke-linecap="round" />
  <path fill-rule="evenodd" clip-rule="evenodd"
    d="M166.465 140.082C170.017 134.762 172.052 128.454 171.999 121.703C171.854 102.926 155.618 87.8379 135.736 88.0013C115.854 88.1651 99.8554 103.52 100.001 122.297C100.147 141.073 116.382 156.162 136.264 155.999C143.367 155.94 149.974 153.942 155.527 150.541L170.382 154.144L166.465 140.082Z"
    fill="#E0E0E0" />
  <path fill-rule="evenodd" clip-rule="evenodd"
    d="M126 121.472C126.017 123.405 124.241 124.984 122.032 125C119.823 125.016 118.017 123.461 118 121.528C117.983 119.595 119.759 118.016 121.968 118C124.177 117.985 125.982 119.539 126 121.472Z"
    fill="#F6F6F6" />
  <path fill-rule="evenodd" clip-rule="evenodd"
    d="M140 121.472C140.017 123.405 138.241 124.984 136.032 125C133.823 125.015 132.017 123.461 132 121.528C131.982 119.595 133.759 118.016 135.968 118C138.177 117.985 139.982 119.539 140 121.472Z"
    fill="#F6F6F6" />
  <path fill-rule="evenodd" clip-rule="evenodd"
    d="M154 121.472C154.017 123.405 152.241 124.984 150.032 125C147.823 125.015 146.017 123.461 146 121.528C145.982 119.595 147.759 118.016 149.968 118C152.177 117.984 153.982 119.539 154 121.472Z"
    fill="#F6F6F6" />
  <path fill-rule="evenodd" clip-rule="evenodd"
    d="M95 148.5C95 150.981 95.7835 153.291 97.1299 155.235L95.7009 160.422L101.265 159.051C103.357 160.283 105.837 161 108.5 161C115.956 161 122 155.404 122 148.5C122 141.596 115.956 136 108.5 136C101.044 136 95 141.596 95 148.5Z"
    fill="#FECA16" />
  <path fill-rule="evenodd" clip-rule="evenodd"
    d="M112 148.5C112 149.328 112.671 150 113.5 150C114.328 150 115 149.328 115 148.5C115 147.672 114.328 147 113.5 147C112.671 147 112 147.672 112 148.5Z"
    fill="white" />
  <path fill-rule="evenodd" clip-rule="evenodd"
    d="M108 148.5C108 149.328 108.671 150 109.5 150C110.328 150 111 149.328 111 148.5C111 147.672 110.328 147 109.5 147C108.671 147 108 147.672 108 148.5Z"
    fill="white" />
  <path fill-rule="evenodd" clip-rule="evenodd"
    d="M102 148.5C102 149.328 102.671 150 103.5 150C104.328 150 105 149.328 105 148.5C105 147.672 104.328 147 103.5 147C102.671 147 102 147.672 102 148.5Z"
    fill="white" />
</svg>
