<svg width="19" height="18" viewBox="0 0 19 18" fill="none" xmlns="http://www.w3.org/2000/svg">
<path d="M16.5 10.9469H11.9496C12.0603 11.0725 12.1657 11.2001 12.2658 11.3298C12.3659 11.4595 12.4598 11.5987 12.5474 11.7476C12.6914 11.9937 12.7633 12.254 12.7633 12.5287C12.7633 12.8034 12.6914 13.0612 12.5474 13.3019C12.4035 13.5531 12.2517 13.7835 12.0919 13.9931C11.9321 14.2027 11.7574 14.4067 11.5676 14.6051H14.9389C15.3796 14.6051 15.7499 14.4632 16.0499 14.1796C16.35 13.8959 16.5 13.5458 16.5 13.1292V10.9469ZM16.5 10.0048V6.33092H10.6044V9.64372C10.6848 9.69605 10.7564 9.75137 10.8193 9.80967C10.8822 9.86797 10.9434 9.93303 11.003 10.0048H16.5ZM9.60795 6.33092H3.69573V9.56522C4.18288 9.25121 4.70695 9.01308 5.26795 8.85084C5.82894 8.68861 6.4324 8.60749 7.07831 8.60749C7.53291 8.60749 7.97129 8.64674 8.39345 8.72524C8.81561 8.80374 9.22044 8.92673 9.60795 9.0942V6.33092ZM16.5 5.38889V3.99155C16.5 3.57067 16.35 3.21683 16.0499 2.93004C15.7499 2.64335 15.3796 2.5 14.9389 2.5H5.27343C4.82824 2.5 4.45397 2.64335 4.15061 2.93004C3.84735 3.21683 3.69573 3.57067 3.69573 3.99155V5.38889H16.5ZM7.08247 15.5C7.96742 15.5 8.79502 15.2985 9.56527 14.8955C10.3355 14.4926 10.9531 13.9509 11.4181 13.2705C11.5067 13.1554 11.5676 13.0398 11.6008 12.9237C11.634 12.8075 11.6507 12.6856 11.6507 12.5579C11.6507 12.4302 11.6313 12.302 11.5925 12.1732C11.5538 12.0445 11.4957 11.9183 11.4181 11.7947C10.9531 11.1143 10.338 10.57 9.57274 10.1618C8.80747 9.75362 7.98015 9.54952 7.09077 9.54952C6.18921 9.54952 5.35646 9.75362 4.59253 10.1618C3.82859 10.57 3.20858 11.1143 2.7325 11.7947C2.655 11.8994 2.59688 12.011 2.55813 12.1297C2.51937 12.2483 2.5 12.3759 2.5 12.5125C2.5 12.6491 2.51661 12.7808 2.54982 12.9075C2.58304 13.0344 2.63839 13.1554 2.7159 13.2705C3.1809 13.9614 3.80008 14.5056 4.57343 14.9034C5.34689 15.3011 6.18323 15.5 7.08247 15.5ZM7.08064 14.0556C6.6287 14.0556 6.24496 13.9081 5.92942 13.6131C5.61388 13.3181 5.45611 12.9569 5.45611 12.5298C5.45611 12.1025 5.61327 11.7397 5.92759 11.4414C6.2418 11.1431 6.62654 10.994 7.0818 10.994C7.53696 10.994 7.91953 11.1425 8.22954 11.4397C8.53954 11.7368 8.69454 12.1005 8.69454 12.5309C8.69454 12.9612 8.53854 13.3229 8.22655 13.6159C7.91444 13.909 7.53247 14.0556 7.08064 14.0556ZM7.07533 13.4275C7.34658 13.4275 7.57355 13.3438 7.75623 13.1763C7.93891 13.0089 8.03025 12.7943 8.03025 12.5326C8.03025 12.2709 7.93819 12.0537 7.75407 11.881C7.57006 11.7083 7.34658 11.622 7.08363 11.622C6.80684 11.622 6.57711 11.7083 6.39442 11.881C6.21174 12.0537 6.1204 12.2709 6.1204 12.5326C6.1204 12.7943 6.21174 13.0089 6.39442 13.1763C6.57711 13.3438 6.80407 13.4275 7.07533 13.4275Z" fill="#757575"/>
</svg>
