<svg width="100%" height="100%" viewBox="0 0 48 48" fill="none" xmlns="http://www.w3.org/2000/svg">
<path d="M9.10001 42.9C8.00001 42.9 7.10001 42.5 6.30001 41.7C5.50001 40.9 5.10001 40 5.10001 38.9V13.3C5.10001 12.9 5.20001 12.4 5.30001 12C5.50001 11.6 5.70001 11.1 6.00001 10.8L9.20001 6.6C9.50001 6 10 5.6 10.5 5.4C11.1 5.1 11.7 5 12.3 5H35.7C36.3 5 36.8 5.1 37.4 5.4C37.9 5.6 38.4 6 38.8 6.4L42.1 10.6C42.4 11 42.6 11.4 42.7 11.9C42.9 12.4 42.9 12.8 42.9 13.3V24.4C42.1 24.1 41.3 23.9 40.5 23.7C39.7 23.5 38.9 23.5 38.1 23.5C37.1 23.5 36.1 23.6 35.1 23.9C34.1 24.2 33.3 24.6 32.4 25V15.5H15.4V29.4C15.4 30.2 15.7 30.8 16.4 31.2C17 31.6 17.7 31.6 18.4 31.3L23.9 28.5L27.4 30.3C27 31.1 26.7 31.8 26.5 32.7C26.3 33.5 26.2 34.4 26.2 35.3C26.2 36.8 26.4 38.1 26.9 39.5C27.4 40.8 28.1 42 29.1 43C29.4 42.9 9.10001 42.9 9.10001 42.9ZM10.6 11.5H37.4L35.6 9.2H12.3L10.6 11.5Z" fill="currentColor"/>
<path d="M40.2 36.9H31.6C31.1 36.9 30.7 36.7 30.3 36.4C30 36.1 29.8 35.6 29.8 35.1C29.8 34.6 30 34.2 30.3 33.8C30.6 33.5 31.1 33.3 31.6 33.3H40.2L38.1 31.2C37.7 30.8 37.6 30.4 37.6 29.9C37.6 29.4 37.8 29 38.2 28.6C38.5 28.2 39 28 39.4 28C39.9 28 40.3 28.2 40.7 28.6L45.7 33.6C45.9 33.8 46 34 46.2 34.3C46.3 34.6 46.4 34.8 46.4 35.1C46.4 35.4 46.3 35.6 46.2 35.9C46.1 36.1 45.9 36.4 45.7 36.6L40.7 41.6C40.3 42 39.9 42.2 39.4 42.2C38.9 42.2 38.5 42 38.2 41.6C37.8 41.2 37.7 40.8 37.7 40.4C37.7 39.9 37.9 39.5 38.2 39.1C38.1 39.1 40.2 36.9 40.2 36.9Z" fill="currentColor"/>
</svg>
