<svg width="100%" height="100%" viewBox="0 0 48 48" fill="none" xmlns="http://www.w3.org/2000/svg">
<path d="M32.0782 8.90435C31.5261 8.90435 31.0566 8.70902 30.6696 8.31835C30.2826 7.92772 30.0891 7.45633 30.0891 6.9042C30.0891 6.3521 30.2861 5.88257 30.6801 5.4956C31.0741 5.10867 31.5496 4.9152 32.1066 4.9152C32.6556 4.9152 33.1215 5.11218 33.5042 5.50615C33.8869 5.90015 34.0783 6.37565 34.0783 6.93265C34.0783 7.48168 33.883 7.94757 33.4923 8.3303C33.1017 8.713 32.6303 8.90435 32.0782 8.90435ZM40.4239 8.90435C39.8749 8.90435 39.409 8.70902 39.0262 8.31835C38.6435 7.92772 38.4522 7.45633 38.4522 6.9042C38.4522 6.3521 38.6475 5.88257 39.0382 5.4956C39.4288 5.10867 39.9002 4.9152 40.4524 4.9152C41.0045 4.9152 41.474 5.11218 41.861 5.50615C42.2479 5.90015 42.4413 6.37565 42.4413 6.93265C42.4413 7.48168 42.2444 7.94757 41.8504 8.3303C41.4564 8.713 40.9809 8.90435 40.4239 8.90435ZM40.4239 17.2674C39.8749 17.2674 39.409 17.0704 39.0262 16.6764C38.6435 16.2824 38.4522 15.8069 38.4522 15.2499C38.4522 14.7009 38.6475 14.235 39.0382 13.8523C39.4288 13.4696 39.9002 13.2783 40.4524 13.2783C41.0045 13.2783 41.474 13.4736 41.861 13.8642C42.2479 14.2549 42.4413 14.7263 42.4413 15.2784C42.4413 15.8305 42.2444 16.3 41.8504 16.687C41.4564 17.0739 40.9809 17.2674 40.4239 17.2674ZM40.4239 25.6305C39.8749 25.6305 39.409 25.4388 39.0262 25.0554C38.6435 24.672 38.4522 24.2006 38.4522 23.6413C38.4522 23.0819 38.6475 22.6134 39.0382 22.2359C39.4288 21.8583 39.9002 21.6695 40.4524 21.6695C41.0045 21.6695 41.474 21.8612 41.861 22.2446C42.2479 22.628 42.4413 23.0994 42.4413 23.6588C42.4413 24.2182 42.2444 24.6866 41.8504 25.0641C41.4564 25.4417 40.9809 25.6305 40.4239 25.6305ZM40.4239 33.9935C39.8749 33.9935 39.409 33.7982 39.0262 33.4075C38.6435 33.0168 38.4522 32.5455 38.4522 31.9934C38.4522 31.4413 38.6475 30.9717 39.0382 30.5848C39.4288 30.1978 39.9002 30.0044 40.4524 30.0044C41.0045 30.0044 41.474 30.2013 41.861 30.5953C42.2479 30.9893 42.4413 31.4648 42.4413 32.0218C42.4413 32.5708 42.2444 33.0367 41.8504 33.4194C41.4564 33.8021 40.9809 33.9935 40.4239 33.9935ZM32.0782 42.3565C31.5261 42.3565 31.0566 42.1631 30.6696 41.7763C30.2826 41.3894 30.0891 40.9228 30.0891 40.3763C30.0891 39.8298 30.2861 39.363 30.6801 38.9761C31.0741 38.5891 31.5496 38.3956 32.1066 38.3956C32.6556 38.3956 33.1215 38.591 33.5042 38.9817C33.8869 39.3723 34.0783 39.8437 34.0783 40.3958C34.0783 40.9479 33.883 41.4127 33.4923 41.7902C33.1017 42.1678 32.6303 42.3565 32.0782 42.3565ZM40.4239 42.3565C39.8749 42.3565 39.409 42.1631 39.0262 41.7763C38.6435 41.3894 38.4522 40.9228 38.4522 40.3763C38.4522 39.8298 38.6475 39.363 39.0382 38.9761C39.4288 38.5891 39.9002 38.3956 40.4524 38.3956C41.0045 38.3956 41.474 38.591 41.861 38.9817C42.2479 39.3723 42.4413 39.8437 42.4413 40.3958C42.4413 40.9479 42.2444 41.4127 41.8504 41.7902C41.4564 42.1678 40.9809 42.3565 40.4239 42.3565ZM8.9609 42.3565C7.85233 42.3565 6.91505 41.9735 6.14905 41.2075C5.38302 40.4415 5 39.5042 5 38.3956V8.90435C5 7.78802 5.38302 6.84407 6.14905 6.0725C6.91505 5.30097 7.85233 4.9152 8.9609 4.9152H15.6C16.1569 4.9152 16.6262 5.11242 17.0079 5.50685C17.3896 5.90132 17.5805 6.37742 17.5805 6.93515C17.5805 7.49288 17.3896 7.96052 17.0079 8.33805C16.6262 8.71558 16.1569 8.90435 15.6 8.90435H8.9609V38.3956H15.6C16.1569 38.3956 16.6262 38.5873 17.0079 38.9707C17.3896 39.3541 17.5805 39.8255 17.5805 40.3849C17.5805 40.9443 17.3896 41.4127 17.0079 41.7902C16.6262 42.1678 16.1569 42.3565 15.6 42.3565H8.9609ZM21.8826 44.3195V2.9805C21.8826 2.4236 22.0743 1.9543 22.4577 1.5726C22.8411 1.19087 23.3117 1 23.8694 1C24.4271 1 24.9002 1.19087 25.2888 1.5726C25.6775 1.9543 25.8718 2.4236 25.8718 2.9805V44.3196C25.8718 44.8765 25.6746 45.3458 25.2801 45.7275C24.8856 46.1092 24.4095 46.3001 23.8518 46.3001C23.2941 46.3001 22.8265 46.1092 22.4489 45.7275C22.0714 45.3458 21.8826 44.8765 21.8826 44.3195Z" fill="currentColor"/>
</svg>
