<svg width="12" height="13" viewBox="0 0 12 13" fill="none" xmlns="http://www.w3.org/2000/svg">
<path d="M1.6623 12.05C1.32022 12.05 1.03887 11.9251 0.818242 11.6752C0.597617 11.4252 0.487305 11.1065 0.487305 10.719V1.34519C0.487305 0.982099 0.597617 0.667132 0.818242 0.400285C1.03887 0.133428 1.32022 0 1.6623 0H9.9373C10.2578 0 10.5359 0.133428 10.7714 0.400285C11.007 0.667132 11.1248 0.982099 11.1248 1.34519V10.719C11.1248 11.1065 11.007 11.4252 10.7714 11.6752C10.5359 11.9251 10.2578 12.05 9.9373 12.05H1.6623ZM3.97262 7.39144C3.86574 7.39144 3.77689 7.3505 3.70605 7.2686C3.63522 7.1867 3.5998 7.08523 3.5998 6.96417C3.5998 6.8431 3.63595 6.74245 3.70824 6.66221C3.78054 6.58197 3.87013 6.54185 3.97699 6.54185C4.08387 6.54185 4.17272 6.5828 4.24355 6.66469C4.31439 6.74659 4.3498 6.84807 4.3498 6.96912C4.3498 7.09019 4.31366 7.19084 4.24137 7.27108C4.16907 7.35132 4.07948 7.39144 3.97262 7.39144ZM7.62262 7.39144C7.51574 7.39144 7.42689 7.3505 7.35605 7.2686C7.28522 7.1867 7.2498 7.08523 7.2498 6.96417C7.2498 6.8431 7.28595 6.74245 7.35824 6.66221C7.43054 6.58197 7.52013 6.54185 7.62699 6.54185C7.73387 6.54185 7.82272 6.5828 7.89355 6.66469C7.96439 6.74659 7.9998 6.84807 7.9998 6.96912C7.9998 7.09019 7.96366 7.19084 7.89137 7.27108C7.81907 7.35132 7.72948 7.39144 7.62262 7.39144ZM2.78949 9.82694C2.89637 9.82694 2.98522 9.78623 3.05605 9.70481C3.12689 9.62339 3.1623 9.5225 3.1623 9.40214V8.73663H8.4373V9.40214C8.4373 9.5225 8.47345 9.62339 8.54574 9.70481C8.61804 9.78623 8.70763 9.82694 8.81449 9.82694C8.92137 9.82694 9.01022 9.78623 9.08105 9.70481C9.15189 9.62339 9.1873 9.5225 9.1873 9.40214V6.01794C9.1873 5.94194 9.18106 5.86867 9.16856 5.7981C9.15606 5.72754 9.14147 5.65922 9.1248 5.59314L8.4998 3.51164C8.41647 3.23998 8.2707 3.02339 8.06249 2.86186C7.85428 2.70034 7.62505 2.61957 7.3748 2.61957H4.2248C3.97456 2.61957 3.74533 2.70034 3.53712 2.86186C3.32891 3.02339 3.1873 3.23998 3.1123 3.51164L2.4748 5.59314C2.45814 5.65922 2.44355 5.72754 2.43105 5.7981C2.41855 5.86867 2.4123 5.94194 2.4123 6.01794V9.40214C2.4123 9.5225 2.44845 9.62339 2.52074 9.70481C2.59304 9.78623 2.68263 9.82694 2.78949 9.82694ZM3.3748 5.19666L3.8748 3.46916H7.7248L8.2373 5.19666H3.3748Z" fill="currentColor"/>
</svg>
