<svg width="100%" height="100%" viewBox="0 0 123 35" fill="none" xmlns="http://www.w3.org/2000/svg">
<path d="M118.444 35H4.55556C2.05 35 0 33.0313 0 30.625V4.375C0 1.96875 2.05 4.62929e-06 4.55556 4.62929e-06H118.444C120.95 4.62929e-06 123 1.96875 123 4.375V30.625C123 33.0313 120.95 35 118.444 35Z" fill="#1A1A1A"/>
<path d="M118.444 4.62929e-06H4.55556C2.05 4.62929e-06 0 1.96875 0 4.375V30.625C0 33.0313 2.05 35 4.55556 35H118.444C120.95 35 123 33.0313 123 30.625V4.375C123 1.96875 120.95 4.62929e-06 118.444 4.62929e-06ZM118.444 0.700004C120.555 0.700004 122.271 2.34885 122.271 4.375V30.625C122.271 32.6515 120.555 34.3003 118.444 34.3003H4.55556C2.44579 34.3003 0.728889 32.6515 0.728889 30.625V4.375C0.728889 2.34885 2.44579 0.700004 4.55556 0.700004H118.444Z" fill="#A6A6A6"/>
<path d="M43.2034 8.96267C43.2034 9.69574 42.9773 10.2795 42.5246 10.715C42.0104 11.2329 41.3401 11.4919 40.5162 11.4919C39.7272 11.4919 39.0564 11.2294 38.5047 10.7037C37.952 10.1784 37.6762 9.52696 37.6762 8.7497C37.6762 7.97208 37.952 7.321 38.5047 6.7953C39.0564 6.26995 39.7272 6.0071 40.5162 6.0071C40.9077 6.0071 41.2826 6.0806 41.6384 6.22725C41.9943 6.37425 42.2798 6.56937 42.4933 6.81376L42.0128 7.2755C41.6509 6.86022 41.1526 6.65276 40.5162 6.65276C39.9408 6.65276 39.4432 6.84692 39.0233 7.23551C38.6033 7.62453 38.3933 8.12897 38.3933 8.7497C38.3933 9.37042 38.6033 9.87486 39.0233 10.2639C39.4432 10.6525 39.9408 10.8466 40.5162 10.8466C41.1267 10.8466 41.6356 10.6514 42.0431 10.2605C42.3076 10.0058 42.4605 9.65173 42.5014 9.19708H40.5162V8.56647H43.1653C43.1909 8.70358 43.2034 8.83518 43.2034 8.96267Z" fill="white"/>
<path d="M43.2035 8.96281H43.1124C43.1116 9.67918 42.8938 10.2356 42.4603 10.6533L42.4593 10.654L42.4589 10.6547C41.961 11.1547 41.321 11.4035 40.5163 11.4046C39.7484 11.4035 39.1056 11.152 38.5688 10.642C38.0333 10.131 37.7684 9.50724 37.7674 8.74984C37.7684 7.99209 38.0333 7.36865 38.5688 6.858C39.1056 6.3477 39.7484 6.09579 40.5163 6.09474C40.8961 6.09474 41.2577 6.16587 41.6026 6.30771C41.9478 6.4506 42.2205 6.63785 42.4237 6.87034L42.4934 6.8139L42.429 6.75204L41.9485 7.21413L42.0129 7.27564L42.0831 7.21964C41.7043 6.7838 41.1727 6.56409 40.5163 6.5654C39.9196 6.5647 39.3946 6.76945 38.9603 7.17282C38.5219 7.57751 38.3016 8.1103 38.3023 8.74984C38.3016 9.38938 38.5219 9.92216 38.9603 10.3269C39.3946 10.7302 39.9196 10.935 40.5163 10.9343C41.147 10.9353 41.6845 10.7299 42.1076 10.3225C42.3902 10.0504 42.5504 9.6734 42.5924 9.20475L42.6009 9.10973H40.6074V8.65411H43.1654V8.56661L43.0756 8.58201C43.1006 8.71466 43.1124 8.84075 43.1124 8.96281H43.2035H43.2946C43.2946 8.82981 43.2817 8.69314 43.255 8.55095L43.2416 8.47911H40.4252V9.19723V9.28473H42.5016V9.19723L42.4108 9.1897C42.3706 9.63 42.2247 9.96154 41.9788 10.1988C41.5873 10.5733 41.1068 10.7582 40.5163 10.7593C39.9622 10.7586 39.4921 10.5754 39.0867 10.2011C38.6853 9.82819 38.4856 9.3521 38.4846 8.74984C38.4856 8.14758 38.6853 7.67149 39.0867 7.29856C39.4921 6.92433 39.9622 6.7411 40.5163 6.7404C41.1324 6.7418 41.5976 6.93727 41.9432 7.33208L42.0073 7.40523L42.5579 6.87576L42.6169 6.81906L42.5631 6.75781C42.3393 6.50153 42.0411 6.29809 41.6744 6.14706C41.3072 5.9956 40.9196 5.91974 40.5163 5.91974C39.7064 5.91904 39.0074 6.19248 38.4404 6.73358C37.8713 7.27363 37.5845 7.95245 37.5852 8.74984C37.5845 9.54688 37.8713 10.2261 38.4407 10.7665C39.0074 11.3072 39.7064 11.5803 40.5163 11.5796C41.3598 11.5803 42.0596 11.3112 42.5906 10.7756L42.5247 10.7152L42.5891 10.777C43.0611 10.3241 43.2952 9.71234 43.2946 8.96281H43.2035Z" fill="white"/>
<path d="M47.4029 6.76972H44.9134V8.43432H47.1585V9.06519H44.9134V10.7298H47.4029V11.3748H44.2116V6.12476H47.4029V6.76972Z" fill="white"/>
<path d="M47.4028 6.77011V6.68261H44.8222V8.52221H47.0673V8.97782L44.8222 8.97808V10.8177H47.3117V11.2876H44.3026V6.21265H47.3117V6.77011H47.4028V6.68261V6.77011H47.4939V6.12515V6.03765H44.1204V11.4626H47.4939V10.7302V10.6427H45.0044V9.15308H47.2495V8.43471V8.34721H45.0044V6.85761H47.4939V6.77011H47.4028Z" fill="white"/>
<path d="M50.3653 11.3748H49.6624V6.76972H48.1356V6.12476H51.8922V6.76972H50.3653V11.3748Z" fill="white"/>
<path d="M50.3649 11.3751V11.2876H49.7531V6.68261H48.2263V6.21265H51.8007V6.68261H50.2738V11.3751H50.3649V11.2876V11.3751H50.4561V6.85761H51.9829V6.12515V6.03765H48.0441V6.77011V6.85761H49.5709V11.4626H50.3649H50.4561V11.3751H50.3649Z" fill="white"/>
<path d="M54.6102 11.3748V6.12476H55.3124V11.3748H54.6102Z" fill="white"/>
<path d="M54.6103 11.3751H54.7014V6.21265H55.2214V11.2876H54.6103V11.3751H54.7014H54.6103V11.4626H55.3125H55.4036V6.03765H54.6103H54.5192V11.4626H54.6103V11.3751Z" fill="white"/>
<path d="M58.4279 11.3748H57.725V6.76972H56.1982V6.12476H59.9547V6.76972H58.4279V11.3748Z" fill="white"/>
<path d="M58.4285 11.3751V11.2876H57.8167V6.68261H56.2899V6.21265H59.8642V6.68261H58.3374V11.3751H58.4285V11.2876V11.3751H58.5196V6.85761H60.0465V6.12515V6.03765H56.1077V6.77011V6.85761H57.6345V11.4626H58.4285H58.5196V11.3751H58.4285Z" fill="white"/>
<path d="M63.5766 10.2567C63.9812 10.6501 64.4763 10.8466 65.0618 10.8466C65.6473 10.8466 66.1427 10.6501 66.5467 10.2567C66.9516 9.86331 67.1545 9.36045 67.1545 8.7497C67.1545 8.13895 66.9516 7.63608 66.5467 7.24269C66.1427 6.84929 65.6473 6.65276 65.0618 6.65276C64.4763 6.65276 63.9812 6.84929 63.5766 7.24269C63.1726 7.63608 62.9698 8.13895 62.9698 8.7497C62.9698 9.36045 63.1726 9.86331 63.5766 10.2567ZM67.0663 10.6962C66.5288 11.227 65.8604 11.4919 65.0618 11.4919C64.2624 11.4919 63.5944 11.227 63.0581 10.6962C62.5203 10.1661 62.2527 9.51707 62.2527 8.7497C62.2527 7.98232 62.5203 7.33325 63.0581 6.80317C63.5944 6.27231 64.2624 6.0071 65.0618 6.0071C65.8562 6.0071 66.5228 6.27371 67.0627 6.80658C67.6019 7.33946 67.8717 7.98713 67.8717 8.7497C67.8717 9.51707 67.6025 10.1661 67.0663 10.6962Z" fill="white"/>
<path d="M63.5765 10.2569L63.5118 10.3184C63.9314 10.7275 64.4549 10.9353 65.0617 10.9343C65.6682 10.9353 66.1924 10.7275 66.6114 10.3184C67.0338 9.90886 67.2462 9.37905 67.2456 8.74984C67.2462 8.12063 67.0338 7.59082 66.6114 7.18132C66.1924 6.77217 65.6682 6.56435 65.0617 6.5654C64.4549 6.56435 63.9314 6.77217 63.5118 7.18132C63.0904 7.59082 62.8775 8.12063 62.8786 8.74984C62.8775 9.37905 63.0904 9.90886 63.5118 10.3184L63.5765 10.2569L63.6413 10.1953C63.2548 9.8176 63.0616 9.34248 63.0609 8.74984C63.0616 8.1572 63.2548 7.68208 63.6413 7.30434C64.0314 6.92669 64.4972 6.74145 65.0617 6.7404C65.6258 6.74145 66.0928 6.92669 66.4818 7.30434C66.869 7.68208 67.0623 8.1572 67.063 8.74984C67.0623 9.34248 66.869 9.8176 66.4818 10.1953C66.0928 10.573 65.6258 10.7582 65.0617 10.7593C64.4972 10.7582 64.0314 10.573 63.6413 10.1953L63.5765 10.2569ZM67.0662 10.6964L67.001 10.6356C66.4786 11.1496 65.8397 11.4035 65.0617 11.4046C64.2834 11.4035 63.6445 11.1496 63.1231 10.6356L63.1206 10.6328L63.1231 10.6356C62.6017 10.1197 62.3445 9.4977 62.3437 8.74984C62.3445 8.00198 62.6017 7.37994 63.1231 6.86413C63.6445 6.35007 64.2834 6.09579 65.0617 6.09474C65.8347 6.09579 66.4721 6.35112 66.9975 6.86789C67.5207 7.38607 67.7794 8.00714 67.7805 8.74984C67.7794 9.4977 67.5214 10.1197 67.001 10.6356L67.0662 10.6964L67.1317 10.7572C67.684 10.2124 67.9634 9.53664 67.9627 8.74984C67.9634 7.9675 67.6829 7.29314 67.1281 6.74592C66.5729 6.19659 65.8775 5.91878 65.0617 5.91974C64.2417 5.91878 63.5442 6.19528 62.9925 6.7425V6.74215C62.4391 7.28728 62.1608 7.96304 62.1615 8.74984C62.1608 9.53664 62.4391 10.2124 62.9925 10.7575L62.995 10.76L62.9925 10.7572C63.5442 11.3044 64.2417 11.5803 65.0617 11.5796C65.8814 11.5803 66.5789 11.3044 67.1317 10.7572L67.0662 10.6964Z" fill="white"/>
<path d="M68.8574 11.3748V6.12476H69.7123L72.3691 10.2089H72.3993L72.3691 9.19714V6.12476H73.072V11.3748H72.3388L69.5592 7.09268H69.5289L69.5592 8.10479V11.3748H68.8574Z" fill="white"/>
<path d="M68.8577 11.3751H68.9488V6.21265H69.662L72.3188 10.2968H72.3996H72.4932L72.4605 9.19622V6.21265H72.9812V11.2876H72.3897L69.6101 7.00557H69.5293H69.4357L69.4684 8.10658V11.2876H68.8577V11.3751H68.9488H68.8577V11.4626H69.5595H69.6506V8.10378L69.6204 7.09071L69.5293 7.09307V7.18057H69.5595V7.09307L69.4823 7.13962L72.2886 11.4626H73.0723H73.1634V6.03765H72.3694H72.2783V9.19858L72.3085 10.2117L72.3996 10.2093V10.1218H72.3694V10.2093L72.4467 10.1628L69.7631 6.03765H68.8577H68.7666V11.4626H68.8577V11.3751Z" fill="white"/>
<path d="M97.4307 26.25H99.1308V15.3114H97.4307V26.25ZM112.744 19.2517L110.795 23.9941H110.737L108.714 19.2517H106.883L109.916 25.8801L108.186 29.5671H109.96L114.634 19.2517H112.744ZM103.102 25.0076C102.545 25.0076 101.768 24.7403 101.768 24.0786C101.768 23.2343 102.736 22.9106 103.571 22.9106C104.319 22.9106 104.669 23.0654 105.124 23.2767C104.992 24.2898 104.084 25.0076 103.102 25.0076ZM103.307 19.0124C102.076 19.0124 100.802 19.5333 100.274 20.6873L101.783 21.2922C102.106 20.6873 102.706 20.49 103.337 20.49C104.216 20.49 105.11 20.9969 105.124 21.8976V22.01C104.816 21.8411 104.157 21.5879 103.351 21.5879C101.725 21.5879 100.068 22.4461 100.068 24.0505C100.068 25.5141 101.402 26.4571 102.896 26.4571C104.04 26.4571 104.669 25.9646 105.066 25.3877H105.124V26.2319H106.765V22.038C106.765 20.0963 105.256 19.0124 103.307 19.0124ZM92.8004 20.5833H90.3823V16.8338H92.8004C94.0714 16.8338 94.793 17.8445 94.793 18.7085C94.793 19.5562 94.0714 20.5833 92.8004 20.5833ZM92.7567 15.3114H88.6831V26.25H90.3823V22.1057H92.7567C94.6409 22.1057 96.4931 20.7956 96.4931 18.7085C96.4931 16.6216 94.6409 15.3114 92.7567 15.3114ZM70.5429 25.0096C69.3684 25.0096 68.385 24.0652 68.385 22.7681C68.385 21.4573 69.3684 20.4986 70.5429 20.4986C71.7024 20.4986 72.6125 21.4573 72.6125 22.7681C72.6125 24.0652 71.7024 25.0096 70.5429 25.0096ZM72.495 19.8642H72.4363C72.0548 19.4273 71.3205 19.0326 70.3959 19.0326C68.4583 19.0326 66.6824 20.6677 66.6824 22.7681C66.6824 24.8544 68.4583 26.4756 70.3959 26.4756C71.3205 26.4756 72.0548 26.0808 72.4363 25.63H72.495V26.1655C72.495 27.5895 71.7024 28.3507 70.4254 28.3507C69.3833 28.3507 68.7374 27.6315 68.4729 27.0255L66.9906 27.6175C67.4163 28.6043 68.5466 29.8167 70.4254 29.8167C72.4217 29.8167 74.1097 28.6887 74.1097 25.94V19.2582H72.495V19.8642ZM75.2838 26.25H76.9865V15.3111H75.2838V26.25ZM79.4966 22.6413C79.4525 21.2033 80.6562 20.4705 81.5221 20.4705C82.1978 20.4705 82.77 20.7945 82.9604 21.2601L79.4966 22.6413ZM84.7808 21.4009C84.4583 20.569 83.4743 19.0326 81.4634 19.0326C79.4671 19.0326 77.8086 20.541 77.8086 22.7541C77.8086 24.8404 79.4525 26.4756 81.6541 26.4756C83.4305 26.4756 84.4583 25.4324 84.8838 24.8264L83.5627 23.9804C83.1226 24.6008 82.5203 25.0096 81.6541 25.0096C80.7882 25.0096 80.1719 24.6289 79.7753 23.882L84.9567 21.8237L84.7808 21.4009ZM43.5 20.1745V21.7533H47.4337C47.3163 22.6413 47.0081 23.2897 46.5383 23.7408C45.966 24.2908 45.0706 24.8968 43.5 24.8968C41.078 24.8968 39.1846 23.022 39.1846 20.6961C39.1846 18.3702 41.078 16.4951 43.5 16.4951C44.8064 16.4951 45.7603 16.9886 46.4649 17.623L47.6245 16.5095C46.6411 15.6071 45.3346 14.9164 43.5 14.9164C40.1826 14.9164 37.3937 17.5102 37.3937 20.6961C37.3937 23.882 40.1826 26.4756 43.5 26.4756C45.2909 26.4756 46.6412 25.912 47.6979 24.8544C48.7841 23.8113 49.1218 22.3453 49.1218 21.1613C49.1218 20.7945 49.0926 20.4565 49.0335 20.1745H43.5ZM53.5941 25.0096C52.4196 25.0096 51.4067 24.0792 51.4067 22.7541C51.4067 21.4149 52.4196 20.4986 53.5941 20.4986C54.7682 20.4986 55.7811 21.4149 55.7811 22.7541C55.7811 24.0792 54.7682 25.0096 53.5941 25.0096ZM53.5941 19.0326C51.4508 19.0326 49.704 20.5973 49.704 22.7541C49.704 24.8968 51.4508 26.4756 53.5941 26.4756C55.737 26.4756 57.4837 24.8968 57.4837 22.7541C57.4837 20.5973 55.737 19.0326 53.5941 19.0326ZM62.0795 25.0096C60.9054 25.0096 59.8924 24.0792 59.8924 22.7541C59.8924 21.4149 60.9054 20.4986 62.0795 20.4986C63.2536 20.4986 64.2665 21.4149 64.2665 22.7541C64.2665 24.0792 63.2536 25.0096 62.0795 25.0096ZM62.0795 19.0326C59.9363 19.0326 58.1899 20.5973 58.1899 22.7541C58.1899 24.8968 59.9363 26.4756 62.0795 26.4756C64.2224 26.4756 65.9692 24.8968 65.9692 22.7541C65.9692 20.5973 64.2224 19.0326 62.0795 19.0326Z" fill="white"/>
<path d="M9.57572 28.3406L9.50803 28.2784C9.24289 28.009 9.08636 27.5906 9.08636 27.0489V27.1764V7.82489C9.08636 7.82314 9.08636 7.82183 9.08636 7.82043C9.08636 7.82209 9.08636 7.82349 9.08636 7.82524V7.95308C9.08636 7.36648 9.26886 6.9246 9.57463 6.65965L20.8631 17.5005L9.57572 28.3406ZM9.08636 7.81938C9.08636 7.77117 9.08773 7.72435 9.09028 7.67824C9.08773 7.724 9.08636 7.77117 9.08636 7.81938ZM9.09028 7.67614C9.09028 7.67553 9.09028 7.67483 9.09055 7.67413C9.09028 7.67483 9.09028 7.67553 9.09028 7.67614ZM9.09055 7.67002C9.09055 7.66967 9.09055 7.66932 9.09055 7.66897C9.09055 7.66932 9.09055 7.66967 9.09055 7.67002Z" fill="url(#paint0_linear_86_1562)"/>
<path d="M24.6248 21.2434L24.7106 21.1966L29.1686 18.764C29.5936 18.532 29.8769 18.2506 30.0182 17.953C29.8773 18.2506 29.5939 18.5323 29.1686 18.7644L24.7106 21.1969L24.6248 21.2434ZM24.6259 21.1152L20.8625 17.5004L24.6255 13.8862L29.1686 16.3649C29.7455 16.6798 30.0694 17.0855 30.1235 17.5001C30.1235 17.5004 30.1235 17.5011 30.1235 17.5017C30.0694 17.9153 29.7455 18.3214 29.1686 18.6362L24.6259 21.1152Z" fill="url(#paint1_linear_86_1562)"/>
<path d="M10.3804 28.7539C10.0651 28.7539 9.78995 28.6555 9.57538 28.4695L9.57575 28.4692C9.79032 28.6551 10.0658 28.7539 10.3812 28.7539C10.4085 28.7539 10.4363 28.7532 10.4644 28.7519C10.4359 28.7532 10.4078 28.7539 10.3804 28.7539ZM10.3808 28.6257C10.0655 28.6261 9.79032 28.5273 9.57575 28.3413V28.3411L20.8631 17.501L24.6265 21.1158L11.4015 28.3322C11.0356 28.5314 10.6889 28.6257 10.3808 28.6257ZM9.57256 28.4672C9.55261 28.4498 9.53302 28.4313 9.51379 28.4121L9.57256 28.4672Z" fill="url(#paint2_linear_86_1562)"/>
<path d="M20.8633 17.5007L9.57477 6.65992C9.78933 6.47434 10.0641 6.3759 10.3791 6.3759C10.6881 6.3759 11.035 6.47057 11.4016 6.67016L24.6262 13.8865L20.8633 17.5007ZM24.7113 13.8049L11.4016 6.54241C11.035 6.34273 10.6881 6.24806 10.3791 6.24806C10.3776 6.24806 10.3766 6.24806 10.3752 6.24806C10.377 6.24806 10.3784 6.24806 10.3806 6.24806C10.6888 6.24806 11.0354 6.34239 11.4016 6.54206L24.7113 13.8049Z" fill="url(#paint3_linear_86_1562)"/>
<path d="M10.4645 28.7512C10.7509 28.7355 11.0681 28.6408 11.4015 28.4593L24.6254 21.2433L11.4015 28.4593C11.0683 28.6411 10.7509 28.7355 10.4645 28.7512ZM9.57539 28.4689L9.57256 28.4665C9.57357 28.4672 9.57466 28.4682 9.57539 28.4689ZM9.5138 28.4115L9.50806 28.406V28.4057C9.51024 28.4077 9.51197 28.4097 9.5138 28.4115Z" fill="#1A1A1A"/>
<path d="M24.6251 21.2434L24.7109 21.1966L24.6251 21.2434Z" fill="url(#paint4_linear_86_1562)"/>
<path d="M10.3809 28.7539C10.0656 28.7539 9.79008 28.6551 9.57551 28.4692L9.57514 28.4695C9.57441 28.4688 9.57332 28.4679 9.57232 28.4672L9.51355 28.4121C9.51173 28.4104 9.51 28.4084 9.50781 28.4064L9.57551 28.3413C9.79008 28.5273 10.0652 28.6261 10.3806 28.6257C10.6887 28.6257 11.0354 28.5314 11.4013 28.3322L24.6262 21.1158L24.711 21.1971L24.6252 21.244L11.4013 28.46C11.0678 28.6415 10.7507 28.7361 10.4642 28.7519C10.4361 28.7532 10.4083 28.7539 10.3809 28.7539Z" fill="url(#paint5_linear_86_1562)"/>
<path d="M9.50778 28.4062C9.24265 28.1368 9.08612 27.7185 9.08612 27.1768V27.1764C9.08612 27.7185 9.24265 28.1365 9.50778 28.4059V28.4062Z" fill="#1A1A1A"/>
<path d="M9.50803 28.406C9.24289 28.1366 9.08636 27.7186 9.08636 27.1765V27.0491C9.08636 27.5908 9.24289 28.0091 9.50803 28.2785L9.57572 28.3407L9.50803 28.406Z" fill="url(#paint6_linear_86_1562)"/>
<path d="M9.50781 28.406L9.57551 28.3407V28.341L9.50781 28.406Z" fill="url(#paint7_linear_86_1562)"/>
<path d="M30.0186 17.9534C30.0886 17.8057 30.1239 17.6539 30.1239 17.5021C30.1239 17.5019 30.1239 17.5015 30.1239 17.5015C30.1239 17.6536 30.0886 17.8053 30.0186 17.9534Z" fill="#1A1A1A"/>
<path d="M24.711 21.1975L24.6262 21.1161L29.1689 18.6371C29.7458 18.3223 30.0697 17.9163 30.1239 17.5026C30.1239 17.6545 30.0886 17.8062 30.0185 17.9539C29.8772 18.2516 29.594 18.5329 29.1689 18.7649L24.711 21.1975Z" fill="url(#paint8_linear_86_1562)"/>
<path d="M30.1243 17.5007V17.5004C30.1239 17.0427 29.8054 16.585 29.1693 16.2378L24.7114 13.8052H24.711L24.7114 13.8049L29.1693 16.2374C29.8061 16.5847 30.125 17.043 30.1243 17.5007Z" fill="#404040"/>
<path d="M30.1236 17.5002C30.0695 17.0857 29.7456 16.6799 29.1687 16.3651L24.6256 13.8864L24.7103 13.805H24.7107L29.1687 16.2376C29.8047 16.5849 30.1233 17.0425 30.1236 17.5002Z" fill="url(#paint9_linear_86_1562)"/>
<path d="M9.08612 7.82104C9.08612 7.82069 9.08612 7.82035 9.08612 7.82C9.08612 7.82035 9.08612 7.82069 9.08612 7.82104ZM9.09004 7.67886C9.09004 7.67816 9.09004 7.67746 9.09004 7.67676C9.09004 7.67746 9.09004 7.67816 9.09004 7.67886ZM9.09031 7.67475C9.09031 7.67335 9.09031 7.67203 9.09031 7.67063C9.09031 7.67203 9.09031 7.67335 9.09031 7.67475ZM9.09031 7.66958C9.14306 6.7707 9.65201 6.25147 10.372 6.24841C10.0598 6.25016 9.78795 6.3486 9.57511 6.53278V6.53243L9.57256 6.53488C9.55015 6.55431 9.52883 6.57487 9.50778 6.59604C9.26862 6.83903 9.11774 7.20303 9.09031 7.66958Z" fill="#404040"/>
<path d="M9.08636 7.95337V7.82553C9.08636 7.82378 9.08636 7.82238 9.08636 7.82072C9.08636 7.82037 9.08636 7.82002 9.08636 7.81967C9.08636 7.77146 9.08773 7.72429 9.09028 7.67853C9.09028 7.67783 9.09028 7.67713 9.09028 7.67643C9.09028 7.67582 9.09028 7.67512 9.09055 7.67442C9.09055 7.67302 9.09055 7.67171 9.09055 7.67031C9.09055 7.66996 9.09055 7.66961 9.09055 7.66926C9.11798 7.20271 9.26886 6.8387 9.50803 6.59572L9.57463 6.65994C9.26886 6.92489 9.08636 7.36677 9.08636 7.95337ZM9.57281 6.53455L9.57536 6.5321C9.57463 6.53315 9.57354 6.53385 9.57281 6.53455Z" fill="url(#paint10_linear_86_1562)"/>
<path d="M24.6259 13.8867L11.4013 6.67033C11.0347 6.47074 10.6877 6.37607 10.3787 6.37607C10.0638 6.37607 9.78898 6.47451 9.57441 6.66009L9.50781 6.59587C9.52886 6.57469 9.55018 6.55413 9.57259 6.5347C9.57332 6.534 9.57441 6.53331 9.57514 6.53261C9.78798 6.34842 10.0599 6.24998 10.372 6.24823C10.3727 6.24823 10.3737 6.24823 10.3748 6.24823C10.3763 6.24823 10.3773 6.24823 10.3787 6.24823C10.6877 6.24823 11.0347 6.3429 11.4013 6.54258L24.711 13.8051L24.7106 13.8053L24.6259 13.8867Z" fill="url(#paint11_linear_86_1562)"/>
<defs>
<linearGradient id="paint0_linear_86_1562" x1="19.8622" y1="7.62075" x2="5.18948" y2="22.899" gradientUnits="userSpaceOnUse">
<stop stop-color="#00A0FF"/>
<stop offset="0.00657445" stop-color="#00A1FF"/>
<stop offset="0.2601" stop-color="#00BEFF"/>
<stop offset="0.5122" stop-color="#00D2FF"/>
<stop offset="0.7604" stop-color="#00DFFF"/>
<stop offset="1" stop-color="#00E3FF"/>
</linearGradient>
<linearGradient id="paint1_linear_86_1562" x1="30.8265" y1="17.5009" x2="8.78031" y2="17.5009" gradientUnits="userSpaceOnUse">
<stop stop-color="#FFE000"/>
<stop offset="0.4087" stop-color="#FFBD00"/>
<stop offset="0.7754" stop-color="#FFA500"/>
<stop offset="1" stop-color="#FF9C00"/>
</linearGradient>
<linearGradient id="paint2_linear_86_1562" x1="22.6203" y1="19.5094" x2="2.72306" y2="40.2278" gradientUnits="userSpaceOnUse">
<stop stop-color="#FF3A44"/>
<stop offset="1" stop-color="#C31162"/>
</linearGradient>
<linearGradient id="paint3_linear_86_1562" x1="6.64892" y1="0.154211" x2="15.5338" y2="9.40581" gradientUnits="userSpaceOnUse">
<stop stop-color="#32A071"/>
<stop offset="0.0685" stop-color="#2DA771"/>
<stop offset="0.4762" stop-color="#15CF74"/>
<stop offset="0.8009" stop-color="#06E775"/>
<stop offset="1" stop-color="#00F076"/>
</linearGradient>
<linearGradient id="paint4_linear_86_1562" x1="30.8265" y1="17.5008" x2="8.78129" y2="17.5008" gradientUnits="userSpaceOnUse">
<stop stop-color="#CCB300"/>
<stop offset="0.4087" stop-color="#CC9700"/>
<stop offset="0.7754" stop-color="#CC8400"/>
<stop offset="1" stop-color="#CC7D00"/>
</linearGradient>
<linearGradient id="paint5_linear_86_1562" x1="22.6201" y1="19.5094" x2="2.72282" y2="40.2278" gradientUnits="userSpaceOnUse">
<stop stop-color="#CC2E36"/>
<stop offset="1" stop-color="#9C0E4E"/>
</linearGradient>
<linearGradient id="paint6_linear_86_1562" x1="19.8622" y1="7.62091" x2="5.18948" y2="22.8991" gradientUnits="userSpaceOnUse">
<stop stop-color="#008DE0"/>
<stop offset="0.00657445" stop-color="#008DE0"/>
<stop offset="0.2601" stop-color="#00A7E0"/>
<stop offset="0.5122" stop-color="#00B8E0"/>
<stop offset="0.7604" stop-color="#00C4E0"/>
<stop offset="1" stop-color="#00C7E0"/>
</linearGradient>
<linearGradient id="paint7_linear_86_1562" x1="22.6202" y1="19.5095" x2="2.72412" y2="40.2281" gradientUnits="userSpaceOnUse">
<stop stop-color="#E0333C"/>
<stop offset="1" stop-color="#AB0F56"/>
</linearGradient>
<linearGradient id="paint8_linear_86_1562" x1="30.8268" y1="17.5019" x2="8.78063" y2="17.5019" gradientUnits="userSpaceOnUse">
<stop stop-color="#E0C500"/>
<stop offset="0.4087" stop-color="#E0A600"/>
<stop offset="0.7754" stop-color="#E09100"/>
<stop offset="1" stop-color="#E08900"/>
</linearGradient>
<linearGradient id="paint9_linear_86_1562" x1="30.8265" y1="17.5011" x2="8.78039" y2="17.5011" gradientUnits="userSpaceOnUse">
<stop stop-color="#FFE840"/>
<stop offset="0.4087" stop-color="#FFCE40"/>
<stop offset="0.7754" stop-color="#FFBC40"/>
<stop offset="1" stop-color="#FFB540"/>
</linearGradient>
<linearGradient id="paint10_linear_86_1562" x1="19.8622" y1="7.62104" x2="5.18944" y2="22.8993" gradientUnits="userSpaceOnUse">
<stop stop-color="#40B8FF"/>
<stop offset="0.00657445" stop-color="#40B9FF"/>
<stop offset="0.2601" stop-color="#40CEFF"/>
<stop offset="0.5122" stop-color="#40DDFF"/>
<stop offset="0.7604" stop-color="#40E7FF"/>
<stop offset="1" stop-color="#40EAFF"/>
</linearGradient>
<linearGradient id="paint11_linear_86_1562" x1="6.64856" y1="0.154379" x2="15.5335" y2="9.40598" gradientUnits="userSpaceOnUse">
<stop stop-color="#65B895"/>
<stop offset="0.0685" stop-color="#62BD95"/>
<stop offset="0.4762" stop-color="#50DB97"/>
<stop offset="0.8009" stop-color="#44ED98"/>
<stop offset="1" stop-color="#40F498"/>
</linearGradient>
</defs>
</svg>
