<svg width="100%" height="100%" viewBox="0 0 48 48" fill="none" xmlns="http://www.w3.org/2000/svg">
  <mask id="mask0_2327_4206" style="mask-type:alpha" maskUnits="userSpaceOnUse" x="0" y="0" width="48" height="48">
    <rect width="100%" height="100%" fill="#D9D9D9" />
  </mask>
  <g mask="url(#mask0_2327_4206)">
    <path
      d="M24 14.95V32.5L31.15 36.8L29.2 28.75L35.5 23.25L27.2 22.55L24 14.95ZM24 37.95L14.6 43.65C14.1333 43.9167 13.6666 44.0333 13.2 44C12.7333 43.9667 12.3166 43.8167 11.95 43.55C11.5833 43.2833 11.3166 42.9417 11.15 42.525C10.9833 42.1083 10.95 41.6333 11.05 41.1L13.55 30.4L5.24998 23.15C4.84998 22.8167 4.59164 22.425 4.47498 21.975C4.35831 21.525 4.36664 21.0833 4.49998 20.65C4.59998 20.2167 4.84164 19.85 5.22498 19.55C5.60831 19.25 6.06664 19.0833 6.59998 19.05L17.55 18.1L21.8 7.95C22 7.45 22.3083 7.08333 22.725 6.85C23.1416 6.61667 23.5666 6.5 24 6.5C24.4333 6.5 24.8583 6.61667 25.275 6.85C25.6916 7.08333 26 7.45 26.2 7.95L30.45 18.1L41.45 19.05C41.95 19.0833 42.3916 19.25 42.775 19.55C43.1583 19.85 43.4 20.2167 43.5 20.65C43.6333 21.0833 43.6416 21.525 43.525 21.975C43.4083 22.425 43.15 22.8167 42.75 23.15L34.45 30.4L36.95 41.1C37.05 41.6333 37.0166 42.1083 36.85 42.525C36.6833 42.9417 36.4166 43.2833 36.05 43.55C35.6833 43.8167 35.2666 43.9667 34.8 44C34.3333 44.0333 33.8666 43.9167 33.4 43.65L24 37.95Z"
      fill="currentColor" />
  </g>
</svg>
