<svg width="14" height="14" viewBox="0 0 14 14" fill="none" xmlns="http://www.w3.org/2000/svg">
<mask id="mask0_6518_10908" style="mask-type:alpha" maskUnits="userSpaceOnUse" x="0" y="0" width="14" height="14">
<rect width="14" height="14" fill="#D9D9D9"/>
</mask>
<g mask="url(#mask0_6518_10908)">
<path d="M0.831185 5.81873L3.42702 3.19373C3.63118 2.98956 3.86452 2.85102 4.12702 2.7781C4.38952 2.70519 4.6666 2.69303 4.95827 2.74164L6.12494 2.94581C5.5416 3.60692 5.06278 4.24373 4.68848 4.85623C4.31417 5.46873 3.95202 6.18331 3.60202 6.99998L0.831185 5.81873ZM4.3166 7.23331C4.70549 6.35831 5.12112 5.58296 5.56348 4.90727C6.00584 4.23158 6.48466 3.63609 6.99994 3.12081C7.84577 2.27498 8.85202 1.6406 10.0187 1.21769C11.1854 0.79477 12.3034 0.656228 13.3729 0.802061C13.5284 1.88123 13.3972 3.00171 12.9791 4.16352C12.561 5.32533 11.9291 6.32914 11.0833 7.17498C10.5583 7.69998 9.95549 8.18366 9.27493 8.62602C8.59438 9.06838 7.82146 9.484 6.95618 9.87289L4.3166 7.23331ZM8.92493 5.24998C9.10966 5.4347 9.33327 5.52706 9.59577 5.52706C9.85827 5.52706 10.0819 5.4347 10.2666 5.24998C10.4416 5.06526 10.5291 4.84408 10.5291 4.58644C10.5291 4.3288 10.4416 4.10762 10.2666 3.92289C10.0819 3.74789 9.85827 3.66039 9.59577 3.66039C9.33327 3.66039 9.10966 3.74789 8.92493 3.92289C8.74993 4.10762 8.66243 4.3288 8.66243 4.58644C8.66243 4.84408 8.74993 5.06526 8.92493 5.24998ZM8.37077 13.3437L7.17493 10.5729C7.9916 10.2326 8.70375 9.87289 9.31139 9.49373C9.91903 9.11456 10.5583 8.63817 11.2291 8.06456L11.4333 9.23123C11.4916 9.52289 11.4819 9.79998 11.4041 10.0625C11.3263 10.325 11.1854 10.5535 10.9812 10.7479L8.37077 13.3437ZM1.89577 9.37706C2.3041 8.96873 2.7975 8.76699 3.37598 8.77185C3.95445 8.77671 4.44785 8.97845 4.85618 9.37706C5.2548 9.78539 5.45653 10.2788 5.46139 10.8573C5.46625 11.4357 5.26452 11.9291 4.85618 12.3375C4.53535 12.6583 4.03466 12.9184 3.3541 13.1177C2.67355 13.317 1.76938 13.475 0.641602 13.5916C0.758268 12.4639 0.916254 11.5597 1.11556 10.8791C1.31487 10.1986 1.57493 9.69789 1.89577 9.37706Z" fill="#757575"/>
</g>
</svg>
