<svg width="100%" height="100%" viewBox="0 0 48 48" fill="none" xmlns="http://www.w3.org/2000/svg">
  <mask id="mask0_1163_18785" style="mask-type:alpha" maskUnits="userSpaceOnUse" x="0" y="0" width="48" height="48">
    <rect width="100%" height="100%" fill="#D9D9D9" />
  </mask>
  <g mask="url(#mask0_1163_18785)">
    <path
      d="M19.1833 43.3339H8.54584L6.77292 42.4474V17.6266L24.5021 4.32971L41.3448 17.6266V43.3339H28.9344V29.1505L20.0698 28.2641L19.1833 43.3339Z"
      fill="currentColor" />
    <path
      d="M8.62128 41.9287H17.6745V28.6507C17.6745 28.1377 17.848 27.7077 18.195 27.3606C18.5421 27.0136 18.9721 26.8401 19.4851 26.8401H29.1418C29.6549 26.8401 30.0849 27.0136 30.4319 27.3606C30.779 27.7077 30.9525 28.1377 30.9525 28.6507V41.9287H40.0057V18.3904L24.3135 6.62128L8.62128 18.3904V41.9287ZM5 41.9287V18.3904C5 17.8171 5.12825 17.2739 5.38476 16.7609C5.64127 16.2478 5.99585 15.8254 6.44851 15.4934L22.1407 3.72426C22.7716 3.24142 23.4927 3 24.3038 3C25.115 3 25.8425 3.24142 26.4862 3.72426L42.1784 15.4934C42.6311 15.8254 42.9857 16.2478 43.2422 16.7609C43.4987 17.2739 43.6269 17.8171 43.6269 18.3904V41.9287C43.6269 42.9246 43.2724 43.7771 42.5632 44.4863C41.854 45.1954 41.0015 45.55 40.0057 45.55H29.1418C28.6288 45.55 28.1988 45.3765 27.8518 45.0294C27.5047 44.6824 27.3312 44.2524 27.3312 43.7394V30.4613H21.2957V43.7394C21.2957 44.2524 21.1222 44.6824 20.7752 45.0294C20.4281 45.3765 19.9981 45.55 19.4851 45.55H8.62128C7.62543 45.55 6.77292 45.1954 6.06375 44.4863C5.35458 43.7771 5 42.9246 5 41.9287Z"
      fill="#211F1F" />
  </g>
</svg>