<svg width="24" height="24" viewBox="0 0 24 24" fill="none" xmlns="http://www.w3.org/2000/svg">
<path d="M3 18.5L4 21L18.5 21.5L21 20.5V9L11.5 1.5L3 9V18.5Z" fill="currentColor" opacity="0.2"/>
<path d="M10 13V20H14V13H10ZM16 20H19C19.2652 20 19.5195 19.8946 19.707 19.7071C19.8946 19.5195 20 19.2652 20 19V9.99954C20 9.85417 19.9684 9.71051 19.9072 9.57864C19.846 9.44671 19.7566 9.32976 19.6455 9.23587L19.6401 9.23148L12.6455 3.23685L12.5757 3.18265C12.4318 3.08138 12.2636 3.01997 12.0884 3.00443L12 3.00052C11.7637 3.00052 11.535 3.0843 11.3545 3.23685L4.35986 9.23148L4.35449 9.23587C4.24342 9.32976 4.15399 9.44671 4.09277 9.57864C4.0316 9.71051 4 9.85417 4 9.99954V19C4.00001 19.2652 4.10544 19.5195 4.29297 19.7071C4.4805 19.8946 4.73479 20 5 20H8V13C8 12.4696 8.21088 11.961 8.58594 11.586C8.96101 11.2109 9.46957 11 10 11H14C14.5304 11 15.039 11.2109 15.4141 11.586C15.7891 11.961 16 12.4696 16 13V20ZM22 19C22 19.7957 21.6837 20.5585 21.1211 21.1211C20.5585 21.6837 19.7956 22 19 22H5C4.20436 22 3.44151 21.6837 2.87891 21.1211C2.3163 20.5585 2.00001 19.7957 2 19V10C1.99993 9.5637 2.09516 9.13264 2.27881 8.73685C2.46249 8.341 2.73018 7.98973 3.06348 7.70804L10.0581 1.7139L10.0635 1.70901C10.6049 1.25143 11.2911 1.00052 12 1.00052L12.1328 1.00345C12.7502 1.0308 13.3443 1.24827 13.8335 1.62601L13.9365 1.70901L13.9419 1.7139L20.936 7.70804C21.2693 7.98973 21.5375 8.341 21.7212 8.73685C21.9048 9.13264 22.0001 9.5637 22 10V19Z" fill="currentColor"/>
</svg>
