<svg width="100%" height="100%" viewBox="0 0 53 52" fill="none" xmlns="http://www.w3.org/2000/svg">
<path d="M26.4937 37.5692C27.1461 37.5692 27.6925 37.3504 28.1327 36.9128C28.573 36.4752 28.7932 35.9372 28.7932 35.2987V28.2456C28.7932 27.6072 28.5696 27.0691 28.1225 26.6315C27.6754 26.1939 27.1257 25.9751 26.4733 25.9751C25.8209 25.9751 25.2746 26.1939 24.8343 26.6315C24.394 27.0691 24.1739 27.6072 24.1739 28.2456V35.2987C24.1739 35.9372 24.3974 36.4752 24.8445 36.9128C25.2917 37.3504 25.8414 37.5692 26.4937 37.5692ZM26.4937 21.9178C27.1461 21.9178 27.6925 21.698 28.1327 21.2584C28.573 20.8189 28.7932 20.2785 28.7932 19.6372C28.7932 18.9959 28.5696 18.4588 28.1225 18.026C27.6754 17.5931 27.1257 17.3767 26.4733 17.3767C25.8209 17.3767 25.2746 17.5965 24.8343 18.036C24.394 18.4756 24.1739 19.016 24.1739 19.6573C24.1739 20.2986 24.3974 20.8356 24.8445 21.2685C25.2917 21.7013 25.8414 21.9178 26.4937 21.9178ZM11.6193 47C10.3276 47 9.23477 46.5606 8.34086 45.6819C7.44695 44.8031 7 43.7288 7 42.459V20.5245C7 19.8071 7.15688 19.1292 7.47063 18.4907C7.78434 17.8523 8.23678 17.3214 8.82793 16.8981L23.6922 5.91469C24.4995 5.3049 25.4268 5 26.4742 5C27.5216 5 28.4551 5.3049 29.2749 5.91469L44.1391 16.8981C44.7303 17.3214 45.1882 17.8523 45.5129 18.4907C45.8376 19.1292 46 19.8071 46 20.5245V42.459C46 43.7288 45.5476 44.8031 44.6427 45.6819C43.7378 46.5606 42.6395 47 41.3478 47H11.6193Z" fill="currentColor"/>
</svg>
