<svg width="136" height="136" viewBox="0 0 136 136" fill="none" xmlns="http://www.w3.org/2000/svg">
<g clip-path="url(#clip0_330_3983)">
<path d="M136 0H0V136H136V0Z" fill="#DCDFE4"/>
<path d="M81.192 71.0147L81.532 70.1307H79.6507C79.1293 70.1307 78.676 70.448 78.4947 70.924L78.1547 71.808H80.036C80.5573 71.808 81.0107 71.4907 81.192 71.0147Z" fill="#B3B9C4"/>
<path d="M75.2987 70.9467L74.9587 71.8307H76.8401C77.3614 71.8307 77.8147 71.5133 77.9961 71.0373L78.3361 70.1533H76.4547C75.9334 70.1533 75.4801 70.4707 75.2987 70.9467Z" fill="#B3B9C4"/>
<path d="M50.2973 67.5467C50.8187 67.5467 51.272 67.2293 51.4533 66.7533L51.7933 65.8693H49.912C49.3907 65.8693 48.9373 66.1867 48.756 66.6627L48.416 67.5467H50.2973Z" fill="#B3B9C4"/>
<path d="M57.2787 66.7307L57.6187 65.8467H55.7373C55.216 65.8467 54.7627 66.164 54.5813 66.64L54.2413 67.524H56.1227C56.644 67.524 57.0973 67.2067 57.2787 66.7307Z" fill="#B3B9C4"/>
<path d="M48.3934 66.7307L48.7334 65.8467H46.8294C46.308 65.8467 45.8547 66.164 45.6734 66.64L45.3334 67.524H47.2147C47.736 67.524 48.1894 67.2067 48.3707 66.7307H48.3934Z" fill="#B3B9C4"/>
<path d="M90.5533 61.0413C90.8253 60.18 90.576 59.228 89.8507 58.6387C89.4653 58.3213 88.9667 58.1627 88.468 58.1627H71.6493C70.7653 58.1627 69.9267 58.7293 69.6093 59.568L66.096 68.816V68.8613C66.0507 68.9293 66.028 68.9973 66.028 69.088C65.9827 69.1787 65.9827 69.292 65.9827 69.3827V70.4253C65.9827 70.7653 66.1187 71.0827 66.368 71.3093L67.32 72.148C67.4333 72.2387 67.5467 72.352 67.592 72.42C67.6373 72.488 67.66 72.5787 67.66 72.692C67.66 72.828 67.6147 72.9413 67.5013 72.9867C67.388 73.032 67.2067 73.0773 66.9347 73.0773H63.5347C63.0133 73.0773 62.7413 72.8053 62.7413 72.2613V67.0253C62.7413 66.368 62.1973 65.824 61.54 65.824H61.3587V72.284C61.3587 72.828 61.0413 73.1 60.4293 73.1H57.392V73.0547C57.664 72.76 57.868 72.4427 57.9813 72.1253C58.0947 71.808 58.14 71.4907 58.14 71.1733C58.14 70.856 58.0947 70.4933 57.9813 70.1987C57.8907 69.904 57.732 69.632 57.528 69.4053C57.324 69.1787 57.0973 68.9973 56.8027 68.8613C56.5307 68.748 56.2133 68.6573 55.8733 68.6573C55.5333 68.6573 55.216 68.7253 54.944 68.8613C54.672 68.9747 54.4227 69.1787 54.2187 69.4053C54.0147 69.632 53.8787 69.904 53.7653 70.1987C53.652 70.4933 53.6067 70.8333 53.6067 71.1733C53.6067 71.5133 53.652 71.7853 53.7653 72.1253C53.8787 72.4427 54.0827 72.76 54.3773 73.0547V73.1H51.068C50.8187 73.1 50.6373 73.0547 50.524 72.964C50.4333 72.8733 50.3653 72.7147 50.3653 72.488V69.972C50.3653 69.3147 49.8213 68.7707 49.164 68.7707H48.9827V69.4053L47.6907 70.04C47.1013 70.3347 46.6253 70.6747 46.2627 71.0827C45.9227 71.468 45.7413 71.9893 45.7413 72.624C45.7413 73.2587 45.8773 73.576 46.1493 73.8707C46.4213 74.1653 46.852 74.324 47.396 74.324C47.94 74.324 47.8267 74.2787 48.008 74.256C48.1667 74.2107 48.3253 74.1427 48.4387 74.0293C48.552 73.916 48.6653 73.78 48.7333 73.576C48.8013 73.3947 48.8693 73.168 48.9373 72.896H49.0053V72.9413C49.0053 73.5307 49.164 73.984 49.4813 74.324C49.7987 74.664 50.32 74.8227 51.0227 74.8453H53.516C53.924 74.8453 54.332 74.8 54.74 74.6867C55.1253 74.596 55.5107 74.392 55.8507 74.12C56.1907 74.392 56.576 74.596 56.9613 74.6867C57.3467 74.7773 57.7547 74.8453 58.1853 74.8453H59.772C60.248 74.8453 60.6333 74.732 60.8827 74.4827C61.132 74.2333 61.3133 73.848 61.404 73.304H61.472C61.5853 73.848 61.7893 74.2333 62.1293 74.4827C62.4693 74.732 62.9453 74.8453 63.58 74.8453H66.6627C66.8893 74.8453 67.0933 74.8 67.2747 74.732C67.456 74.6413 67.6147 74.528 67.7507 74.392C67.864 74.256 67.9773 74.0747 68.0453 73.8707C68.1133 73.6667 68.136 73.4627 68.136 73.236C68.136 73.0093 68.136 72.9187 68.0907 72.7827L68.136 72.7373L68.4533 73.1227C68.7253 73.4627 68.9973 73.7573 69.224 73.984C69.4507 74.2107 69.6773 74.392 69.8813 74.528C70.0853 74.664 70.2893 74.7547 70.516 74.8C70.6067 74.8 70.6973 74.8453 70.788 74.8453H78.7213C79.2427 74.8453 79.696 74.528 79.8773 74.0293L80.2173 73.1453H71.536C71.1733 73.1453 70.9013 73.0547 70.6067 72.9187C70.448 72.8507 70.2667 72.7373 70.0627 72.5787C69.8587 72.4427 69.6547 72.2613 69.4053 72.012L67.2973 70.108L67.3427 70.0173L71.1053 60.18C71.1733 59.9987 71.3547 59.8627 71.5587 59.8627H88.4C88.6267 59.8627 88.7627 59.9987 88.808 60.0667C88.8533 60.1347 88.944 60.2933 88.8533 60.52L88.6493 61.0187L83.5493 74.3467L83.0053 75.752C82.9373 75.9333 82.7333 76.0693 82.552 76.0693L63.9427 76.1147C63.4213 76.1147 62.968 76.432 62.7867 76.908L62.4467 77.792L82.552 77.7467C83.436 77.7467 84.2747 77.18 84.592 76.3413L84.6827 76.1147L89.9413 62.3787L90.4173 61.1093C90.4173 61.1093 90.4173 61.064 90.4173 61.0413L90.4627 61.0187H90.44L90.5533 61.0413ZM48.8467 72.0347C48.8467 72.2613 48.756 72.3973 48.5973 72.488C48.4387 72.5787 48.1213 72.6013 47.668 72.6013C47.2147 72.6013 47.1013 72.556 46.9653 72.488C46.852 72.42 46.784 72.2613 46.784 72.08C46.784 71.8987 46.8067 71.876 46.852 71.7853C46.8973 71.6947 46.9653 71.6267 47.0787 71.536C47.192 71.468 47.3053 71.3773 47.464 71.3093C47.6 71.2413 47.804 71.1507 48.008 71.0373L48.8693 70.6293V72.012L48.8467 72.0347ZM56.6893 72.284C56.4853 72.5107 56.1907 72.76 55.8053 72.9867C55.42 72.76 55.1253 72.5333 54.9213 72.284C54.7173 72.0573 54.6267 71.7627 54.6267 71.4453C54.6267 71.128 54.7173 70.8787 54.944 70.6747C55.148 70.4933 55.42 70.4027 55.7373 70.4027H55.8733C56.1907 70.4027 56.4627 70.4933 56.6667 70.6747C56.8707 70.856 56.984 71.1053 56.984 71.4453C56.984 71.7853 56.8933 72.0347 56.6893 72.284Z" fill="#B3B9C4"/>
<path d="M83.2321 63.8293H72.2161L72.5561 62.9453C72.7374 62.4693 73.1907 62.152 73.7121 62.152H84.7054L84.3654 63.0586C84.1841 63.5346 83.7534 63.8293 83.2547 63.8293H83.2321Z" fill="#B3B9C4"/>
<path d="M81.464 67.796H70.448L70.788 66.912C70.9693 66.436 71.4227 66.1187 71.944 66.1187H82.9373L82.5973 67.0253C82.416 67.5013 81.9853 67.796 81.4867 67.796H81.464Z" fill="#B3B9C4"/>
</g>
<defs>
<clipPath id="clip0_330_3983">
<rect width="136" height="136" fill="white"/>
</clipPath>
</defs>
</svg>
