<svg width="100%" height="100%" viewBox="0 0 16 16" fill="none" xmlns="http://www.w3.org/2000/svg">
<path d="M8.04932 11.5167C8.24288 11.5167 8.40527 11.4512 8.53649 11.3202C8.66771 11.1892 8.73332 11.0269 8.73332 10.8334V8.01669C8.73332 7.82314 8.66788 7.66086 8.53699 7.52986C8.40621 7.39886 8.2441 7.33336 8.05066 7.33336C7.85721 7.33336 7.69482 7.39886 7.56349 7.52986C7.43227 7.66086 7.36666 7.82314 7.36666 8.01669V10.8334C7.36666 11.0269 7.4321 11.1892 7.56299 11.3202C7.69377 11.4512 7.85588 11.5167 8.04932 11.5167ZM8.00116 6.35002C8.22816 6.35002 8.41804 6.27497 8.57082 6.12486C8.7236 5.97464 8.79999 5.78858 8.79999 5.56669C8.79999 5.3228 8.72338 5.12575 8.57016 4.97552C8.41682 4.82519 8.22688 4.75002 8.00032 4.75002C7.76121 4.75002 7.56805 4.82519 7.42082 4.97552C7.2736 5.12575 7.19999 5.32002 7.19999 5.55836C7.19999 5.78725 7.27677 5.97641 7.43032 6.12586C7.58388 6.2753 7.77416 6.35002 8.00116 6.35002ZM8.00666 15.0834C7.01921 15.0834 6.09632 14.8996 5.23799 14.532C4.37966 14.1644 3.62866 13.6587 2.98499 13.015C2.34132 12.3714 1.83566 11.6207 1.46799 10.763C1.10043 9.90536 0.916656 8.98236 0.916656 7.99403C0.916656 7.00558 1.10043 6.08175 1.46799 5.22252C1.83566 4.36341 2.34043 3.61447 2.98232 2.97569C3.62421 2.33702 4.37438 1.83141 5.23282 1.45886C6.09138 1.0863 7.01532 0.900024 8.00466 0.900024C8.99399 0.900024 9.91893 1.08586 10.7795 1.45752C11.6399 1.8293 12.3891 2.3338 13.027 2.97102C13.6649 3.60825 14.1698 4.35752 14.5418 5.21886C14.9139 6.0803 15.1 7.00586 15.1 7.99552C15.1 8.98452 14.9137 9.90814 14.5412 10.7664C14.1686 11.6246 13.663 12.3738 13.0243 13.014C12.3855 13.6542 11.6365 14.1592 10.7772 14.5289C9.91771 14.8985 8.99421 15.0834 8.00666 15.0834Z" fill="currentColor"/>
</svg>
