<svg width="100%" height="100%" viewBox="0 0 48 48" fill="none" xmlns="http://www.w3.org/2000/svg">
  <path d="M30.4 13.5V5.89999H18.5V13.5H5.89999V40.6H41.7V13.5H30.4Z" fill="currentColor" />
  <path
    d="M6.80001 42.8C5.80001 42.8 5.00001 42.4 4.30001 41.7C3.60001 41 3.20001 40.1 3.20001 39.2V15.2C3.20001 14.2 3.60001 13.4 4.30001 12.7C5.00001 12 5.90001 11.6 6.80001 11.6H15.3V6.59999C15.3 5.59999 15.7 4.79999 16.4 4.09999C17.1 3.29999 18 2.89999 19 2.89999H29.1C30.1 2.89999 30.9 3.29999 31.6 3.99999C32.3 4.69999 32.7 5.59999 32.7 6.49999V11.5H41.2C42.2 11.5 43 11.9 43.7 12.6C44.4 13.3 44.8 14.2 44.8 15.1V39.1C44.8 40.1 44.4 40.9 43.7 41.6C43 42.3 42.1 42.7 41.2 42.7H6.80001V42.8ZM6.80001 39.2H41.1V15.2H6.80001V39.2ZM19 11.5H29.1V6.49999H19V11.5Z"
    fill="black" />
</svg>
