<svg width="100%" height="100%" viewBox="0 0 48 48" fill="none" xmlns="http://www.w3.org/2000/svg">
<mask id="mask0_966_5044" style="mask-type:alpha" maskUnits="userSpaceOnUse" x="0" y="0" width="48" height="48">
<rect width="100%" height="100%" fill="#D9D9D9"/>
</mask>
<g mask="url(#mask0_966_5044)">
<path d="M21.5 38.95C20.8083 38.95 20.2354 38.7221 19.7812 38.2663C19.3271 37.8104 19.1 37.2521 19.1 36.5913C19.1 35.9304 19.3271 35.375 19.7812 34.925C20.2354 34.475 20.8083 34.25 21.5 34.25H40.9C41.5542 34.25 42.1177 34.4779 42.5906 34.9338C43.0635 35.3896 43.3 35.948 43.3 36.6088C43.3 37.2696 43.0635 37.825 42.5906 38.275C42.1177 38.725 41.5542 38.95 40.9 38.95H21.5ZM21.5 26.35C20.8083 26.35 20.2354 26.1221 19.7812 25.6663C19.3271 25.2104 19.1 24.6521 19.1 23.9913C19.1 23.3304 19.3271 22.775 19.7812 22.325C20.2354 21.875 20.8083 21.65 21.5 21.65H40.9C41.5542 21.65 42.1177 21.8779 42.5906 22.3338C43.0635 22.7896 43.3 23.348 43.3 24.0088C43.3 24.6696 43.0635 25.225 42.5906 25.675C42.1177 26.125 41.5542 26.35 40.9 26.35H21.5ZM21.5 13.7C20.8083 13.7 20.2354 13.4721 19.7812 13.0163C19.3271 12.5604 19.1 12.0021 19.1 11.3413C19.1 10.6804 19.3271 10.125 19.7812 9.67501C20.2354 9.22501 20.8083 9.00001 21.5 9.00001H40.9C41.5542 9.00001 42.1177 9.22793 42.5906 9.68376C43.0635 10.1396 43.3 10.698 43.3 11.3588C43.3 12.0196 43.0635 12.575 42.5906 13.025C42.1177 13.475 41.5542 13.7 40.9 13.7H21.5ZM8.92125 40.75C7.77208 40.75 6.78958 40.3538 5.97375 39.5615C5.15792 38.7692 4.75 37.7864 4.75 36.6131C4.75 35.471 5.15398 34.4917 5.96195 33.675C6.76992 32.8583 7.75598 32.45 8.92015 32.45C10.0843 32.45 11.0553 32.8626 11.8332 33.6879C12.6111 34.5132 13 35.5053 13 36.6642C13 37.7956 12.6006 38.7594 11.8019 39.5557C11.0031 40.3519 10.0429 40.75 8.92125 40.75ZM8.92125 28.15C7.77208 28.15 6.78958 27.7423 5.97375 26.9268C5.15792 26.1113 4.75 25.131 4.75 23.9859C4.75 22.8407 5.1619 21.8651 5.9857 21.0591C6.8095 20.253 7.79598 19.85 8.94515 19.85C10.0668 19.85 11.023 20.2577 11.8138 21.0732C12.6046 21.8887 13 22.869 13 24.0142C13 25.1593 12.6006 26.1349 11.8019 26.941C11.0031 27.747 10.0429 28.15 8.92125 28.15ZM8.87125 15.5C7.73585 15.5 6.76512 15.0923 5.95905 14.2768C5.15302 13.4613 4.75 12.481 4.75 11.3359C4.75 10.1907 5.157 9.2151 5.971 8.40906C6.785 7.60303 7.75972 7.20001 8.89515 7.20001C10.0306 7.20001 10.9985 7.60774 11.7991 8.42321C12.5997 9.23871 13 10.219 13 11.3642C13 12.5093 12.5957 13.4849 11.7872 14.291C10.9786 15.097 10.0066 15.5 8.87125 15.5Z" fill="currentColor"/>
</g>
</svg>
