<svg width="100%" height="100%" viewBox="0 0 48 48" fill="none" xmlns="http://www.w3.org/2000/svg">
<path d="M22.4486 21.4958L20.5499 19.5623C20.2412 19.2479 19.863 19.0985 19.4153 19.1143C18.9677 19.13 18.5895 19.295 18.2808 19.6094C17.972 19.9238 17.8177 20.3089 17.8177 20.7648C17.8177 21.2207 17.972 21.6058 18.2808 21.9202L20.8741 24.5139C21.3063 24.9541 21.8312 25.1741 22.4486 25.1741C23.0661 25.1741 23.5909 24.9541 24.0232 24.5139L29.9508 18.4305C30.2595 18.1161 30.4062 17.7388 30.3907 17.2987C30.3753 16.8585 30.2132 16.4813 29.9045 16.1669C29.5958 15.8525 29.2253 15.6953 28.7931 15.6953C28.3608 15.6953 27.9904 15.8525 27.6816 16.1669L22.4486 21.4958ZM40 20.5526C40 22.7219 39.5601 24.8362 38.6802 26.8954C37.8003 28.9547 36.6889 30.9039 35.3459 32.743C34.0029 34.5822 32.5287 36.2956 30.9233 37.8833C29.3179 39.471 27.7897 40.8936 26.3386 42.1512C25.999 42.4341 25.6208 42.6463 25.2041 42.7878C24.7873 42.9293 24.3782 43 23.9768 43C23.5755 43 23.1664 42.9293 22.7496 42.7878C22.3329 42.6463 21.9701 42.4341 21.6614 42.1512C20.1795 40.8936 18.6358 39.471 17.0304 37.8833C15.425 36.2956 13.9508 34.5822 12.6078 32.743C11.2648 30.9039 10.1611 28.9547 9.29667 26.8954C8.43222 24.8362 8 22.7219 8 20.5526C8 15.5224 9.61312 11.506 12.8394 8.50363C16.0656 5.50121 19.7781 4 23.9768 4C28.1756 4 31.8958 5.50121 35.1375 8.50363C38.3792 11.506 40 15.5224 40 20.5526Z" fill="currentColor"/>
</svg>
