<svg width="100%" height="100%" viewBox="0 0 48 48" fill="none" xmlns="http://www.w3.org/2000/svg">
  <mask id="mask0_2327_4220" style="mask-type:alpha" maskUnits="userSpaceOnUse" x="0" y="0" width="48" height="48">
    <rect width="100%" height="100%" fill="#D9D9D9" />
  </mask>
  <g mask="url(#mask0_2327_4220)">
    <path
      d="M11.5059 41.1C9.80194 41.1 8.32498 40.5431 7.07498 39.4292C5.82498 38.3153 5.16664 36.9056 5.09998 35.2H3.19998C2.54164 35.2 1.98539 34.9729 1.53123 34.5188C1.07706 34.0646 0.849976 33.5083 0.849976 32.85V11.55C0.849976 10.2483 1.30789 9.13959 2.22373 8.22375C3.13956 7.30792 4.24831 6.85001 5.54998 6.85001H29.8C31.0916 6.85001 32.1979 7.31042 33.1187 8.23126C34.0396 9.15209 34.5 10.2583 34.5 11.55V14.6H37.05C37.7845 14.6 38.4804 14.7635 39.1376 15.0906C39.7948 15.4177 40.3489 15.8875 40.8 16.5L46.7 24.35C46.8333 24.5542 46.9416 24.7767 47.025 25.0175C47.1083 25.2582 47.15 25.5191 47.15 25.8V32.85C47.15 33.5083 46.9229 34.0646 46.4687 34.5188C46.0146 34.9729 45.4583 35.2 44.8 35.2H43C42.9 36.9 42.2269 38.3083 40.9809 39.425C39.7348 40.5417 38.2598 41.1 36.5559 41.1C34.8519 41.1 33.375 40.5431 32.125 39.4292C30.875 38.3153 30.2166 36.9056 30.15 35.2H17.9C17.8 36.8667 17.1353 38.2667 15.9059 39.4C14.6764 40.5333 13.2098 41.1 11.5059 41.1ZM11.5 37.5C12.3 37.5 12.9833 37.2167 13.55 36.65C14.1166 36.0833 14.4 35.4 14.4 34.6C14.4 33.8 14.1166 33.1167 13.55 32.55C12.9833 31.9833 12.3 31.7 11.5 31.7C10.7 31.7 10.0166 31.9833 9.44998 32.55C8.88331 33.1167 8.59998 33.8 8.59998 34.6C8.59998 35.4 8.88331 36.0833 9.44998 36.65C10.0166 37.2167 10.7 37.5 11.5 37.5ZM36.55 37.5C37.35 37.5 38.0333 37.2167 38.6 36.65C39.1666 36.0833 39.45 35.4 39.45 34.6C39.45 33.8 39.1666 33.1167 38.6 32.55C38.0333 31.9833 37.35 31.7 36.55 31.7C35.75 31.7 35.0666 31.9833 34.5 32.55C33.9333 33.1167 33.65 33.8 33.65 34.6C33.65 35.4 33.9333 36.0833 34.5 36.65C35.0666 37.2167 35.75 37.5 36.55 37.5ZM34.5 26.75H42.6L37.05 19.35H34.5V26.75Z"
      fill="currentColor" />
  </g>
</svg>
