<svg width="100%" height="100%" viewBox="0 0 48 48" fill="none" xmlns="http://www.w3.org/2000/svg">
<mask id="mask0_1603_8279" style="mask-type:alpha" maskUnits="userSpaceOnUse" x="0" y="0" width="48" height="48">
<rect width="100%" height="100%" fill="#D9D9D9"/>
</mask>
<g mask="url(#mask0_1603_8279)">
<path d="M11.45 45.15C10.1575 45.15 9.05103 44.6898 8.1306 43.7694C7.2102 42.849 6.75 41.7425 6.75 40.45V19.65C6.75 18.3437 7.2102 17.2255 8.1306 16.2953C9.05103 15.3651 10.1575 14.9 11.45 14.9H13.95V11.2C13.95 8.36033 14.9228 5.95042 16.8683 3.97025C18.8138 1.99008 21.1888 1 23.9933 1C26.7978 1 29.175 1.99008 31.125 3.97025C33.075 5.95042 34.05 8.36033 34.05 11.2V14.9H36.55C37.8563 14.9 38.9745 15.3651 39.9047 16.2953C40.8349 17.2255 41.3 18.3437 41.3 19.65V40.45C41.3 41.7425 40.8349 42.849 39.9047 43.7694C38.9745 44.6898 37.8563 45.15 36.55 45.15H11.45ZM24.0084 33.9C25.0695 33.9 25.975 33.5328 26.725 32.7985C27.475 32.0641 27.85 31.1813 27.85 30.15C27.85 29.15 27.4722 28.2417 26.7166 27.425C25.961 26.6083 25.0527 26.2 23.9916 26.2C22.9305 26.2 22.025 26.6083 21.275 27.425C20.525 28.2417 20.15 29.1583 20.15 30.175C20.15 31.1917 20.5278 32.0667 21.2834 32.8C22.039 33.5333 22.9473 33.9 24.0084 33.9ZM18.65 14.9H29.35V11.2116C29.35 9.65385 28.8392 8.35417 27.8177 7.3125C26.7961 6.27083 25.5294 5.75 24.0177 5.75C22.5059 5.75 21.2333 6.27083 20.2 7.3125C19.1667 8.35417 18.65 9.65385 18.65 11.2116V14.9Z" fill="currentColor"/>
</g>
</svg>
