<svg width="100%" height="100%" viewBox="0 0 48 48" fill="none" xmlns="http://www.w3.org/2000/svg">
<mask id="mask0_1603_8321" style="mask-type:alpha" maskUnits="userSpaceOnUse" x="0" y="0" width="48" height="48">
<rect width="100%" height="100%" fill="#D9D9D9"/>
</mask>
<g mask="url(#mask0_1603_8321)">
<path d="M9.45 43.25C8.14833 43.25 7.03958 42.7921 6.12375 41.8763C5.20792 40.9604 4.75 39.8517 4.75 38.55V9.45001C4.75 8.13458 5.20792 7.01406 6.12375 6.08846C7.03958 5.16283 8.14833 4.70001 9.45 4.70001H21.9C22.5583 4.70001 23.1146 4.93773 23.5688 5.41316C24.0229 5.8886 24.25 6.45526 24.25 7.11316C24.25 7.77106 24.0229 8.32501 23.5688 8.77501C23.1146 9.22501 22.5583 9.45001 21.9 9.45001H9.45V38.55H21.9C22.5583 38.55 23.1146 38.7779 23.5688 39.2338C24.0229 39.6896 24.25 40.248 24.25 40.9088C24.25 41.5696 24.0229 42.125 23.5688 42.575C23.1146 43.025 22.5583 43.25 21.9 43.25H9.45ZM34.3 26.35H20.05C19.3917 26.35 18.8354 26.1221 18.3813 25.6663C17.9271 25.2104 17.7 24.6521 17.7 23.9913C17.7 23.3304 17.9271 22.775 18.3813 22.325C18.8354 21.875 19.3917 21.65 20.05 21.65H34.2L31 18.45C30.5333 17.9764 30.3083 17.4163 30.325 16.7698C30.3417 16.1233 30.5833 15.575 31.05 15.125C31.5167 14.6417 32.0692 14.4083 32.7076 14.425C33.346 14.4417 33.9101 14.6833 34.4 15.15L41.65 22.4C42.0833 22.8788 42.3 23.4318 42.3 24.0591C42.3 24.6864 42.0833 25.2333 41.65 25.7L34.45 32.9C33.99 33.3667 33.4417 33.6 32.805 33.6C32.1683 33.6 31.6102 33.3667 31.1305 32.9C30.6768 32.4333 30.441 31.8771 30.4229 31.2313C30.4049 30.5854 30.6472 30.025 31.15 29.55L34.3 26.35Z" fill="currentColor"/>
</g>
</svg>
