<svg width="100%" height="100%" viewBox="0 0 12 12" fill="none" xmlns="http://www.w3.org/2000/svg">
<mask id="mask0_3554_29743" style="mask-type:alpha" maskUnits="userSpaceOnUse" x="0" y="0" width="12" height="12">
<rect width="12" height="12" fill="#D9D9D9"/>
</mask>
<g mask="url(#mask0_3554_29743)">
<path d="M3.31877 7.9123C3.42294 7.9123 3.51252 7.87689 3.58752 7.80605C3.66252 7.73522 3.70002 7.64772 3.70002 7.54355C3.70002 7.43939 3.66252 7.3498 3.58752 7.2748C3.51252 7.1998 3.42502 7.1623 3.32502 7.1623C3.21669 7.1623 3.12711 7.1998 3.05627 7.2748C2.98544 7.3498 2.95002 7.4373 2.95002 7.5373C2.95002 7.64564 2.98544 7.73522 3.05627 7.80605C3.12711 7.87689 3.21461 7.9123 3.31877 7.9123ZM3.32721 6.3498C3.42575 6.3498 3.51252 6.31327 3.58752 6.24019C3.66252 6.16712 3.70002 6.07657 3.70002 5.96855V4.3873C3.70002 4.28939 3.6618 4.20241 3.58534 4.12637C3.50887 4.05033 3.41929 4.0123 3.31659 4.0123C3.21388 4.0123 3.12711 4.05033 3.05627 4.12637C2.98544 4.20241 2.95002 4.28939 2.95002 4.3873V5.96855C2.95002 6.07657 2.98617 6.16712 3.05846 6.24019C3.13076 6.31327 3.22035 6.3498 3.32721 6.3498ZM5.49537 7.3498H8.69217C8.78699 7.3498 8.87242 7.31366 8.94846 7.24137C9.0245 7.16907 9.06252 7.07948 9.06252 6.97262C9.06252 6.86574 9.0245 6.77689 8.94846 6.70605C8.87242 6.63522 8.78699 6.5998 8.69217 6.5998H5.49537C5.39222 6.5998 5.30471 6.63595 5.23284 6.70824C5.16096 6.78054 5.12502 6.87013 5.12502 6.97699C5.12502 7.08387 5.16096 7.17272 5.23284 7.24355C5.30471 7.31439 5.39222 7.3498 5.49537 7.3498ZM5.49894 5.2623H8.69217C8.78699 5.2623 8.87242 5.22616 8.94846 5.15387C9.0245 5.08157 9.06252 4.99198 9.06252 4.88512C9.06252 4.78658 9.0245 4.6998 8.94846 4.6248C8.87242 4.5498 8.78699 4.5123 8.69217 4.5123H5.49894C5.39478 4.5123 5.30642 4.55053 5.23386 4.62699C5.1613 4.70346 5.12502 4.79304 5.12502 4.89574C5.12502 4.99845 5.1613 5.08522 5.23386 5.15605C5.30642 5.22689 5.39478 5.2623 5.49894 5.2623ZM1.76252 10.3123C1.43711 10.3123 1.15992 10.1978 0.930962 9.96887C0.702004 9.73991 0.587524 9.46272 0.587524 9.1373V2.8623C0.587524 2.53345 0.702004 2.25332 0.930962 2.02192C1.15992 1.79051 1.43711 1.6748 1.76252 1.6748H10.2375C10.5664 1.6748 10.8465 1.79051 11.0779 2.02192C11.3093 2.25332 11.425 2.53345 11.425 2.8623V9.1373C11.425 9.46272 11.3093 9.73991 11.0779 9.96887C10.8465 10.1978 10.5664 10.3123 10.2375 10.3123H1.76252Z" fill="currentColor"/>
</g>
</svg>
