<svg width="24" height="24" viewBox="0 0 24 24" fill="none" xmlns="http://www.w3.org/2000/svg">
<path d="M11 22V19.9375C7.38134 19.4862 4.51377 16.6187 4.0625 13H2C1.44772 13 1 12.5523 1 12C1 11.4477 1.44772 11 2 11H4.0625C4.51378 7.38132 7.38131 4.51326 11 4.06201V2C11 1.44772 11.4477 1 12 1C12.5523 1 13 1.44772 13 2V4.06201C16.6187 4.51326 19.4862 7.38132 19.9375 11H22C22.5523 11 23 11.4477 23 12C23 12.5523 22.5523 13 22 13H19.9375C19.4862 16.6187 16.6187 19.4862 13 19.9375V22C13 22.5523 12.5523 23 12 23C11.4477 23 11 22.5523 11 22ZM12 6C8.68629 6 6 8.68629 6 12C6 15.3137 8.68629 18 12 18C15.3137 18 18 15.3137 18 12C18 8.68629 15.3137 6 12 6ZM14 12C14 10.8954 13.1046 10 12 10C10.8954 10 10 10.8954 10 12C10 13.1046 10.8954 14 12 14C13.1046 14 14 13.1046 14 12ZM16 12C16 14.2091 14.2091 16 12 16C9.79086 16 8 14.2091 8 12C8 9.79086 9.79086 8 12 8C14.2091 8 16 9.79086 16 12Z" fill="currentColor"/>
</svg>
