<svg width="100%" height="100%" viewBox="0 0 48 48" fill="none" xmlns="http://www.w3.org/2000/svg">
  <path
    d="M27.6656 27.6207L41.5396 22.2671C42.0264 22.0725 42.3915 21.7723 42.6349 21.3668C42.8783 20.9612 43 20.5313 43 20.077C43 19.6228 42.8783 19.2091 42.6349 18.836C42.3915 18.4629 42.0264 18.1627 41.5396 17.9356L8.19344 5.18443C7.73909 4.98975 7.29285 4.9492 6.85472 5.06276C6.4166 5.17632 6.0515 5.3791 5.75941 5.67112C5.43488 5.99557 5.2077 6.37681 5.07789 6.81483C4.94807 7.25285 4.98052 7.69898 5.17525 8.15322L17.9782 41.4913C18.1729 42.0104 18.4569 42.3916 18.8301 42.635C19.2033 42.8783 19.6171 43 20.0715 43C20.5583 43 21.0045 42.8783 21.4102 42.635C21.8159 42.3916 22.1161 42.0104 22.3108 41.4913L27.6656 27.6207Z"
    fill="currentColor" />
</svg>
