<svg width="49" height="47" viewBox="0 0 49 47" fill="none" xmlns="http://www.w3.org/2000/svg">
<path d="M34.9762 36.4452H13.1039L12.5952 17.1964L16.1558 10.1047L23.7857 7.06543L30.9069 9.09162L34.9762 15.1702V36.4452Z" fill="currentColor"/>
<path d="M8.60227 38.1675C8.1483 38.1675 7.76776 38.0137 7.46065 37.7061C7.15355 37.3985 7 37.0173 7 36.5626C7 36.1078 7.15355 35.7297 7.46065 35.4283C7.76776 35.1269 8.1483 34.9762 8.60227 34.9762H11.2727V18.8073C11.2727 15.8288 12.154 13.1605 13.9165 10.8025C15.679 8.44455 18.0023 6.96417 20.8864 6.36137V5.19125C20.8864 4.30479 21.1979 3.5513 21.821 2.93078C22.4441 2.31026 23.2008 2 24.0909 2C24.9811 2 25.7377 2.31026 26.3608 2.93078C26.9839 3.5513 27.2955 4.30479 27.2955 5.19125V6.36137C30.1796 6.96417 32.5029 8.44455 34.2654 10.8025C36.0279 13.1605 36.9091 15.8288 36.9091 18.8073V34.9762H39.5796C40.0335 34.9762 40.4141 35.1301 40.7212 35.4377C41.0283 35.7453 41.1818 36.1265 41.1818 36.5812C41.1818 37.0359 41.0283 37.414 40.7212 37.7154C40.4141 38.0168 40.0335 38.1675 39.5796 38.1675H8.60227ZM24.0909 44.55C22.9159 44.55 21.91 44.1334 21.0733 43.3001C20.2366 42.4668 19.8182 41.4651 19.8182 40.295H28.3636C28.3636 41.4651 27.9453 42.4668 27.1085 43.3001C26.2718 44.1334 25.2659 44.55 24.0909 44.55ZM14.4773 34.9762H33.7046V18.8073C33.7046 16.1479 32.7699 13.8874 30.9006 12.0258C29.0313 10.1643 26.7614 9.2335 24.0909 9.2335C21.4205 9.2335 19.1506 10.1643 17.2813 12.0258C15.4119 13.8874 14.4773 16.1479 14.4773 18.8073V34.9762Z" fill="#211F1F"/>
</svg>
