<svg width="25" height="24" viewBox="0 0 25 24" fill="none"
    xmlns="http://www.w3.org/2000/svg">
    <path d="M21.5 16.5L4 17L3.5 16L4.5 15L6.5 11V8L7 5.5L10 2.5L13 2L16 3L18.5 6L19 12L21.5 15.5V16.5Z" fill="currentColor" opacity="0.2"/>
    <path d="M13.4216 20.4141C13.7181 20.003 14.2838 19.8749 14.7322 20.1338C15.2104 20.41 15.3741 21.0217 15.0979 21.5C14.8346 21.956 14.4558 22.3349 13.9998 22.5981C13.5438 22.8613 13.0267 23 12.5002 23C11.9737 23 11.4562 22.8614 11.0002 22.5981C10.6012 22.3678 10.2612 22.049 10.0061 21.6675L9.9021 21.5L9.85522 21.4087C9.64758 20.9464 9.81952 20.3927 10.2678 20.1338C10.7162 19.8749 11.2819 20.003 11.5784 20.4141L11.634 20.5L11.6687 20.5557C11.7537 20.6829 11.8672 20.7889 12.0002 20.8657C12.1522 20.9535 12.3247 21 12.5002 21C12.6757 21 12.8478 20.9534 12.9998 20.8657C13.1517 20.778 13.2782 20.652 13.366 20.5L13.4216 20.4141ZM17.5002 8C17.5002 6.67392 16.9731 5.40204 16.0354 4.46436C15.0978 3.52681 13.8262 3.00006 12.5002 3C11.1742 3 9.90227 3.52675 8.9646 4.46436C8.02691 5.40204 7.50024 6.67392 7.50024 8C7.50024 10.3543 7.13075 11.9982 6.53296 13.2637C5.94256 14.5134 5.15938 15.3206 4.50122 16H20.4998C19.8401 15.3201 19.0572 14.5129 18.467 13.2637C17.8691 11.998 17.5002 10.3541 17.5002 8ZM19.5002 8C19.5002 10.1448 19.8361 11.4789 20.2756 12.4092C20.6612 13.2252 21.1503 13.7886 21.7126 14.3765L21.9578 14.6309L21.9797 14.6538C22.2406 14.9405 22.4123 15.2971 22.4744 15.6797C22.5364 16.0623 22.4861 16.4546 22.3293 16.8091C22.1726 17.1635 21.9163 17.4648 21.5915 17.6763C21.2669 17.8876 20.8876 18 20.5002 18H4.49926C4.11164 17.9997 3.73258 17.8866 3.40796 17.6748C3.08332 17.463 2.82703 17.1613 2.67065 16.8066C2.51435 16.452 2.46455 16.0597 2.5271 15.6772C2.58969 15.2947 2.76192 14.9382 3.02319 14.6519L3.0437 14.6304C3.70823 13.9443 4.2838 13.3418 4.72436 12.4092C5.13636 11.537 5.45781 10.3099 5.49633 8.39258L5.50024 8C5.50024 6.14354 6.23737 4.36304 7.55005 3.05029C8.8628 1.73754 10.6437 1 12.5002 1C14.3567 1.00006 16.1372 1.7376 17.4499 3.05029C18.7626 4.36304 19.5002 6.14354 19.5002 8Z" fill="currentColor"/>
</svg>
