<svg width="100%" height="100%" viewBox="0 0 14 16" fill="none" xmlns="http://www.w3.org/2000/svg">
<path d="M2.03334 13.0833C1.81112 13.0833 1.62501 13.0083 1.47501 12.8583C1.32501 12.7083 1.25001 12.5222 1.25001 12.3C1.25001 12.0778 1.32501 11.8917 1.47501 11.7417C1.62501 11.5917 1.81112 11.5167 2.03334 11.5167H2.43334V6.86666C2.43334 5.83333 2.72779 4.89722 3.31668 4.05833C3.90557 3.21944 4.70557 2.68888 5.71668 2.46666V2.19999C5.71668 1.83333 5.84168 1.52499 6.09168 1.27499C6.34168 1.02499 6.64445 0.899994 7.00001 0.899994C7.35557 0.899994 7.65834 1.02499 7.90834 1.27499C8.15834 1.52499 8.28334 1.83333 8.28334 2.19999V2.46666C9.29445 2.67777 10.0972 3.20555 10.6917 4.04999C11.2861 4.89444 11.5833 5.83333 11.5833 6.86666V11.5167H11.9667C12.1889 11.5167 12.3778 11.5917 12.5333 11.7417C12.6889 11.8917 12.7667 12.0778 12.7667 12.3C12.7667 12.5222 12.6889 12.7083 12.5333 12.8583C12.3778 13.0083 12.1889 13.0833 11.9667 13.0833H2.03334ZM7.01668 15.2333C6.60557 15.2333 6.25557 15.0889 5.96668 14.8C5.67779 14.5111 5.53334 14.1611 5.53334 13.75H8.48334C8.48334 14.1611 8.3389 14.5111 8.05001 14.8C7.76112 15.0889 7.41668 15.2333 7.01668 15.2333ZM0.85001 6.84999C0.65001 6.84999 0.480565 6.77777 0.341677 6.63333C0.202788 6.48888 0.144454 6.31666 0.166677 6.11666C0.255565 5.27222 0.491677 4.47777 0.87501 3.73333C1.25834 2.98888 1.75001 2.34444 2.35001 1.79999C2.49445 1.65555 2.67223 1.59166 2.88334 1.60833C3.09445 1.62499 3.26112 1.71666 3.38334 1.88333C3.49445 2.04999 3.53057 2.23611 3.49168 2.44166C3.45279 2.64722 3.36112 2.82222 3.21668 2.96666C2.78334 3.38888 2.42779 3.86388 2.15001 4.39166C1.87223 4.91944 1.69445 5.49999 1.61668 6.13333C1.59445 6.34444 1.51112 6.51666 1.36668 6.64999C1.22223 6.78333 1.05001 6.84999 0.85001 6.84999ZM13.15 6.84999C12.95 6.84999 12.7778 6.78333 12.6333 6.64999C12.4889 6.51666 12.4056 6.34444 12.3833 6.13333C12.3056 5.49999 12.1278 4.91944 11.85 4.39166C11.5722 3.86388 11.2167 3.38888 10.7833 2.96666C10.6389 2.82222 10.5472 2.64722 10.5083 2.44166C10.4695 2.23611 10.5111 2.04999 10.6333 1.88333C10.7445 1.71666 10.9056 1.62499 11.1167 1.60833C11.3278 1.59166 11.5056 1.65555 11.65 1.79999C12.25 2.34444 12.7417 2.98888 13.125 3.73333C13.5083 4.47777 13.7445 5.27222 13.8333 6.11666C13.8556 6.31666 13.7972 6.48888 13.6583 6.63333C13.5195 6.77777 13.35 6.84999 13.15 6.84999Z" fill="currentColor"/>
</svg>
