<svg width="100%" height="100%" viewBox="0 0 16 16" fill="none" xmlns="http://www.w3.org/2000/svg">
<mask id="mask0_3554_29742" style="mask-type:alpha" maskUnits="userSpaceOnUse" x="0" y="0" width="16" height="16">
<rect width="16" height="16" fill="#D9D9D9"/>
</mask>
<g mask="url(#mask0_3554_29742)">
<path d="M7.99617 14.4169C6.40983 14.4169 5.05556 13.8752 3.93333 12.7919C2.81111 11.7085 2.25 10.3739 2.25 8.78783C2.25 7.98891 2.4 7.24123 2.7 6.54481C3 5.8484 3.42222 5.23908 3.96667 4.71686L7.16667 1.5502C7.27778 1.42797 7.40833 1.33908 7.55833 1.28353C7.70833 1.22797 7.85556 1.2002 8 1.2002C8.14444 1.2002 8.29167 1.22797 8.44167 1.28353C8.59167 1.33908 8.72222 1.42797 8.83333 1.5502L12.0333 4.71686C12.5785 5.23501 13.0037 5.84266 13.3089 6.53981C13.6141 7.23697 13.7667 7.98544 13.7667 8.78523C13.7667 10.373 13.2015 11.7085 12.0712 12.7919C10.9408 13.8752 9.58251 14.4169 7.99617 14.4169ZM3.86667 9.33353H12.1667C12.2556 8.61131 12.1778 7.95297 11.9333 7.35853C11.6889 6.76408 11.4111 6.31686 11.1 6.01686L8 2.96686L4.9 6.01686C4.58889 6.31686 4.31389 6.76408 4.075 7.35853C3.83611 7.95297 3.76667 8.61131 3.86667 9.33353Z" fill="currentColor"/>
</g>
</svg>
