<svg width="100%" height="100%" viewBox="0 0 48 48" fill="none" xmlns="http://www.w3.org/2000/svg">
  <mask id="mask0_1163_18819" style="mask-type:alpha" maskUnits="userSpaceOnUse" x="0" y="0" width="48" height="48">
    <rect width="100%" height="100%" fill="#D9D9D9" />
  </mask>
  <g mask="url(#mask0_1163_18819)">
    <path d="M33.1396 3.77289H5.65935L4.77289 41.8906L43.7771 42.7771V16.1833L33.1396 3.77289Z" fill="currentColor" />
    <path
      d="M6.54583 44.55C5.60028 44.55 4.77292 44.1954 4.06375 43.4863C3.35458 42.7771 3 41.9497 3 41.0042V5.54583C3 4.60028 3.35458 3.77292 4.06375 3.06375C4.77292 2.35458 5.60028 2 6.54583 2H32.3713C32.8616 2 33.3289 2.0985 33.7732 2.29549C34.2176 2.49248 34.5973 2.74856 34.9125 3.06375L44.4863 12.6375C44.8014 12.9527 45.0575 13.3324 45.2545 13.7768C45.4515 14.2211 45.55 14.6884 45.55 15.1787V41.0042C45.55 41.9497 45.1954 42.7771 44.4863 43.4863C43.7771 44.1954 42.9497 44.55 42.0042 44.55H6.54583ZM6.54583 41.0042H42.0042V15.6515H33.6715C33.1691 15.6515 32.7481 15.4816 32.4083 15.1417C32.0684 14.8019 31.8985 14.3809 31.8985 13.8785V5.54583H6.54583V41.0042ZM34.3806 34.4444C34.8829 34.4444 35.304 34.2735 35.6438 33.9317C35.9836 33.5899 36.1535 33.1664 36.1535 32.6611C36.1535 32.1558 35.9836 31.7358 35.6438 31.4009C35.304 31.066 34.8829 30.8985 34.3806 30.8985H14.1694C13.667 30.8985 13.246 31.0694 12.9062 31.4112C12.5664 31.753 12.3965 32.1766 12.3965 32.6818C12.3965 33.1871 12.5664 33.6072 12.9062 33.942C13.246 34.2769 13.667 34.4444 14.1694 34.4444H34.3806ZM22.5021 15.6515C23.0044 15.6515 23.4255 15.4806 23.7653 15.1388C24.1051 14.797 24.275 14.3734 24.275 13.8682C24.275 13.3629 24.1051 12.9428 23.7653 12.608C23.4255 12.2731 23.0044 12.1056 22.5021 12.1056H14.1694C13.667 12.1056 13.246 12.2765 12.9062 12.6183C12.5664 12.9601 12.3965 13.3836 12.3965 13.8889C12.3965 14.3942 12.5664 14.8142 12.9062 15.1491C13.246 15.484 13.667 15.6515 14.1694 15.6515H22.5021ZM34.3806 25.0479C34.8829 25.0479 35.304 24.877 35.6438 24.5352C35.9836 24.1934 36.1535 23.7699 36.1535 23.2647C36.1535 22.7594 35.9836 22.3393 35.6438 22.0044C35.304 21.6695 34.8829 21.5021 34.3806 21.5021H14.1694C13.667 21.5021 13.246 21.673 12.9062 22.0148C12.5664 22.3566 12.3965 22.7801 12.3965 23.2853C12.3965 23.7906 12.5664 24.2107 12.9062 24.5456C13.246 24.8805 13.667 25.0479 14.1694 25.0479H34.3806Z"
      fill="#211F1F" />
  </g>
</svg>
