<svg width="100%" height="100%" viewBox="0 0 29 28" fill="none" xmlns="http://www.w3.org/2000/svg">
<path d="M4.90893 28C4.03592 28 3.30219 27.7028 2.70776 27.1083C2.11332 26.5139 1.8161 25.7802 1.8161 24.9072V9.17979C1.42127 8.9428 1.10321 8.60511 0.861927 8.16672C0.620642 7.72833 0.5 7.25442 0.5 6.74501V3.12573C0.5 2.24366 0.797219 1.50219 1.39166 0.90133C1.98609 0.300443 2.71982 0 3.59283 0H25.3743C26.2563 0 26.9978 0.300443 27.5987 0.90133C28.1996 1.50219 28.5 2.24366 28.5 3.12573V6.74501C28.5 7.25442 28.3739 7.72725 28.1216 8.1635C27.8694 8.59974 27.5568 8.9385 27.1839 9.17979V24.9072C27.1839 25.7802 26.8835 26.5139 26.2826 27.1083C25.6817 27.7028 24.9402 28 24.0582 28H4.90893ZM3.59283 6.74501H25.4072V3.12573H3.59283V6.74501ZM11.4236 16.5828H17.5764C17.9378 16.5828 18.2474 16.4527 18.5054 16.1924C18.7635 15.932 18.8925 15.6194 18.8925 15.2546C18.8925 14.8898 18.7635 14.5813 18.5054 14.329C18.2474 14.0768 17.9378 13.9506 17.5764 13.9506H11.4236C11.0622 13.9506 10.7526 14.0808 10.4946 14.3411C10.2365 14.6015 10.1075 14.9141 10.1075 15.2789C10.1075 15.6437 10.2365 15.9522 10.4946 16.2045C10.7526 16.4567 11.0622 16.5828 11.4236 16.5828Z" fill="currentColor"/>
</svg>
