<svg width="100%" height="100%" viewBox="0 0 48 48" fill="none" xmlns="http://www.w3.org/2000/svg">
<mask id="mask0_1550_9235" style="mask-type:alpha" maskUnits="userSpaceOnUse" x="0" y="0" width="48" height="48">
<rect width="100%" height="100%" fill="#D9D9D9"/>
</mask>
<g mask="url(#mask0_1550_9235)">
<path d="M22.5 45.2V24.65L4.75 14.5V32.25C4.75 33.0834 4.95 33.8667 5.35 34.6C5.75 35.3334 6.33333 35.9167 7.1 36.35L22.5 45.2ZM25.5 45.2L40.9 36.35C41.6667 35.9167 42.2583 35.3334 42.675 34.6C43.0917 33.8667 43.3 33.0834 43.3 32.25V14.4L25.5 24.6V45.2ZM34.25 16.15L41.5 12L26.35 3.25002C25.6167 2.85002 24.8333 2.65002 24 2.65002C23.1667 2.65002 22.3833 2.85002 21.65 3.25002L16.75 6.10002L34.25 16.15ZM23.95 22.1L31.15 17.9L13.6 7.85002L6.45 12.05L23.95 22.1Z" fill="#211F1F"/>
</g>
</svg>
