<svg width="100%" height="100%" viewBox="0 0 48 48" fill="none" xmlns="http://www.w3.org/2000/svg">
  <mask id="mask0_4181_45" style="mask-type:alpha" maskUnits="userSpaceOnUse" x="3" y="3" width="42" height="42">
    <rect x="3" y="3" width="42" height="42" fill="#D9D9D9" />
  </mask>
  <g mask="url(#mask0_4181_45)">
    <path
      d="M22.425 34.5V35.2437C22.425 35.5296 22.5358 35.7687 22.7575 35.9612C22.9792 36.1537 23.2183 36.25 23.475 36.25H24.5687C24.8312 36.25 25.0646 36.145 25.2687 35.935C25.4729 35.725 25.575 35.48 25.575 35.2V34.5H27.9375C28.4085 34.5 28.7888 34.3594 29.0783 34.0784C29.3678 33.7973 29.5125 33.431 29.5125 32.9796V27.0187C29.5125 26.5725 29.3678 26.1984 29.0783 25.8965C28.7888 25.5947 28.4049 25.4437 27.9266 25.4437H21.6375V22.6437H27.9812C28.4151 22.6437 28.7788 22.4925 29.0723 22.19C29.3658 21.8876 29.5125 21.5128 29.5125 21.0657C29.5125 20.6309 29.3658 20.2676 29.0723 19.9756C28.7788 19.6835 28.4151 19.5375 27.9812 19.5375H25.575V18.7937C25.575 18.5312 25.4642 18.2979 25.2425 18.0937C25.0208 17.8896 24.7817 17.7875 24.525 17.7875H23.4312C23.1687 17.7875 22.9354 17.8896 22.7312 18.0937C22.5271 18.2979 22.425 18.5312 22.425 18.7937V19.5375H20.0625C19.5915 19.5375 19.2112 19.6842 18.9217 19.9777C18.6322 20.2712 18.4875 20.6349 18.4875 21.0687V27.0296C18.4875 27.4934 18.6322 27.87 18.9217 28.1595C19.2112 28.449 19.5951 28.5937 20.0733 28.5937H26.3625V31.3937H20.0187C19.5849 31.3937 19.2212 31.5413 18.9277 31.8364C18.6342 32.1315 18.4875 32.4972 18.4875 32.9334C18.4875 33.3945 18.6384 33.7708 18.9403 34.0625C19.2422 34.3542 19.6162 34.5 20.0625 34.5H22.425ZM13.0187 42.5937C11.8798 42.5937 10.9096 42.1931 10.1083 41.3917C9.30693 40.5904 8.90625 39.6202 8.90625 38.4812V9.51874C8.90625 8.36773 9.30693 7.38728 10.1083 6.57738C10.9096 5.76745 11.8798 5.36249 13.0187 5.36249H28.2437L39.1375 16.2562V38.4812C39.1375 39.6202 38.7325 40.5904 37.9226 41.3917C37.1127 42.1931 36.1323 42.5937 34.9812 42.5937H13.0187ZM27.2375 9.51874V15.2062C27.2375 15.7823 27.4362 16.269 27.8336 16.6664C28.231 17.0638 28.7177 17.2625 29.2937 17.2625H34.9812L27.2375 9.51874Z"
      fill="currentColor" />
  </g>
</svg>
