<svg width="100%" height="100%" viewBox="0 0 16 13" fill="none" xmlns="http://www.w3.org/2000/svg">
<path d="M1.84999 12.7167C1.4191 12.7167 1.05027 12.5633 0.743492 12.2565C0.436714 11.9497 0.283325 11.5809 0.283325 11.15V4.44999C0.283325 4.23055 0.359325 4.0451 0.511325 3.89366C0.663214 3.74233 0.849325 3.66666 1.06966 3.66666C1.28988 3.66666 1.47499 3.74233 1.62499 3.89366C1.77499 4.0451 1.84999 4.23055 1.84999 4.44999V11.15H12.55C12.7694 11.15 12.9549 11.226 13.1063 11.378C13.2577 11.5299 13.3333 11.716 13.3333 11.9363C13.3333 12.1566 13.2577 12.3417 13.1063 12.4917C12.9549 12.6417 12.7694 12.7167 12.55 12.7167H1.84999ZM4.24999 10.3333C3.80855 10.3333 3.43433 10.1798 3.12733 9.87266C2.82021 9.56566 2.66666 9.19144 2.66666 8.74999V2.48333C2.66666 2.04788 2.82021 1.67516 3.12733 1.36516C3.43433 1.05505 3.80855 0.899994 4.24999 0.899994H14.15C14.5808 0.899994 14.9496 1.05505 15.2565 1.36516C15.5633 1.67516 15.7167 2.04788 15.7167 2.48333V8.74999C15.7167 9.19144 15.5633 9.56566 15.2565 9.87266C14.9496 10.1798 14.5808 10.3333 14.15 10.3333H4.24999ZM5.71666 8.94999C5.71666 8.48333 5.55555 8.08888 5.23333 7.76666C4.9111 7.44444 4.51666 7.28333 4.04999 7.28333V8.94999H5.71666ZM12.6667 8.94999H14.3333V7.28333C13.8667 7.28333 13.4722 7.44444 13.15 7.76666C12.8278 8.08888 12.6667 8.48333 12.6667 8.94999ZM9.18333 7.61666C9.73888 7.61666 10.2111 7.42222 10.6 7.03333C10.9889 6.64444 11.1833 6.17222 11.1833 5.61666C11.1833 5.06111 10.9889 4.58888 10.6 4.19999C10.2111 3.81111 9.73888 3.61666 9.18333 3.61666C8.62777 3.61666 8.15555 3.81111 7.76666 4.19999C7.37777 4.58888 7.18333 5.06111 7.18333 5.61666C7.18333 6.17222 7.37777 6.64444 7.76666 7.03333C8.15555 7.42222 8.62777 7.61666 9.18333 7.61666ZM4.04999 3.94999C4.51666 3.94999 4.9111 3.78611 5.23333 3.45833C5.55555 3.13055 5.71666 2.73888 5.71666 2.28333H4.04999V3.94999ZM14.3333 3.94999V2.28333H12.6667C12.6667 2.73888 12.8278 3.13055 13.15 3.45833C13.4722 3.78611 13.8667 3.94999 14.3333 3.94999Z" fill="currentColor"/>
</svg>
