<svg width="24" height="24" viewBox="0 0 24 24" fill="none" xmlns="http://www.w3.org/2000/svg">
<mask id="mask0_126_8916" style="mask-type:alpha" maskUnits="userSpaceOnUse" x="0" y="0" width="24" height="24">
<rect width="24" height="24" fill="#D9D9D9"/>
</mask>
<g mask="url(#mask0_126_8916)">
<path d="M19.925 21.625C17.8917 21.625 15.8333 21.1416 13.75 20.175C11.6667 19.2083 9.74167 17.8416 7.975 16.075C6.19167 14.2916 4.8125 12.3541 3.8375 10.2625C2.8625 8.17081 2.375 6.11664 2.375 4.09998C2.375 3.61664 2.54167 3.20414 2.875 2.86248C3.20833 2.52081 3.61667 2.34998 4.1 2.34998H7.6C8.11667 2.34998 8.5375 2.48748 8.8625 2.76248C9.1875 3.03748 9.40833 3.43331 9.525 3.94998L10.2 6.69998C10.2667 7.13331 10.2542 7.51664 10.1625 7.84998C10.0708 8.18331 9.89167 8.46664 9.625 8.69998L7.025 11.075C7.39167 11.675 7.78333 12.2416 8.2 12.775C8.61667 13.3083 9.09167 13.825 9.625 14.325C10.175 14.9083 10.7292 15.4166 11.2875 15.85C11.8458 16.2833 12.4167 16.65 13 16.95L15.5 14.425C15.7833 14.125 16.1 13.925 16.45 13.825C16.8 13.725 17.175 13.725 17.575 13.825L20.05 14.4C20.5667 14.55 20.9625 14.7916 21.2375 15.125C21.5125 15.4583 21.65 15.875 21.65 16.375V19.9C21.65 20.3833 21.4792 20.7916 21.1375 21.125C20.7958 21.4583 20.3917 21.625 19.925 21.625Z" fill="#1C1B1F"/>
</g>
</svg>
