<svg width="100%" height="100%" viewBox="0 0 48 48" fill="none" xmlns="http://www.w3.org/2000/svg">
  <mask id="mask0_3214_6206" style="mask-type:alpha" maskUnits="userSpaceOnUse" x="0" y="0" width="100%" height="100%">
    <rect width="100%" height="100%" fill="#D9D9D9" />
  </mask>
  <g mask="url(#mask0_3214_6206)">
    <path
      d="M24 33.3C26.6 33.3 28.8 32.4 30.6 30.6C32.4 28.8 33.3 26.6 33.3 24C33.3 21.4 32.4 19.2 30.6 17.4C28.8 15.6 26.6 14.7 24 14.7C21.4 14.7 19.2 15.6 17.4 17.4C15.6 19.2 14.7 21.4 14.7 24C14.7 26.6 15.6 28.8 17.4 30.6C19.2 32.4 21.4 33.3 24 33.3ZM24.0069 45.25C21.069 45.25 18.3085 44.6986 15.7256 43.5958C13.1427 42.493 10.8858 40.9762 8.9548 39.0452C7.02383 37.1142 5.50697 34.8596 4.4042 32.2813C3.3014 29.703 2.75 26.9448 2.75 24.0069C2.75 21.0356 3.3014 18.2586 4.4042 15.6757C5.50697 13.0927 7.02122 10.8432 8.94695 8.92721C10.8727 7.01115 13.1259 5.49426 15.7067 4.37656C18.2875 3.25886 21.0482 2.70001 23.989 2.70001C26.963 2.70001 29.7434 3.25758 32.3303 4.37271C34.9171 5.48781 37.1673 7.00118 39.0809 8.91281C40.9945 10.8244 42.5094 13.0724 43.6257 15.6567C44.7419 18.2409 45.3 21.022 45.3 24C45.3 26.9425 44.7411 29.705 43.6235 32.2874C42.5058 34.8697 40.9889 37.1244 39.0728 39.0513C37.1568 40.9782 34.9096 42.493 32.3313 43.5958C29.753 44.6986 26.9782 45.25 24.0069 45.25Z"
      fill="currentColor" />
  </g>
</svg>
