<svg width="100%" height="100%" viewBox="0 0 48 45" fill="none" xmlns="http://www.w3.org/2000/svg">
<path d="M23.5937 13.0218C23.0661 13.0218 22.6277 12.8471 22.2785 12.4978C21.9292 12.1485 21.7545 11.7101 21.7545 11.1826V4.81085C21.7545 4.28332 21.9292 3.84962 22.2785 3.50975C22.6277 3.16992 23.0661 3 23.5937 3C24.1212 3 24.5549 3.17463 24.8948 3.5239C25.2346 3.87317 25.4046 4.31158 25.4046 4.83915V11.2108C25.4046 11.7384 25.2346 12.1721 24.8948 12.512C24.5549 12.8518 24.1212 13.0218 23.5937 13.0218ZM33.7676 17.437C33.3922 17.0805 33.2176 16.6384 33.2437 16.1108C33.2698 15.5833 33.4611 15.1413 33.8176 14.7848L38.2959 10.4065C38.6524 10.05 39.085 9.8717 39.5937 9.8717C40.1024 9.8717 40.5277 10.0572 40.8698 10.4283C41.2118 10.7848 41.3745 11.2148 41.3578 11.7184C41.3412 12.2221 41.1618 12.6355 40.8198 12.9587L36.4198 17.4087C36.0632 17.7652 35.6259 17.9482 35.1078 17.9576C34.5897 17.967 34.1429 17.7935 33.7676 17.437ZM13.4915 17.387C13.1495 17.7768 12.7277 17.9718 12.2263 17.9718C11.7248 17.9718 11.2959 17.7841 10.9393 17.4087L6.43933 13.0087C6.06396 12.6333 5.86795 12.1949 5.85128 11.6934C5.83461 11.192 6.02338 10.7536 6.41758 10.3783C6.77411 10.0217 7.21145 9.85286 7.72958 9.8717C8.24768 9.89056 8.685 10.0783 9.04153 10.4348L13.4915 14.9348C13.8336 15.258 14.0046 15.6583 14.0046 16.1358C14.0046 16.6134 13.8336 17.0305 13.4915 17.387ZM6.30893 41.3392L1.63718 36.6674C1.20528 36.2355 0.992945 35.6877 1.00018 35.024C1.00745 34.3602 1.21978 33.8051 1.63718 33.3587C4.46471 30.2152 7.73391 27.8254 11.4448 26.1891C15.1556 24.5529 19.1959 23.7348 23.5654 23.7348C27.935 23.7348 31.9846 24.5435 35.7143 26.1609C39.4441 27.7783 42.7133 30.1775 45.5219 33.3587C45.9205 33.8051 46.1234 34.3602 46.1307 35.024C46.1379 35.6877 45.935 36.2355 45.5219 36.6674L40.8219 41.3392C40.4988 41.6812 40.0024 41.8642 39.3328 41.8881C38.6632 41.912 38.1125 41.7602 37.6806 41.4326L32.2632 37.4087C31.9879 37.2044 31.786 36.9646 31.6578 36.6892C31.5295 36.4138 31.4654 36.1218 31.4654 35.8131V28.6653C30.1407 28.1696 28.8194 27.8276 27.5013 27.6392C26.1832 27.4508 24.8712 27.3566 23.5654 27.3566C22.2596 27.3566 20.9477 27.4508 19.6296 27.6392C18.3115 27.8276 16.9901 28.1696 15.6655 28.6653V35.8131C15.6655 36.1218 15.6013 36.4138 15.4731 36.6892C15.3448 36.9646 15.1524 37.2044 14.8959 37.4087L9.45023 41.4326C8.97486 41.7892 8.42993 41.9602 7.81543 41.9457C7.20093 41.9312 6.69876 41.7291 6.30893 41.3392Z" fill="currentColor"/>
</svg>
