<svg width="24" height="24" viewBox="0 0 24 24" fill="none" xmlns="http://www.w3.org/2000/svg">
<path d="M19.7866 18.5229C20.3261 18.4052 20.8592 18.7471 20.9771 19.2866C21.0948 19.8262 20.7529 20.3592 20.2134 20.4771L14.7134 21.6772C14.1738 21.795 13.6407 21.4527 13.523 20.9131C13.4053 20.3736 13.7472 19.841 14.2866 19.7231L19.7866 18.5229ZM9 2C9 1.44772 9.44773 1.00001 10 1C10.5523 1 11 1.44772 11 2V10.9448L13.5 10.3979V4C13.5 3.44772 13.9477 3.00002 14.5 3C15.0523 3 15.5 3.44772 15.5 4V9.96045L19.7861 9.02295C20.3256 8.90494 20.859 9.24669 20.9771 9.78613C21.0951 10.3256 20.7533 10.859 20.2139 10.9771L15.5 12.0078V15.2197L15.5156 15.2158L19.7734 14.2261C20.3114 14.101 20.8491 14.4357 20.9741 14.9736C21.0991 15.5115 20.7644 16.0487 20.2266 16.1738L15.9683 17.1641L15.9678 17.1636C15.6779 17.2333 15.3762 17.2382 15.0845 17.1763C14.7873 17.1131 14.5085 16.9829 14.269 16.7959C14.0296 16.6089 13.8359 16.3697 13.7026 16.0967C13.5695 15.8237 13.5001 15.524 13.5 15.2202V12.4453L11 12.9922V16H10.9995C11.0124 16.6627 10.8061 17.3112 10.4111 17.8442C10.0104 18.3851 9.43949 18.7755 8.79004 18.9526C8.78193 18.9548 8.77379 18.957 8.76563 18.959L3.2168 20.3223C2.68046 20.454 2.13858 20.1257 2.00684 19.5894C1.87524 19.0531 2.20311 18.5117 2.73926 18.3799L8.26856 17.022C8.4831 16.9624 8.67156 16.8328 8.8042 16.6538C8.93777 16.4735 9.00703 16.2536 9.00049 16.0293C9.00021 16.0196 9 16.0097 9 16V13.4297L4.21387 14.4771C3.67438 14.5951 3.14103 14.2533 3.02295 13.7139C2.90494 13.1744 3.2467 12.641 3.78613 12.5229L9 11.3823V2Z" fill="currentColor"/>
</svg>
