<svg width="100%" height="100%" viewBox="0 0 9 10" fill="none" xmlns="http://www.w3.org/2000/svg">
<g clip-path="url(#clip0_6572_6116)">
<path d="M5.60123 8.85887C5.44063 9.2129 5.33446 9.5971 5.29379 10L8.69247 9.28175C8.85307 8.9278 8.95915 8.54353 8.99991 8.14062L5.60123 8.85887Z" fill="currentColor"/>
<path d="M8.69247 7.12995C8.85308 6.776 8.95924 6.39173 8.99991 5.98883L6.35244 6.5486V5.47251L8.69239 4.97815C8.853 4.6242 8.95916 4.23993 8.99983 3.83703L6.35236 4.39633V0.526349C5.94669 0.752792 5.58642 1.05421 5.29356 1.40975V4.62014L4.23475 4.84388V0C3.82908 0.226363 3.4688 0.527862 3.17594 0.883404V5.06754L0.806845 5.56802C0.646243 5.92197 0.540001 6.30624 0.49925 6.70914L3.17594 6.14363V7.49879L0.307343 8.10481C0.146741 8.45876 0.0405795 8.84304 -9.15527e-05 9.24594L3.00252 8.61158C3.24695 8.56104 3.45703 8.41737 3.59362 8.21966L4.14428 7.40805V7.40789C4.20144 7.32392 4.23475 7.22268 4.23475 7.11364V5.9199L5.29356 5.69616V7.84836L8.69239 7.12979L8.69247 7.12995Z" fill="currentColor"/>
</g>
<defs>
<clipPath id="clip0_6572_6116">
<rect width="100%" height="100%" fill="currentColor"/>
</clipPath>
</defs>
</svg>
