<svg width="100%" height="100%" viewBox="0 0 47 47" fill="none" xmlns="http://www.w3.org/2000/svg">
<path d="M18.3805 31.5609C14.6432 31.5609 11.4788 30.2638 8.8873 27.6696C6.29577 25.0754 5 21.9457 5 18.2805C5 14.6152 6.29712 11.4855 8.89135 8.8913C11.4856 6.2971 14.6236 5 18.3055 5C21.9874 5 25.1171 6.2971 27.6946 8.8913C30.2722 11.4855 31.561 14.6177 31.561 18.288C31.561 19.754 31.3418 21.1395 30.9034 22.4446C30.4649 23.7497 29.8073 24.9761 28.9305 26.124L40.861 37.9544C41.2552 38.3526 41.4523 38.8333 41.4523 39.3965C41.4523 39.9597 41.2552 40.4385 40.861 40.8327C40.4567 41.2457 39.9708 41.4522 39.4032 41.4522C38.8356 41.4522 38.362 41.2457 37.9827 40.8327L26.1022 28.9805C25.1211 29.7892 23.9692 30.4214 22.6467 30.8772C21.3241 31.333 19.9021 31.5609 18.3805 31.5609ZM18.3405 27.6C20.9291 27.6 23.1195 26.6911 24.9117 24.8734C26.7039 23.0556 27.6 20.858 27.6 18.2805C27.6 15.7029 26.7025 13.5053 24.9076 11.6876C23.1126 9.86979 20.9236 8.9609 18.3405 8.9609C15.7296 8.9609 13.5136 9.86979 11.6926 11.6876C9.87148 13.5053 8.96095 15.7029 8.96095 18.2805C8.96095 20.858 9.8701 23.0556 11.6884 24.8734C13.5067 26.6911 15.7241 27.6 18.3405 27.6Z" fill="currentColor"/>
</svg>
