<svg width="100%" height="100%" viewBox="0 0 48 48" fill="none" xmlns="http://www.w3.org/2000/svg">
<mask id="mask0_1603_8291" style="mask-type:alpha" maskUnits="userSpaceOnUse" x="0" y="0" width="48" height="48">
<rect width="100%" height="100%" fill="#D9D9D9"/>
</mask>
<g mask="url(#mask0_1603_8291)">
<path d="M22.55 30.3H25.45C25.8417 30.3 26.1563 30.1562 26.3938 29.8687C26.6313 29.5812 26.7167 29.2583 26.65 28.9L25.6 22.9C26.2488 22.5282 26.7777 22.0523 27.1866 21.4725C27.5955 20.8927 27.8 20.2352 27.8 19.5C27.8 18.4375 27.4319 17.5385 26.6956 16.8031C25.9593 16.0677 25.0593 15.7 23.9956 15.7C22.9319 15.7 22.0333 16.0677 21.3 16.8031C20.5667 17.5385 20.2 18.4375 20.2 19.5C20.2 20.2352 20.4044 20.8927 20.8133 21.4725C21.2223 22.0523 21.7512 22.5282 22.4 22.9L21.4 28.9C21.3 29.2583 21.3687 29.5812 21.6062 29.8687C21.8438 30.1562 22.1583 30.3 22.55 30.3ZM24 45C23.7227 45 23.458 44.975 23.206 44.925C22.954 44.875 22.7187 44.8 22.5 44.7C17.7 43.1333 13.875 40.175 11.025 35.825C8.175 31.475 6.75 26.8149 6.75 21.8447V12.4C6.75 11.3914 7.02292 10.4721 7.56875 9.6419C8.11458 8.8117 8.85833 8.23106 9.8 7.89999L22.35 3.19999C22.8833 2.99999 23.4333 2.89999 24 2.89999C24.5667 2.89999 25.1167 2.99999 25.65 3.19999L38.2 7.89999C39.1417 8.23106 39.8937 8.8117 40.4562 9.6419C41.0187 10.4721 41.3 11.3914 41.3 12.4V21.8447C41.3 26.8149 39.8667 31.475 37 35.825C34.1333 40.175 30.3 43.1333 25.5 44.7C25.2813 44.8 25.046 44.875 24.794 44.925C24.542 44.975 24.2773 45 24 45Z" fill="currentColor"/>
</g>
</svg>
