<svg width="100%" height="100%" viewBox="0 0 48 48" fill="none" xmlns="http://www.w3.org/2000/svg">
    <mask id="mask0_1603_8273" style="mask-type:alpha" maskUnits="userSpaceOnUse" x="0" y="0" width="48" height="48">
    <rect width="100%" height="100%" fill="#D9D9D9"/>
    </mask>
    <g mask="url(#mask0_1603_8273)">
    <path d="M20.35 45.25C19.75 45.25 19.225 45.0667 18.775 44.7C18.325 44.3333 18.0667 43.85 18 43.25L17.25 38.55C16.8167 38.4167 16.325 38.1917 15.775 37.875C15.225 37.5583 14.7667 37.25 14.4 36.95L10.1 39C9.56667 39.2333 9 39.2583 8.4 39.075C7.8 38.8917 7.35 38.5167 7.05 37.95L3.4 31.4C3.06667 30.8667 2.975 30.3167 3.125 29.75C3.275 29.1833 3.58334 28.7167 4.05 28.35L8.05 25.45C8.01667 25.25 7.99167 25.0083 7.975 24.725C7.95834 24.4417 7.95 24.2 7.95 24C7.95 23.8 7.95834 23.5583 7.975 23.275C7.99167 22.9917 8.01667 22.75 8.05 22.55L4.05 19.65C3.58334 19.2833 3.275 18.8167 3.125 18.25C2.975 17.6833 3.06667 17.1333 3.4 16.6L7.05 10.1C7.35 9.56668 7.8 9.20001 8.4 9.00001C9 8.80001 9.56667 8.81668 10.1 9.05001L14.5 11.05C14.8333 10.7833 15.2667 10.5 15.8 10.2C16.3333 9.90001 16.8167 9.68335 17.25 9.55001L18 4.70001C18.0667 4.13335 18.325 3.65835 18.775 3.27501C19.225 2.89168 19.75 2.70001 20.35 2.70001H27.65C28.25 2.70001 28.775 2.89168 29.225 3.27501C29.675 3.65835 29.9333 4.13335 30 4.70001L30.75 9.50001C31.1833 9.66668 31.675 9.89168 32.225 10.175C32.775 10.4583 33.2333 10.75 33.6 11.05L37.9 9.05001C38.4333 8.81668 39 8.80001 39.6 9.00001C40.2 9.20001 40.65 9.56668 40.95 10.1L44.65 16.55C44.95 17.0833 45.0333 17.6417 44.9 18.225C44.7667 18.8083 44.4333 19.2833 43.9 19.65L39.9 22.45C39.9333 22.6833 39.9667 22.9417 40 23.225C40.0333 23.5083 40.05 23.7667 40.05 24C40.05 24.2333 40.0333 24.4833 40 24.75C39.9667 25.0167 39.9333 25.2667 39.9 25.5L43.9 28.35C44.4 28.7167 44.725 29.1833 44.875 29.75C45.025 30.3167 44.95 30.8667 44.65 31.4L40.9 38C40.6 38.5667 40.1583 38.9333 39.575 39.1C38.9917 39.2667 38.4333 39.2333 37.9 39L33.55 36.95C33.1833 37.25 32.7417 37.5583 32.225 37.875C31.7083 38.1917 31.2167 38.4167 30.75 38.55L30 43.25C29.9333 43.85 29.675 44.3333 29.225 44.7C28.775 45.0667 28.25 45.25 27.65 45.25H20.35ZM23.9 30.5C25.7 30.5 27.2333 29.8667 28.5 28.6C29.7667 27.3333 30.4 25.8 30.4 24C30.4 22.2 29.7667 20.6667 28.5 19.4C27.2333 18.1333 25.7 17.5 23.9 17.5C22.1 17.5 20.5667 18.1333 19.3 19.4C18.0333 20.6667 17.4 22.2 17.4 24C17.4 25.8 18.0333 27.3333 19.3 28.6C20.5667 29.8667 22.1 30.5 23.9 30.5Z" fill="currentColor"/>
    </g>
</svg>
