<svg width="100%" height="100%" viewBox="0 0 44 54" fill="none" xmlns="http://www.w3.org/2000/svg">
<path d="M12.3125 24.375C12.3125 26.5 13.4062 28.6042 15.5938 30.6875C17.7812 32.7708 19.5799 34.4535 20.9898 35.7356C21.2883 36.0369 21.6146 36.1875 21.9688 36.1875C22.3229 36.1875 22.6518 36.0345 22.9554 35.7286C24.3601 34.4512 26.1667 32.7901 28.375 30.7452C30.5833 28.7003 31.6875 26.5756 31.6875 24.3711C31.6875 22.9154 31.1615 21.6563 30.1094 20.5938C29.0573 19.5313 27.8125 19 26.375 19C25.5 19 24.6771 19.1875 23.9062 19.5625C23.1354 19.9375 22.5 20.3958 22 20.9375C21.5185 20.3906 20.8879 19.931 20.1082 19.5586C19.3285 19.1862 18.4939 19 17.6042 19C16.1597 19 14.9167 19.5365 13.875 20.6094C12.8333 21.6823 12.3125 22.9375 12.3125 24.375ZM22 53.25C21.6533 53.25 21.3225 53.2188 21.0075 53.1563C20.6925 53.0938 20.3983 53 20.125 52.875C14.125 50.9167 9.34375 47.2188 5.78125 41.7813C2.21875 36.3438 0.4375 30.5186 0.4375 24.3059V12.5C0.4375 11.2393 0.778646 10.0901 1.46094 9.05238C2.14323 8.01463 3.07292 7.28883 4.25 6.875L19.9375 1C20.6042 0.75 21.2917 0.625 22 0.625C22.7083 0.625 23.3958 0.75 24.0625 1L39.75 6.875C40.9271 7.28883 41.8672 8.01463 42.5703 9.05238C43.2734 10.0901 43.625 11.2393 43.625 12.5V24.3059C43.625 30.5186 41.8333 36.3438 38.25 41.7813C34.6667 47.2188 29.875 50.9167 23.875 52.875C23.6017 53 23.3075 53.0938 22.9925 53.1563C22.6775 53.2188 22.3467 53.25 22 53.25Z" fill="currentColor"/>
</svg>
