<svg width="81" height="65" viewBox="0 0 81 65" fill="none" xmlns="http://www.w3.org/2000/svg">
<path d="M14.4184 28.9152L27.2813 31.3929C29.39 31.7882 31.4196 30.444 31.815 28.3353L34.319 15.4723C34.7144 13.3637 33.3701 11.3341 31.2615 10.9387L18.3985 8.46099C16.2898 8.06561 14.2602 9.40989 13.8649 11.5186L11.3872 24.3815C10.9391 26.4638 12.3097 28.4934 14.4184 28.9152Z" fill="#E0E0E0"/>
<path d="M22.5104 19.7689C23.2484 19.7689 23.8283 19.5317 24.2764 19.0836C24.7245 18.6355 24.9617 18.0292 24.9617 17.3175C24.9617 16.6059 24.7245 15.9996 24.2764 15.5515C23.8283 15.1034 23.2484 14.8662 22.5104 14.8662C21.7724 14.8662 21.1925 15.1034 20.7444 15.5515C20.2963 15.9996 20.0591 16.5795 20.0591 17.3175C20.0591 18.0292 20.2963 18.6091 20.7444 19.0836C21.1925 19.558 21.7724 19.7689 22.5104 19.7689ZM27.3604 23.6436V23.3009C27.3604 22.8792 27.2549 22.5102 27.0441 22.2202C26.8332 21.9039 26.5432 21.6667 26.2006 21.5085C25.568 21.2186 24.9354 20.9814 24.3291 20.8496C23.7229 20.7178 23.1166 20.6387 22.5104 20.6387C21.8778 20.6387 21.2715 20.7178 20.6917 20.8759C20.1118 21.0341 19.4792 21.245 18.8466 21.5349C18.4775 21.6931 18.1876 21.9039 17.9767 22.2202C17.7659 22.5365 17.6604 22.9055 17.6604 23.3273V23.6699C17.6604 24.039 17.7922 24.3289 18.0294 24.5925C18.293 24.8297 18.583 24.9615 18.952 24.9615H26.0688C26.4378 24.9615 26.7277 24.8297 26.9913 24.5925C27.2286 24.3025 27.3604 24.0126 27.3604 23.6436Z" fill="#9E9E9E"/>
<path d="M20.0591 41.7253H63.6033V46.0745H20.0591V41.7253Z" fill="#FECA16"/>
<g opacity="0.4">
<path d="M20.0591 41.7253H63.6033V46.0745H20.0591V41.7253Z" fill="black"/>
</g>
<path d="M41.3038 46.6282H54.1667V50.661H41.3038V46.6282Z" fill="#333333"/>
<path d="M70.5354 44.8093V47.577H38.4835L36.7175 50.1337H32.342V44.8093H70.5354Z" fill="#211F1F"/>
<path d="M32.4475 34.793V44.572H25.0408C23.6701 44.572 22.4576 45.4155 21.9832 46.6807L21.2452 48.6312H13.7857L13.3376 42.7533C13.3113 41.6463 13.4958 39.4058 13.7593 38.3251C14.0756 37.0599 15.6572 34.5558 16.3952 33.4224C17.3968 31.8673 18.8202 29.5214 20.1117 28.9151C21.7987 28.098 30.0489 27.729 31.7622 27.6499C31.9467 27.6499 32.0785 27.7817 32.1048 27.9662L32.4475 34.793Z" fill="#FECA16"/>
<path d="M17.4495 31.9992C14.8664 36.2165 14.6555 37.3499 14.471 37.6663C14.3656 37.8771 14.0229 38.0089 13.7857 38.0616C13.7857 38.0353 13.8121 38.0089 13.8121 37.9826C14.2602 36.6383 15.6835 34.4242 16.3425 33.3962C17.1069 32.1837 18.1349 30.5231 19.1628 29.5215C19.0047 29.9696 18.2403 30.7076 17.4495 31.9992Z" fill="#333333"/>
<path d="M28.2828 29.0996C28.7836 29.0996 29.2053 29.5213 29.2053 30.0222V34.4767C29.2053 34.8985 28.9417 35.2938 28.5464 35.4256L19.6899 38.7205C19.5581 38.7732 19.4527 38.7995 19.3209 38.7995H15.947C15.9206 38.7995 15.9207 38.7995 15.8943 38.7995C15.8152 38.7732 15.7889 38.6941 15.8152 38.615L17.1068 35.2938C17.1859 35.083 19.1364 30.523 20.8497 29.9431C22.1676 29.495 26.3059 29.205 28.2037 29.0996C28.2564 29.0996 28.2564 29.0996 28.2828 29.0996Z" fill="#211F1F"/>
<path d="M19.3474 38.4833C19.4265 38.4833 19.4792 38.4833 19.5583 38.457L20.6917 36.7173C20.9816 36.2692 21.4561 35.9793 21.9832 35.9002L28.5201 35.0831C28.731 35.004 28.8892 34.7932 28.8892 34.5559V30.0486C28.8892 29.706 28.6256 29.4424 28.2829 29.4424H28.2566C24.54 29.6533 21.9042 29.9959 20.9816 30.2595C19.98 30.5758 18.5039 33.3962 17.8713 34.7932C17.4496 35.7157 16.2107 38.5097 16.2107 38.5097L19.3474 38.4833Z" fill="#333333"/>
<path d="M20.7179 36.401C20.6915 36.401 20.6652 36.4274 20.6388 36.401C20.5334 36.401 20.4806 36.2956 20.4806 36.2165L21.0869 30.1277L20.7706 30.2331L19.5317 38.457L21.7458 35.9793L20.7179 36.401Z" fill="#211F1F"/>
<path d="M13.2585 44.6249C13.2585 44.7304 13.3112 44.8095 13.364 44.8095L14.5765 44.5986C14.6292 44.5986 14.6819 44.4668 14.6819 44.3086L14.6292 43.3861C14.6292 43.1752 14.5237 42.9907 14.4183 42.9907L13.2322 43.0962C13.1795 43.0962 13.1531 43.1752 13.1531 43.2807L13.2585 44.6249Z" fill="#EBEBEB"/>
<path d="M13.153 47.5769H21.7458V51.0299H13.153V47.5769Z" fill="#211F1F"/>
<path d="M27.3075 54.6148C24.7162 54.6148 22.6157 52.5142 22.6157 49.923C22.6157 47.3318 24.7162 45.2312 27.3075 45.2312C29.8987 45.2312 31.9993 47.3318 31.9993 49.923C31.9993 52.5142 29.8987 54.6148 27.3075 54.6148Z" fill="#211F1F"/>
<path d="M31.9993 49.9755C31.9466 52.585 29.8379 54.641 27.2284 54.6146C24.6453 54.5883 22.5629 52.4532 22.5893 49.8438L31.9993 49.9755Z" fill="#211F1F"/>
<path d="M27.3603 46.628C29.1791 46.6544 30.6288 48.1568 30.6024 49.9756C30.5761 51.7943 29.0736 53.244 27.2549 53.2177C25.4362 53.1913 23.9865 51.6889 24.0128 49.8701C24.0392 48.0514 25.5416 46.6017 27.3603 46.628Z" fill="#FAFAFA"/>
<path d="M30.6024 49.9756L24.0128 49.8701C24.0392 48.0514 25.5416 46.6017 27.3603 46.628C29.1791 46.6544 30.6288 48.1568 30.6024 49.9756Z" fill="#E0E0E0"/>
<path d="M27.3338 47.9198C28.4409 47.9461 29.3371 48.8423 29.3107 49.9494C29.2844 51.0564 28.3882 51.9526 27.2811 51.9262C26.1741 51.8999 25.2779 51.0037 25.3042 49.8966C25.3042 48.7896 26.2268 47.8934 27.3338 47.9198Z" fill="#211F1F"/>
<path d="M17.0277 32.8689V35.9792C17.0277 36.4009 17.3704 36.7699 17.8185 36.7699H18.1875C18.6093 36.7699 18.9783 36.4273 18.9783 35.9792V32.8689C18.9783 32.4471 18.6356 32.0781 18.1875 32.0781H17.7921C17.3704 32.0781 17.0277 32.4471 17.0277 32.8689Z" fill="#211F1F"/>
<path d="M16.2105 34.7141C16.2105 34.266 16.5532 33.9233 17.0013 33.9233H17.2385V33.8179H17.0013C16.5005 33.8179 16.1051 34.2132 16.1051 34.7141V39.6695H16.2105V34.7141Z" fill="#211F1F"/>
<path d="M16.9752 39.6694L16.7116 35.0567V35.0303C16.7116 34.7667 16.9225 34.5559 17.186 34.5559V34.4504H17.1597C16.8434 34.4768 16.5798 34.7404 16.6061 35.0567L16.8697 39.6694H16.9752Z" fill="#211F1F"/>
<path d="M15.8681 39.2214H17.186V40.7502H15.8681V39.2214Z" fill="#211F1F"/>
<path d="M16.1843 36.2957H16.7114V36.4011H16.1843V36.2957Z" fill="#211F1F"/>
<path d="M21.2979 29.2314L21.6406 29.2051L22.9849 29.0469L27.9666 28.4934C28.2302 28.467 28.4938 28.4407 28.7837 28.4143C28.9155 28.4143 29.0737 28.4143 29.2055 28.4407C29.3373 28.467 29.4691 28.5197 29.6009 28.5988C29.8644 28.7306 30.0753 28.9678 30.2071 29.2314C30.2862 29.3632 30.3125 29.5214 30.3389 29.6531C30.3653 29.8113 30.3653 29.9694 30.3653 30.1276C30.3653 31.3928 30.3653 32.7634 30.3653 34.1868C30.3653 37.0599 30.3653 40.2756 30.3653 43.7022L30.3916 43.6759H25.2517C24.9618 43.6759 24.6718 43.6759 24.3819 43.7286C23.143 43.9131 22.0887 44.7566 21.6406 45.9163C21.5879 46.0218 21.5615 46.1272 21.5352 46.2326C21.5088 46.3381 21.4824 46.4435 21.4561 46.5753L21.4297 46.7334V46.8125V46.8916V47.0497V47.1288C21.4034 47.1552 21.4561 47.1025 21.4561 47.1025H14.9455L14.9719 47.1288C14.9719 45.6527 14.9719 44.2294 14.9719 42.8587C14.9719 42.1734 14.9719 41.5145 14.9719 40.8555V39.9066C14.9719 39.7484 14.9719 39.5903 14.9719 39.4321C14.9719 39.274 14.9983 39.1158 14.9983 38.984C15.0773 38.4042 15.2618 37.8243 15.5518 37.2971L16.3425 35.821C16.8434 34.8721 17.3178 34.0023 17.7132 33.2115L18.8202 31.1029L19.0575 30.6548C19.0838 30.5757 19.1365 30.523 19.1629 30.4439C19.1893 30.3912 19.242 30.3121 19.2947 30.2594C19.4528 30.0485 19.6637 29.864 19.8746 29.7059C20.1909 29.495 20.5335 29.3368 20.8762 29.2578C21.008 29.2314 21.0871 29.2051 21.1661 29.2051L21.2716 29.1787C21.1398 29.1787 21.008 29.2051 20.9026 29.2314C20.5335 29.3105 20.1909 29.4686 19.8746 29.6795C19.6637 29.8377 19.4528 30.0222 19.2683 30.233C19.2156 30.2857 19.1893 30.3648 19.1365 30.4175C19.0838 30.4966 19.0575 30.5493 19.0311 30.6284C18.952 30.7602 18.873 30.9184 18.7939 31.0765L17.6605 33.1852L16.2635 35.7947C15.9999 36.2691 15.7363 36.7699 15.4727 37.2707C15.1828 37.7979 14.9983 38.3778 14.9192 38.9577C14.8928 39.1158 14.8928 39.274 14.8928 39.4321C14.8928 39.5903 14.8928 39.7484 14.8928 39.9066V40.8555C14.8928 41.5145 14.8928 42.1734 14.8928 42.8587C14.8928 44.2294 14.8928 45.6527 14.8928 47.1288V47.1552H21.4297C21.4297 47.1552 21.4824 47.1025 21.4561 47.1288V47.0497V46.8916V46.8125V46.7334L21.4824 46.5753C21.5088 46.4699 21.5352 46.3644 21.5615 46.259C21.5879 46.1536 21.6142 46.0481 21.667 45.9427C22.115 44.7829 23.143 43.9658 24.3819 43.7813C24.6718 43.7549 24.9618 43.7286 25.2517 43.7286H30.418V43.7022C30.418 40.2756 30.418 37.0599 30.418 34.1868C30.418 32.7371 30.418 31.3928 30.418 30.1276V29.8904C30.418 29.8113 30.418 29.7322 30.3916 29.6531C30.3653 29.495 30.3125 29.3368 30.2598 29.2051C30.128 28.9415 29.9172 28.7042 29.6536 28.5724C29.5218 28.4934 29.39 28.4407 29.2318 28.4143C29.1 28.3879 28.9419 28.3879 28.8101 28.3879C28.5202 28.4143 28.2566 28.4407 27.993 28.467L23.0112 29.0205L21.667 29.1787L21.2979 29.2314Z" fill="#211F1F"/>
<path d="M28.9154 40.0385C28.9945 40.0385 29.0736 40.0121 29.1263 39.9594C29.2317 39.9067 29.3108 39.8012 29.3372 39.6958C29.3635 39.6167 29.3635 39.5377 29.3635 39.4849C29.3635 39.195 29.1263 38.9578 28.8364 38.9578H28.1774H26.7013C26.4114 38.9578 26.1742 39.1686 26.1478 39.4586C26.1214 39.5904 26.1478 39.7222 26.2269 39.8276C26.2796 39.933 26.385 40.0121 26.4905 40.0648C26.5432 40.0912 26.5959 40.0912 26.675 40.0912C26.7277 40.0912 26.7804 40.0912 26.8331 40.0912C26.7277 40.0912 26.6222 40.0912 26.5168 40.0648C26.4114 40.0121 26.3323 39.933 26.2796 39.854C26.2269 39.7485 26.2005 39.6431 26.2269 39.5113C26.2532 39.2477 26.4641 39.0632 26.7277 39.0632H28.2038H28.8627C29.0472 39.0632 29.2054 39.1686 29.3108 39.3268C29.3372 39.4059 29.3635 39.4849 29.3635 39.564C29.3635 39.6431 29.3635 39.6958 29.3372 39.7749C29.3108 39.8803 29.2317 39.9857 29.1263 40.0385C29.0472 40.0121 28.9681 40.0385 28.9154 40.0385C28.8627 40.0648 28.8364 40.0648 28.8364 40.0648C28.8627 40.0648 28.8891 40.0648 28.9154 40.0385Z" fill="#211F1F"/>
<path d="M27.8084 38.8261C27.5184 38.8261 27.2549 38.8261 26.9649 38.8525C27.2549 38.8788 27.5184 38.8788 27.8084 38.8788C28.0983 38.8788 28.3619 38.8788 28.6519 38.8525C28.3619 38.8261 28.0983 38.7997 27.8084 38.8261Z" fill="white"/>
<path d="M22.9321 46.2855C23.5647 45.3102 24.0655 45.1521 24.8563 45.0203C25.5943 44.8885 26.3587 44.9148 27.1231 44.9676H27.3076C28.9682 45.0203 32.4212 44.9676 32.4475 44.9676V44.1768C32.4212 44.1768 28.9945 44.2295 27.3603 44.1768H27.1758C26.3851 44.1504 25.5679 44.1241 24.7508 44.2559C23.881 44.414 23.0903 44.6249 22.2995 45.8637C21.8778 46.5227 21.5878 48.1833 21.3769 51.0036L22.1677 51.0564C22.4049 47.6034 22.7476 46.5754 22.9321 46.2855Z" fill="#211F1F"/>
<path d="M32.8692 19.0571H71.4844V44.783H32.8692V19.0571Z" fill="#FECA16"/>
<path d="M71.0364 19.637L33.2647 19.6106H33.2383V19.637C33.2383 28.388 33.2383 36.7172 33.2383 44.2558V44.2821H33.2647L71.01 44.2558L33.2647 44.2294L33.291 44.2558C33.291 36.7172 33.291 28.388 33.291 19.637L33.2647 19.6633L71.0364 19.637H70.9837C70.9837 34.6613 71.01 44.0976 71.01 44.2558C71.0364 44.0976 71.0364 34.6613 71.0364 19.637Z" fill="#211F1F"/>
<path d="M27.334 31.2612L27.2286 31.3403L26.8068 31.6039L25.4626 32.4737L24.0919 33.3435L23.6702 33.6071L23.5647 33.6862C23.5384 33.7126 23.5384 33.7126 23.5384 33.7126C23.5647 33.7126 23.5647 33.7126 23.5911 33.6862L23.6965 33.6335C23.802 33.5808 23.9338 33.5017 24.1183 33.3699C24.4873 33.159 24.9617 32.8427 25.4889 32.5264C26.0161 32.1838 26.4905 31.8675 26.8332 31.6302C26.9913 31.5248 27.1495 31.4194 27.2286 31.3403L27.334 31.2612C27.3604 31.2612 27.3867 31.2349 27.3867 31.2349C27.3604 31.2349 27.334 31.2612 27.334 31.2612Z" fill="#FAFAFA"/>
<path d="M25.647 31.7092L25.5416 31.7883L25.1198 32.0519L23.7755 32.9217L22.4049 33.7915L21.9832 34.0551L21.8777 34.1342L21.8514 34.1606C21.8777 34.1606 21.8777 34.1606 21.9041 34.1342L22.0095 34.0815C22.115 34.0288 22.2467 33.9497 22.4313 33.8443C22.8003 33.6334 23.2747 33.3171 23.8019 32.9744C24.3291 32.6318 24.8035 32.3155 25.1462 32.1046C25.3307 31.9992 25.4625 31.8937 25.5416 31.8147L25.647 31.7092C25.6733 31.7092 25.6997 31.6829 25.6997 31.6829C25.6733 31.6829 25.6733 31.6829 25.647 31.7092Z" fill="#FAFAFA"/>
<path d="M17.3968 34.2132C17.3441 33.9497 17.3177 33.6861 17.3177 33.3961C17.3177 33.1325 17.3705 32.869 17.4759 32.6054C17.5286 32.4999 17.5813 32.4209 17.6604 32.3154C17.634 32.3418 17.6077 32.3418 17.6077 32.3681C17.555 32.4209 17.5023 32.4999 17.4759 32.579C17.3441 32.8162 17.2914 33.1062 17.2914 33.3698C17.2914 33.6334 17.3177 33.9233 17.3968 34.1869C17.4232 34.2923 17.4495 34.3714 17.4495 34.4241C17.4495 34.4505 17.4759 34.4768 17.4759 34.5032C17.4232 34.4241 17.4232 34.3187 17.3968 34.2132Z" fill="#FAFAFA"/>
<path d="M13.4693 41.3827C13.4693 41.3036 13.4957 41.1982 13.4957 41.0927C13.522 40.8291 13.522 40.4865 13.5747 40.1175C13.6011 39.7484 13.6275 39.4058 13.6538 39.1422L13.6802 38.8523C13.6802 38.8259 13.6802 38.7732 13.6802 38.7468C13.6802 38.7732 13.6538 38.8259 13.6538 38.8523C13.6538 38.9313 13.6275 39.0104 13.6011 39.1422C13.5747 39.4058 13.522 39.7484 13.4957 40.1175C13.4693 40.4865 13.443 40.8555 13.443 41.0927C13.443 41.1982 13.443 41.3036 13.4693 41.3827C13.443 41.409 13.443 41.4617 13.443 41.4881C13.4693 41.4617 13.4693 41.409 13.4693 41.3827Z" fill="#FAFAFA"/>
<path d="M24.0655 43.4123C24.0127 43.4123 23.96 43.4387 23.9073 43.4387C23.8546 43.4651 23.7755 43.4651 23.6964 43.4914C23.5119 43.5441 23.3538 43.5968 23.1956 43.6759C22.9848 43.7814 22.8003 43.8868 22.6157 44.0186C22.4312 44.1504 22.2731 44.3085 22.1149 44.4667C21.9831 44.5985 21.8777 44.7566 21.7723 44.8884C21.7196 44.9411 21.6932 45.0202 21.6668 45.0729C21.6405 45.1256 21.6141 45.152 21.5878 45.2047C21.5614 45.2311 21.5351 45.2838 21.5351 45.3365C21.5351 45.3365 21.6141 45.1784 21.7986 44.9148C21.9041 44.7566 22.0095 44.6248 22.1413 44.493C22.4576 44.1767 22.8003 43.9131 23.1956 43.7023C23.3538 43.6232 23.5119 43.5441 23.6964 43.4914C23.9864 43.386 24.1709 43.3596 24.1709 43.3596C24.1445 43.386 24.0918 43.386 24.0655 43.4123Z" fill="#FAFAFA"/>
<path d="M33.8445 37.4289C33.8445 37.4026 33.8445 37.3499 33.8445 37.2972C33.8445 37.1917 33.8445 37.0336 33.8445 36.8227C33.8445 36.401 33.8445 35.8211 33.8445 35.083C33.8445 33.607 33.7918 31.5774 33.7654 29.3105C33.7391 27.0437 33.6863 25.0141 33.66 23.538C33.66 22.8 33.6336 22.1937 33.6336 21.7984C33.6336 21.5875 33.6336 21.4293 33.6336 21.3239C33.6336 21.2712 33.6336 21.2185 33.6336 21.1921C33.6336 21.1658 33.6336 21.1658 33.6336 21.1394C33.6336 21.1394 33.6336 21.1658 33.6336 21.1921V21.3239C33.6336 21.4293 33.6336 21.5875 33.6336 21.7984C33.6336 22.2201 33.6336 22.8 33.6336 23.538C33.66 25.0141 33.6863 27.0437 33.7127 29.3105C33.739 31.5774 33.7918 33.607 33.8181 35.083C33.8181 35.8211 33.8445 36.4273 33.8445 36.8227C33.8445 37.0336 33.8445 37.1917 33.8445 37.2972C33.8445 37.3499 33.8445 37.4026 33.8445 37.4289C33.8445 37.4553 33.8445 37.4553 33.8445 37.4817C33.8445 37.4553 33.8445 37.4289 33.8445 37.4289Z" fill="#FAFAFA"/>
<path d="M62.0216 54.6148C59.4304 54.6148 57.3298 52.5142 57.3298 49.923C57.3298 47.3318 59.4304 45.2312 62.0216 45.2312C64.6128 45.2312 66.7134 47.3318 66.7134 49.923C66.7134 52.5142 64.6128 54.6148 62.0216 54.6148Z" fill="#211F1F"/>
<path d="M66.7134 49.9755C66.687 52.585 64.552 54.6673 61.9425 54.6146C59.3594 54.5883 57.277 52.4532 57.3034 49.8438L66.7134 49.9755Z" fill="#211F1F"/>
<path d="M62.0744 46.628C63.8932 46.6544 65.3429 48.1568 65.3165 49.9756C65.2902 51.7943 63.7877 53.244 61.969 53.2177C60.1503 53.1913 58.7006 51.6889 58.7269 49.8701C58.7533 48.0514 60.2557 46.6017 62.0744 46.628Z" fill="#FAFAFA"/>
<path d="M62.0744 46.628C63.8932 46.6544 65.3429 48.1568 65.3165 49.9756L58.7269 49.8701C58.7533 48.0514 60.2557 46.6017 62.0744 46.628Z" fill="#E0E0E0"/>
<path d="M62.0479 47.9198C63.155 47.9461 64.0512 48.8423 64.0248 49.9494C63.9985 51.0564 63.1023 51.9526 61.9952 51.9262C60.8882 51.8999 59.992 51.0037 60.0183 49.8966C60.0447 48.7896 60.9409 47.8934 62.0479 47.9198Z" fill="#211F1F"/>
<path d="M56.8554 51.2934C56.8554 51.2934 56.3546 45.5209 62.048 45.5209C67.7415 45.5209 67.2143 51.1616 67.2143 51.1616H68.2159C68.2686 50.2918 68.4004 44.5457 62.048 44.5457C55.1421 44.5457 55.8538 51.2143 55.8538 51.2143C56.4337 51.2671 56.8554 51.2934 56.8554 51.2934Z" fill="#333333"/>
<path d="M59.4912 45.2312C59.4649 45.2312 59.4122 45.2576 59.3331 45.2576C59.1486 45.3103 58.9377 45.3894 58.7532 45.4684C57.5143 46.022 56.5918 47.1027 56.2491 48.4469C56.1964 48.6314 56.1701 48.8423 56.1437 49.0532C56.1437 49.1323 56.1437 49.185 56.1437 49.2113C56.1437 49.185 56.1437 49.1323 56.1701 49.0532C56.1964 48.8423 56.2491 48.6578 56.3019 48.4733C56.6445 47.1817 57.5407 46.101 58.7795 45.5211C58.9641 45.4421 59.1486 45.363 59.3331 45.3103C59.4122 45.2839 59.4649 45.2576 59.4912 45.2312Z" fill="#FAFAFA"/>
</svg>
