<svg width="100%" height="100%" viewBox="0 0 48 48" fill="none" xmlns="http://www.w3.org/2000/svg">
  <mask id="mask0_3314_3107" style="mask-type:alpha" maskUnits="userSpaceOnUse" x="0" y="0" width="100%" height="100%">
    <rect width="100%" height="100%" fill="#D9D9D9" />
  </mask>
  <g mask="url(#mask0_3314_3107)">
    <path
      d="M5.27519 13.4248L2.51199 26.4872L5.14959 26.864L6.27999 42.1872H26.2504L26.6272 26.4872L44.9648 25.4824L41.5736 13.048L5.27519 13.4248Z"
      fill="currentColor" />
    <path
      d="M5.62751 3H42.4283C43.0563 3 43.5587 3.2512 44.0611 3.628C44.5635 4.1304 44.6891 4.6328 44.6891 5.2608C44.6891 5.8888 44.4379 6.5168 44.0611 6.8936C43.5587 7.396 43.0563 7.5216 42.4283 7.5216H5.62751C4.99951 7.5216 4.37152 7.2704 3.99472 6.8936C3.49232 6.5168 3.36671 6.0144 3.36671 5.2608C3.36671 4.6328 3.61792 4.1304 3.99472 3.628C4.37152 3.2512 4.99951 3 5.62751 3ZM6.00431 45.2016C5.37631 45.2016 4.74831 44.9504 4.37151 44.5736C3.86911 44.0712 3.74351 43.5688 3.74351 42.9408V28.8736H2.23631C1.48272 28.8736 0.854716 28.6224 0.477916 27.9944C0.101116 27.492 -0.150084 26.7384 0.101116 26.1104L2.98992 13.2992C3.11552 12.7968 3.36671 12.42 3.74351 12.0432C4.12031 11.5408 4.62271 11.4152 5.12511 11.4152H42.8051C43.3075 11.4152 43.8099 11.5408 44.1867 11.9176C44.5635 12.2944 44.9403 12.6712 45.0659 13.1736L47.9547 25.9848C48.0803 26.7384 47.9547 27.3664 47.4523 27.8688C47.0755 28.4968 46.4475 28.748 45.6939 28.748H44.3123V42.8152C44.3123 43.4432 44.0611 44.0712 43.6843 44.448C43.1819 44.9504 42.6795 45.076 42.0515 45.076C41.4235 45.076 40.7955 44.8248 40.4187 44.448C40.0419 43.9456 39.7907 43.4432 39.7907 42.8152V28.8736H28.6123V42.9408C28.6123 43.5688 28.3611 44.1968 27.9843 44.5736C27.6075 44.9504 26.9795 45.2016 26.3515 45.2016H6.00431ZM8.13951 40.5544H23.9651V28.8736H8.13951V40.5544ZM4.99951 24.2264H43.1819L41.2979 15.9368H6.88351L4.99951 24.2264Z"
      fill="black" />
  </g>
</svg>
