<svg width="24" height="24" viewBox="0 0 24 24" fill="none" xmlns="http://www.w3.org/2000/svg">
<path d="M9.5 21L2 14L3.5 4L11 4.5L13 3L16 3.5L19.5 4.5L21 3.5L21.5 14H20L20.5 15.5L19 17H17L16.5 18.5L14.5 20L12 18.5L11.5 20.5L9.5 21Z" fill="currentColor" opacity="0.2"/>
<path d="M19.1212 15C19.1211 14.7026 19.0033 14.4173 18.793 14.207L14.9136 10.3276L14.8414 10.2593C14.4746 9.9276 13.9969 9.74267 13.5001 9.74267C12.9701 9.74267 12.4615 9.95309 12.0865 10.3276L11.2071 11.207C10.6217 11.7924 9.82788 12.1211 9.00006 12.1211C8.17223 12.1211 7.37839 11.7924 6.79303 11.207C6.20767 10.6217 5.87896 9.82781 5.87896 8.99999C5.87897 8.17217 6.20767 7.37832 6.79303 6.79296L8.58599 4.99999H3.82232L3.03814 13.624L9.20709 19.793C9.41738 20.0032 9.70267 20.1211 10.0001 20.1211C10.2974 20.1211 10.5827 20.0032 10.793 19.793C11.0033 19.5827 11.1212 19.2974 11.1212 19C11.1211 18.7398 11.0307 18.4891 10.8672 18.2895L10.793 18.207L10.293 17.707L10.2242 17.6313C9.90379 17.2386 9.9269 16.6591 10.293 16.293C10.6592 15.9268 11.2386 15.9037 11.6314 16.2241L11.7071 16.293L13.7071 18.293C13.8112 18.3971 13.9348 18.4798 14.0709 18.5361C14.2069 18.5925 14.3528 18.6211 14.5001 18.6211C14.6473 18.6211 14.7932 18.5925 14.9293 18.5361C15.0653 18.4798 15.1889 18.3971 15.293 18.293C15.3971 18.1888 15.4798 18.0652 15.5362 17.9292C15.5925 17.7931 15.6212 17.6472 15.6212 17.5C15.6211 17.3527 15.5925 17.2068 15.5362 17.0708C15.4939 16.9687 15.4366 16.8737 15.3668 16.7886L15.293 16.707L13.293 14.707L13.2242 14.6313C12.9038 14.2386 12.9269 13.6591 13.293 13.293C13.6592 12.9268 14.2386 12.9037 14.6314 13.2241L14.7071 13.293L17.2071 15.793C17.4174 16.0032 17.7027 16.1211 18.0001 16.1211L18.1109 16.1157C18.3676 16.0902 18.609 15.977 18.793 15.793C19.0033 15.5827 19.1212 15.2974 19.1212 15ZM21.1212 15C21.1212 15.8278 20.7924 16.6217 20.2071 17.207C19.6583 17.7558 18.9263 18.0794 18.1548 18.1177L18.0001 18.1211C17.8534 18.1211 17.708 18.1101 17.5645 18.0898C17.5248 18.2964 17.4647 18.499 17.3838 18.6943C17.227 19.073 16.9969 19.4172 16.7071 19.707C16.4172 19.9969 16.0731 20.2269 15.6944 20.3838C15.3157 20.5406 14.9099 20.6211 14.5001 20.6211C14.0902 20.6211 13.6844 20.5406 13.3057 20.3838C13.1623 20.3244 13.0236 20.2545 12.8912 20.1748C12.7357 20.5575 12.5048 20.9093 12.2071 21.207C11.6217 21.7924 10.8279 22.1211 10.0001 22.1211C9.17223 22.1211 8.37839 21.7924 7.79303 21.207L1.29303 14.707C1.08322 14.4972 0.977162 14.2051 1.00396 13.9097L2.00396 2.90966C2.05396 2.35972 2.54046 1.95402 3.09039 2.0039C3.61001 2.05114 4.00015 2.48809 3.99957 2.99999H10.8541C11.6759 2.49683 12.6 2.16962 13.5684 2.05028C15.0674 1.86557 16.5849 2.1867 17.8814 2.96142L17.8819 2.96093L18.3516 3.24071L18.357 3.24364C18.5433 3.35609 18.7603 3.40428 18.9752 3.38232L19.067 3.36864L20.0118 3.17821L20.004 3.09032C19.9541 2.5404 20.3598 2.05389 20.9097 2.0039C21.4253 1.95714 21.8849 2.31063 21.9815 2.8081L21.9962 2.90966L22.9962 13.9097C23.0215 14.1894 22.9278 14.4669 22.7383 14.6743C22.5489 14.8817 22.281 15 22.0001 15H21.1212ZM7.87896 8.99999C7.87896 9.29738 7.9968 9.58267 8.20709 9.79296C8.41738 10.0032 8.70266 10.1211 9.00006 10.1211C9.29745 10.1211 9.58274 10.0032 9.79303 9.79296L10.6734 8.91259C11.4234 8.16352 12.4401 7.74267 13.5001 7.74267C14.4938 7.74267 15.4496 8.11239 16.1832 8.77587L16.3267 8.91259L20.2071 12.793C20.2734 12.8593 20.336 12.9286 20.3956 13H20.9048L20.1939 5.18212L19.4571 5.33056L19.4532 5.33105C18.7231 5.47482 17.9658 5.34221 17.3282 4.95898L16.8585 4.67919L16.857 4.67821C15.9422 4.13124 14.8709 3.90528 13.813 4.03564C12.7552 4.166 11.7709 4.64524 11.0162 5.39794L8.20709 8.20702C7.9968 8.41731 7.87897 8.7026 7.87896 8.99999Z" fill="currentColor"/>
</svg>

