<svg width="48" height="43" viewBox="0 0 48 43" fill="none" xmlns="http://www.w3.org/2000/svg">
<path d="M5.27519 10.4248L2.51199 23.4872L5.14959 23.864L6.27999 39.1872H26.2504L26.6272 23.4872L44.9648 22.4824L41.5736 10.048L5.27519 10.4248Z" fill="currentColor"/>
<path d="M5.62751 0H42.4283C43.0563 0 43.5587 0.2512 44.0611 0.628C44.5635 1.1304 44.6891 1.6328 44.6891 2.2608C44.6891 2.8888 44.4379 3.5168 44.0611 3.8936C43.5587 4.396 43.0563 4.5216 42.4283 4.5216H5.62751C4.99951 4.5216 4.37152 4.2704 3.99472 3.8936C3.49232 3.5168 3.36671 3.0144 3.36671 2.2608C3.36671 1.6328 3.61792 1.1304 3.99472 0.628C4.37152 0.2512 4.99951 0 5.62751 0ZM6.00431 42.2016C5.37631 42.2016 4.74831 41.9504 4.37151 41.5736C3.86911 41.0712 3.74351 40.5688 3.74351 39.9408V25.8736H2.23631C1.48272 25.8736 0.854716 25.6224 0.477916 24.9944C0.101116 24.492 -0.150084 23.7384 0.101116 23.1104L2.98992 10.2992C3.11551 9.7968 3.36671 9.42 3.74351 9.0432C4.12031 8.5408 4.62271 8.4152 5.12511 8.4152H42.8051C43.3075 8.4152 43.8099 8.5408 44.1867 8.9176C44.5635 9.2944 44.9403 9.6712 45.0659 10.1736L47.9547 22.9848C48.0803 23.7384 47.9547 24.3664 47.4523 24.8688C47.0755 25.4968 46.4475 25.748 45.6939 25.748H44.3123V39.8152C44.3123 40.4432 44.0611 41.0712 43.6843 41.448C43.1819 41.9504 42.6795 42.076 42.0515 42.076C41.4235 42.076 40.7955 41.8248 40.4187 41.448C40.0419 40.9456 39.7907 40.4432 39.7907 39.8152V25.8736H28.6123V39.9408C28.6123 40.5688 28.3611 41.1968 27.9843 41.5736C27.6075 41.9504 26.9795 42.2016 26.3515 42.2016H6.00431ZM8.13951 37.5544H23.9651V25.8736H8.13951V37.5544ZM4.99951 21.2264H43.1819L41.2979 12.9368H6.88351L4.99951 21.2264Z" fill="black"/>
</svg>
  