<svg width="48" height="48" viewBox="0 0 48 48" fill="none" xmlns="http://www.w3.org/2000/svg">
<path d="M40 40.5H8V22L5.5 18.5L9 7.5H39L42 18.5L40 22V40.5Z" fill="currentColor"/>
<mask id="mask0_6509_5659" style="mask-type:alpha" maskUnits="userSpaceOnUse" x="0" y="0" width="48" height="48">
<rect width="48" height="48" fill="currentColor"/>
</mask>
<g mask="url(#mask0_6509_5659)">
<path d="M42.3465 22.098V39C42.3465 39.92 42.0077 40.7177 41.33 41.393C40.652 42.0687 39.8515 42.4065 38.9285 42.4065H9.02154C8.10187 42.4065 7.30421 42.0687 6.62854 41.393C5.95287 40.7177 5.61504 39.92 5.61504 39V22.1455C4.66604 21.2979 4.05337 20.2745 3.77704 19.0755C3.50104 17.8765 3.54637 16.6902 3.91304 15.5165L6.06304 8.76653C6.35371 7.80253 6.85621 7.04869 7.57054 6.50502C8.28521 5.96102 9.11171 5.68903 10.05 5.68903H37.7C38.6954 5.68903 39.5714 5.96936 40.328 6.53002C41.0847 7.09036 41.6044 7.83586 41.887 8.76653L44.087 15.5165C44.4537 16.6832 44.4867 17.8617 44.186 19.052C43.8854 20.2427 43.2722 21.258 42.3465 22.098ZM28.5 20.3925C29.4307 20.3925 30.2204 20.0897 30.869 19.484C31.518 18.8787 31.7759 18.138 31.6425 17.262L30.4045 9.10753H25.6075V17.25C25.6075 18.0944 25.8804 18.8292 26.426 19.4545C26.972 20.0799 27.6634 20.3925 28.5 20.3925ZM19.1445 20.3925C20.0422 20.3925 20.8079 20.0882 21.4415 19.4795C22.0755 18.8709 22.3925 18.1277 22.3925 17.25V9.10753H17.5955L16.3575 17.262C16.2322 18.0967 16.4535 18.8272 17.0215 19.4535C17.5899 20.0795 18.2975 20.3925 19.1445 20.3925ZM10.053 20.3925C10.827 20.3925 11.4957 20.1235 12.059 19.5855C12.6227 19.0475 12.9505 18.3944 13.0425 17.626L14.3305 9.10753H9.53354L7.25754 16.324C6.93221 17.343 7.05754 18.2759 7.63354 19.1225C8.20987 19.9692 9.01637 20.3925 10.053 20.3925ZM37.9 20.3925C38.9347 20.3925 39.7485 19.977 40.3415 19.146C40.9342 18.3154 41.0679 17.3747 40.7425 16.324L38.4665 9.10753H33.6815L34.9575 17.626C35.0495 18.3944 35.3769 19.0475 35.9395 19.5855C36.5022 20.1235 37.1557 20.3925 37.9 20.3925ZM9.02154 39H38.9285V23.761C38.9855 23.7864 38.891 23.799 38.645 23.799H37.8985C37.1062 23.799 36.331 23.632 35.573 23.298C34.815 22.9637 34.0574 22.4419 33.3 21.7325C32.7587 22.3752 32.0872 22.8804 31.2855 23.248C30.4835 23.6154 29.6062 23.799 28.6535 23.799C27.6672 23.799 26.8137 23.6634 26.093 23.392C25.3724 23.1207 24.6747 22.6675 24 22.0325C23.4864 22.6082 22.8475 23.0465 22.0835 23.3475C21.3199 23.6485 20.4589 23.799 19.5005 23.799C18.4829 23.799 17.5735 23.6235 16.7725 23.2725C15.9712 22.9215 15.2804 22.4082 14.7 21.7325C13.876 22.4165 13.0727 22.932 12.29 23.279C11.5077 23.6257 10.761 23.799 10.05 23.799H9.41104C9.21037 23.799 9.08054 23.7864 9.02154 23.761V39Z" fill="#211F1F"/>
</g>
</svg>
