<svg width="100%" height="100%" viewBox="0 0 48 48" fill="none" xmlns="http://www.w3.org/2000/svg">
  <mask id="mask0_966_4772" style="mask-type:alpha" maskUnits="userSpaceOnUse" x="0" y="0" width="48" height="48">
    <rect width="100%" height="100%" fill="#D9D9D9" />
  </mask>
  <g mask="url(#mask0_966_4772)">
    <path
      d="M46.6314 20.1385C45.9471 18.998 45.0672 18.0855 44.0244 17.4012C43.7963 17.2383 43.5356 17.1079 43.275 16.9776C43.2098 16.945 43.1446 16.9124 43.0794 16.8798C43.112 16.8147 43.112 16.7495 43.1446 16.6843C43.2098 16.4562 43.3075 16.2281 43.3401 15.9674C43.5031 15.2505 43.6008 14.4684 43.6008 13.6538C43.6008 11.112 42.7536 8.9613 41.0591 7.20163C39.3646 5.40937 37.3116 4.52953 34.9328 4.52953C33.8574 4.52953 32.8473 4.72505 31.8697 5.11609C31.1202 3.58452 30.0448 2.34623 28.6436 1.40122C27.2424 0.456213 25.7108 0 24.0163 0C22.3544 0 20.7902 0.488799 19.389 1.43381C17.9878 2.37882 16.9124 3.61711 16.1629 5.14868C15.1853 4.75764 14.1752 4.56212 13.0998 4.56212C10.721 4.56212 8.66802 5.47454 6.94094 7.23422C5.24644 9.02648 4.3666 11.1772 4.3666 13.6864C4.3666 14.3707 4.43177 15.055 4.5947 15.7067C4.65988 15.9674 4.72505 16.1955 4.79022 16.4562C4.82281 16.5866 4.88798 16.7495 4.92057 16.8798C4.75764 16.945 4.5947 17.0428 4.43177 17.1405C4.13849 17.3035 3.84521 17.499 3.58452 17.6945C2.70468 18.3462 1.95519 19.1935 1.33605 20.2037C0.456211 21.6701 0 23.332 0 25.0917C0 26.7536 0.391038 28.3177 1.2057 29.7515C1.53157 30.3381 1.89002 30.8595 2.31365 31.3157C2.54175 31.5764 2.76986 31.8045 3.03055 32.0326C3.25865 32.2281 3.51935 32.4236 3.74745 32.6191C3.97556 32.7821 4.20367 32.9124 4.43177 33.0754C4.3666 33.5642 4.33401 33.9878 4.33401 34.2485C4.33401 34.2811 4.33401 34.3136 4.33401 34.3462C4.33401 34.9328 4.3666 35.4868 4.46436 36.0082C4.62729 37.0509 4.98574 37.9959 5.50713 38.9084C5.76782 39.3646 6.0611 39.7882 6.38697 40.1792C6.5499 40.3747 6.71283 40.5703 6.87576 40.7332C7.49491 41.3523 8.11405 41.8737 8.83096 42.2974C9.25458 42.558 9.67821 42.7536 10.1018 42.9165C11.0143 43.2424 11.9919 43.4379 13.0346 43.4379C14.11 43.4379 15.1202 43.2424 16.0978 42.8513C16.8473 44.4155 17.9226 45.6538 19.3238 46.5988C20.6925 47.5438 22.2566 48 23.9837 48C25.6456 48 27.2098 47.5438 28.611 46.5662C30.0122 45.6212 31.0876 44.3829 31.8371 42.8513C32.8147 43.2424 33.8249 43.4379 34.9002 43.4379C36.1385 43.4379 37.2464 43.2098 38.2892 42.721C38.6802 42.558 39.0713 42.3299 39.4623 42.0693C40.0163 41.7108 40.5377 41.2546 41.0265 40.7658C41.0917 40.7006 41.1242 40.6354 41.1894 40.6029C41.9715 39.723 42.558 38.778 42.9817 37.7352C43.2424 37.0509 43.4053 36.334 43.5031 35.5845C43.5682 35.1609 43.5682 34.7373 43.5682 34.3136C43.5682 34.2159 43.5682 34.0855 43.5682 33.9878C43.5682 33.6293 43.5356 33.3361 43.5031 33.1405C43.666 33.0428 43.7963 32.945 43.9593 32.8473C44.1874 32.6843 44.4155 32.5214 44.6436 32.3585C44.8717 32.1629 45.0998 31.9674 45.2953 31.7719C45.8493 31.2179 46.3381 30.5662 46.7617 29.8167C47.5764 28.3829 47.9674 26.8513 47.9674 25.1568C47.9674 23.2668 47.5112 21.6375 46.6314 20.1385ZM32.8798 17.4664L22.9735 32.2933C22.6477 32.8798 22.1914 33.1079 21.5397 33.1079C21.2139 33.1079 20.888 33.0102 20.5621 32.7821L20.3014 32.554L14.7943 27.0468C14.4684 26.721 14.3055 26.3299 14.3055 25.8411C14.3055 25.3523 14.4684 24.9613 14.7943 24.6354C15.1528 24.3096 15.5438 24.1466 16.0326 24.1466C16.4888 24.1141 16.9124 24.3096 17.2709 24.6354L21.279 28.6436L29.9796 15.5438C30.2729 15.1528 30.6314 14.9246 31.1202 14.8595C31.5764 14.7943 32 14.8921 32.391 15.1202C32.7821 15.3483 33.0102 15.7393 33.1079 16.1955C33.2057 16.6191 33.1405 17.0428 32.8798 17.4664Z"
      fill="#FECA16" />
    <path
      d="M32.8799 17.4664L22.9736 32.2933C22.6477 32.8799 22.1915 33.108 21.5398 33.108C21.2139 33.108 20.888 33.0102 20.5622 32.7821L20.3015 32.554L14.7943 27.0469C14.4685 26.721 14.3055 26.33 14.3055 25.8412C14.3055 25.3524 14.4685 24.9613 14.7943 24.6355C15.1528 24.3096 15.5438 24.1467 16.0326 24.1467C16.4888 24.1141 16.9125 24.3096 17.2709 24.6355L21.2791 28.6436L29.9797 15.5438C30.273 15.1528 30.6314 14.9247 31.1202 14.8595C31.5764 14.7943 32 14.8921 32.3911 15.1202C32.7821 15.3483 33.0102 15.7393 33.108 16.1955C33.2057 16.6192 33.1406 17.0428 32.8799 17.4664Z"
      fill="#211F1F" />
  </g>
</svg>
