<svg width="100%" height="100%" viewBox="0 0 48 48" fill="none" xmlns="http://www.w3.org/2000/svg">
<mask id="mask0_1603_8315" style="mask-type:alpha" maskUnits="userSpaceOnUse" x="0" y="0" width="48" height="48">
<rect width="100%" height="100%" fill="#D9D9D9"/>
</mask>
<g mask="url(#mask0_1603_8315)">
<path d="M24.05 42.55C18.75 42.55 14.325 40.7833 10.775 37.25C7.22495 33.7167 5.44995 29.3 5.44995 24C5.44995 19.9 6.49995 16.2917 8.59995 13.175C10.7 10.0583 13.8166 7.80001 17.95 6.40001C18.9166 6.10001 19.7416 5.98334 20.425 6.05001C21.1083 6.11668 21.6666 6.33334 22.1 6.70001C22.5333 7.06668 22.825 7.55001 22.975 8.15001C23.125 8.75001 23.1166 9.50001 22.95 10.4C22.9833 11.0667 22.975 11.675 22.925 12.225C22.875 12.775 22.85 13.3 22.85 13.8C22.85 16.9667 23.9666 19.6667 26.2 21.9C28.4333 24.1333 31.15 25.25 34.35 25.25C34.8833 25.25 35.425 25.2583 35.975 25.275C36.525 25.2917 37.1 25.3 37.7 25.3C38.6333 25.1667 39.4083 25.175 40.025 25.325C40.6416 25.475 41.1166 25.7667 41.45 26.2C41.75 26.6333 41.9166 27.1833 41.95 27.85C41.9833 28.5167 41.85 29.3333 41.55 30.3C40.15 33.9333 37.95 36.8834 34.95 39.15C31.95 41.4167 28.3166 42.55 24.05 42.55Z" fill="currentColor"/>
</g>
</svg>
