<svg width="100%" height="100%" viewBox="0 0 48 48" fill="none" xmlns="http://www.w3.org/2000/svg">
<mask id="mask0_1550_9062" style="mask-type:alpha" maskUnits="userSpaceOnUse" x="0" y="0" width="48" height="48">
<rect width="100%" height="100%" fill="#D9D9D9"/>
</mask>
<g mask="url(#mask0_1550_9062)">
<path d="M26.2 23.0773V15.6C26.2 15.0108 26.0066 14.5219 25.6199 14.1331C25.2332 13.7444 24.7467 13.55 24.1606 13.55C23.5744 13.55 23.0844 13.7444 22.6906 14.1331C22.2969 14.5219 22.1 15.0108 22.1 15.6V23.9C22.1 24.2 22.15 24.481 22.25 24.7429C22.35 25.0048 22.5 25.2571 22.7 25.5L29.3 32.35C29.7422 32.7833 30.2528 32.9917 30.8316 32.975C31.4105 32.9583 31.9167 32.75 32.35 32.35C32.7833 31.95 33 31.45 33 30.85C33 30.25 32.7833 29.7333 32.35 29.3L26.2 23.0773ZM24.0069 45.25C21.069 45.25 18.3104 44.6939 15.7312 43.5817C13.1521 42.4695 10.9002 40.9517 8.97565 39.0284C7.05108 37.1051 5.53233 34.8547 4.4194 32.2772C3.30647 29.6997 2.75 26.9425 2.75 24.0055C2.75 21.0685 3.30973 18.3086 4.4292 15.7257C5.54863 13.1427 7.0655 10.8941 8.9798 8.97981C10.8941 7.06551 13.1411 5.54031 15.721 4.40421C18.3007 3.26808 21.0604 2.70001 24 2.70001C26.9396 2.70001 29.6993 3.26808 32.2791 4.40421C34.8589 5.54031 37.1059 7.06551 39.0202 8.97981C40.9345 10.8941 42.4597 13.1412 43.5958 15.721C44.7319 18.3007 45.3 21.0604 45.3 24C45.3 26.9396 44.7319 29.6993 43.5958 32.2791C42.4597 34.8589 40.9345 37.1059 39.0202 39.0202C37.1059 40.9345 34.8596 42.4514 32.2812 43.5708C29.7029 44.6903 26.9448 45.25 24.0069 45.25Z" fill="currentColor"/>
</g>
</svg>
