<svg width="100%" height="100%" viewBox="0 0 23 24" fill="none" xmlns="http://www.w3.org/2000/svg">
<mask id="mask0_650_765" style="mask-type:alpha" maskUnits="userSpaceOnUse" x="0" y="0" width="23" height="24">
<rect y="0.0322571" width="23" height="23" fill="#D9D9D9"/>
</mask>
<g mask="url(#mask0_650_765)">
<path d="M14.6113 4.99162C14.2385 4.99162 13.9183 4.85665 13.6506 4.5867C13.3829 4.31676 13.249 3.9954 13.249 3.62262C13.249 3.24985 13.384 2.92961 13.654 2.66192C13.9239 2.39422 14.2453 2.26037 14.618 2.26037C14.9908 2.26037 15.3111 2.39535 15.5787 2.66529C15.8464 2.93524 15.9803 3.2566 15.9803 3.62938C15.9803 4.00215 15.8453 4.32239 15.5754 4.59008C15.3054 4.85778 14.9841 4.99162 14.6113 4.99162ZM14.6113 20.8041C14.2385 20.8041 13.9183 20.6692 13.6506 20.3992C13.3829 20.1293 13.249 19.8079 13.249 19.4351C13.249 19.0623 13.384 18.7421 13.654 18.4744C13.9239 18.2067 14.2453 18.0729 14.618 18.0729C14.9908 18.0729 15.3111 18.2078 15.5787 18.4778C15.8464 18.7477 15.9803 19.0691 15.9803 19.4419C15.9803 19.8147 15.8453 20.1349 15.5754 20.4026C15.3054 20.6703 14.9841 20.8041 14.6113 20.8041ZM18.4446 8.34579C18.0718 8.34579 17.7516 8.21082 17.4839 7.94087C17.2162 7.67093 17.0824 7.34956 17.0824 6.97679C17.0824 6.60401 17.2173 6.28378 17.4873 6.01608C17.7572 5.74839 18.0786 5.61454 18.4514 5.61454C18.8242 5.61454 19.1444 5.74951 19.4121 6.01946C19.6798 6.28941 19.8136 6.61077 19.8136 6.98354C19.8136 7.35632 19.6787 7.67656 19.4087 7.94425C19.1388 8.21194 18.8174 8.34579 18.4446 8.34579ZM18.4446 17.45C18.0718 17.45 17.7516 17.315 17.4839 17.045C17.2162 16.7751 17.0824 16.4537 17.0824 16.081C17.0824 15.7082 17.2173 15.3879 17.4873 15.1202C17.7572 14.8526 18.0786 14.7187 18.4514 14.7187C18.8242 14.7187 19.1444 14.8537 19.4121 15.1236C19.6798 15.3936 19.8136 15.7149 19.8136 16.0877C19.8136 16.4605 19.6787 16.7807 19.4087 17.0484C19.1388 17.3161 18.8174 17.45 18.4446 17.45ZM19.8821 12.8979C19.5093 12.8979 19.1891 12.7629 18.9214 12.493C18.6537 12.223 18.5199 11.9016 18.5199 11.5289C18.5199 11.1561 18.6548 10.8359 18.9248 10.5682C19.1947 10.3005 19.5161 10.1666 19.8889 10.1666C20.2617 10.1666 20.5819 10.3016 20.8496 10.5715C21.1173 10.8415 21.2511 11.1629 21.2511 11.5356C21.2511 11.9084 21.1162 12.2286 20.8462 12.4963C20.5763 12.764 20.2549 12.8979 19.8821 12.8979ZM1.55737 11.5323C1.55737 8.96072 2.4039 6.73659 4.09696 4.85985C5.79001 2.98312 7.89835 1.90899 10.422 1.63746C10.7095 1.62149 10.961 1.72117 11.1766 1.93651C11.3923 2.15184 11.5001 2.41382 11.5001 2.72243C11.5001 3.02134 11.4127 3.28474 11.2378 3.51265C11.063 3.74056 10.839 3.88216 10.5657 3.93746C8.66501 4.16107 7.06779 4.98869 5.77404 6.42033C4.48029 7.85197 3.83342 9.55669 3.83342 11.5345C3.83342 13.4928 4.48029 15.1919 5.77404 16.6318C7.06779 18.0717 8.66501 18.9034 10.5657 19.127C10.839 19.1826 11.063 19.325 11.2378 19.5543C11.4127 19.7836 11.5001 20.0485 11.5001 20.3489C11.5001 20.6534 11.3937 20.9133 11.181 21.1284C10.9682 21.3435 10.7152 21.435 10.422 21.4031C7.91432 21.1475 5.80998 20.0814 4.10894 18.2046C2.40789 16.3279 1.55737 14.1038 1.55737 11.5323ZM11.498 13.6166C10.916 13.6166 10.4235 13.4146 10.0203 13.0105C9.61725 12.6064 9.41571 12.1136 9.41571 11.5323C9.41571 11.4644 9.4197 11.3915 9.42769 11.3136C9.43567 11.2358 9.44765 11.1622 9.46362 11.093L8.19383 9.83121C7.97022 9.6076 7.85842 9.34805 7.85842 9.05256C7.85842 8.75708 7.97821 8.48954 8.21779 8.24996C8.4414 8.02635 8.70494 7.91853 9.00842 7.92652C9.31189 7.93451 9.57543 8.04232 9.79904 8.24996L11.0895 9.49579C11.1716 9.46385 11.3084 9.44788 11.5001 9.44788C12.0815 9.44788 12.5742 9.65013 12.9783 10.0546C13.3824 10.4592 13.5845 10.9524 13.5845 11.5344C13.5845 12.1163 13.3822 12.6089 12.9777 13.012C12.5732 13.4151 12.0799 13.6166 11.498 13.6166Z" fill="#757575"/>
</g>
</svg>
