<svg width="100%" height="100%" viewBox="0 0 48 57" fill="none" xmlns="http://www.w3.org/2000/svg">
<path d="M22.3748 56.5625C20.6088 56.5625 18.9498 56.2038 17.3976 55.4864C15.8454 54.769 14.5462 53.7319 13.4998 52.375L1.3748 36.8125C0.83313 36.0625 0.606046 35.2481 0.693546 34.3693C0.781046 33.4905 1.1748 32.7632 1.8748 32.1875L2.3123 31.8125C3.22459 31.0927 4.26515 30.6835 5.43398 30.5851C6.60286 30.4867 7.72896 30.7083 8.8123 31.25L13.6873 33.6875V12.875C13.6873 12.1406 13.9532 11.5091 14.485 10.9805C15.0168 10.4518 15.6529 10.1875 16.3934 10.1875C17.1339 10.1875 17.7638 10.4518 18.2832 10.9805C18.8026 11.5091 19.0623 12.1406 19.0623 12.875V26.625H36.8659C39.8267 26.625 42.3601 27.6719 44.4659 29.7656C46.5718 31.8594 47.6248 34.375 47.6248 37.3125V46.375C47.6248 49.2083 46.6248 51.6146 44.6248 53.5938C42.6248 55.5729 40.2175 56.5625 37.4029 56.5625H22.3748ZM24.6132 20.4375C23.8644 20.4375 23.2312 20.1718 22.7137 19.6403C22.1961 19.1088 21.9373 18.4737 21.9373 17.7351C21.9373 17.4742 22.0623 17.0208 22.3123 16.375C22.604 15.875 22.8331 15.3333 22.9998 14.75C23.1665 14.1667 23.2498 13.5525 23.2498 12.9076C23.2498 11.0109 22.5807 9.39583 21.2424 8.0625C19.9042 6.72917 18.2792 6.0625 16.3674 6.0625C14.4557 6.0625 12.8331 6.7309 11.4998 8.06769C10.1665 9.40452 9.4998 11.0278 9.4998 12.9375C9.4998 13.5625 9.58313 14.1667 9.7498 14.75C9.91646 15.3333 10.1456 15.875 10.4373 16.375C10.5623 16.5833 10.656 16.793 10.7185 17.0039C10.781 17.2148 10.8123 17.457 10.8123 17.7305C10.8123 18.4831 10.5406 19.1224 9.9973 19.6484C9.45396 20.1745 8.8098 20.4375 8.0648 20.4375C7.52146 20.4375 7.03105 20.3125 6.59355 20.0625C6.15605 19.8125 5.82965 19.4617 5.61436 19.0101C5.12132 18.045 4.73938 17.0579 4.46855 16.0487C4.19771 15.0395 4.0623 13.9899 4.0623 12.9C4.0623 9.51084 5.26188 6.61771 7.66105 4.22063C10.0602 1.82354 12.9618 0.625 16.3657 0.625C19.7697 0.625 22.6743 1.82269 25.0795 4.21806C27.4847 6.61344 28.6873 9.51992 28.6873 12.9375C28.6873 14.0492 28.5476 15.1007 28.2683 16.0921C27.989 17.0834 27.6078 18.0527 27.1248 19C26.9165 19.4583 26.5822 19.8125 26.1221 20.0625C25.6619 20.3125 25.159 20.4375 24.6132 20.4375Z" fill="currentColor"/>
</svg>
