<svg width="100%" height="100%" viewBox="0 0 47 48" fill="none" xmlns="http://www.w3.org/2000/svg">
<path d="M28.963 39.4958L27.5153 43.1522C27.3776 43.5319 27.1413 43.8417 26.8065 44.0816C26.4717 44.3214 26.0978 44.4413 25.6848 44.4413C24.9819 44.4413 24.4333 44.1634 24.0392 43.6076C23.6449 43.0518 23.5667 42.4392 23.8043 41.7696L31.5217 21.1609C31.6927 20.6623 31.9931 20.2576 32.4228 19.9468C32.8525 19.6359 33.3355 19.4805 33.8718 19.4805H35.774C36.2914 19.4805 36.7696 19.6359 37.2088 19.9468C37.6479 20.2576 37.953 20.6623 38.124 21.1609L45.8131 41.7131C46.0696 42.4015 45.9961 43.0283 45.5924 43.5935C45.1888 44.1587 44.6261 44.4413 43.9044 44.4413C43.4768 44.4413 43.0862 44.3167 42.7326 44.0674C42.379 43.8181 42.1333 43.4963 41.9956 43.1021L40.5761 39.4957L28.963 39.4958ZM17.4891 28.7305L8.99785 37.2001C8.58482 37.5798 8.11705 37.7732 7.59455 37.7805C7.07208 37.7877 6.61375 37.5848 6.21955 37.1718C5.80652 36.7776 5.6 36.3145 5.6 35.7826C5.6 35.2508 5.80652 34.7877 6.21955 34.3935L14.7391 25.8739C12.9072 23.9565 11.3974 22.0801 10.2098 20.2446C9.02205 18.4091 8.15647 16.6572 7.613 14.9891H12.0783C12.4986 16.1964 13.1623 17.4623 14.0695 18.787C14.9768 20.1116 16.1522 21.5217 17.5956 23.0174C19.0913 21.4174 20.4609 19.5109 21.7044 17.2978C22.9478 15.0848 23.8246 12.9819 24.3348 10.9891H2.98045C2.41522 10.9891 1.94383 10.8004 1.5663 10.4228C1.18877 10.0453 1 9.57393 1 9.0087C1 8.44347 1.18877 7.96737 1.5663 7.5804C1.94383 7.19347 2.41522 7 2.98045 7H15.5V5.0087C15.5 4.44347 15.6888 3.96737 16.0663 3.5804C16.4438 3.19347 16.9152 3 17.4805 3C18.0457 3 18.5218 3.19347 18.9087 3.5804C19.2957 3.96737 19.4891 4.44347 19.4891 5.0087V7H31.9805C32.5457 7 33.0218 7.19347 33.4087 7.5804C33.7957 7.96737 33.9891 8.44347 33.9891 9.0087C33.9891 9.57393 33.7957 10.0453 33.4087 10.4228C33.0218 10.8004 32.5457 10.9891 31.9805 10.9891H28.6218C28.0363 13.5138 26.9877 16.1297 25.4761 18.837C23.9645 21.5442 22.2544 23.8971 20.3457 25.8957L24.4283 30.05L22.8609 34.3022L17.4891 28.7305ZM30.3239 35.7565H39.2153L34.7696 23.9218L30.3239 35.7565Z" fill="currentColor"/>
</svg>
