<svg width="100%" height="100%" viewBox="0 0 18 18" fill="none" xmlns="http://www.w3.org/2000/svg">
<path d="M3.75 15V13.5H4.95L6.43125 8.56875C6.53125 8.24375 6.71563 7.98437 6.98438 7.79062C7.25313 7.59687 7.55 7.5 7.875 7.5H10.125C10.45 7.5 10.7469 7.59687 11.0156 7.79062C11.2844 7.98437 11.4688 8.24375 11.5688 8.56875L13.05 13.5H14.25V15H3.75ZM8.25 6V2.25H9.75V6H8.25ZM12.7125 7.85625L11.6438 6.7875L14.3063 4.14375L15.3563 5.19375L12.7125 7.85625ZM13.5 11.25V9.75H17.25V11.25H13.5ZM5.2875 7.85625L2.64375 5.19375L3.69375 4.14375L6.35625 6.7875L5.2875 7.85625ZM0.75 11.25V9.75H4.5V11.25H0.75Z" fill="#FF453A"/>
</svg>
