<svg width="100%" height="100%" viewBox="0 0 13 12" fill="none" xmlns="http://www.w3.org/2000/svg">
<path d="M7.0875 1.38767V0H12.4979V1.38767H7.0875ZM7.0875 4.21255V2.84141H12.4979V4.21255H7.0875ZM7.0875 7.03745V5.68282H12.4979V7.03745H7.0875ZM3.81655 6.47577C3.22635 6.47577 2.73924 6.25389 2.35521 5.81012C1.97118 5.36635 1.77917 4.81019 1.77917 4.14162C1.77917 3.47305 1.97354 2.9185 2.36228 2.47797C2.75103 2.03745 3.23836 1.81718 3.82426 1.81718C4.41422 1.81718 4.90385 2.0385 5.29314 2.48113C5.68243 2.92376 5.87708 3.47855 5.87708 4.1455C5.87708 4.81704 5.68121 5.3733 5.28946 5.81428C4.89772 6.25528 4.40674 6.47577 3.81655 6.47577ZM0 11.25V9.78433C0 9.50594 0.0578229 9.24537 0.173469 9.00263C0.289115 8.75988 0.445181 8.5839 0.641667 8.47467C1.09861 8.10022 1.60098 7.82214 2.14878 7.64042C2.69658 7.4587 3.25318 7.36784 3.81857 7.36784C4.38397 7.36784 4.93889 7.46696 5.48333 7.6652C6.02778 7.86344 6.53819 8.13326 7.01458 8.47467C7.20136 8.61818 7.35499 8.80412 7.47549 9.03248C7.596 9.26084 7.65625 9.51151 7.65625 9.78449V11.25H0Z" fill="currentColor"/>
</svg>
