<svg width="92" height="82" viewBox="0 0 92 82" fill="none" xmlns="http://www.w3.org/2000/svg">
<g clip-path="url(#clip0_6319_2457)">
<path d="M31.4268 36.7288L29.4454 39.0855L29.808 41.3596L30.8607 43.8563L38.9393 39.7662L31.4268 36.7288Z" fill="#26231F"/>
<path d="M63.0063 57.3481L61.0248 59.7049L61.3842 61.9758L62.437 64.4757L70.5187 60.3856L63.0063 57.3481Z" fill="#26231F"/>
<path d="M68.3655 61.0948C67.4876 60.5223 66.6703 60.4333 66.0596 60.7513L63.9636 61.8136L68.1619 69.9971L70.2579 68.9348C70.8526 68.6231 71.247 67.9202 71.3011 66.8961C71.4156 64.8256 70.0989 62.2271 68.3623 61.0948H68.3655Z" fill="#5D5D56"/>
<path d="M69.2051 67.9615C69.0906 70.0321 67.5926 70.7922 65.856 69.6568C64.1195 68.5213 62.8027 65.926 62.9172 63.8555C63.0317 61.785 64.5297 61.0248 66.2663 62.1603C68.0029 63.2957 69.3196 65.891 69.2051 67.9615Z" fill="#5A5854"/>
<path d="M65.697 67.8789C64.8764 67.3636 64.2467 66.1487 64.2849 65.1595C64.323 64.1704 65.0196 63.7887 65.8401 64.3008C66.6607 64.816 67.2905 66.031 67.2523 67.0201C67.2141 68.0093 66.5176 68.3909 65.697 67.8789Z" fill="#B4AFA4"/>
<path d="M65.697 67.8789C64.8764 67.3636 64.2467 66.1487 64.2849 65.1595C64.323 64.1704 65.0196 63.7887 65.8401 64.3008C66.2759 64.5743 66.6575 65.0418 66.912 65.573C67.141 66.0405 67.2682 66.5558 67.2523 67.0201C67.2523 67.0615 67.2491 67.0996 67.2427 67.1378C67.1537 68.0379 66.4826 68.3718 65.697 67.8789Z" fill="#BEBDBE"/>
<path d="M36.8019 40.485C35.9241 39.9125 35.1067 39.8234 34.4961 40.1415L32.4001 41.2038L36.5984 49.3873L38.6944 48.325C39.2891 48.0133 39.6835 47.3104 39.7376 46.2862C39.8521 44.2157 38.5353 41.6172 36.7988 40.485H36.8019Z" fill="#26231F"/>
<path d="M37.6416 47.3517C37.5271 49.4223 36.0291 50.1824 34.2925 49.047C32.5559 47.9115 31.2392 45.3162 31.3537 43.2457C31.4682 41.1752 32.9662 40.415 34.7028 41.5505C36.4393 42.6859 37.7561 45.2812 37.6416 47.3517Z" fill="#3F3932"/>
<path d="M34.3402 48.096C33.0871 47.3104 32.117 45.4434 32.1774 43.9327C32.2379 42.4187 33.3033 41.8303 34.5596 42.6191C35.8128 43.4047 36.7828 45.2717 36.7224 46.7824C36.662 48.2964 35.5965 48.8848 34.3402 48.096Z" fill="#A8A8A8"/>
<path d="M34.1335 47.269C33.3129 46.7538 32.6831 45.5388 32.7213 44.5497C32.7595 43.5605 33.456 43.1788 34.2766 43.6909C35.0972 44.2062 35.7269 45.4211 35.6887 46.4103C35.6506 47.3994 34.954 47.7811 34.1335 47.269Z" fill="#A8A8A8"/>
<path d="M36.3694 46.722C36.3757 46.6711 36.3789 46.6202 36.3789 46.5693C36.4044 45.965 36.2326 45.2939 35.9368 44.6833C35.6029 43.9931 35.1035 43.3824 34.5406 43.0262C33.4719 42.3583 32.5655 42.8577 32.5146 44.1458C32.4637 45.4339 33.2874 47.0178 34.3529 47.6889C35.377 48.3313 36.2517 47.8956 36.3662 46.7252L36.3694 46.722ZM34.1335 47.269C33.3129 46.7538 32.6831 45.5388 32.7213 44.5497C32.7595 43.5606 33.456 43.1789 34.2766 43.691C34.7123 43.9645 35.094 44.432 35.3484 44.9632C35.5774 45.4307 35.7046 45.9459 35.6887 46.4103C35.6887 46.4517 35.6856 46.4898 35.6792 46.528C35.5901 47.4281 34.919 47.762 34.1335 47.269Z" fill="#BEBDBE"/>
<path d="M35.94 44.6832L35.3516 44.9631C35.5806 45.4306 35.7078 45.9459 35.6919 46.4103C35.6919 46.4516 35.6887 46.4898 35.6823 46.5279L36.3725 46.7219C36.3789 46.6711 36.3821 46.6202 36.3821 46.5693C36.4075 45.965 36.2357 45.2939 35.94 44.6832Z" fill="#E4E4E3"/>
<path d="M91.507 53.3152C90.098 51.9412 85.4163 47.3771 84.7325 46.7124L79.5927 33.3924C79.5069 33.1665 79.351 32.9757 79.1475 32.8421C75.6234 30.5458 43.5383 9.5861 43.5383 9.5861C43.2743 9.41435 42.6096 9.52249 41.9162 9.87552L27.114 17.4229C26.303 17.8364 26.0708 18.2689 25.8927 18.746C25.8545 18.8955 24.3247 26.1694 24.5664 37.8515C24.5728 38.2013 24.6777 38.548 24.8654 38.8406L25.8513 40.3863C25.9977 40.6122 26.1853 40.8062 26.4111 40.9525C27.2094 41.4741 30.0019 43.2965 30.8543 43.8531L30.9084 42.8799C31.042 40.5581 32.7372 39.7121 34.6964 40.9875C36.6524 42.266 38.1314 45.1858 37.9978 47.5075L37.9437 48.4808L40.768 50.3255C48.2518 55.2108 54.9627 59.5936 62.437 64.4757L62.491 63.5024C62.6246 61.1806 64.3198 60.3346 66.2791 61.61C68.2351 62.8886 69.714 65.8083 69.5804 68.1301L69.5264 69.1033L70.1847 69.5327L72.9295 71.3234C76.1069 73.3971 89.3029 67.4813 91.154 63.3211C91.2685 63.0635 91.3225 62.7868 91.3384 62.5037C91.4211 61.0948 91.701 56.3049 91.7869 54.7719C91.8251 54.0849 91.7265 53.5219 91.507 53.3088V53.3152Z" fill="#DCD5CD"/>
<path d="M25.6096 30.6667L25.5397 32.8104C32.8613 36.9101 63.8841 57.116 63.8841 57.116L25.6128 30.6667H25.6096Z" fill="url(#paint0_linear_6319_2457)"/>
<path d="M65.802 55.0072L61.8295 44.6864C61.6832 44.3048 61.4256 43.9867 61.0821 43.7641L55.284 39.9792C55.284 39.9792 55.2553 39.9697 55.2394 39.9729C55.2235 39.9792 55.214 39.992 55.2108 40.0047C55.2045 40.0238 54.7274 41.8621 54.5843 51.7631C54.5588 53.5506 54.5429 55.5129 54.5429 57.5962C54.5429 57.6121 54.5524 57.628 54.5652 57.6375L62.1889 62.6151C62.1889 62.6151 62.2112 62.6246 62.2239 62.6278C62.2748 62.6151 62.2939 62.596 62.297 62.5705C62.4465 60.9962 64.1417 60.077 65.5285 60.6972C65.5507 60.7067 65.573 60.7195 65.5952 60.7131C65.6143 60.7068 65.6302 60.6813 65.6302 60.6622L65.9069 55.6465C65.9197 55.4271 65.8847 55.214 65.8052 55.0104L65.802 55.0072ZM65.5348 60.5764C63.7823 59.918 62.2811 61.2029 62.208 62.5133L54.6415 57.5739C54.6415 55.5002 54.6574 53.5474 54.6828 51.7663C54.8132 42.8799 55.2108 40.4977 55.2903 40.0969L61.028 43.8436C61.3524 44.0567 61.5973 44.3588 61.7373 44.7214L65.7097 55.0422C65.7829 55.2331 65.8147 55.4334 65.8052 55.6402L65.5348 60.5795V60.5764Z" fill="#B0ACAA"/>
<path d="M54.3679 39.4194C54.3743 39.4004 54.368 39.3781 54.3489 39.3654L41.7699 31.1532C41.7699 31.1532 41.7412 31.1437 41.7253 31.1469C41.7094 31.1533 41.6999 31.166 41.6967 31.1787C41.6872 31.2105 41.4741 32.0152 41.2896 35.571C41.1847 37.5684 41.1115 40.046 41.0702 42.9371C41.0447 44.7341 41.0288 46.6965 41.0288 48.7702C41.0288 48.7861 41.0384 48.802 41.0511 48.8116L53.6301 57.0269C53.6969 57.0205 53.7064 57.0046 53.7064 56.9855C53.7064 54.9054 53.7223 52.9431 53.7477 51.1524C53.8909 41.2769 54.3679 39.4353 54.3711 39.4163L54.3679 39.4194ZM41.1242 48.7448C41.1242 46.6806 41.1401 44.7277 41.1656 42.9403C41.2069 40.0492 41.2832 37.5747 41.385 35.5774C41.5409 32.5749 41.7222 31.5254 41.7731 31.2709L54.2662 39.429C54.2026 39.7216 53.7827 41.9702 53.646 51.1524C53.6205 52.9176 53.6078 54.8514 53.6046 56.8965L41.1242 48.7448Z" fill="#B0ACAA"/>
<path d="M62.1857 63.0762L62.2811 63.0858C63.1303 57.7584 69.9875 62.1157 69.9557 67.9806L70.0543 67.987C71.2343 59.4218 61.028 56.6293 62.1857 63.0762Z" fill="url(#paint1_linear_6319_2457)"/>
<path d="M30.5713 42.4314L30.6667 42.441C31.3028 36.786 38.3731 41.4709 38.3413 47.3358L38.4399 47.3421C39.6199 38.777 29.4136 35.9845 30.5713 42.4314Z" fill="url(#paint2_linear_6319_2457)"/>
<path style="mix-blend-mode:screen" opacity="0.2" d="M31.1915 41.6363C31.0388 41.9862 30.9402 42.4028 30.9147 42.8831L30.8607 43.8563C30.0083 43.2997 27.2158 41.4773 26.4175 40.9557C26.1917 40.8094 26.004 40.6154 25.8577 40.3896L24.8717 38.8438C24.6841 38.548 24.5791 38.2045 24.5728 37.8547C24.5696 37.6702 24.5664 37.4889 24.5632 37.3044L31.1946 41.6331L31.1915 41.6363ZM69.4659 66.6257C69.5677 67.141 69.6122 67.6499 69.5836 68.1333L69.5296 69.1066L70.1879 69.5359L72.9327 71.3266C73.7406 71.8545 75.2004 71.8577 76.9497 71.511L69.4659 66.6257ZM37.8833 46.0064C37.9851 46.5216 38.0296 47.0305 38.001 47.5139L37.9469 48.4872L40.7712 50.3319C48.255 55.2172 54.9659 59.6 62.4402 64.4821L62.4942 63.5088C62.5229 63.0254 62.6214 62.6087 62.7709 62.2621L37.8801 46.0096L37.8833 46.0064Z" fill="url(#paint3_linear_6319_2457)"/>
<path d="M79.5864 33.3828C79.5005 33.157 79.3447 32.9662 79.1411 32.8326L43.5415 9.5893C43.2775 9.41755 42.6127 9.52569 41.9194 9.87873L27.1172 17.4261C26.3062 17.8396 26.074 18.2721 25.8959 18.7492L60.6463 41.4391C61.3333 41.8876 61.8645 42.5428 62.1603 43.3093L66.9756 55.7865C66.9756 55.7865 72.8723 54.632 77.6145 52.2052C81.6919 50.1188 84.7293 46.6934 84.7357 46.7124C84.7357 46.7124 80.4038 35.5043 79.5864 33.3828Z" fill="#E9E6E3"/>
<path d="M84.7325 46.7125C83.7847 47.5617 77.1596 52.0176 66.9724 55.7897L73.3907 62.0458C75.0128 63.1685 79.0457 62.0712 83.1168 60.2011C92.8715 55.4685 91.4593 53.2707 91.3098 53.1244C89.7068 51.5596 85.3845 47.3486 84.7325 46.7125Z" fill="#E9E6E3"/>
<path d="M60.8245 44.0853L56.3495 41.1338C56.0728 40.9525 55.7038 41.1274 55.672 41.455C55.5543 42.7399 55.478 44.6705 55.4303 46.1908C55.3858 47.6507 56.1014 49.031 57.3259 49.8293L65.2168 54.9818L61.4097 44.8168C61.2984 44.5147 61.0917 44.2602 60.8245 44.0821V44.0853Z" fill="#A39E95"/>
<path d="M57.4817 49.4064C56.3367 48.6589 55.6529 47.3454 55.6943 45.9777C55.7388 44.5433 55.7961 42.7749 55.9169 41.4741C55.9265 41.3596 56.0282 41.296 56.1205 41.2992C56.1555 41.2992 56.1873 41.3119 56.2159 41.331L60.6909 44.2825C60.9167 44.432 61.0885 44.6451 61.1839 44.8995L64.4662 53.9641L57.4786 49.4032L57.4817 49.4064Z" fill="#A39E94"/>
<path d="M83.7116 45.666L80.054 36.2485C79.9903 36.0863 79.7995 36.0195 79.65 36.1117C75.6298 38.6593 69.9971 41.5282 63.6297 44.2666C63.4548 44.3429 63.3689 44.5433 63.4389 44.7214L66.9629 53.7287C67.211 54.3679 67.9425 54.6765 68.5722 54.3998C74.3767 51.8649 79.5164 49.225 83.3172 46.8555C83.7179 46.6043 83.8833 46.1018 83.7116 45.6597V45.666Z" fill="#BDB9AF"/>
<path d="M64.1608 44.6483C69.8763 42.1643 75.8207 39.1459 79.6023 36.8082C79.755 36.7128 79.949 36.7828 80.0158 36.9514L83.0277 44.6642C83.2122 45.1412 83.0277 45.6787 82.5952 45.9427C78.9153 48.185 73.4702 50.9616 68.1906 53.2834C67.6721 53.5124 67.0678 53.2579 66.8611 52.73L63.9159 45.243C63.8237 45.0108 63.9318 44.7468 64.1608 44.6483Z" fill="#BDB9AF"/>
<path d="M79.3033 33.1506C79.3033 33.1506 78.2951 33.8663 76.708 34.8331C75.9129 35.3102 74.981 35.8636 73.9632 36.4202C72.9454 36.9768 71.8482 37.5525 70.7445 38.1091C68.5277 39.2095 66.2759 40.24 64.5679 40.962C63.7155 41.331 62.9967 41.6108 62.4942 41.8144C61.9917 42.018 61.7054 42.1324 61.7054 42.1324C61.7054 42.1324 62.8282 41.614 64.5107 40.8348C66.19 40.0524 68.4291 39.0028 70.6332 37.8896C72.8468 36.7955 75.0255 35.6251 76.638 34.7155C78.2537 33.8058 79.3033 33.1506 79.3033 33.1506Z" fill="#F1EEED"/>
<path opacity="0.6" d="M67.4336 55.7324C67.3414 55.6338 67.2682 55.5161 67.2205 55.3889L65.8274 51.69C63.5565 45.6576 62.3066 42.4887 62.0776 42.1834L62.0299 42.1197C61.7023 41.6554 61.2061 41.2165 60.5605 40.8253C49.5113 33.5705 39.6803 27.1776 26.0295 18.5425C26.0167 18.5361 26.004 18.5361 25.9913 18.5298C25.9595 18.6029 25.9277 18.6729 25.9022 18.7492C25.8991 18.7651 25.8768 18.8478 25.8386 19.0005C39.1937 27.9982 48.9865 34.4197 60.0579 41.6077C60.6368 41.9607 61.0057 42.2756 61.2888 42.6636L61.3461 42.7399C61.556 43.0135 61.5719 43.058 63.2766 47.3931C64.0241 49.2918 65.0895 52.008 66.6353 55.9201C66.6544 55.971 66.683 56.0155 66.7243 56.0536C66.7243 56.0536 72.7165 61.5909 73.5116 62.1412L67.4368 55.7324H67.4336Z" fill="#E9E6E3"/>
<path d="M53.1657 39.0791C50.4528 37.3044 31.1851 24.6968 27.9823 22.6008C27.7629 22.4577 27.4734 22.5786 27.4194 22.8362C26.9773 24.9385 26.7705 28.0236 26.6974 29.264C26.6783 29.6012 26.8405 29.9224 27.1267 30.1069L50.9839 45.6851C51.4069 45.9618 51.973 45.7487 52.1066 45.2653C52.5233 43.7672 53.3279 40.9779 53.4615 39.7057C53.487 39.4576 53.3757 39.2191 53.1657 39.0791Z" fill="#A39E95"/>
<path d="M41.3755 31.659L27.8487 22.8075C27.8296 22.7948 27.8074 22.7885 27.7851 22.7853C27.731 22.7853 27.6674 22.8171 27.6547 22.8871C27.2158 24.9767 27.0345 27.836 26.9645 29.0605C26.9518 29.3085 27.0727 29.5503 27.2826 29.687L40.9461 38.6084C41.0034 36.7637 41.1306 33.4878 41.3755 31.6558V31.659Z" fill="#A39E95"/>
<path d="M53.2198 39.6867C53.2357 39.5244 53.1657 39.3718 53.029 39.2827L41.8176 31.9484C41.5727 33.8186 41.4487 37.0182 41.3914 38.9042L51.2193 45.3226C51.4196 45.453 51.6868 45.3607 51.7631 45.1349C52.1321 44.0281 53.0671 41.1274 53.2198 39.6898V39.6867Z" fill="#A39E95"/>
<path d="M79.7836 62.7232C79.4847 62.437 77.7735 62.8154 74.7806 63.0349C74.6184 63.0476 74.4658 63.0413 74.329 63.0508C73.7597 64.3962 74.3608 65.08 74.7202 65.9006C76.6285 65.9769 80.5692 65.4616 80.3879 64.4343C80.2416 63.6042 80.0476 62.9776 79.7804 62.7232H79.7836Z" fill="#E8E3D9"/>
<path d="M74.4466 63.0444C73.8201 63.0731 73.4098 63.1844 73.5593 63.8618C73.7056 64.5138 73.995 65.8687 74.7201 65.9005C74.7201 65.9005 74.383 64.0781 74.4434 63.0444H74.4466Z" fill="#E8E3D9"/>
<path d="M89.4651 57.5835C89.4333 57.6853 89.4047 57.7966 89.3856 57.9206C89.3029 58.4645 89.2107 60.0261 89.5987 59.8735C90.1107 59.6731 91.2907 58.5822 91.6056 57.9333C91.9618 57.1955 91.8791 55.0868 91.7901 54.6892C91.3925 55.3508 90.8773 55.936 90.327 56.4735C89.9231 56.8711 89.6178 57.116 89.4619 57.5835H89.4651Z" fill="#E7E3D9"/>
<path d="M80.3211 62.5737L81.0526 64.6951C81.0749 64.7651 81.148 64.8033 81.2148 64.7778C81.9432 64.5329 85.8393 63.1526 88.8449 60.7799C88.8894 60.7449 88.9181 60.6877 88.9181 60.6304V58.0733C88.9181 58.016 88.8544 57.9779 88.8067 58.016C88.1961 58.4836 85.0664 60.7831 80.3942 62.4211C80.3338 62.4433 80.2988 62.5101 80.3211 62.5706V62.5737Z" fill="#8C8982"/>
<path d="M73.2412 71.8132C74.6693 72.5097 78.9376 71.5969 83.0118 69.7904C87.331 67.8757 91.1413 65.1786 91.4307 64.5648C91.9078 63.5597 91.9841 61.9726 92 60.9835C92.0032 60.7704 91.9459 60.5668 91.8314 60.3855L91.4879 59.8448L91.4466 60.6018C91.507 62.3193 81.323 69.0302 74.3544 68.674C74.1191 68.6613 73.8933 68.5945 73.6833 68.4832C73.1172 68.1842 72.567 67.9616 71.2534 67.0901C71.0753 66.9724 70.7 67.2714 70.4869 67.4304C70.366 67.5195 70.2929 67.6594 70.2929 67.8089L70.1975 69.7999C70.1911 69.9367 70.2515 70.0639 70.3629 70.1434C71.0817 70.6555 73.2381 71.81 73.2381 71.81L73.2412 71.8132Z" fill="#BCB6AC"/>
<path d="M91.5356 61.2156C91.4148 61.5432 91.189 61.8104 90.9918 62.0298C90.5656 62.5164 89.8404 63.1176 88.9244 63.7759C88.0053 64.4343 86.8794 65.1213 85.6358 65.7988C84.3922 66.473 83.0214 67.1091 81.6188 67.6498C80.2161 68.1905 78.7658 68.6231 77.3823 68.868C76.6921 68.992 76.0178 69.0715 75.3754 69.097C75.0573 69.1129 74.7361 69.1065 74.4498 69.097C74.1795 69.0779 73.9537 68.9666 73.6961 68.8234C71.6955 67.7548 71.1198 67.3795 71.1198 67.3795C71.0626 67.3413 70.9831 67.3572 70.9449 67.4145C70.9036 67.4717 70.9195 67.5544 70.9767 67.5958C70.9767 67.5958 71.5301 68.0188 73.5179 69.1574C73.7533 69.2942 74.0682 69.4659 74.4149 69.4945C74.7393 69.5168 75.0541 69.5263 75.3881 69.5168C76.0528 69.5041 76.7494 69.4405 77.4586 69.3228C78.8803 69.0842 80.3593 68.6517 81.7905 68.111C83.2217 67.5703 84.6021 66.9024 85.8584 66.2122C87.1147 65.5252 88.2343 64.7873 89.1566 64.1035C90.079 63.4197 90.7882 62.7613 91.2208 62.2334C91.453 61.9503 91.6947 61.61 91.7233 61.2442C91.7297 61.1743 91.542 61.152 91.5356 61.222V61.2156Z" fill="#BCB6AC"/>
<path d="M57.469 51.6836L55.5989 50.4623C55.4939 50.3923 55.4112 50.2492 55.4176 50.1411L55.4335 49.8675C55.4398 49.7594 55.5289 49.7244 55.637 49.7944L57.5072 51.0157C57.6121 51.0857 57.6948 51.2288 57.6885 51.3369L57.6726 51.6105C57.6662 51.7186 57.5772 51.7536 57.469 51.6836Z" fill="#36322E"/>
<path d="M52.7364 48.5953L50.8662 47.374C50.7612 47.304 50.6786 47.1609 50.6849 47.0527L50.7008 46.7792C50.7072 46.6711 50.7962 46.6361 50.9044 46.7061L52.7745 47.9274C52.8795 47.9974 52.9622 48.1405 52.9558 48.2486L52.9399 48.5221C52.9335 48.6303 52.8445 48.6653 52.7364 48.5953Z" fill="#36322E"/>
<path d="M63.8301 59.0974L63.1717 58.668C63.0763 58.6044 63.0031 58.474 63.0063 58.3754V58.2959C63.0159 58.1973 63.0986 58.1655 63.194 58.2291L63.8523 58.6585C63.9478 58.7221 64.0209 58.8525 64.0177 58.9511V59.0306C64.0082 59.1292 63.9255 59.161 63.8301 59.0974Z" fill="#CB5F16"/>
<path d="M28.2558 35.8668L27.5974 35.4374C27.502 35.3738 27.4289 35.2434 27.432 35.1448V35.0653C27.4416 34.9667 27.5243 34.9349 27.6197 34.9985L28.2781 35.4279C28.3735 35.4915 28.4466 35.6219 28.4435 35.7205V35.8C28.4339 35.8986 28.3512 35.9304 28.2558 35.8668Z" fill="#CB5F16"/>
<path d="M48.4172 19.8783H25.5619V1.77156L38.5098 0.769698C43.8531 0.356229 48.4172 4.57997 48.4172 9.93916V19.8783Z" fill="#262424"/>
<path d="M25.5619 1.77155H23.7363C19.7193 1.77155 16.4624 5.02841 16.4624 9.04542V19.8815L22.8139 15.5019L25.5619 1.77155Z" fill="#262424"/>
<path d="M48.4172 18.2117C48.4172 28.2717 41.2642 36.4266 32.4382 36.4266C25.018 36.4266 18.7842 30.6635 16.9872 22.8521C16.6405 21.3732 16.4592 19.8147 16.4592 18.2117C16.4624 8.15488 23.6154 0 32.4382 0C41.261 0 48.4172 8.15488 48.4172 18.2117Z" fill="#262424"/>
<path d="M61.0916 60.7068C58.2641 63.6361 58.843 66.1519 55.319 68.2256C55.2235 68.2828 55.1218 68.3432 55.02 68.4005C48.3822 72.2489 40.6758 74.453 32.4509 74.453C24.2261 74.453 16.984 72.3857 10.4894 68.7503C10.1904 68.5818 9.89463 68.41 9.59884 68.2415C6.0621 66.1487 4.41458 63.4611 1.59027 60.5255L0.779236 57.609C1.94649 53.0067 5.57547 49.435 10.1872 48.3314L11.6089 47.991L12.5663 47.7652L17.1399 46.6711L17.7633 46.5248L17.9064 46.4898C18.5648 46.3372 19.1945 46.1113 19.7893 45.8219C20.8166 45.3353 21.7326 44.661 22.5054 43.8436C23.5932 42.7114 24.3915 41.2992 24.7954 39.7217L25.3965 37.3808L25.5619 36.751L25.5746 36.7065L26.3412 33.7295L26.5733 32.839H38.3349L39.2064 36.239L39.2859 36.5379L39.3304 36.7129L39.3432 36.751L39.5085 37.3871L40.1033 39.7153C40.8062 42.441 42.6891 44.6674 45.1762 45.8474H45.1826C45.7615 46.1209 46.3658 46.3276 46.9955 46.4835L47.7557 46.6648L47.7938 46.6775L52.9972 47.9179L53.3248 47.9974L54.7147 48.325C59.3296 49.4286 62.9554 53.0004 64.1227 57.6026L61.1012 60.6972L61.0916 60.7068Z" fill="#EFC834"/>
<path d="M39.3177 36.716C38.319 41.0988 35.6187 44.238 32.4414 44.238C29.264 44.238 26.5574 41.0892 25.5619 36.7033L26.3284 33.7263L26.5574 32.8358H38.3158L39.1905 36.2357L39.27 36.5411L39.3145 36.7128L39.3177 36.716Z" fill="#EFC834"/>
<path d="M19.2867 20.0437C13.4314 13.4727 17.337 29.5344 20.578 27.6579C26.2712 24.3597 19.2867 20.0437 19.2867 20.0437Z" fill="#EFC834"/>
<path d="M45.5897 20.0437C51.4451 13.4727 47.5394 29.5344 44.2984 27.6579C38.6053 24.3597 45.5897 20.0437 45.5897 20.0437Z" fill="#EFC834"/>
<path d="M46.0604 15.3079C46.0604 15.8072 46.0318 16.3002 45.9809 16.7805C45.9459 17.1303 45.8155 18.3548 45.5961 20.0214L45.5897 20.0437C44.9791 24.595 43.656 32.4064 41.5727 34.4865C40.0779 35.9877 38.8693 37.3426 37.5048 38.3285C36.134 39.3145 34.5978 39.922 32.4446 39.922H32.4382C28.135 39.922 26.3062 37.4793 23.3133 34.4865C21.8184 32.9916 20.7116 28.5421 19.9737 24.4646C19.9387 24.2706 19.9069 24.0734 19.8783 23.8858C19.7765 23.2783 19.6811 22.6772 19.5889 22.1047C19.1182 19.0609 18.8924 16.6819 18.8924 16.6819C18.8478 16.2271 18.8256 15.7691 18.8256 15.3047C18.8256 15.187 18.8256 15.0662 18.8319 14.9485C18.8605 13.8766 19.0069 12.8334 19.2677 11.8379C19.2804 11.7934 19.2963 11.7457 19.3058 11.7012C20.8198 6.17022 25.7337 2.04189 31.6622 1.70793C31.923 1.69203 32.1774 1.68567 32.4382 1.68567H32.4446C39.9665 1.68567 46.0636 7.78274 46.0636 15.3047L46.0604 15.3079Z" fill="#EFC834"/>
<path d="M34.636 28.6916C34.636 29.633 33.6786 30.3931 32.4923 30.3931C31.306 30.3931 30.355 29.633 30.355 28.6916C30.355 28.5802 30.3677 28.4657 30.3995 28.3608C30.5872 29.1432 31.4523 29.7316 32.4923 29.7316C33.5323 29.7316 34.4038 29.14 34.5883 28.3608C34.6233 28.4657 34.6328 28.5771 34.6328 28.6916H34.636Z" fill="#EFC834"/>
<path d="M46.4198 15.3969C46.4198 15.909 46.3912 16.4147 46.3371 16.9077C46.3021 17.2671 45.5897 20.0437 45.5897 20.0437C31.7226 19.433 25.8386 12.8366 25.8386 12.8366C23.396 20.0087 19.5857 22.1079 19.5857 22.1079C19.1022 18.9846 18.5329 16.8091 18.5329 16.8091C18.4852 16.3447 18.463 15.874 18.463 15.3969C18.463 15.2761 18.463 15.152 18.4693 15.0312C18.4979 13.9307 18.6506 12.8621 18.9178 11.8379C18.9305 11.7902 18.9464 11.7457 18.9591 11.698C20.5112 6.02074 25.5555 1.78745 31.6399 1.44396C31.9071 1.42805 32.1679 1.42169 32.4382 1.42169H32.4446C40.1637 1.42169 46.4198 7.68097 46.4198 15.3969Z" fill="#262424"/>
<path d="M30.8098 23.027C30.4536 21.6594 29.5312 20.5208 28.3067 19.8783C27.6197 19.5157 26.8405 19.3122 26.0104 19.3122C25.8577 19.3122 25.7082 19.3185 25.5619 19.3344C23.8317 19.4871 22.3528 20.5367 21.599 22.0156C21.2523 22.6899 21.0551 23.4564 21.0551 24.2674C21.0551 25.193 21.3096 26.0612 21.7548 26.8023C22.6199 28.2526 24.2038 29.2227 26.0104 29.2227C28.7425 29.2227 30.9656 26.9995 30.9656 24.2674C30.9656 23.8381 30.9116 23.4246 30.8098 23.027ZM26.0104 28.6534C24.3533 28.6534 22.9062 27.731 22.1619 26.3729C21.8184 25.7464 21.6213 25.0308 21.6213 24.2674C21.6213 23.6409 21.7517 23.0461 21.9902 22.5054C22.6708 20.9597 24.2166 19.8783 26.0104 19.8783C28.4308 19.8783 30.3995 21.847 30.3995 24.2674C30.3995 26.6878 28.4308 28.6534 26.0104 28.6534Z" fill="#262424"/>
<path d="M43.3506 21.9329C42.8831 21.0551 42.1579 20.3395 41.2801 19.8783C40.9462 19.7034 40.5899 19.5634 40.2178 19.468C40.2083 19.4648 40.1987 19.4616 40.186 19.4616C39.992 19.4108 39.7948 19.3758 39.5913 19.3503C39.3909 19.3249 39.1873 19.3122 38.9806 19.3122C38.1505 19.3122 37.3712 19.5157 36.6842 19.8783C35.4597 20.5176 34.5374 21.6562 34.1844 23.0238C34.0794 23.4214 34.0253 23.8381 34.0253 24.2674C34.0253 26.9995 36.2485 29.2227 38.9806 29.2227C40.7585 29.2227 42.3201 28.2813 43.1948 26.8723C43.6655 26.1153 43.9359 25.2216 43.9359 24.2674C43.9359 23.4214 43.7259 22.6295 43.3506 21.9329ZM42.7813 26.4556C42.0244 27.766 40.6027 28.6534 38.9806 28.6534C36.5634 28.6534 34.5946 26.6846 34.5946 24.2674C34.5946 21.8502 36.5634 19.8783 38.9806 19.8783C40.7362 19.8783 42.2565 20.9152 42.9563 22.41C43.2202 22.973 43.3697 23.6027 43.3697 24.2674C43.3697 25.0626 43.1566 25.81 42.7813 26.4556Z" fill="#262424"/>
<path d="M34.5946 24.2674H34.0285C34.0285 23.4246 33.3415 22.7376 32.4987 22.7376C31.6558 22.7376 30.9688 23.4246 30.9688 24.2674H30.4027C30.4027 23.1097 31.3441 22.1714 32.4987 22.1714C33.6532 22.1714 34.5946 23.1129 34.5946 24.2674Z" fill="#262424"/>
<path d="M64.1131 57.609C62.9459 53.0067 59.3169 49.435 54.7051 48.3313L53.3152 48.0037L52.9876 47.9242L47.7843 46.6838L47.7461 46.6711L46.986 46.4898C46.3562 46.3372 45.7519 46.1272 45.1731 45.8537H45.1667L40.3482 50.6722C38.2618 52.7523 35.4406 53.9259 32.4987 53.9259C31.0261 53.9259 29.5789 53.6301 28.2463 53.0799C26.9136 52.5233 25.6891 51.7091 24.6459 50.6722L19.7988 45.8251L19.7829 45.8187C19.1881 46.1082 18.5584 46.334 17.9 46.4866L17.7569 46.5216L17.1335 46.6679L12.5599 47.762L11.6026 47.9878L10.1809 48.3282C5.56593 49.4318 1.94012 53.0035 0.772869 57.6058L0.766508 57.6248C0.257623 59.6445 0 61.715 0 63.7951C0 69.485 0 80.9445 0 80.9445H64.8955V63.8205C64.8955 61.7246 64.6315 59.6381 64.1131 57.609Z" fill="#262424"/>
<path d="M43.9358 71.581C43.9358 72.0613 43.9072 72.532 43.8436 72.9995C40.2051 73.9505 36.3853 74.4562 32.4446 74.4562C28.5039 74.4562 24.7541 73.9632 21.1442 73.0218C21.0806 72.5511 21.0519 72.0708 21.0519 71.581C21.0519 65.2613 26.1758 60.1375 32.4955 60.1375C38.8152 60.1375 43.9327 65.2613 43.9327 71.581H43.9358Z" fill="#F6F6F6"/>
<path d="M44.9409 72.233C44.9409 72.4747 44.9345 72.7101 44.9186 72.9486C44.7341 76.1482 43.3029 79.0139 41.1083 81.0685H24.5791C22.3782 79.0075 20.947 76.1355 20.7657 72.9295C20.7529 72.6974 20.7466 72.4652 20.7466 72.233C20.7466 66.9279 24.1657 62.4179 28.9205 60.7895C30.1514 60.3665 31.4713 60.1375 32.8453 60.1375C34.2193 60.1375 35.5392 60.3665 36.7701 60.7895C41.5218 62.4179 44.9409 66.9279 44.9409 72.233Z" fill="#F6F6F6"/>
</g>
<defs>
<linearGradient id="paint0_linear_6319_2457" x1="25.2177" y1="42.815" x2="44.701" y2="43.8839" gradientUnits="userSpaceOnUse">
<stop stop-color="#CAC6C3"/>
<stop offset="0.52" stop-color="#D6D3D1"/>
<stop offset="1" stop-color="#DDDBD9"/>
</linearGradient>
<linearGradient id="paint1_linear_6319_2457" x1="65.9992" y1="64.4157" x2="68.774" y2="62.1439" gradientUnits="userSpaceOnUse">
<stop stop-color="#CAC6C3"/>
<stop offset="1" stop-color="#DDDBD9"/>
</linearGradient>
<linearGradient id="paint2_linear_6319_2457" x1="34.3802" y1="43.7731" x2="37.1551" y2="41.5013" gradientUnits="userSpaceOnUse">
<stop stop-color="#CAC6C3"/>
<stop offset="1" stop-color="#DDDBD9"/>
</linearGradient>
<linearGradient id="paint3_linear_6319_2457" x1="50.7619" y1="54.4062" x2="49.6456" y2="56.116" gradientUnits="userSpaceOnUse">
<stop stop-color="#F2F0ED"/>
<stop offset="1" stop-color="#464545"/>
</linearGradient>
<clipPath id="clip0_6319_2457">
<rect width="92.0032" height="81.0685" fill="white"/>
</clipPath>
</defs>
</svg>
