<svg width="100%" height="100%" viewBox="0 0 16 13" fill="none" xmlns="http://www.w3.org/2000/svg">
<path d="M8.03334 6.66668C8.38889 6.24446 8.65 5.80557 8.81667 5.35002C8.98334 4.89446 9.06667 4.38891 9.06667 3.83335C9.06667 3.27779 8.97517 2.76757 8.79217 2.30268C8.60928 1.83779 8.34523 1.41468 8 1.03335C8.97778 0.911127 9.78889 1.11391 10.4333 1.64168C11.0778 2.16946 11.4 2.90557 11.4 3.85002C11.4 4.81224 11.0722 5.55835 10.4167 6.08835C9.76111 6.61835 8.96667 6.81113 8.03334 6.66668ZM11.3167 12.9667C11.4611 12.7222 11.5806 12.4722 11.675 12.2167C11.7694 11.9611 11.8167 11.6889 11.8167 11.4V11.0333C11.8167 10.3556 11.675 9.75002 11.3917 9.21668C11.1083 8.68335 10.5889 8.22224 9.83334 7.83335C11.9111 8.03335 13.3056 8.41946 14.0167 8.99168C14.7278 9.56391 15.0833 10.2445 15.0833 11.0333V11.4C15.0833 11.8306 14.9312 12.1993 14.6268 12.5062C14.3224 12.8132 13.9468 12.9667 13.5 12.9667H11.3167ZM13.8167 5.49452H12.6C12.4583 5.49452 12.3396 5.44685 12.2438 5.35152C12.1479 5.25618 12.1 5.13802 12.1 4.99702C12.1 4.85613 12.1479 4.73902 12.2438 4.64568C12.3396 4.55224 12.4583 4.50552 12.6 4.50552H13.8167V3.29452C13.8167 3.1544 13.8649 3.03696 13.9613 2.94218C14.0577 2.84741 14.1743 2.80002 14.3113 2.80002C14.4482 2.80002 14.5667 2.84713 14.6667 2.94135C14.7667 3.03557 14.8167 3.15235 14.8167 3.29168V4.50002H16.0167C16.1583 4.50002 16.2771 4.54824 16.373 4.64468C16.4688 4.74102 16.5167 4.86046 16.5167 5.00302C16.5167 5.14546 16.4688 5.26391 16.373 5.35835C16.2771 5.45279 16.1583 5.50002 16.0167 5.50002H14.8167V6.70502C14.8167 6.84335 14.7657 6.96041 14.6637 7.05618C14.5618 7.15207 14.4423 7.20002 14.3053 7.20002C14.1684 7.20002 14.0528 7.15263 13.9583 7.05785C13.8639 6.96307 13.8167 6.84563 13.8167 6.70552V5.49452ZM5.14667 6.76668C4.28878 6.76668 3.58878 6.49557 3.04667 5.95335C2.50445 5.41124 2.23334 4.71124 2.23334 3.85335C2.23334 2.99557 2.50445 2.29446 3.04667 1.75002C3.58878 1.20557 4.28878 0.93335 5.14667 0.93335C6.00445 0.93335 6.70556 1.20557 7.25 1.75002C7.79445 2.29446 8.06667 2.99557 8.06667 3.85335C8.06667 4.71124 7.79445 5.41124 7.25 5.95335C6.70556 6.49557 6.00445 6.76668 5.14667 6.76668ZM-0.516663 11.4V10.95C-0.516663 10.4822 -0.396496 10.057 -0.156163 9.67435C0.0842818 9.29157 0.414115 9.00568 0.833337 8.81668C1.66667 8.46113 2.41389 8.20002 3.075 8.03335C3.73611 7.86668 4.42778 7.78335 5.15 7.78335C5.88334 7.78335 6.57778 7.86391 7.23334 8.02502C7.88889 8.18613 8.62223 8.45002 9.43334 8.81668C9.85556 8.99446 10.1917 9.27502 10.4417 9.65835C10.6917 10.0417 10.8167 10.4722 10.8167 10.95V11.4C10.8167 11.8306 10.6645 12.1993 10.3602 12.5062C10.0557 12.8132 9.68011 12.9667 9.23334 12.9667H1.05C0.607782 12.9667 0.236115 12.8132 -0.0649959 12.5062C-0.366107 12.1993 -0.516663 11.8306 -0.516663 11.4Z" fill="currentColor"/>
</svg>
