<svg width="61" height="61" viewBox="0 0 61 61" fill="none" xmlns="http://www.w3.org/2000/svg">
<path d="M26.9863 30.0547C26.9863 30.0547 26.9863 30.0913 26.9863 30.1157C27.0229 30.1157 27.0473 30.0974 27.0656 30.0791C27.0473 30.0608 27.0046 30.0608 26.9863 30.0608V30.0547Z" fill="#0F5837"/>
<path d="M15.1462 22.387C15.1462 18.4464 18.3426 15.25 22.2832 15.25C26.2238 15.25 29.4202 18.4464 29.4202 22.387C29.4202 26.3276 26.2238 29.524 22.2832 29.524C18.3426 29.524 15.1462 26.3276 15.1462 22.387ZM22.2832 18.1475C19.9408 18.1475 18.0437 20.0446 18.0437 22.387C18.0437 24.7294 19.9408 26.6265 22.2832 26.6265C24.6256 26.6265 26.5227 24.7294 26.5227 22.387C26.5227 20.0446 24.6256 18.1475 22.2832 18.1475Z" fill="#0F5837"/>
<path d="M27.0596 30.073C27.0596 30.073 27.023 30.1096 26.9803 30.1096C26.9803 30.0913 26.962 30.073 26.9803 30.0486C26.9986 30.0486 27.0413 30.0486 27.0596 30.0669V30.073Z" fill="#0F5837"/>
<path d="M35.4959 44.1457V44.3165C35.4776 45.1095 34.8188 45.7439 34.0258 45.7439C33.2145 45.7256 32.5801 45.0668 32.5984 44.2738V44.1762C32.5984 44.1152 32.5984 44.0237 32.5801 43.8651C32.5618 43.5967 32.5435 43.2063 32.4642 42.7244C32.3117 41.7423 31.9823 40.4674 31.3418 39.2108C30.7074 37.9542 29.7619 36.722 28.3284 35.8131C26.9193 34.9042 24.949 34.2515 22.1735 34.2515C19.398 34.2515 17.4277 34.9103 16.0186 35.8131C14.5912 36.722 13.6457 37.9542 13.0052 39.2108C12.3708 40.4674 12.0414 41.7423 11.8828 42.7244C11.8035 43.2063 11.7852 43.5906 11.7669 43.8651C11.7486 44.0176 11.7486 44.1152 11.7486 44.1762V44.2738C11.7669 45.0668 11.1325 45.7195 10.3212 45.7439C9.52817 45.7439 8.87547 45.1095 8.85107 44.3165V44.1457C8.85107 44.0298 8.86937 43.8956 8.86937 43.7187C8.88767 43.3527 8.92427 42.8708 9.02187 42.273C9.21707 41.0957 9.60137 39.5097 10.4127 37.9115C11.2423 36.2889 12.4989 34.6297 14.4448 33.3914C16.3724 32.1531 18.9039 31.3662 22.1674 31.3662C25.4309 31.3662 27.9563 32.1592 29.89 33.3914C31.842 34.6297 33.0925 36.2889 33.9221 37.9115C34.7334 39.5158 35.1177 41.0957 35.3129 42.273C35.4105 42.8708 35.4471 43.3527 35.4654 43.7187C35.4837 43.8895 35.4837 44.0298 35.4837 44.1457H35.4959Z" fill="#0F5837"/>
<path d="M35.4959 44.1457V44.3165C35.4776 45.1095 34.8188 45.7439 34.0258 45.7439C33.2145 45.7256 32.5801 45.0668 32.5984 44.2738V44.1762C32.5984 44.1152 32.5984 44.0237 32.5801 43.8651C32.5618 43.5967 32.5435 43.2063 32.4642 42.7244C32.3117 41.7423 31.9823 40.4674 31.3418 39.2108C30.7074 37.9542 29.7619 36.722 28.3284 35.8131C26.9193 34.9042 24.949 34.2515 22.1735 34.2515C19.398 34.2515 17.4277 34.9103 16.0186 35.8131C14.5912 36.722 13.6457 37.9542 13.0052 39.2108C12.3708 40.4674 12.0414 41.7423 11.8828 42.7244C11.8035 43.2063 11.7852 43.5906 11.7669 43.8651C11.7486 44.0176 11.7486 44.1152 11.7486 44.1762V44.2738C11.7669 45.0668 11.1325 45.7195 10.3212 45.7439C9.52817 45.7439 8.87547 45.1095 8.85107 44.3165V44.1457C8.85107 44.0298 8.86937 43.8956 8.86937 43.7187C8.88767 43.3527 8.92427 42.8708 9.02187 42.273C9.21707 41.0957 9.60137 39.5097 10.4127 37.9115C11.2423 36.2889 12.4989 34.6297 14.4448 33.3914C16.3724 32.1531 18.9039 31.3662 22.1674 31.3662C25.4309 31.3662 27.9563 32.1592 29.89 33.3914C31.842 34.6297 33.0925 36.2889 33.9221 37.9115C34.7334 39.5158 35.1177 41.0957 35.3129 42.273C35.4105 42.8708 35.4471 43.3527 35.4654 43.7187C35.4837 43.8895 35.4837 44.0298 35.4837 44.1457H35.4959Z" fill="#0F5837"/>
<path d="M26.9864 30.0547C26.9864 30.0547 27.0474 30.0547 27.0657 30.073C27.0474 30.0913 27.0291 30.1096 26.9864 30.1096C26.9864 30.0913 26.9681 30.073 26.9864 30.0486V30.0547Z" fill="#0F5837"/>
<path d="M50.3371 40.1319L37.521 45.4999C37.3868 45.5548 37.2709 45.5975 37.1367 45.6341C37.6613 44.4019 37.9297 35.38 30.9391 31.1344C30.3962 30.805 29.8167 30.5 29.2189 30.2438C28.371 29.8778 28.1209 28.853 28.7736 28.2186C30.262 26.7729 31.2075 24.8209 31.3234 22.6615L32.4031 21.3073C32.5007 21.1731 32.6166 21.0572 32.7325 20.9596L32.2689 19.9348C32.0554 19.4712 32.2872 18.91 32.7874 18.6965C33.2876 18.4647 33.8854 18.6965 34.0989 19.1784L34.5625 20.1849C34.7333 20.1666 34.8919 20.1849 35.0627 20.1849L43.0354 20.8986C44.1334 20.9962 45.0789 21.6306 45.5059 22.5761L51.8743 36.356C52.5514 37.8017 51.856 39.4853 50.331 40.1197L50.3371 40.1319Z" fill="#001722"/>
</svg>
