<svg width="61" height="61" viewBox="0 0 61 61" fill="none" xmlns="http://www.w3.org/2000/svg">
<path d="M17.7937 22.4602C17.7937 18.5318 20.9779 15.3476 24.9063 15.3476C28.8347 15.3476 32.0189 18.5318 32.0189 22.4602C32.0189 26.3886 28.8347 29.5728 24.9063 29.5728C20.9779 29.5728 17.7937 26.3886 17.7937 22.4602ZM24.9063 18.2329C22.57 18.2329 20.679 20.1239 20.679 22.4602C20.679 24.7965 22.57 26.6875 24.9063 26.6875C27.2426 26.6875 29.1336 24.7965 29.1336 22.4602C29.1336 20.1239 27.2426 18.2329 24.9063 18.2329Z" fill="#0F5837"/>
<path d="M14.4143 44.286C14.4265 45.079 13.7921 45.7378 12.993 45.75C12.1939 45.7622 11.5412 45.1278 11.5229 44.3348V44.3287V44.3165V44.2799C11.5229 44.2494 11.5229 44.2067 11.5229 44.1579C11.5229 44.0542 11.529 43.9139 11.5412 43.737C11.5595 43.3832 11.6083 42.8891 11.6998 42.2974C11.8828 41.1262 12.2732 39.5402 13.0845 37.9359C13.9019 36.3255 15.1646 34.6785 17.0983 33.4402C19.032 32.2019 21.5574 31.4272 24.8026 31.4272C28.0478 31.4272 30.5732 32.2019 32.5069 33.4402C34.4406 34.6785 35.6972 36.3255 36.5207 37.9359C37.3381 39.5402 37.7224 41.1262 37.9054 42.2974C37.9969 42.8891 38.0396 43.3832 38.064 43.737C38.0762 43.9139 38.0762 44.0542 38.0823 44.1579C38.0823 44.2067 38.0823 44.2494 38.0823 44.2799V44.3165V44.3287V44.3348C38.0701 45.1339 37.4113 45.7683 36.6122 45.75C35.8192 45.7378 35.1848 45.079 35.1909 44.286V44.2433V44.2006C35.1909 44.1335 35.1909 44.0298 35.1787 43.8956C35.1604 43.6211 35.1299 43.2246 35.0506 42.7427C34.8981 41.7728 34.5809 40.4979 33.9404 39.2413C33.306 37.9908 32.3605 36.7769 30.9453 35.868C29.5362 34.9652 27.5721 34.3064 24.7965 34.3064C22.021 34.3064 20.0629 34.9591 18.6477 35.868C17.2325 36.7769 16.287 37.9908 15.6526 39.2413C15.0121 40.4979 14.6949 41.7728 14.5424 42.7427C14.4692 43.2246 14.4326 43.6272 14.4143 43.8956C14.4082 44.0298 14.4021 44.1335 14.4021 44.2006C14.4021 44.2311 14.4021 44.2555 14.4021 44.2677V44.2799L14.4143 44.286Z" fill="#0F5837"/>
<path d="M39.6072 45.6524C39.7597 45.2254 39.8451 44.7618 39.8512 44.2799V44.2677V44.2433V44.1884V44.1762C39.8512 44.1274 39.8512 44.0725 39.8512 43.9993C39.8512 43.859 39.8451 43.6821 39.8329 43.4625C39.8085 43.0294 39.7536 42.4377 39.6438 41.7423C39.5889 41.3763 39.5096 40.9798 39.4181 40.5467C39.4059 40.504 39.3998 40.4552 39.3876 40.4125C38.8874 38.2592 37.7711 35.2397 35.2396 32.7326C34.7882 32.2873 34.3002 31.8664 33.7817 31.476C34.5381 31.3723 35.3494 31.3174 36.2034 31.3174C39.4486 31.3174 41.974 32.0921 43.9077 33.3304C45.8414 34.5687 47.098 36.2157 47.9215 37.8261C48.7389 39.4304 49.1232 41.0164 49.3062 42.1876C49.3977 42.7793 49.4404 43.2734 49.4648 43.6272C49.477 43.8041 49.477 43.9444 49.4831 44.0481C49.4831 44.0969 49.4831 44.1396 49.4831 44.1701V44.2067V44.2189C49.4709 45.0119 48.8243 45.6463 48.0374 45.6463H39.6072V45.6524Z" fill="#001722"/>
<path d="M33.7939 22.3626C33.7939 24.4732 33.1412 26.4313 32.0188 28.0478C33.2083 28.9445 34.6906 29.4752 36.2949 29.4752C40.2233 29.4752 43.4075 26.291 43.4075 22.3626C43.4075 18.4342 40.2233 15.25 36.2949 15.25C34.6906 15.25 33.2083 15.7807 32.0188 16.6774C33.1351 18.2939 33.7939 20.252 33.7939 22.3626Z" fill="#001722"/>
</svg>

