<svg width="61" height="61" viewBox="0 0 61 61" fill="none" xmlns="http://www.w3.org/2000/svg">
<path d="M14.5303 22.387C14.5303 18.4464 17.7267 15.25 21.6673 15.25C25.6079 15.25 28.8043 18.4464 28.8043 22.387C28.8043 26.3276 25.6079 29.524 21.6673 29.524C17.7267 29.524 14.5303 26.3276 14.5303 22.387ZM21.6673 18.1475C19.3249 18.1475 17.4278 20.0446 17.4278 22.387C17.4278 24.7294 19.3249 26.6265 21.6673 26.6265C24.0097 26.6265 25.9068 24.7294 25.9068 22.387C25.9068 20.0446 24.0097 18.1475 21.6673 18.1475Z" fill="#0F5837"/>
<path d="M11.1387 44.2799C11.1509 45.079 10.5165 45.7378 9.71741 45.75C8.91831 45.7622 8.25951 45.1278 8.24731 44.3287V44.3226V44.3104V44.2738C8.24731 44.2433 8.24731 44.2006 8.24731 44.1518C8.24731 44.0481 8.25341 43.9078 8.26561 43.7309C8.28391 43.3771 8.33271 42.883 8.42421 42.2913C8.60721 41.114 8.99761 39.5219 9.81501 37.9176C10.6385 36.3011 11.9012 34.6541 13.841 33.4097C15.7808 32.1653 18.3123 31.3906 21.5697 31.3906C24.8271 31.3906 27.3586 32.1653 29.2984 33.4097C31.2382 34.648 32.5009 36.3011 33.3244 37.9176C34.1418 39.528 34.5322 41.114 34.7152 42.2913C34.8067 42.883 34.8555 43.3771 34.8738 43.7309C34.886 43.9078 34.886 44.0481 34.8921 44.1518C34.8921 44.2006 34.8921 44.2433 34.8921 44.2738V44.3104V44.3226V44.3287C34.8799 45.1278 34.2211 45.7622 33.422 45.75C32.6229 45.7378 31.9885 45.079 32.0007 44.2799V44.2372V44.1945C32.0007 44.1274 32.0007 44.0237 31.9885 43.8895C31.9702 43.615 31.9397 43.2185 31.8604 42.7305C31.7079 41.7545 31.3907 40.4796 30.7502 39.2169C30.1158 37.9664 29.1642 36.7464 27.7429 35.8375C26.3277 34.9286 24.3574 34.2759 21.5758 34.2759C18.7942 34.2759 16.8239 34.9347 15.4087 35.8375C13.9874 36.7464 13.0419 37.9664 12.4014 39.2169C11.7609 40.4796 11.4437 41.7545 11.2912 42.7305C11.2119 43.2124 11.1814 43.615 11.1631 43.8895C11.157 44.0237 11.1509 44.1274 11.1509 44.1945C11.1509 44.225 11.1509 44.2494 11.1509 44.2616V44.2738L11.1387 44.2799Z" fill="#0F5837"/>
<path d="M27.084 15.2439H49.288C49.8065 15.2439 50.3067 15.3476 50.7581 15.5306L37.8322 28.4565L33.8367 24.461C33.1657 23.79 32.3178 23.4179 31.4455 23.3325C30.9697 23.2898 30.6342 22.8689 30.6342 22.3931C30.6342 22.3931 30.6342 22.387 30.6342 22.3809C30.6342 19.4712 29.2434 16.8787 27.084 15.2378V15.2439Z" fill="#001722"/>
<path d="M53.2104 24.1743V41.8277C53.2104 43.9932 51.4536 45.75 49.2881 45.75H36.3622C36.5696 45.3413 36.6916 44.8838 36.7099 44.3958V44.1152C36.7099 43.9932 36.7038 43.8224 36.6916 43.6211C36.6611 43.0965 36.6001 42.5536 36.5147 41.9985C36.2341 40.2295 35.7095 38.5764 34.947 37.0758C34.7823 36.7525 34.6054 36.4353 34.4163 36.1303L35.0629 36.7769C36.594 38.308 39.0767 38.308 40.6078 36.7769L53.2104 24.1743Z" fill="#001722"/>
<path d="M52.7468 20.9413C53.2592 20.4289 53.2592 19.6054 52.7468 19.093C52.2344 18.5806 51.4109 18.5806 50.8985 19.093L37.8384 32.1531L31.9946 26.3093C31.4822 25.7969 30.6587 25.7969 30.1463 26.3093C29.6339 26.8217 29.6339 27.6452 30.1463 28.1576L36.9173 34.9286C37.4297 35.441 38.2532 35.441 38.7656 34.9286L52.7529 20.9413H52.7468Z" fill="#001722"/>
</svg>
