<svg width="92" height="81" viewBox="0 0 92 81" fill="none" xmlns="http://www.w3.org/2000/svg">
<path d="M40.1287 38.4335L58.9034 31.9516L58.9288 47.7493L40.1287 38.4335Z" fill="#BCB9B3"/>
<path d="M58.9288 47.9942L58.9034 31.9516L82.7319 39.1492L83.0754 50.5482L58.9288 47.9942Z" fill="#C5C1BC"/>
<path d="M58.9034 31.9516L64.7428 22.5532L89.1534 28.8506L82.7319 39.1492L58.9034 31.9516Z" fill="#E1DDD7"/>
<path d="M40.3355 38.3604L58.8653 31.9644L52.9304 21.8853L33.7932 27.2158L40.3355 38.3604Z" fill="#E1DDD7"/>
<path d="M64.5011 71.8673L63.7123 47.7493L82.6715 39.5117L82.1721 62.0267L64.5011 71.8673Z" fill="#BDBBB5"/>
<path d="M41.5154 60.217L40.3354 38.3604L63.8364 47.7493L64.5011 71.8673L41.5154 60.217Z" fill="#CBC6C0"/>
<path d="M40.3355 38.3604L63.8364 47.7493L53.2357 56.4703L29.6743 45.2049L40.3355 38.3604Z" fill="#E2E0DB"/>
<path d="M63.8364 47.7493L82.6874 39.1492L92 47.7493L74.5548 58.0447L63.8364 47.7493Z" fill="#E1DDD7"/>
<path d="M48.2232 19.2231L48.2168 19.2295C47.3549 20.1009 47.0178 21.3636 47.3263 22.55C47.8097 24.3947 46.7188 26.2839 44.8805 26.7832C43.6941 27.1077 42.7686 28.0332 42.4442 29.2195C41.9448 31.0579 40.0556 32.1488 38.2141 31.6654H38.2109C37.0246 31.3537 35.7619 31.6908 34.8904 32.5527L34.8841 32.5591C33.5323 33.8949 31.3537 33.8949 30.002 32.5591L29.9956 32.5527C29.1241 31.6908 27.8615 31.3537 26.6751 31.6622H26.6719C24.8304 32.1456 22.9444 31.0547 22.4418 29.2195C22.1174 28.0332 21.1919 27.1077 20.0056 26.7832C18.1672 26.2839 17.0763 24.3947 17.5597 22.5531C17.8714 21.3636 17.5343 20.1009 16.6692 19.2263L16.6628 19.2199C15.327 17.8682 15.327 15.6896 16.6628 14.3378L16.6692 14.3315C17.5311 13.46 17.8682 12.1973 17.5597 11.011C17.0763 9.16629 18.1672 7.27705 20.0056 6.77771C21.1919 6.45329 22.1174 5.52776 22.4418 4.34142C22.9412 2.50308 24.8304 1.41216 26.6719 1.8956H26.6751C27.8615 2.20729 29.1241 1.87015 29.9956 1.00823L30.002 1.00187C31.3537 -0.333956 33.5323 -0.333956 34.8841 1.00187L34.8904 1.00823C35.7619 1.87015 37.0246 2.20729 38.2109 1.89878H38.2141C40.0556 1.41534 41.9417 2.50626 42.4442 4.34142C42.7686 5.52776 43.6941 6.45329 44.8805 6.77771C46.7188 7.27705 47.8097 9.16629 47.3263 11.0078C47.0146 12.1973 47.3517 13.46 48.2168 14.3346L48.2232 14.341C49.559 15.6927 49.559 17.8714 48.2232 19.2231Z" fill="#262424"/>
<path d="M39.3273 39.3527C38.3286 43.7355 35.6283 46.8746 32.451 46.8746C29.2736 46.8746 26.567 43.7259 25.5715 39.34L26.338 36.363L26.567 35.4724H38.3254L39.2 38.8724L39.2796 39.1778L39.3241 39.3495L39.3273 39.3527Z" fill="#EFC834"/>
<path d="M47.2468 22.6804C53.1021 16.1094 49.1964 32.1711 45.9555 30.2946C40.2623 26.9963 47.2468 22.6804 47.2468 22.6804Z" fill="#EFC834"/>
<path d="M63.6583 63.1939C60.6145 66.3458 58.3564 69.167 54.5111 71.3329C51.5532 72.9995 48.3854 74.3353 45.0618 75.3054C41.7222 76.2754 38.2332 76.8702 34.6233 77.0388C33.9045 77.0769 33.1793 77.096 32.4478 77.096C28.8156 77.096 25.2852 76.6667 21.9011 75.8556C21.4145 75.7379 20.9247 75.6171 20.4445 75.4771C16.2716 74.3321 12.35 72.6051 8.75601 70.3756C5.54368 68.3877 4.1029 65.837 1.49486 63.1335L0.776062 60.2456C1.94968 55.6497 5.5723 52.078 10.1904 50.9743L10.6993 50.8567L16.3607 49.5018L17.9064 49.1328C18.5584 48.9738 19.1818 48.7543 19.7702 48.4681C19.996 48.3599 20.225 48.2359 20.4381 48.1119C20.6925 47.9656 20.9374 47.8065 21.176 47.6348C21.6531 47.2945 22.0983 46.9096 22.5023 46.4834C23.5836 45.3448 24.3851 43.939 24.7922 42.3583L25.3934 40.0238L25.5524 39.394L25.5651 39.3431L26.3348 36.3662L26.5606 35.4756H38.3222L39.2 38.8756L39.2796 39.1809L39.3241 39.3495L39.3304 39.3877L39.4958 40.0238L40.0969 42.3519C40.6567 44.5179 41.9576 46.3689 43.7196 47.6284C44.1394 47.9338 44.591 48.2073 45.0618 48.4331C45.6692 48.7321 46.3085 48.9674 46.9828 49.1233L48.4109 49.4636L54.7019 50.9648C59.3201 52.0684 62.9427 55.6402 64.1163 60.236L63.6551 63.1844L63.6583 63.1939Z" fill="#EFC834"/>
<path d="M39.3273 39.3527C38.3286 43.7355 35.6283 46.8746 32.451 46.8746C29.2736 46.8746 26.567 43.7259 25.5715 39.34L26.338 36.363L26.567 35.4724H38.3254L39.2 38.8724L39.2796 39.1778L39.3241 39.3495L39.3273 39.3527Z" fill="#EFC834"/>
<path d="M17.6583 22.6804C11.8029 16.1094 15.7086 32.1711 18.9496 30.2946C24.6427 26.9963 17.6583 22.6804 17.6583 22.6804Z" fill="#EFC834"/>
<path d="M46.0731 17.9477C46.0731 18.4471 46.0445 18.9337 45.9873 19.4203C45.965 19.6652 45.8919 20.3617 45.771 21.3414C45.6756 22.1238 45.5484 23.0875 45.3925 24.1529L45.3862 24.1593C45.1921 25.4919 44.9441 26.9804 44.6483 28.4785C44.6419 28.4944 44.6419 28.5166 44.6355 28.5357C43.9167 32.1806 42.9022 35.8064 41.5759 37.1295C40.081 38.6243 38.8788 39.9856 37.508 40.9652C36.1372 41.9512 34.601 42.565 32.4478 42.565C30.2945 42.565 28.7583 41.9544 27.3875 40.9652C26.0231 39.9856 24.8145 38.6243 23.3196 37.1295C21.9934 35.8032 20.9788 32.1711 20.2536 28.5325V28.5262C20.2536 28.5262 20.2472 28.5134 20.2472 28.5103C20.1582 28.0395 20.0723 27.5688 19.9864 27.1045C19.9515 26.9105 19.9196 26.7196 19.8847 26.5256C19.7415 25.7082 19.6175 24.9099 19.5062 24.1625C19.0991 21.4018 18.8987 19.3217 18.8987 19.3217C18.8542 18.8733 18.8319 18.4153 18.8319 17.9509C18.8319 17.8332 18.8319 17.7124 18.8383 17.5947C18.8669 16.5228 19.0132 15.4796 19.2804 14.4841C19.2931 14.4396 19.3026 14.3951 19.3153 14.3474C20.8293 8.81643 25.7432 4.68492 31.6717 4.35414C31.9325 4.33824 32.187 4.33188 32.4541 4.33188C36.2167 4.33188 39.623 5.85535 42.0879 8.32344C44.2189 10.448 45.647 13.2819 45.9936 16.4402C46.0509 16.9395 46.0795 17.442 46.0795 17.9541L46.0731 17.9477Z" fill="#EFC834"/>
<path d="M46.4707 18.0527C46.4707 18.5647 46.4421 19.0673 46.3816 19.5698C46.3594 19.821 46.283 20.5367 46.159 21.5481C46.0604 22.3527 45.3925 24.1529 45.3925 24.1529C43.5828 24.1529 42.7399 22.9793 42.7399 21.1728V17.8205C42.7399 15.9917 41.2578 14.5096 39.429 14.5096H25.4728C23.644 14.5096 22.1619 15.9917 22.1619 17.8205V21.424C22.1619 23.0938 21.1728 24.1561 19.503 24.1561L18.5043 19.4616C18.4566 19.0005 18.4343 18.5298 18.4343 18.0495C18.4343 17.9255 18.4343 17.8046 18.4407 17.6805C18.4693 16.5769 18.622 15.5051 18.8955 14.4778C18.9082 14.43 18.9178 14.3855 18.9305 14.3378C20.4889 8.64467 25.5428 4.39548 31.6431 4.05516C31.9102 4.03926 32.1742 4.0329 32.4477 4.0329C36.3216 4.0329 39.8266 5.6009 42.3614 8.13896C44.5528 10.3272 46.0254 13.2405 46.3785 16.491C46.4357 17.0031 46.4675 17.5247 46.4675 18.0495L46.4707 18.0527Z" fill="#262424"/>
<path d="M34.5914 30.1959C34.5914 31.1374 33.6341 31.8975 32.4477 31.8975C31.2614 31.8975 30.3104 31.1374 30.3104 30.1959C30.3104 30.0846 30.3231 29.9701 30.355 29.8652C30.5426 30.6476 31.4077 31.236 32.4477 31.236C33.4878 31.236 34.3592 30.6444 34.5437 29.8652C34.5787 29.9701 34.5882 30.0814 34.5882 30.1959H34.5914Z" fill="#EFC834"/>
<path d="M64.11 60.252C62.9427 55.6497 59.3201 52.078 54.7019 50.9744L53.4552 50.6786L48.325 49.4541L47.2309 49.1933L46.9828 49.1297C46.2863 48.9643 45.6215 48.7162 44.9982 48.4109C41.859 51.7536 37.3967 53.8464 32.4446 53.8464C27.4925 53.8464 23.0302 51.7536 19.8911 48.4109C19.2677 48.7226 18.5998 48.9674 17.9064 49.1297L17.5947 49.2028L16.3702 49.4986L11.3704 50.6881L10.1873 50.9712C5.56913 52.0748 1.9465 55.6466 0.772888 60.2488L1.49169 63.1303C4.34144 66.0882 6.09391 68.8299 9.66565 70.9226C11.8984 72.233 14.2583 73.3526 16.7169 74.2686V80.9445H50.933V73.1363C52.3802 72.4843 53.7891 71.7623 55.1504 70.9672C58.7444 68.8712 60.7831 66.1741 63.6551 63.1971L64.11 60.2488V60.252Z" fill="#F6F6F6"/>
<path d="M25.969 31.9707C23.2369 31.9707 21.0137 29.7475 21.0137 27.0154C21.0137 24.2833 23.2369 22.0602 25.969 22.0602C28.7011 22.0602 30.9243 24.2833 30.9243 27.0154C30.9243 29.7475 28.7011 31.9707 25.969 31.9707ZM25.969 22.6295C23.5486 22.6295 21.5799 24.5982 21.5799 27.0186C21.5799 29.439 23.5486 31.4077 25.969 31.4077C28.3894 31.4077 30.3581 29.439 30.3581 27.0186C30.3581 24.5982 28.3894 22.6295 25.969 22.6295Z" fill="#262424"/>
<path d="M38.9392 31.9707C36.2071 31.9707 33.9839 29.7475 33.9839 27.0154C33.9839 24.2833 36.2071 22.0602 38.9392 22.0602C41.6713 22.0602 43.8945 24.2833 43.8945 27.0154C43.8945 29.7475 41.6713 31.9707 38.9392 31.9707ZM38.9392 22.6295C36.5188 22.6295 34.5501 24.5982 34.5501 27.0186C34.5501 29.439 36.5188 31.4077 38.9392 31.4077C41.3596 31.4077 43.3283 29.439 43.3283 27.0186C43.3283 24.5982 41.3596 22.6295 38.9392 22.6295Z" fill="#262424"/>
<path d="M34.5501 27.0154H33.984C33.984 26.1726 33.297 25.4856 32.4541 25.4856C31.6113 25.4856 30.9243 26.1726 30.9243 27.0154H30.3582C30.3582 25.8577 31.2996 24.9195 32.4541 24.9195C33.6087 24.9195 34.5501 25.8609 34.5501 27.0154Z" fill="#262424"/>
<path d="M19.7765 48.4681C19.1881 48.7512 18.5648 48.9738 17.9127 49.1328L16.367 49.5018L10.7057 50.8567L10.1968 50.9744C5.57865 52.078 1.95603 55.6497 0.78241 60.2456C0.263984 62.278 0 64.3708 0 66.4667V80.9445H20.4476V48.1087C20.2313 48.2327 20.0055 48.3568 19.7797 48.4649L19.7765 48.4681Z" fill="#262424"/>
<path d="M64.1195 60.2456C62.9459 55.6497 59.3233 52.078 54.7051 50.9743L48.414 49.4731L46.986 49.1328C46.3117 48.9738 45.6724 48.7416 45.0649 48.4426V80.9476H64.8924V66.454C64.8924 64.3612 64.6316 62.2747 64.1195 60.2456Z" fill="#262424"/>
</svg>
