<svg width="100%" height="100%" viewBox="0 0 48 48" fill="none" xmlns="http://www.w3.org/2000/svg">
<mask id="mask0_2279_6280" style="mask-type:alpha" maskUnits="userSpaceOnUse" x="0" y="0" width="100%" height="100%">
<rect width="100%" height="100%" fill="#D9D9D9"/>
</mask>
<g mask="url(#mask0_2279_6280)">
<path d="M9.45 43.25C8.18167 43.25 7.08125 42.7921 6.14875 41.8763C5.21625 40.9604 4.75 39.8517 4.75 38.55V9.45001C4.75 8.16791 5.21625 7.05573 6.14875 6.11346C7.08125 5.17116 8.18167 4.70001 9.45 4.70001H38.55C39.8654 4.70001 40.986 5.17116 41.9116 6.11346C42.8372 7.05573 43.3 8.16791 43.3 9.45001V12.15H27C25.2 12.15 23.6917 12.7593 22.475 13.9778C21.2583 15.1963 20.65 16.6704 20.65 18.4V29.7C20.65 31.4667 21.2583 32.9417 22.475 34.125C23.6917 35.3083 25.2 35.9 27 35.9H43.3V38.55C43.3 39.85 42.8372 40.9583 41.9116 41.875C40.986 42.7917 39.8654 43.25 38.55 43.25H9.45ZM27 33.35C25.9 33.35 24.9917 33.0071 24.275 32.3214C23.5583 31.6356 23.2 30.7576 23.2 29.6875V18.4C23.2 17.3333 23.5583 16.45 24.275 15.75C24.9917 15.05 25.9 14.7 27 14.7H41.55C42.65 14.7 43.5583 15.05 44.275 15.75C44.9917 16.45 45.35 17.3333 45.35 18.4V29.6875C45.35 30.7576 44.9917 31.6356 44.275 32.3214C43.5583 33.0071 42.65 33.35 41.55 33.35H27ZM32.6 27.2C33.4333 27.2 34.175 26.875 34.825 26.225C35.475 25.575 35.8 24.8167 35.8 23.95C35.8 23.1167 35.475 22.3833 34.825 21.75C34.175 21.1167 33.4333 20.8 32.6 20.8C31.7667 20.8 31.025 21.1167 30.375 21.75C29.725 22.3833 29.4 23.1167 29.4 23.95C29.4 24.8167 29.725 25.575 30.375 26.225C31.025 26.875 31.7667 27.2 32.6 27.2Z" fill="currentColor"/>
</g>
</svg>
