<svg width="200" height="87" viewBox="0 0 200 87" fill="none" xmlns="http://www.w3.org/2000/svg">
<g clip-path="url(#clip0_3_22)">
<path d="M158.2 56.8L159.7 52.85H151.35C149.05 52.85 147 54.25 146.2 56.4L144.7 60.35H153.05C155.35 60.35 157.4 58.95 158.2 56.8Z" fill="white"/>
<path d="M132.2 56.45L130.7 60.4H139.05C141.35 60.4 143.4 59 144.2 56.85L145.7 52.9H137.35C135.05 52.9 133 54.3 132.2 56.45Z" fill="white"/>
<path d="M21.95 41.45C24.25 41.45 26.3 40.05 27.1 37.9L28.6 33.95H20.25C17.95 33.95 15.9 35.35 15.1 37.5L13.6 41.45H21.95Z" fill="white"/>
<path d="M52.7 37.85L54.2 33.9H45.85C43.55 33.9 41.5 35.3 40.7 37.45L39.2 41.4H47.55C49.85 41.4 51.9 40 52.7 37.85Z" fill="white"/>
<path d="M13.55 37.85L15.05 33.9H6.65C4.35 33.9 2.3 35.3 1.5 37.45L0 41.4H8.35C10.65 41.4 12.7 40 13.5 37.85H13.55Z" fill="white"/>
<path d="M199.5 12.75C200.75 8.95 199.65 4.7 196.35 2.1C194.6 0.7 192.45 0 190.2 0H115.95C112 0 108.35 2.5 106.9 6.2L91.35 47.05V47.25C91.15 47.6 91.05 47.9 91 48.25C90.85 48.7 90.8 49.15 90.8 49.6V54.2C90.8 55.7 91.45 57.15 92.55 58.15L96.75 61.9C97.3 62.35 97.75 62.8 98 63.15C98.25 63.5 98.35 63.9 98.35 64.35C98.35 65 98.15 65.45 97.65 65.7C97.15 65.95 96.35 66.1 95.1 66.1H80.05C77.7 66.1 76.55 64.85 76.55 62.5V39.35C76.55 36.4 74.15 34.05 71.25 34.05H70.4V62.55C70.4 64.95 69 66.15 66.3 66.15H52.85L52.75 65.9C54.05 64.6 54.95 63.2 55.45 61.8C55.95 60.4 56.2 58.95 56.2 57.55C56.2 56.15 55.95 54.55 55.5 53.2C55.05 51.85 54.35 50.7 53.45 49.65C52.55 48.65 51.5 47.85 50.25 47.25C49 46.7 47.65 46.35 46.15 46.35C44.65 46.35 43.25 46.65 42.05 47.25C40.8 47.8 39.7 48.65 38.85 49.65C37.95 50.65 37.3 51.85 36.8 53.2C36.3 54.55 36.1 56 36.1 57.55C36.1 59.1 36.35 60.3 36.85 61.8C37.35 63.25 38.25 64.65 39.55 65.9L39.45 66.15H24.9C23.75 66.15 23 65.95 22.5 65.55C22.05 65.15 21.8 64.4 21.8 63.4V52.25C21.8 49.3 19.4 46.95 16.5 46.95H15.65V49.8L9.9 52.65C7.25 53.95 5.2 55.5 3.6 57.25C2.05 59 1.25 61.3 1.25 64.1C1.25 66.9 1.9 68.35 3.1 69.65C4.35 70.95 6.2 71.65 8.65 71.65C11.1 71.65 10.55 71.5 11.35 71.3C12.1 71.1 12.75 70.75 13.3 70.25C13.85 69.75 14.3 69.1 14.65 68.25C15 67.4 15.3 66.4 15.6 65.25H15.9V65.5C15.9 68.1 16.6 70.15 18.05 71.65C19.5 73.15 21.75 73.9 24.9 73.95H35.9C37.75 73.95 39.55 73.7 41.3 73.25C43.05 72.8 44.7 71.95 46.25 70.7C47.8 71.95 49.5 72.8 51.2 73.25C52.9 73.7 54.75 73.95 56.6 73.95H63.6C65.75 73.95 67.4 73.4 68.55 72.3C69.7 71.2 70.45 69.45 70.9 67.05H71.2C71.65 69.45 72.65 71.2 74.15 72.3C75.65 73.4 77.75 73.95 80.55 73.95H94.15C95.2 73.95 96.1 73.75 96.9 73.4C97.7 73 98.4 72.5 99 71.85C99.55 71.2 100.05 70.4 100.3 69.5C100.6 68.6 100.75 67.65 100.75 66.65C100.75 65.65 100.7 65.25 100.55 64.6L100.8 64.45L102.2 66.15C103.45 67.7 104.6 69 105.6 70C106.6 71 107.6 71.85 108.5 72.4C109.4 73 110.35 73.4 111.3 73.65C111.7 73.75 112.1 73.8 112.55 73.85C112.7 73.85 147.6 73.85 147.6 73.85C149.9 73.85 151.95 72.45 152.75 70.25L154.25 66.3H115.95C114.3 66.3 113.1 65.9 111.8 65.25C111.1 64.9 110.25 64.4 109.4 63.75C108.5 63.1 107.55 62.3 106.45 61.25L97.15 52.8L97.3 52.4L113.95 8.95C114.25 8.15 115.1 7.55 115.95 7.55H190.3C191.35 7.55 191.9 8.2 192.1 8.5C192.3 8.8 192.75 9.55 192.35 10.5L191.45 12.75L168.95 71.55L166.55 77.8C166.25 78.65 165.4 79.2 164.55 79.2L82.4 79.45C80.1 79.45 78.05 80.85 77.25 83L75.75 86.95L164.5 86.7C168.45 86.7 172.1 84.2 173.55 80.5L173.95 79.45L197.2 18.8L199.35 13.15C199.35 13.05 199.4 12.95 199.45 12.85C199.45 12.8 199.6 12.7 199.6 12.7L199.5 12.75ZM15.55 61.25C15.55 62.25 15.15 62.9 14.4 63.3C13.65 63.7 12.25 63.85 10.3 63.85C8.35 63.85 7.75 63.65 7.2 63.3C6.65 62.95 6.35 62.3 6.35 61.45C6.35 60.6 6.5 60.55 6.7 60.15C6.9 59.75 7.25 59.4 7.75 59.05C8.25 58.7 8.8 58.35 9.45 58C10.1 57.65 10.95 57.3 11.85 56.8L15.65 55V61.15L15.55 61.25ZM50.1 62.35C49.2 63.4 47.9 64.45 46.15 65.45C44.4 64.45 43.1 63.45 42.2 62.35C41.3 61.3 40.9 60.05 40.9 58.65C40.9 57.25 41.35 56.1 42.35 55.25C43.3 54.45 44.5 54 45.9 54H46.5C47.9 54 49.1 54.4 50.05 55.25C51 56.05 51.5 57.2 51.5 58.65C51.5 60.1 51.05 61.25 50.2 62.35H50.15H50.1Z" fill="white"/>
<path d="M167.2 25.05H118.55L120.05 21.1C120.85 18.95 122.9 17.55 125.2 17.55H173.75L172.2 21.6C171.4 23.7 169.45 25.05 167.25 25.05H167.2Z" fill="white"/>
<path d="M159.4 42.6H110.75L112.25 38.65C113.05 36.5 115.1 35.1 117.4 35.1H165.95L164.4 39.15C163.6 41.25 161.65 42.6 159.45 42.6H159.4Z" fill="white"/>
</g>
<defs>
<clipPath id="clip0_3_22">
<rect width="200" height="87" fill="white"/>
</clipPath>
</defs>
</svg>