<svg width="100%" height="100%" viewBox="0 0 156 74" fill="none" xmlns="http://www.w3.org/2000/svg">
<path d="M8.17197 33.8443C8.26851 33.7476 8.37832 33.6302 8.50262 33.4923H8.56416L9.32923 34.4468H20.6447L21.9275 32.8293V31.772H18.0587C17.2031 31.772 16.5974 31.5373 16.2378 31.0667C15.9481 30.6518 15.8033 30.1267 15.8033 29.4904C15.8033 28.0387 16.6106 27.3128 18.224 27.3128C18.8165 27.3128 19.4863 27.389 20.2308 27.5415V25.0106C19.4452 24.7759 18.6452 24.6586 17.8306 24.6586H17.6653C16.3693 24.6586 15.2591 25.0046 14.3347 25.6954C13.1896 26.5531 12.6176 27.7278 12.6176 29.2206C12.6176 29.7457 12.7069 30.3058 12.8867 30.901C13.011 31.247 13.1353 31.5373 13.2595 31.772H9.08064C9.06616 31.5784 9.06013 31.2881 9.06013 30.901V29.8848C9.06013 28.4198 8.59795 27.2088 7.67359 26.2555C6.63943 25.1909 5.27341 24.6586 3.57795 24.6586C2.94321 24.6586 2.44725 24.6997 2.08885 24.7832V27.3346C2.32295 27.2789 2.6536 27.2511 3.08199 27.2511C3.9098 27.2511 4.58195 27.5209 5.09843 28.0605C5.61612 28.6 5.87436 29.2908 5.87436 30.134V31.4817C5.87436 31.6752 5.77782 31.772 5.58475 31.772H0V34.4468H6.53686C7.14384 34.4335 7.68808 34.2327 8.17077 33.8455L8.17197 33.8443Z" fill="white"/>
<path d="M27.5834 33.658V19.597H24.3976V34.9646H25.97L27.5834 33.658Z" fill="white"/>
<path d="M64.0001 31.8748V24.9066H60.8144V31.4805C60.8144 31.674 60.7178 31.7708 60.5247 31.7708H56.4291C56.4158 31.4248 56.4086 31.1345 56.4086 30.8998V26.0885H53.2228V31.4805C53.2228 31.674 53.1263 31.7708 52.9332 31.7708H48.8376V31.5216C48.8231 31.0788 48.817 30.7546 48.817 30.5465V27.291H45.6313V31.4805C45.6313 31.674 45.5347 31.7708 45.3417 31.7708H39.5288V28.5359C39.5288 27.1677 38.9774 26.1164 37.8744 25.3833C37.1431 24.8993 36.2465 24.6574 35.1846 24.6574C33.7088 24.6574 32.4948 25.1413 31.5439 26.1091C30.7306 26.9523 30.3239 28.156 30.3239 29.7178C30.3239 30.9482 30.7101 32.0067 31.4824 32.891C32.379 33.9278 33.558 34.4468 35.0193 34.4468H36.2393C35.8809 35.982 34.7357 36.749 32.805 36.749C32.2257 36.749 31.6187 36.68 30.984 36.5421V37.6623L32.3705 39.3633C32.7012 39.4044 33.0185 39.425 33.3226 39.425C34.0262 39.425 34.6947 39.3415 35.3294 39.1758C36.2671 38.9399 37.0526 38.5539 37.6874 38.0144C38.7348 37.1567 39.3418 35.9687 39.5083 34.4468H46.2527C47.0806 34.4468 47.7491 34.1226 48.2595 33.4717H48.3211L49.1899 34.4468H53.8443C54.6721 34.4468 55.3406 34.1226 55.8511 33.4717H55.9126L56.7815 34.4468H61.4358C62.1393 34.4468 62.7427 34.1952 63.2459 33.6895C63.7491 33.185 64.0013 32.5801 64.0013 31.8748H64.0001ZM36.3419 31.7708H35.7216C34.218 31.7708 33.4662 31.0111 33.4662 29.4892C33.4662 28.8395 33.6219 28.3169 33.932 27.9238C34.2422 27.5294 34.6525 27.3322 35.1629 27.3322C35.4248 27.3322 35.6589 27.4084 35.8664 27.5608C36.1838 27.7955 36.3419 28.1282 36.3419 28.5565V31.7708Z" fill="white"/>
<path d="M4.34661 41.9328C4.13906 42.1409 4.03528 42.3986 4.03528 42.7034C4.03528 43.0083 4.13906 43.2551 4.34661 43.468C4.55417 43.6809 4.80638 43.7874 5.10203 43.7874C5.39768 43.7874 5.66557 43.6809 5.87795 43.468C6.09034 43.2551 6.19653 43.001 6.19653 42.7034C6.19653 42.4058 6.09034 42.153 5.87795 41.9389C5.66557 41.7259 5.40612 41.6195 5.10203 41.6195C4.79793 41.6195 4.55417 41.7235 4.34661 41.9316V41.9328Z" fill="white"/>
<path d="M1.85837 41.9328C1.64599 42.1409 1.53979 42.3986 1.53979 42.7034C1.53979 43.0083 1.64599 43.2551 1.85837 43.468C2.07076 43.6809 2.32538 43.7874 2.62102 43.7874C2.91667 43.7874 3.18457 43.6809 3.39695 43.468C3.60934 43.2551 3.71553 43.001 3.71553 42.7034C3.71553 42.4058 3.60934 42.153 3.39695 41.9389C3.18457 41.7259 2.92633 41.6195 2.62102 41.6195C2.31572 41.6195 2.07076 41.7235 1.85837 41.9316V41.9328Z" fill="white"/>
<path d="M7.84618 51.7077C7.55053 51.7077 7.29591 51.8142 7.08353 52.0271C6.87115 52.24 6.76495 52.4989 6.76495 52.805C6.76495 53.111 6.87115 53.3554 7.08353 53.5695C7.29591 53.7824 7.55053 53.8889 7.84618 53.8889C8.14183 53.8889 8.40973 53.7824 8.62211 53.5695C8.83449 53.3566 8.94069 53.1013 8.94069 52.805C8.94069 52.5086 8.83449 52.24 8.62211 52.0271C8.40973 51.8142 8.15028 51.7077 7.84618 51.7077Z" fill="white"/>
<path d="M10.326 51.7077C10.0303 51.7077 9.77811 51.8142 9.57055 52.0271C9.36299 52.24 9.25922 52.4989 9.25922 52.805C9.25922 53.111 9.36299 53.3554 9.57055 53.5695C9.77811 53.7824 10.0303 53.8889 10.326 53.8889C10.6216 53.8889 10.8895 53.7824 11.1019 53.5695C11.3143 53.3566 11.4205 53.1013 11.4205 52.805C11.4205 52.5086 11.3143 52.24 11.1019 52.0271C10.8895 51.8142 10.6301 51.7077 10.326 51.7077Z" fill="white"/>
<path d="M15.0045 41.9328C14.7969 42.1409 14.6931 42.3986 14.6931 42.7034C14.6931 43.0083 14.7969 43.2551 15.0045 43.468C15.212 43.6809 15.469 43.7874 15.7731 43.7874C16.0772 43.7874 16.3222 43.6809 16.5358 43.468C16.7482 43.2551 16.8544 43.001 16.8544 42.7034C16.8544 42.4058 16.7482 42.153 16.5358 41.9389C16.3234 41.7259 16.0688 41.6195 15.7731 41.6195C15.4775 41.6195 15.212 41.7235 15.0045 41.9316V41.9328Z" fill="white"/>
<path d="M12.5234 41.9328C12.3159 42.1409 12.2121 42.3986 12.2121 42.7034C12.2121 43.0083 12.3159 43.2551 12.5234 43.468C12.731 43.6809 12.988 43.7874 13.2921 43.7874C13.5962 43.7874 13.8412 43.6809 14.0548 43.468C14.2672 43.2551 14.3734 43.001 14.3734 42.7034C14.3734 42.4058 14.2672 42.153 14.0548 41.9389C13.8424 41.7259 13.5878 41.6195 13.2921 41.6195C12.9965 41.6195 12.731 41.7235 12.5234 41.9316V41.9328Z" fill="white"/>
<path d="M37.9492 51.7077C37.6439 51.7077 37.3881 51.8142 37.1805 52.0271C36.973 52.24 36.8692 52.4989 36.8692 52.805C36.8692 53.111 36.973 53.3554 37.1805 53.5695C37.3881 53.7824 37.6451 53.8889 37.9492 53.8889C38.2533 53.8889 38.4983 53.7824 38.7119 53.5695C38.9243 53.3566 39.0305 53.1013 39.0305 52.805C39.0305 52.5086 38.9243 52.24 38.7119 52.0271C38.4995 51.8142 38.2449 51.7077 37.9492 51.7077Z" fill="white"/>
<path d="M40.9432 45.5524C40.1758 44.858 39.2381 44.5108 38.1291 44.5108C37.4546 44.5108 36.6557 44.6451 35.7314 44.9137V46.6231C36.4795 46.4283 37.1082 46.3315 37.6163 46.3315C38.1617 46.3315 38.642 46.4658 39.0571 46.7344C39.5832 47.0767 39.8475 47.5546 39.8475 48.1655V49.0825C39.8475 49.212 39.7824 49.2773 39.6532 49.2773H33.3058V49.2083C33.2962 48.9954 33.2926 48.843 33.2926 48.7498V44.679H31.1579V49.0837C31.1579 49.2132 31.0927 49.2785 30.9636 49.2785H28.2195C28.2098 49.0474 28.2062 48.8527 28.2062 48.6954V45.4714H26.0715V49.0837C26.0715 49.2132 26.0063 49.2785 25.8772 49.2785H23.1331V49.1817C23.1234 48.9966 23.1198 48.8575 23.1198 48.7643V46.2771H20.9851V49.0837C20.9851 49.2132 20.92 49.2785 20.7908 49.2785H16.6602C16.6506 49.2325 16.6457 49.1902 16.6457 49.1539V44.6802H14.511V49.0015C14.511 49.0849 14.4833 49.1503 14.4278 49.1962C14.3819 49.2519 14.3167 49.2797 14.2335 49.2797H11.4339C11.4242 49.2337 11.4194 49.1914 11.4194 49.1551V44.6814H9.28467V49.0027C9.28467 49.0861 9.26174 49.1515 9.21589 49.1974C9.17003 49.2531 9.10004 49.2809 9.00833 49.2809H6.41628C6.34266 49.2809 6.28716 49.2628 6.24975 49.2253C6.21234 49.1878 6.19424 49.1418 6.19424 49.0861V44.3064H5.12749L4.55912 44.7516C4.09694 44.5568 3.62994 44.46 3.15931 44.46C2.29047 44.46 1.56522 44.7612 0.983577 45.3637C0.33677 46.0303 0.0133667 46.8735 0.0133667 47.8921C0.0133667 48.7256 0.225751 49.4442 0.65052 50.0455C1.17665 50.8149 1.9019 51.1984 2.82625 51.1984H2.86728C3.50444 51.1984 4.04988 50.971 4.5024 50.5173C4.89097 50.8875 5.32056 51.0726 5.79119 51.0726H9.69979C10.2537 51.0726 10.7026 50.8597 11.0441 50.4338H11.0851L11.6945 51.0726H14.9104C15.4643 51.0726 15.9181 50.8597 16.2692 50.4338H16.297L16.9064 51.0726H21.3966C21.9505 51.0726 22.3994 50.8548 22.7409 50.4193H22.7819L23.2948 51.0726H26.483C27.0369 51.0726 27.4858 50.8548 27.8273 50.4193H27.8683L28.3812 51.0726H31.5694C32.1232 51.0726 32.5721 50.8548 32.9137 50.4193H32.9547L33.4675 51.0726H40.259C40.7393 51.0726 41.1508 50.9008 41.4923 50.5584C41.8254 50.2245 41.9907 49.8217 41.9907 49.3499V47.932C41.9907 46.9969 41.6395 46.2045 40.9372 45.5561L40.9432 45.5524ZM4.04867 49.4007C3.83629 49.4467 3.65166 49.4696 3.49478 49.4696C3.08811 49.4696 2.75747 49.322 2.50406 49.0244C2.24944 48.7281 2.12273 48.3482 2.12273 47.8848C2.12273 47.3937 2.23858 47.009 2.46906 46.7319C2.69955 46.4537 3.01812 46.3146 3.42479 46.3146C3.61908 46.3146 3.82663 46.3424 4.04867 46.398V49.3995V49.4007Z" fill="white"/>
<path d="M57.7963 49.0813C57.7963 49.1466 57.7734 49.1974 57.7275 49.2337C57.6901 49.2616 57.6443 49.2761 57.5887 49.2761H54.7204C54.7107 49.2301 54.7059 49.1878 54.7059 49.1515V41.1198H52.5712V49.0813C52.5712 49.1466 52.5434 49.1974 52.4879 49.2337C52.4601 49.2616 52.4191 49.2761 52.3636 49.2761H49.7305V47.1082C49.7305 46.1912 49.3613 45.4871 48.6215 44.9959C48.1316 44.6717 47.5307 44.5096 46.8199 44.5096C45.8316 44.5096 45.0182 44.8338 44.3811 45.4823C43.8356 46.0472 43.5629 46.8529 43.5629 47.8994C43.5629 48.7244 43.8212 49.4321 44.3389 50.0249C44.9398 50.7193 45.729 51.0665 46.7089 51.0665H47.527C47.2869 52.0948 46.5194 52.609 45.2258 52.609C44.8372 52.609 44.4306 52.563 44.0058 52.4698V53.2199L44.935 54.3595C45.157 54.3873 45.3694 54.4006 45.5721 54.4006C46.044 54.4006 46.4917 54.345 46.9164 54.2337C47.5451 54.0764 48.0713 53.8163 48.496 53.4558C49.1984 52.8812 49.605 52.0851 49.716 51.0653H52.973C53.5269 51.0653 53.9806 50.8524 54.3318 50.4266H54.3595L54.9557 51.0653H58.1994C58.7448 51.0653 59.1925 50.8572 59.5436 50.4399C59.8019 50.1156 59.9322 49.7503 59.9322 49.3426V41.1174H57.7975V49.0789L57.7963 49.0813ZM47.5958 49.2761H47.1795C46.1719 49.2761 45.6687 48.7668 45.6687 47.7481C45.6687 47.3126 45.7724 46.963 45.98 46.6993C46.1876 46.4355 46.4627 46.3037 46.8042 46.3037C46.9792 46.3037 47.1373 46.3545 47.276 46.4561C47.4884 46.6134 47.5946 46.836 47.5946 47.1227V49.2761H47.5958Z" fill="white"/>
<path d="M61.8847 41.1198V51.4149H62.9382L64.0194 50.5403V41.1198H61.8847Z" fill="white"/>
<g clip-path="url(#clip0_194_886)">
<path d="M138.54 5.55877L137.039 4.87404C123.795 -1.1276 108.681 -1.60061 95.0673 3.5312L93.5401 4.11068C89.0902 5.79467 85.5092 9.13846 83.5608 13.4815L82.8758 14.9816C76.872 28.2213 76.3988 43.33 81.5325 56.9386L82.1122 58.4653C83.7968 62.887 87.1417 66.4933 91.4597 68.441L92.9604 69.1258C106.205 75.1274 121.319 75.6004 134.932 70.4686L136.46 69.8891C140.883 68.2051 144.491 64.8614 146.439 60.5449L147.124 59.0448C153.128 45.8052 153.601 30.6964 148.467 17.0878L147.888 15.5611C146.228 11.0862 142.858 7.50648 138.54 5.55877Z" fill="#FECA19"/>
<path d="M116.738 58.4388L116.712 58.4654L116.475 58.2283L116.421 58.1751C114.867 56.8589 113.183 55.5426 111.55 54.2797C106.916 50.6734 102.097 46.9364 99.3854 42.0925L99.3588 42.0659L99.3322 42.0393L99.2003 41.8022C99.1736 41.7489 99.1216 41.6703 99.0683 41.5917C99.0417 41.565 99.0417 41.5384 99.0417 41.5384C99.0151 41.5118 99.0151 41.4852 98.9885 41.4332L98.9618 41.3545C98.9352 41.3013 98.9086 41.2227 98.8566 41.1961C98.8299 41.1428 98.8033 41.0642 98.7513 41.0122C98.7246 40.959 98.698 40.8803 98.646 40.8537C98.6194 40.8271 98.6194 40.7751 98.5927 40.7485C98.5661 40.6952 98.5395 40.6166 98.4874 40.5646L98.4608 40.4859V40.4593C97.9078 39.2217 97.5132 37.8535 97.2228 36.3534C97.1175 35.7485 97.0388 35.169 96.9856 34.6162L96.959 34.4577C96.3006 24.534 103.832 15.9011 113.732 15.243C114.127 15.2164 114.548 15.1898 114.97 15.1898C118.578 15.1898 122.08 16.2689 125.055 18.2953C128.004 20.2962 130.268 23.0859 131.612 26.3499C132.349 28.1403 132.797 30.0348 132.928 31.9825V32.0357C132.982 32.7725 132.982 33.4306 132.955 34.1153C132.902 35.4836 132.666 36.853 132.27 38.1946C132.27 38.2213 132.244 38.2479 132.244 38.2733L132.165 38.5624C132.138 38.589 132.138 38.6411 132.138 38.6677L132.033 38.9314C132.006 38.9846 132.006 39.0366 131.98 39.0633C131.953 39.1165 131.953 39.1685 131.926 39.1951C131.9 39.2217 131.9 39.2483 131.9 39.3004C131.873 39.327 131.873 39.3536 131.873 39.4056C131.847 39.4322 131.847 39.4843 131.82 39.5109C131.793 39.5375 131.793 39.5641 131.793 39.6161V39.6427C131.767 39.7214 131.74 39.8012 131.688 39.8798L131.661 39.9331C129.608 45.0927 125.342 49.4358 121.234 53.647C119.812 55.1204 118.312 56.6472 116.943 58.1485L116.732 58.5695V58.4376H116.738V58.4388Z" fill="#211F1F"/>
<path d="M115.026 15.6132C122.267 15.6132 128.64 20.0615 131.298 26.5108C131.983 28.2214 132.431 30.0638 132.588 32.0115V32.0382C132.642 32.7229 132.642 33.4064 132.615 34.0645C132.562 35.4594 132.326 36.8022 131.93 38.0918V38.1184C131.903 38.2237 131.877 38.3289 131.825 38.4342C131.798 38.4874 131.772 38.566 131.772 38.6181C131.745 38.6713 131.718 38.7499 131.718 38.8286C131.692 38.9338 131.665 38.987 131.613 39.0923C131.586 39.1455 131.56 39.1975 131.56 39.2508C131.533 39.3294 131.506 39.4092 131.481 39.4613C131.454 39.5665 131.402 39.6451 131.376 39.725C131.376 39.7516 131.349 39.7516 131.349 39.7782C128.61 46.6485 121.975 51.992 116.709 57.8618L116.683 57.8351V57.8618C110.679 52.7287 103.36 48.3337 99.7255 41.911C99.7255 41.8844 99.6988 41.8844 99.6988 41.8844C99.6456 41.8058 99.5935 41.7259 99.5669 41.6473C99.5137 41.5687 99.4883 41.5154 99.4616 41.4368C99.435 41.3836 99.4084 41.3316 99.383 41.2783C99.3297 41.1997 99.3043 41.1198 99.2511 41.0412C99.2244 40.988 99.1978 40.9094 99.1458 40.8573C99.1191 40.8041 99.0925 40.7521 99.0671 40.6989C99.0139 40.5936 98.9618 40.515 98.9352 40.4097V40.3831C98.2768 38.9096 97.9077 37.4349 97.6972 36.3038C97.4866 35.1981 97.46 34.4347 97.46 34.4347C96.8282 24.6961 104.148 16.3258 113.838 15.6676C114.232 15.6144 114.628 15.6144 115.022 15.6144H115.026V15.6132ZM115.026 14.7446C114.605 14.7446 114.184 14.7712 113.763 14.7978C108.838 15.1402 104.363 17.3504 101.123 21.062C97.8847 24.7735 96.2788 29.511 96.6201 34.4335L96.6467 34.7492C96.7 35.2755 96.7786 35.8283 96.8573 36.3812C97.1465 37.8813 97.5423 39.2508 98.0687 40.4871V40.5138L98.1474 40.6722C98.174 40.7255 98.2006 40.8041 98.2526 40.8827C98.2793 40.9093 98.2793 40.9614 98.3059 40.988C98.3325 41.0412 98.3591 41.1198 98.4112 41.1719C98.4378 41.2251 98.4644 41.3037 98.5165 41.3558C98.5431 41.409 98.5697 41.4876 98.6218 41.5396L98.6484 41.6183C98.675 41.6449 98.675 41.6715 98.7016 41.7235C98.7198 41.7417 98.7283 41.7586 98.7283 41.7767C98.7815 41.8554 98.8335 41.9352 98.8602 42.0139C98.8868 42.0671 98.9134 42.0925 98.9134 42.1457C98.94 42.199 98.9667 42.2244 98.9667 42.2776L98.9933 42.3308L99.0199 42.3574C101.785 47.2533 106.63 51.0169 111.29 54.6498C112.923 55.9128 116.767 59.1514 116.767 59.1514C116.767 59.1514 120.243 55.3878 121.665 53.9397C125.826 49.7019 130.091 45.3322 132.198 40.094L132.224 40.0674L132.251 40.0407V40.0141C132.277 39.9355 132.304 39.8556 132.356 39.777V39.7238C132.383 39.6972 132.383 39.6706 132.383 39.6185C132.409 39.5653 132.409 39.5399 132.436 39.4867C132.463 39.4601 132.463 39.4334 132.463 39.3814C132.463 39.3548 132.489 39.3282 132.489 39.3282V39.275C132.516 39.2217 132.516 39.1697 132.542 39.1431C132.569 39.1165 132.569 39.0645 132.596 39.0112L132.622 38.906L132.649 38.8273V38.7741C132.649 38.7475 132.676 38.7475 132.676 38.7209C132.702 38.6677 132.702 38.6156 132.729 38.589C132.755 38.5358 132.755 38.4838 132.782 38.4305C132.809 38.4039 132.809 38.3519 132.809 38.3253C132.835 38.2987 132.835 38.2467 132.835 38.1934C133.23 36.8252 133.467 35.4037 133.52 34.0089C133.547 33.3241 133.547 32.6406 133.494 31.9027V31.8494C133.362 29.8485 132.914 27.9274 132.15 26.0849C130.782 22.7157 128.437 19.8728 125.436 17.8464C122.33 15.8455 118.749 14.741 115.036 14.741L115.026 14.7446Z" fill="#211F1F"/>
<path d="M132.563 32.0382V32.0115C132.431 30.0638 131.983 28.2214 131.273 26.5108L129.325 27.5378L122.189 31.3546L115.316 35.2501V43.4886L122.031 39.6718L129.009 35.9336L132.538 34.0645C132.616 33.4064 132.616 32.7217 132.564 32.0382H132.563Z" fill="#FECA19"/>
<path d="M114.553 43.514L107.286 39.3814V31.1429L114.553 35.2755V43.514Z" fill="#FECA19"/>
<path d="M114.947 33.381L107.68 29.2484L115.237 25.1413L122.505 29.2484L114.947 33.381Z" fill="#FECA19"/>
<path d="M118.757 29.9295L117.275 29.021C117.812 28.7609 117.772 28.4415 117.155 28.0641C116.616 27.7338 116.147 27.6576 115.747 27.8342C115.563 27.9153 115.502 28.0193 115.563 28.1439C115.615 28.2492 115.877 28.5468 116.348 29.0355C116.791 29.5013 117.053 29.8654 117.132 30.1292C117.277 30.5804 117.007 30.9566 116.32 31.2591C115.569 31.5905 114.734 31.6873 113.811 31.5494C113.005 31.4309 112.237 31.1466 111.503 30.6977C110.615 30.1533 110.182 29.6295 110.205 29.1287C110.219 28.6895 110.586 28.3048 111.307 27.9758L112.873 28.9351C112.182 29.2751 112.206 29.6719 112.944 30.1243C113.55 30.4945 114.085 30.578 114.548 30.3735C114.763 30.278 114.846 30.1594 114.792 30.0154C114.739 29.8727 114.5 29.563 114.077 29.0888C113.564 28.5129 113.305 28.0895 113.298 27.8173C113.291 27.4979 113.57 27.2148 114.135 26.9644C114.809 26.6668 115.584 26.5833 116.46 26.7116C117.225 26.8253 117.94 27.0854 118.606 27.4943C119.4 27.9806 119.786 28.4488 119.764 28.8976C119.743 29.2872 119.408 29.6307 118.758 29.9295H118.757Z" fill="#211F1F"/>
</g>
<defs>
<clipPath id="clip0_194_886">
<rect width="74" height="74" fill="white" transform="translate(78)"/>
</clipPath>
</defs>
</svg>
