<svg width="100%" height="100%" viewBox="0 0 70 33" fill="none" xmlns="http://www.w3.org/2000/svg">
<g clip-path="url(#clip0_249_1290)">
<path d="M4.4565 15.5005C4.49866 15.4583 4.54663 15.4073 4.60092 15.3472H4.6278L4.96196 15.7627H9.90426L10.4645 15.0587V14.5984H8.77475C8.40106 14.5984 8.13648 14.4963 7.97941 14.2915C7.85291 14.1108 7.78967 13.8823 7.78967 13.6053C7.78967 12.9734 8.14227 12.6575 8.84696 12.6575C9.10575 12.6575 9.39827 12.6907 9.72347 12.757V11.6554C9.38035 11.5533 9.03091 11.5022 8.67514 11.5022H8.60293C8.03686 11.5022 7.55196 11.6528 7.14823 11.9535C6.64804 12.3268 6.39821 12.8381 6.39821 13.4879C6.39821 13.7164 6.43721 13.9602 6.51575 14.2193C6.57003 14.3699 6.62432 14.4963 6.67861 14.5984H4.85338C4.84706 14.5142 4.84442 14.3878 4.84442 14.2193V13.777C4.84442 13.1393 4.64255 12.6122 4.23882 12.1973C3.78713 11.7339 3.19049 11.5022 2.44996 11.5022C2.17272 11.5022 1.9561 11.5201 1.79956 11.5564V12.667C1.90181 12.6428 2.04623 12.6306 2.23333 12.6306C2.5949 12.6306 2.88848 12.7481 3.11406 12.9829C3.34017 13.2178 3.45297 13.5184 3.45297 13.8855V14.4721C3.45297 14.5563 3.4108 14.5984 3.32647 14.5984H0.887207V15.7627H3.74232C4.00744 15.7569 4.24515 15.6695 4.45597 15.501L4.4565 15.5005Z" fill="currentColor"/>
<path d="M12.9349 15.4194V9.29901H11.5435V15.9881H12.2302L12.9349 15.4194Z" fill="currentColor"/>
<path d="M28.8407 14.6432V11.6101H27.4492V14.4715C27.4492 14.5558 27.4071 14.5979 27.3227 14.5979H25.5339C25.5281 14.4473 25.5249 14.3209 25.5249 14.2188V12.1246H24.1334V14.4715C24.1334 14.5558 24.0913 14.5979 24.0069 14.5979H22.2181V14.4894C22.2118 14.2967 22.2091 14.1556 22.2091 14.065V12.648H20.8177V14.4715C20.8177 14.5558 20.7755 14.5979 20.6912 14.5979H18.1523V13.1898C18.1523 12.5943 17.9114 12.1367 17.4297 11.8176C17.1103 11.607 16.7187 11.5016 16.2549 11.5016C15.6103 11.5016 15.08 11.7123 14.6647 12.1335C14.3095 12.5006 14.1318 13.0245 14.1318 13.7043C14.1318 14.2398 14.3005 14.7006 14.6378 15.0855C15.0294 15.5368 15.5444 15.7627 16.1827 15.7627H16.7155C16.559 16.4309 16.0588 16.7647 15.2155 16.7647C14.9625 16.7647 14.6974 16.7347 14.4201 16.6747V17.1623L15.0257 17.9027C15.1702 17.9206 15.3088 17.9295 15.4416 17.9295C15.7489 17.9295 16.0409 17.8932 16.3181 17.8211C16.7276 17.7184 17.0708 17.5504 17.348 17.3155C17.8055 16.9422 18.0706 16.4251 18.1433 15.7627H21.0891C21.4507 15.7627 21.7427 15.6216 21.9656 15.3383H21.9925L22.372 15.7627H24.4049C24.7665 15.7627 25.0584 15.6216 25.2814 15.3383H25.3083L25.6878 15.7627H27.7207C28.0279 15.7627 28.2915 15.6532 28.5113 15.433C28.731 15.2135 28.8412 14.9502 28.8412 14.6432H28.8407ZM16.7603 14.5979H16.4894C15.8327 14.5979 15.5043 14.2672 15.5043 13.6048C15.5043 13.322 15.5723 13.0945 15.7078 12.9234C15.8432 12.7517 16.0224 12.6659 16.2454 12.6659C16.3597 12.6659 16.462 12.6991 16.5527 12.7654C16.6913 12.8676 16.7603 13.0124 16.7603 13.1988V14.5979Z" fill="currentColor"/>
<path d="M2.78576 19.0211C2.69511 19.1117 2.64978 19.2239 2.64978 19.3566C2.64978 19.4893 2.69511 19.5967 2.78576 19.6894C2.87642 19.782 2.98658 19.8284 3.11571 19.8284C3.24484 19.8284 3.36185 19.782 3.45461 19.6894C3.54737 19.5967 3.59376 19.4861 3.59376 19.3566C3.59376 19.227 3.54737 19.117 3.45461 19.0238C3.36185 18.9311 3.24853 18.8848 3.11571 18.8848C2.98289 18.8848 2.87642 18.9301 2.78576 19.0206V19.0211Z" fill="currentColor"/>
<path d="M1.69884 19.0211C1.60607 19.1117 1.55969 19.2239 1.55969 19.3566C1.55969 19.4893 1.60607 19.5967 1.69884 19.6894C1.7916 19.782 1.90281 19.8284 2.03194 19.8284C2.16107 19.8284 2.27808 19.782 2.37085 19.6894C2.46361 19.5967 2.50999 19.4861 2.50999 19.3566C2.50999 19.227 2.46361 19.117 2.37085 19.0238C2.27808 18.9311 2.16529 18.8848 2.03194 18.8848C1.8986 18.8848 1.7916 18.9301 1.69884 19.0206V19.0211Z" fill="currentColor"/>
<path d="M4.31417 23.2758C4.18504 23.2758 4.07383 23.3222 3.98106 23.4149C3.8883 23.5075 3.84192 23.6202 3.84192 23.7534C3.84192 23.8867 3.8883 23.993 3.98106 24.0862C4.07383 24.1789 4.18504 24.2253 4.31417 24.2253C4.4433 24.2253 4.56031 24.1789 4.65307 24.0862C4.74584 23.9936 4.79222 23.8825 4.79222 23.7534C4.79222 23.6244 4.74584 23.5075 4.65307 23.4149C4.56031 23.3222 4.44699 23.2758 4.31417 23.2758Z" fill="currentColor"/>
<path d="M5.39732 23.2758C5.26819 23.2758 5.15803 23.3222 5.06738 23.4149C4.97672 23.5075 4.9314 23.6202 4.9314 23.7534C4.9314 23.8867 4.97672 23.993 5.06738 24.0862C5.15803 24.1789 5.26819 24.2253 5.39732 24.2253C5.52645 24.2253 5.64346 24.1789 5.73623 24.0862C5.82899 23.9936 5.87537 23.8825 5.87537 23.7534C5.87537 23.6244 5.82899 23.5075 5.73623 23.4149C5.64346 23.3222 5.53014 23.2758 5.39732 23.2758Z" fill="currentColor"/>
<path d="M7.44079 19.0211C7.35014 19.1117 7.30481 19.2239 7.30481 19.3566C7.30481 19.4893 7.35014 19.5967 7.44079 19.6894C7.53145 19.782 7.64371 19.8284 7.77653 19.8284C7.90935 19.8284 8.01635 19.782 8.10964 19.6894C8.2024 19.5967 8.24878 19.4861 8.24878 19.3566C8.24878 19.227 8.2024 19.117 8.10964 19.0238C8.01688 18.9311 7.90567 18.8848 7.77653 18.8848C7.6474 18.8848 7.53145 18.9301 7.44079 19.0206V19.0211Z" fill="currentColor"/>
<path d="M6.35705 19.0211C6.2664 19.1117 6.22107 19.2239 6.22107 19.3566C6.22107 19.4893 6.2664 19.5967 6.35705 19.6894C6.44771 19.782 6.55997 19.8284 6.69279 19.8284C6.82561 19.8284 6.93261 19.782 7.0259 19.6894C7.11866 19.5967 7.16505 19.4861 7.16505 19.3566C7.16505 19.227 7.11866 19.117 7.0259 19.0238C6.93314 18.9311 6.82193 18.8848 6.69279 18.8848C6.56366 18.8848 6.44771 18.9301 6.35705 19.0206V19.0211Z" fill="currentColor"/>
<path d="M17.4624 23.2758C17.3291 23.2758 17.2174 23.3222 17.1267 23.4149C17.036 23.5075 16.9907 23.6202 16.9907 23.7534C16.9907 23.8867 17.036 23.993 17.1267 24.0862C17.2174 24.1789 17.3296 24.2253 17.4624 24.2253C17.5953 24.2253 17.7023 24.1789 17.7956 24.0862C17.8883 23.9936 17.9347 23.8825 17.9347 23.7534C17.9347 23.6244 17.8883 23.5075 17.7956 23.4149C17.7028 23.3222 17.5916 23.2758 17.4624 23.2758Z" fill="currentColor"/>
<path d="M18.7701 20.5967C18.4349 20.2944 18.0254 20.1433 17.541 20.1433C17.2463 20.1433 16.8974 20.2017 16.4937 20.3186V21.0627C16.8205 20.9779 17.0951 20.9358 17.317 20.9358C17.5552 20.9358 17.765 20.9942 17.9463 21.1111C18.1761 21.2601 18.2915 21.4681 18.2915 21.7341V22.1332C18.2915 22.1895 18.2631 22.218 18.2067 22.218H15.4343V22.188C15.4301 22.0953 15.4285 22.0289 15.4285 21.9884V20.2165H14.4961V22.1337C14.4961 22.1901 14.4677 22.2185 14.4113 22.2185H13.2127C13.2085 22.1179 13.2069 22.0332 13.2069 21.9647V20.5614H12.2745V22.1337C12.2745 22.1901 12.2461 22.2185 12.1897 22.2185H10.9911V22.1764C10.9869 22.0958 10.9853 22.0353 10.9853 21.9947V20.9121H10.0529V22.1337C10.0529 22.1901 10.0245 22.2185 9.96809 22.2185H8.16394C8.15973 22.1985 8.15762 22.1801 8.15762 22.1643V20.217H7.22524V22.0979C7.22524 22.1343 7.21312 22.1627 7.18887 22.1827C7.16884 22.2069 7.14038 22.219 7.10401 22.219H5.88122C5.877 22.199 5.8749 22.1806 5.8749 22.1648V20.2175H4.94252V22.0984C4.94252 22.1348 4.9325 22.1632 4.91247 22.1832C4.89244 22.2075 4.86187 22.2196 4.82182 22.2196H3.68968C3.65753 22.2196 3.63328 22.2117 3.61694 22.1953C3.60061 22.179 3.5927 22.159 3.5927 22.1348V20.0543H3.12677L2.87852 20.2481C2.67666 20.1633 2.47268 20.1212 2.26713 20.1212C1.88764 20.1212 1.57087 20.2523 1.31683 20.5145C1.03432 20.8047 0.893066 21.1717 0.893066 21.6151C0.893066 21.9779 0.98583 22.2906 1.17136 22.5524C1.40116 22.8873 1.71792 23.0542 2.12166 23.0542H2.13958C2.41787 23.0542 2.6561 22.9552 2.85375 22.7577C3.02347 22.9188 3.2111 22.9994 3.41666 22.9994H5.12383C5.36575 22.9994 5.56182 22.9067 5.71098 22.7214H5.7289L5.99507 22.9994H7.3997C7.64162 22.9994 7.8398 22.9067 7.99317 22.7214H8.0053L8.27147 22.9994H10.2327C10.4746 22.9994 10.6707 22.9046 10.8198 22.7151H10.8377L11.0618 22.9994H12.4543C12.6962 22.9994 12.8923 22.9046 13.0414 22.7151H13.0593L13.2833 22.9994H14.6758C14.9178 22.9994 15.1138 22.9046 15.263 22.7151H15.2809L15.5049 22.9994H18.4712C18.681 22.9994 18.8608 22.9246 19.0099 22.7756C19.1554 22.6303 19.2276 22.4549 19.2276 22.2496V21.6324C19.2276 21.2254 19.0742 20.8805 18.7675 20.5982L18.7701 20.5967ZM2.65558 22.2717C2.56281 22.2917 2.48217 22.3017 2.41365 22.3017C2.23603 22.3017 2.09161 22.2375 1.98093 22.1079C1.86972 21.9789 1.81438 21.8136 1.81438 21.6119C1.81438 21.3981 1.86498 21.2307 1.96565 21.1101C2.06632 20.989 2.20546 20.9284 2.38308 20.9284C2.46794 20.9284 2.5586 20.9405 2.65558 20.9647V22.2712V22.2717Z" fill="currentColor"/>
<path d="M26.1311 22.1327C26.1311 22.1611 26.121 22.1832 26.101 22.199C26.0847 22.2111 26.0646 22.2174 26.0404 22.2174H24.7876C24.7833 22.1974 24.7812 22.179 24.7812 22.1632V18.6673H23.8489V22.1327C23.8489 22.1611 23.8367 22.1832 23.8125 22.199C23.8004 22.2111 23.7824 22.2174 23.7582 22.2174H22.6081V21.2738C22.6081 20.8747 22.4469 20.5682 22.1238 20.3544C21.9098 20.2133 21.6473 20.1427 21.3369 20.1427C20.9052 20.1427 20.5499 20.2839 20.2717 20.5661C20.0334 20.812 19.9143 21.1627 19.9143 21.6182C19.9143 21.9773 20.0271 22.2854 20.2532 22.5434C20.5157 22.8456 20.8604 22.9968 21.2884 22.9968H21.6457C21.5408 23.4444 21.2056 23.6682 20.6406 23.6682C20.4709 23.6682 20.2933 23.6481 20.1077 23.6076V23.9341L20.5136 24.4301C20.6106 24.4422 20.7033 24.448 20.7919 24.448C20.998 24.448 21.1935 24.4238 21.379 24.3753C21.6536 24.3069 21.8834 24.1937 22.069 24.0368C22.3757 23.7866 22.5533 23.4401 22.6018 22.9962H24.0244C24.2663 22.9962 24.4645 22.9036 24.6178 22.7182H24.63L24.8903 22.9962H26.3071C26.5453 22.9962 26.7409 22.9057 26.8942 22.724C27.007 22.5829 27.064 22.4239 27.064 22.2464V18.6662H26.1316V22.1316L26.1311 22.1327ZM21.6758 22.2174H21.4939C21.0538 22.2174 20.834 21.9958 20.834 21.5524C20.834 21.3628 20.8794 21.2106 20.97 21.0958C21.0607 20.981 21.1808 20.9236 21.33 20.9236C21.4064 20.9236 21.4755 20.9458 21.5361 20.99C21.6289 21.0585 21.6752 21.1553 21.6752 21.2801V22.2174H21.6758Z" fill="currentColor"/>
<path d="M27.9167 18.6673V23.1484H28.3769L28.8491 22.7677V18.6673H27.9167Z" fill="currentColor"/>
<g clip-path="url(#clip1_249_1290)">
<path d="M61.3976 3.1885L60.7422 2.89046C54.9574 0.278131 48.3559 0.072241 42.4099 2.30597L41.7429 2.55819C39.7993 3.29118 38.2352 4.74663 37.3842 6.63703L37.085 7.28998C34.4627 13.0528 34.256 19.6292 36.4983 25.5526L36.7515 26.2171C37.4873 28.1418 38.9483 29.7115 40.8342 30.5593L41.4897 30.8573C47.2745 33.4696 53.8759 33.6755 59.8219 31.4418L60.489 31.1896C62.421 30.4566 63.9967 29.0011 64.8477 27.1223L65.1469 26.4694C67.7691 20.7065 67.9758 14.1302 65.7336 8.20675L65.4804 7.54221C64.7557 5.59442 63.2836 4.03629 61.3976 3.1885Z" fill="#FECA19"/>
<path d="M51.8753 26.2057L51.8636 26.2173L51.76 26.1141L51.7368 26.0909C51.0581 25.518 50.3223 24.9451 49.6092 24.3953C47.5853 22.8256 45.4805 21.199 44.2959 19.0906L44.2843 19.079L44.2727 19.0674L44.2151 18.9642C44.2034 18.9411 44.1807 18.9068 44.1575 18.8726C44.1458 18.861 44.1458 18.8494 44.1458 18.8494C44.1342 18.8379 44.1342 18.8263 44.1226 18.8036L44.1109 18.7694C44.0993 18.7462 44.0877 18.712 44.0649 18.7004C44.0533 18.6773 44.0417 18.643 44.019 18.6204C44.0073 18.5972 43.9957 18.563 43.973 18.5514C43.9613 18.5398 43.9613 18.5172 43.9497 18.5056C43.9381 18.4824 43.9265 18.4482 43.9037 18.4256L43.8921 18.3913V18.3797C43.6505 17.8411 43.4782 17.2455 43.3514 16.5926C43.3054 16.3293 43.271 16.077 43.2478 15.8364L43.2361 15.7674C42.9486 11.4479 46.2379 7.6903 50.5623 7.40385C50.7346 7.39226 50.9185 7.38068 51.103 7.38068C52.6787 7.38068 54.2084 7.85038 55.5077 8.73239C56.7958 9.60334 57.7848 10.8176 58.3715 12.2383C58.6934 13.0176 58.889 13.8423 58.9466 14.69V14.7132C58.9699 15.0339 58.9699 15.3204 58.9583 15.6184C58.935 16.2139 58.8319 16.81 58.6591 17.394C58.6591 17.4056 58.6474 17.4172 58.6474 17.4282L58.6131 17.5541C58.6015 17.5657 58.6015 17.5883 58.6015 17.5999L58.5555 17.7147C58.5438 17.7379 58.5438 17.7605 58.5322 17.7721C58.5206 17.7952 58.5206 17.8179 58.509 17.8295C58.4973 17.8411 58.4973 17.8526 58.4973 17.8753C58.4857 17.8869 58.4857 17.8985 58.4857 17.9211C58.4741 17.9327 58.4741 17.9553 58.4624 17.9669C58.4508 17.9785 58.4508 17.9901 58.4508 18.0127V18.0243C58.4392 18.0585 58.4276 18.0933 58.4048 18.1275L58.3932 18.1507C57.4962 20.3965 55.6329 22.2869 53.8389 24.1199C53.2179 24.7613 52.5624 25.4258 51.9646 26.0793L51.8726 26.2626V26.2052H51.8753V26.2057Z" fill="#211f1f"/>
<path d="M51.1274 7.56499C54.2899 7.56499 57.0734 9.5012 58.2347 12.3084C58.5338 13.0529 58.7294 13.8549 58.7981 14.7027V14.7143C58.8214 15.0123 58.8214 15.3098 58.8098 15.5963C58.7865 16.2034 58.6834 16.7879 58.5106 17.3493V17.3608C58.499 17.4066 58.4873 17.4525 58.4646 17.4983C58.453 17.5214 58.4413 17.5557 58.4413 17.5783C58.4297 17.6015 58.4181 17.6357 58.4181 17.6699C58.4065 17.7157 58.3948 17.7389 58.3721 17.7847C58.3605 17.8079 58.3488 17.8305 58.3488 17.8537C58.3372 17.8879 58.3256 17.9227 58.3145 17.9453C58.3028 17.9911 58.2801 18.0254 58.2685 18.0601C58.2685 18.0717 58.2569 18.0717 58.2569 18.0833C57.0607 21.0737 54.1625 23.3996 51.8626 25.9545L51.851 25.9429V25.9545C49.2287 23.7203 46.0318 21.8072 44.4445 19.0116C44.4445 19.0001 44.4329 19.0001 44.4329 19.0001C44.4096 18.9658 44.3869 18.9311 44.3753 18.8969C44.352 18.8626 44.3409 18.8395 44.3293 18.8052C44.3176 18.7821 44.306 18.7594 44.2949 18.7362C44.2717 18.702 44.2606 18.6673 44.2373 18.633C44.2257 18.6099 44.214 18.5756 44.1913 18.553C44.1797 18.5298 44.1681 18.5072 44.157 18.484C44.1337 18.4382 44.111 18.404 44.0993 18.3582V18.3466C43.8118 17.7052 43.6506 17.0633 43.5586 16.571C43.4666 16.0897 43.455 15.7574 43.455 15.7574C43.1791 11.5185 46.3759 7.87514 50.6083 7.58869C50.7806 7.56552 50.9535 7.56552 51.1258 7.56552H51.1274V7.56499ZM51.1274 7.18691C50.9434 7.18691 50.7595 7.1985 50.5755 7.21008C48.4247 7.3591 46.47 8.32115 45.055 9.93668C43.6405 11.5522 42.9391 13.6143 43.0882 15.7569L43.0998 15.8943C43.1231 16.1234 43.1574 16.364 43.1918 16.6047C43.3181 17.2576 43.4909 17.8537 43.7209 18.3919V18.4035L43.7552 18.4724C43.7669 18.4956 43.7785 18.5298 43.8012 18.5641C43.8129 18.5756 43.8129 18.5983 43.8245 18.6099C43.8361 18.633 43.8477 18.6673 43.8705 18.6899C43.8821 18.7131 43.8937 18.7473 43.9165 18.7699C43.9281 18.7931 43.9397 18.8273 43.9624 18.85L43.9741 18.8842C43.9857 18.8958 43.9857 18.9074 43.9973 18.93C44.0053 18.9379 44.009 18.9453 44.009 18.9532C44.0322 18.9874 44.0549 19.0222 44.0666 19.0564C44.0782 19.0796 44.0898 19.0906 44.0898 19.1138C44.1015 19.137 44.1131 19.148 44.1131 19.1712L44.1247 19.1944L44.1363 19.206C45.3442 21.337 47.4601 22.9752 49.4956 24.5565C50.2087 25.1062 51.888 26.5158 51.888 26.5158C51.888 26.5158 53.4061 24.8777 54.0272 24.2474C55.8444 22.4028 57.7071 20.5008 58.6274 18.2207L58.639 18.2091L58.6507 18.1976V18.186C58.6623 18.1518 58.6739 18.117 58.6966 18.0828V18.0596C58.7083 18.048 58.7083 18.0364 58.7083 18.0138C58.7199 17.9906 58.7199 17.9796 58.7315 17.9564C58.7432 17.9448 58.7432 17.9332 58.7432 17.9106C58.7432 17.899 58.7548 17.8874 58.7548 17.8874V17.8642C58.7664 17.8411 58.7664 17.8184 58.778 17.8068C58.7897 17.7953 58.7897 17.7726 58.8013 17.7494L58.8129 17.7036L58.8246 17.6694V17.6462C58.8246 17.6347 58.8362 17.6347 58.8362 17.6231C58.8478 17.5999 58.8478 17.5773 58.8594 17.5657C58.8711 17.5425 58.8711 17.5199 58.8827 17.4967C58.8943 17.4851 58.8943 17.4625 58.8943 17.4509C58.906 17.4393 58.906 17.4167 58.906 17.3935C59.0783 16.7979 59.1819 16.1792 59.2051 15.5721C59.2168 15.274 59.2168 14.9765 59.1935 14.6553V14.6321C59.1359 13.7612 58.9403 12.925 58.6068 12.123C58.009 10.6565 56.9851 9.41906 55.6742 8.53705C54.3173 7.6661 52.7533 7.18533 51.1316 7.18533L51.1274 7.18691Z" fill="#211f1f"/>
<path d="M58.7871 14.7143V14.7027C58.7295 13.8549 58.5339 13.053 58.2236 12.3084L57.3726 12.7554L54.2561 14.4168L51.2543 16.1123V19.6983L54.1868 18.037L57.2346 16.4099L58.776 15.5963C58.8103 15.3098 58.8103 15.0118 58.7876 14.7143H58.7871Z" fill="#FECA19"/>
<path d="M50.9207 19.7094L47.7466 17.9106V14.3246L50.9207 16.1234V19.7094Z" fill="#FECA19"/>
<path d="M51.0931 15.2988L47.9189 13.5L51.2194 11.7123L54.3941 13.5L51.0931 15.2988Z" fill="#FECA19"/>
<path d="M52.757 13.7965L52.1095 13.401C52.3442 13.2878 52.3267 13.1488 52.0571 12.9845C51.8219 12.8407 51.6168 12.8076 51.4424 12.8844C51.3621 12.9197 51.3351 12.965 51.3621 13.0192C51.3848 13.0651 51.499 13.1946 51.7046 13.4073C51.898 13.6101 52.0127 13.7686 52.0471 13.8834C52.1105 14.0798 51.9927 14.2435 51.6924 14.3752C51.3647 14.5195 51 14.5616 50.5967 14.5015C50.2446 14.4499 49.909 14.3262 49.5887 14.1308C49.2007 13.8939 49.0115 13.6659 49.0215 13.4479C49.0278 13.2567 49.188 13.0893 49.503 12.946L50.187 13.3636C49.8852 13.5116 49.8958 13.6843 50.2182 13.8812C50.4825 14.0424 50.7161 14.0787 50.9186 13.9897C51.0127 13.9481 51.0486 13.8965 51.0253 13.8339C51.0021 13.7717 50.8974 13.6369 50.713 13.4305C50.4888 13.1798 50.3757 12.9955 50.3726 12.8771C50.3694 12.7381 50.4915 12.6148 50.7383 12.5058C51.0327 12.3763 51.371 12.34 51.7537 12.3958C52.0878 12.4453 52.4002 12.5585 52.6909 12.7365C53.0377 12.9482 53.2063 13.1519 53.1968 13.3473C53.1878 13.5169 53.0414 13.6664 52.7575 13.7965H52.757Z" fill="#211f1f"/>
</g>
</g>
<defs>
<clipPath id="clip0_249_1290">
<rect width="68.1365" height="32.21" fill="white" transform="translate(0.887207 0.769043)"/>
</clipPath>
<clipPath id="clip1_249_1290">
<rect width="32.3212" height="32.21" fill="white" transform="translate(34.9554 0.769043)"/>
</clipPath>
</defs>
</svg>

