<?xml version="1.0" encoding="UTF-8"?>
<svg id="Calque_1" xmlns="http://www.w3.org/2000/svg" viewBox="0 0 467.33 190.33">
	<defs>
		<style>
			.cls-1{fill:#211f1f;}
			.cls-text{fill:currentColor;}
			.cls-1,.cls-2{stroke-width:0px;}
			.cls-2{fill:#fdc917;}
		</style>
	</defs>
	<path class="cls-2" d="M155.65,14.3l-3.86-1.76C117.74-2.9,78.88-4.12,43.88,9.08l-3.93,1.49c-11.44,4.33-20.65,12.93-25.66,24.1l-1.76,3.86c-15.44,34.05-16.65,72.91-3.45,107.91l1.49,3.93c4.33,11.37,12.93,20.65,24.03,25.66l3.86,1.76c34.05,15.44,72.91,16.65,107.91,3.45l3.93-1.49c11.37-4.33,20.65-12.93,25.66-24.03l1.76-3.86c15.44-34.05,16.65-72.91,3.45-107.91l-1.49-3.93c-4.27-11.51-12.93-20.72-24.03-25.73h0Z" />
	<path class="cls-text" d="M266.55,56.99c-1.74-1.1-4.55-2.14-8.4-3.13-4.07-1.02-6.48-1.72-7.22-2.1-.89-.45-1.33-1.16-1.33-2.15,0-2.15,1.65-3.23,4.97-3.23,3.79,0,5.76,1.5,5.89,4.51h9.13c-.07-3.55-1.21-6.35-3.43-8.4-2.56-2.35-6.28-3.53-11.17-3.53-4.1,0-7.46.91-10.09,2.72-3.01,2.09-4.51,4.93-4.51,8.56,0,3.04.94,5.36,2.82,6.97,1.61,1.37,4.75,2.72,9.43,4.05,3.86,1.1,6.28,1.92,7.25,2.49.97.57,1.46,1.43,1.46,2.59,0,2.49-1.86,3.74-5.58,3.74-4.54,0-6.92-1.95-7.12-5.84h-9.63c.06,3.93,1.37,7.04,3.89,9.32,2.87,2.63,7.04,3.95,12.5,3.95,4.51,0,8.14-.95,10.91-2.87,3.18-2.19,4.76-5.29,4.76-9.32,0-3.69-1.5-6.46-4.51-8.3Z" />
	<path class="cls-text" d="M300.21,71.17c.03-.89.05-1.54.05-1.95v-2.41l.05-4.41v-.56c.03-1.78.05-2.83.05-3.18,0-1.98-.19-3.46-.56-4.43-.38-.97-1.08-1.85-2.1-2.64-2.19-1.57-5.47-2.36-9.84-2.36-8.23,0-12.5,2.96-12.81,8.86h8.25c.21-1.26.64-2.14,1.31-2.64.67-.49,1.72-.74,3.15-.74,2.63,0,3.98.97,4.05,2.92v1.59l-6.04,1.13c-3.83.71-6.35,1.35-7.58,1.89-2.87,1.34-4.3,3.62-4.3,6.87,0,2.36.73,4.25,2.2,5.69,1.67,1.64,4.06,2.46,7.17,2.46,4.17,0,7.07-1.07,8.71-3.23.03.82.19,1.66.46,2.51h8.87c-.72-.93-1.08-2.34-1.08-4.26v-1.13ZM291.86,66.31c-.03,1.64-.36,2.84-.97,3.59-1.09,1.4-2.63,2.1-4.61,2.1-2.35,0-3.53-1.04-3.53-3.13,0-.96.34-1.67,1.02-2.15.69-.48,2.07-.95,4.15-1.43l3.99-.87h0s0,0,0,0l-.05,1.89Z" />
	<path class="cls-text" d="M333.81,59.49c-.65,2.42-1.26,5.55-1.85,9.37-.48-3.31-1.1-6.49-1.85-9.53l-2.26-9.37h-8.1l-2,8.45c-.65,2.7-1.32,6.18-2,10.45-.65-4.06-1.33-7.43-2.05-10.09l-2.35-8.81h-9.02l8.35,26.59h8.86l2.51-10.14c.54-2.18,1.11-5.12,1.69-8.81.51,3.51,1.07,6.45,1.69,8.81l2.61,10.14h8.86l8.3-26.59h-8.91l-2.51,9.53Z" />
	<path class="cls-text" d="M372.5,71.17c.03-.89.05-1.54.05-1.95v-2.41l.05-4.41v-.56c.03-1.78.05-2.83.05-3.18,0-1.98-.19-3.46-.56-4.43-.38-.97-1.08-1.85-2.1-2.64-2.19-1.57-5.47-2.36-9.84-2.36-8.23,0-12.5,2.96-12.81,8.86h8.25c.21-1.26.64-2.14,1.31-2.64.67-.49,1.72-.74,3.15-.74,2.63,0,3.98.97,4.05,2.92v1.59l-6.04,1.13c-3.83.71-6.35,1.35-7.58,1.89-2.87,1.34-4.3,3.62-4.3,6.87,0,2.36.73,4.25,2.2,5.69,1.67,1.64,4.06,2.46,7.17,2.46,4.17,0,7.07-1.07,8.71-3.23.03.82.19,1.66.46,2.51h8.86s0,0,0,0c-.72-.93-1.08-2.34-1.08-4.25v-1.13ZM364.15,66.31c-.03,1.64-.36,2.84-.97,3.59-1.09,1.4-2.63,2.1-4.61,2.1-2.35,0-3.53-1.04-3.53-3.13,0-.96.34-1.67,1.02-2.15.69-.48,2.07-.95,4.15-1.43l3.99-.87h0s-.05,1.9-.05,1.9Z" />
	<path class="cls-text" d="M390.68,49.24c-3.86,0-7.09,1.16-9.68,3.49-3.01,2.7-4.51,6.49-4.51,10.76s1.45,7.7,4.36,10.3c2.59,2.33,6,3.48,10.2,3.48,4.64,0,8.28-1.5,10.91-4.51,1.16-1.33,1.94-2.79,2.35-4.36h-8.2c-1.16,1.98-2.85,2.97-5.07,2.97-1.81,0-3.25-.54-4.3-1.62-1.06-1.08-1.62-2.57-1.69-4.48h19.77v-.82c0-4.37-1.11-7.91-3.33-10.61-2.53-3.07-6.13-4.61-10.81-4.61ZM385.15,60.31c.51-3.45,2.42-5.17,5.63-5.17s5.04,1.72,5.48,5.17h-11.12Z" />
	<path class="cls-text" d="M421.93,49.24c-3.86,0-7.09,1.16-9.68,3.49-3.01,2.7-4.51,6.49-4.51,10.76s1.45,7.7,4.36,10.3c2.59,2.33,6,3.48,10.2,3.48,4.64,0,8.28-1.5,10.91-4.51,1.16-1.33,1.94-2.79,2.35-4.36h-8.2c-1.16,1.98-2.85,2.97-5.07,2.97-1.81,0-3.25-.54-4.3-1.62-1.06-1.08-1.62-2.57-1.69-4.48h19.77v-.82c0-4.37-1.11-7.91-3.33-10.61-2.53-3.07-6.13-4.61-10.81-4.61ZM416.4,60.31c.51-3.45,2.42-5.17,5.63-5.17s5.04,1.72,5.48,5.17h-11.12Z" />
	<path class="cls-text" d="M458.15,53.03c-1.81-2.56-4.51-3.84-7.68-3.84s-5.79,1.13-7.84,3.38c-2.35,2.53-3.53,6.03-3.53,10.5,0,4,.94,7.28,2.82,9.84,2.18,2.91,5.19,4.36,9.02,4.36,3.28,0,5.69-1.28,7.22-3.84v3.12h8.76v-36.68h0s-8.77,0-8.77,0v13.17ZM457.11,68.28c-.94,1.25-2.25,1.87-3.92,1.87-3.48,0-5.23-2.34-5.23-7.02,0-2.26.45-4,1.36-5.25.91-1.25,2.19-1.87,3.87-1.87h0c1.63,0,2.94.63,3.89,1.89.95,1.27,1.43,3.04,1.43,5.23s-.47,3.9-1.41,5.15Z" />
	<polygon class="cls-text" points="248.34 105.85 238.58 105.85 238.58 143.25 265.89 143.25 265.89 134.84 248.34 134.84 248.34 105.85" />
	<path class="cls-text" d="M283.18,115.41c-3.94,0-7.21,1.15-9.82,3.45-2.99,2.68-4.49,6.29-4.49,10.81,0,3.94,1.16,7.21,3.5,9.82,2.68,2.99,6.3,4.49,10.86,4.49h0c3.94,0,7.21-1.17,9.82-3.5,2.99-2.68,4.49-6.3,4.49-10.86,0-3.97-1.15-7.23-3.45-9.77-2.68-2.96-6.32-4.44-10.92-4.44ZM283.23,137.51c-3.55,0-5.33-2.61-5.33-7.83,0-2.47.45-4.39,1.36-5.74.91-1.36,2.2-2.04,3.87-2.04,3.62,0,5.43,2.48,5.43,7.73s-1.78,7.88-5.33,7.88Z" />
	<path class="cls-text" d="M319.95,119.59c-1.85-2.78-4.35-4.18-7.62-4.18s-5.95,1.06-8.04,3.19c-2.4,2.47-3.6,5.87-3.6,10.18,0,3.73.9,6.76,2.71,9.09,2.06,2.68,4.96,4.02,8.72,4.02,3.34,0,5.95-1.27,7.83-3.81v2.98c0,2.23-.37,3.79-1.12,4.7-.75.9-2.05,1.36-3.89,1.36-2.44,0-3.93-.99-4.49-2.98h-8.88c.73,5.81,5.15,8.72,13.27,8.72,5.67,0,9.63-1.65,11.86-4.96,1.22-1.85,1.83-4.6,1.83-8.25v-23.5h0s-8.57,0-8.57,0v3.45ZM318.67,133.59c-.96,1.18-2.22,1.78-3.89,1.78s-2.98-.6-3.94-1.8c-.96-1.2-1.44-2.86-1.44-4.89s.48-3.61,1.44-4.78c.96-1.17,2.26-1.75,3.89-1.75h0c1.67,0,2.98.59,3.94,1.76.96,1.17,1.44,2.78,1.44,4.83s-.48,3.67-1.44,4.86Z" />
	<path class="cls-text" d="M339.07,113.01c1.12,0,2.07-.4,2.87-1.2.8-.8,1.2-1.73,1.2-2.87s-.4-2.12-1.2-2.9c-.8-.78-1.76-1.17-2.87-1.17s-2.12.39-2.9,1.17c-.78.78-1.18,1.78-1.18,2.9s.39,2.08,1.18,2.87c.78.8,1.78,1.2,2.9,1.2Z" />
	<rect class="cls-text" x="334.63" y="116.14" width="8.88" height="27.11" />
	<path class="cls-text" d="M362.88,126.07c-2.71-.52-4.45-.96-5.19-1.31-.75-.35-1.12-.9-1.12-1.67,0-1.47,1.18-2.2,3.55-2.2,1.53,0,2.64.22,3.32.65.68.43,1.09,1.18,1.23,2.22h8.2s0,0,0,0c-.14-1.88-.84-3.5-2.09-4.86-2.09-2.33-5.59-3.5-10.5-3.5-3.97,0-7.03.72-9.19,2.17-2.16,1.45-3.24,3.46-3.24,6.24s1.11,4.81,3.34,6.06c1.39.76,4.02,1.57,7.88,2.4,2.47.55,4.04,1.02,4.7,1.38.66.37.99.95.99,1.75,0,1.85-1.39,2.77-4.18,2.77-1.67,0-2.86-.25-3.58-.76-.71-.5-1.14-1.39-1.28-2.64h-8.72c.1,1.46.32,2.51.65,3.16.33.65,1.05,1.53,2.17,2.64,2.3,2.26,5.85,3.39,10.65,3.39,3.8,0,6.84-.71,9.14-2.14,2.61-1.67,3.92-4.07,3.92-7.21,0-2.4-.79-4.24-2.38-5.51-1.59-1.27-4.35-2.29-8.28-3.05Z" />
	<path class="cls-text" d="M391.4,136.93c-2.26,0-3.39-1.26-3.39-3.76v-11.18h6.42v-5.84h-6.42v-10.39l-8.88,4.65v5.74h-4.55v5.85h4.55v12.01c0,2.09.08,3.59.26,4.49.17.9.55,1.74,1.15,2.51,1.36,1.74,4.05,2.61,8.09,2.61,3.27,0,5.76-.37,7.47-1.1l-1.57-6.37c-.77.52-1.81.78-3.13.78Z" />
	<rect class="cls-text" x="394.43" y="116.14" width="0" height=".01" />
	<rect class="cls-text" x="397.72" y="116.14" width="8.88" height="27.11" />
	<path class="cls-text" d="M402.16,113.01c1.12,0,2.07-.4,2.87-1.2.8-.8,1.2-1.73,1.2-2.87s-.4-2.12-1.2-2.9c-.8-.78-1.76-1.17-2.87-1.17s-2.12.39-2.9,1.17c-.78.78-1.18,1.78-1.18,2.9s.39,2.08,1.18,2.87c.78.8,1.78,1.2,2.9,1.2Z" />
	<path class="cls-text" d="M425.51,137.35c-3.55,0-5.33-2.49-5.33-7.47,0-5.32,1.83-7.99,5.48-7.99,2.58,0,4.09,1.36,4.55,4.07h8.62c-.21-2.96-1.39-5.39-3.55-7.31-2.44-2.16-5.76-3.24-9.77-3.24s-7.32,1.17-9.93,3.5c-2.96,2.65-4.44,6.32-4.44,11.02,0,3.9,1.15,7.12,3.45,9.66,2.64,2.92,6.27,4.39,10.86,4.39,3.51,0,6.44-.87,8.77-2.61,2.68-1.98,4.28-4.91,4.81-8.77h-8.56c-.48,3.17-2.14,4.75-4.96,4.75Z" />
	<path class="cls-text" d="M464.96,129.12c-1.59-1.27-4.35-2.29-8.28-3.05-2.71-.52-4.45-.96-5.19-1.31-.75-.35-1.12-.9-1.12-1.67,0-1.47,1.18-2.2,3.55-2.2,1.53,0,2.64.22,3.32.65.68.43,1.09,1.18,1.23,2.22h8.2s0,0,0,0c-.14-1.88-.84-3.5-2.09-4.86-2.09-2.33-5.59-3.5-10.5-3.5-3.97,0-7.03.72-9.19,2.17-2.16,1.45-3.24,3.46-3.24,6.24s1.11,4.81,3.34,6.06c1.39.76,4.02,1.57,7.88,2.4,2.47.55,4.04,1.02,4.7,1.38.66.37.99.95.99,1.75,0,1.85-1.39,2.77-4.18,2.77-1.67,0-2.86-.25-3.58-.76-.71-.5-1.14-1.39-1.28-2.64h-8.72c.1,1.46.32,2.51.65,3.16.33.65,1.05,1.53,2.17,2.64,2.3,2.26,5.85,3.39,10.65,3.39,3.8,0,6.84-.71,9.14-2.14,2.61-1.67,3.92-4.07,3.92-7.21,0-2.4-.79-4.24-2.38-5.51Z" />
	<path class="cls-1" d="M48.48,85.77c1.59,32.77,30.41,46.72,46.65,65.22h0c16.24-18.51,45.06-32.45,46.65-65.23,3-61.97-96.29-61.87-93.3,0Z" />
	<path class="cls-2" d="M140.47,85.69c-.04.68-.08,1.35-.13,2.02l-8.87,4.7-17.94,9.61-17.26,9.81v-21.18l17.66-10.02,18.34-9.82,5.82-2.76c1.86,5.33,2.68,11.26,2.37,17.64Z" />
	<polygon class="cls-2" points="94.3 111.9 75.61 101.28 75.61 80.09 94.3 90.72 94.3 111.9" />
	<polygon class="cls-2" points="95.31 85.84 76.63 75.21 96.06 64.65 114.74 75.21 95.31 85.84" />
	<path class="cls-1" d="M105.11,76.97l-3.81-2.34c1.38-.67,1.28-1.49-.31-2.46-1.38-.85-2.59-1.05-3.62-.59-.47.21-.63.48-.47.8.13.27.81,1.04,2.02,2.29,1.14,1.2,1.81,2.13,2.02,2.81.37,1.16-.32,2.13-2.09,2.91-1.93.85-4.08,1.1-6.45.75-2.07-.3-4.05-1.04-5.93-2.19-2.28-1.4-3.4-2.75-3.34-4.04.04-1.13.98-2.12,2.83-2.97l4.03,2.47c-1.78.87-1.71,1.89.18,3.06,1.56.95,2.93,1.17,4.12.64.55-.25.77-.55.63-.92-.14-.37-.75-1.16-1.84-2.38-1.32-1.48-1.99-2.57-2-3.27-.02-.82.7-1.55,2.15-2.19,1.73-.77,3.72-.98,5.98-.65,1.97.29,3.81.96,5.52,2.01,2.04,1.25,3.03,2.45,2.98,3.61-.05,1-.91,1.89-2.59,2.65h0Z" />
	<path class="cls-1" d="M122.48,45.27c-16.09-9.64-38.57-9.63-54.69.01-13.4,8.04-20.67,21.38-20.67,37.76,0,.92.03,1.84.07,2.77,1.19,24.54,17.61,39.03,32.1,51.81,5.45,4.79,10.58,9.31,14.86,14.21.25.29.61.44.98.44s.74-.16.99-.44c4.29-4.9,9.42-9.42,14.86-14.21,14.49-12.78,30.91-27.27,32.1-51.81.86-17.68-6.46-32.09-20.6-40.55ZM109.24,135.67c-5.09,4.49-9.93,8.75-14.12,13.35-4.18-4.6-9.01-8.86-14.12-13.35-7.39-6.51-14.92-13.16-20.73-21.09-5.82-7.93-9.93-17.17-10.5-28.89-.81-16.65,6.07-30.21,19.36-38.17,7.66-4.59,16.84-6.89,26.03-6.89s18.33,2.29,25.98,6.88c8.19,4.91,13.94,11.95,16.96,20.54,1.86,5.33,2.68,11.26,2.37,17.64-.04.68-.08,1.35-.13,2.02-1.89,22.21-16.73,35.3-31.1,47.97Z" />
</svg>
