<svg width="100%" height="100%" viewBox="0 0 156 74" fill="none" xmlns="http://www.w3.org/2000/svg">
<g clip-path="url(#clip0_1_97)">
<path d="M142.579 5.55886L141.082 4.87413C127.876 -1.1275 112.805 -1.60052 99.2306 3.53129L97.7077 4.11077C93.2706 5.79476 89.6999 9.13855 87.757 13.4816L87.074 14.9817C81.0875 28.2213 80.6156 43.3301 85.7346 56.9387L86.3126 58.4654C87.9924 62.8871 91.3278 66.4934 95.6334 68.4411L97.1297 69.1259C110.336 75.1275 125.407 75.6005 138.982 70.4687L140.504 69.8892C144.915 68.2052 148.512 64.8614 150.455 60.545L151.138 59.0449C157.125 45.8053 157.597 30.6965 152.478 17.0879L151.9 15.5612C150.245 11.0863 146.884 7.50658 142.579 5.55886Z" fill="#FECA16"/>
<path d="M120.84 58.4388L120.813 58.4654L120.576 58.2283L120.523 58.1751C118.974 56.8589 117.294 55.5426 115.666 54.2797C111.046 50.6734 106.241 46.9364 103.536 42.0925L103.51 42.0659L103.483 42.0393L103.352 41.8022C103.325 41.7489 103.273 41.6703 103.22 41.5917C103.194 41.565 103.194 41.5384 103.194 41.5384C103.167 41.5118 103.167 41.4852 103.14 41.4332L103.114 41.3545C103.087 41.3013 103.061 41.2227 103.009 41.1961C102.982 41.1428 102.956 41.0642 102.904 41.0122C102.877 40.959 102.851 40.8803 102.799 40.8537C102.772 40.8271 102.772 40.7751 102.746 40.7485C102.719 40.6952 102.693 40.6166 102.641 40.5646L102.614 40.4859V40.4593C102.063 39.2217 101.669 37.8535 101.38 36.3534C101.275 35.7485 101.196 35.169 101.143 34.6162L101.117 34.4577C100.46 24.534 107.97 15.9011 117.842 15.243C118.235 15.2164 118.655 15.1898 119.077 15.1898C122.674 15.1898 126.166 16.2689 129.132 18.2953C132.073 20.2962 134.331 23.0859 135.67 26.3499C136.405 28.1403 136.852 30.0348 136.983 31.9825V32.0357C137.036 32.7725 137.036 33.4306 137.01 34.1153C136.957 35.4836 136.721 36.853 136.327 38.1946C136.327 38.2213 136.3 38.2479 136.3 38.2733L136.222 38.5624C136.195 38.589 136.195 38.641 136.195 38.6677L136.09 38.9314C136.064 38.9846 136.064 39.0366 136.037 39.0633C136.011 39.1165 136.011 39.1685 135.984 39.1951C135.957 39.2217 135.957 39.2483 135.957 39.3004C135.931 39.327 135.931 39.3536 135.931 39.4056C135.904 39.4322 135.904 39.4843 135.878 39.5109C135.851 39.5375 135.851 39.5641 135.851 39.6161V39.6427C135.825 39.7214 135.798 39.8012 135.746 39.8798L135.72 39.9331C133.672 45.0915 129.418 49.4358 125.323 53.6469C123.905 55.1204 122.408 56.6472 121.042 58.1485L120.832 58.5695V58.4376L120.84 58.4388Z" fill="#211F1F"/>
<path d="M119.132 15.6132C126.352 15.6132 132.706 20.0615 135.358 26.5108C136.041 28.2214 136.487 30.0638 136.644 32.0115V32.0382C136.697 32.7229 136.697 33.4064 136.671 34.0645C136.617 35.4594 136.382 36.8022 135.988 38.0918V38.1184C135.961 38.2237 135.934 38.3289 135.883 38.4342C135.856 38.4874 135.829 38.566 135.829 38.6181C135.803 38.6713 135.776 38.7499 135.776 38.8286C135.75 38.9338 135.723 38.987 135.671 39.0923C135.645 39.1455 135.618 39.1975 135.618 39.2508C135.592 39.3294 135.565 39.4092 135.54 39.4613C135.513 39.5665 135.461 39.6451 135.435 39.725C135.435 39.7516 135.408 39.7516 135.408 39.7782C132.678 46.6485 126.061 51.992 120.811 57.8618L120.784 57.8351V57.8618C114.797 52.7287 107.499 48.3337 103.875 41.911C103.875 41.8844 103.849 41.8844 103.849 41.8844C103.796 41.8058 103.744 41.7259 103.717 41.6473C103.664 41.5687 103.639 41.5154 103.612 41.4368C103.586 41.3836 103.559 41.3316 103.534 41.2783C103.481 41.1997 103.455 41.1199 103.402 41.0412C103.376 40.988 103.349 40.9094 103.297 40.8573C103.271 40.8041 103.244 40.7521 103.219 40.6989C103.166 40.5936 103.114 40.515 103.087 40.4097V40.3831C102.431 38.9096 102.063 37.4349 101.853 36.3038C101.643 35.1981 101.616 34.4347 101.616 34.4347C100.986 24.6961 108.285 16.3258 117.947 15.6676C118.34 15.6144 118.735 15.6144 119.128 15.6144L119.132 15.6132ZM119.132 14.7446C118.712 14.7446 118.292 14.7712 117.872 14.7978C112.962 15.1402 108.499 17.3504 105.269 21.062C102.04 24.7735 100.439 29.511 100.779 34.4335L100.805 34.7492C100.858 35.2755 100.937 35.8283 101.015 36.3812C101.304 37.8813 101.698 39.2508 102.223 40.4871V40.5138L102.302 40.6722C102.328 40.7255 102.355 40.8041 102.407 40.8827C102.433 40.9094 102.433 40.9614 102.46 40.988C102.486 41.0412 102.513 41.1199 102.565 41.1719C102.591 41.2251 102.618 41.3037 102.67 41.3558C102.696 41.409 102.723 41.4876 102.775 41.5396L102.801 41.6183C102.828 41.6449 102.828 41.6715 102.854 41.7235C102.872 41.7413 102.881 41.759 102.881 41.7768C102.934 41.8554 102.986 41.9352 103.012 42.0139C103.039 42.0671 103.066 42.0925 103.066 42.1457C103.092 42.199 103.119 42.2244 103.119 42.2776L103.145 42.3308L103.172 42.3574C105.929 47.2533 110.76 51.0169 115.407 54.6498C117.035 55.9128 118.689 57.2024 120.264 58.5453L120.317 58.5985L120.868 59.1514L120.922 59.0981L121.105 59.2566L121.525 58.388C122.864 56.8879 124.334 55.3878 125.752 53.9397C129.901 49.7019 134.153 45.3322 136.254 40.094L136.281 40.0674L136.307 40.0407V40.0141C136.334 39.9355 136.36 39.8556 136.412 39.777V39.7238C136.439 39.6972 136.439 39.6706 136.439 39.6185C136.465 39.5653 136.465 39.5399 136.492 39.4867C136.519 39.4601 136.519 39.4334 136.519 39.3814C136.519 39.3548 136.545 39.3282 136.545 39.3282V39.275C136.572 39.2217 136.572 39.1697 136.598 39.1431C136.625 39.1165 136.625 39.0645 136.651 39.0112L136.678 38.906L136.704 38.8274V38.7741C136.704 38.7475 136.731 38.7475 136.731 38.7209C136.757 38.6677 136.757 38.6156 136.784 38.589C136.811 38.5358 136.811 38.4838 136.837 38.4305C136.864 38.4039 136.864 38.3519 136.864 38.3253C136.89 38.2987 136.89 38.2467 136.89 38.1934C137.284 36.8252 137.52 35.4037 137.573 34.0089C137.6 33.3241 137.6 32.6406 137.547 31.9027V31.8494C137.415 29.8485 136.969 27.9274 136.207 26.0849C134.842 22.7157 132.505 19.8728 129.512 17.8464C126.415 15.8455 122.844 14.741 119.142 14.741L119.132 14.7446Z" fill="#211F1F"/>
<path d="M136.619 32.0381V32.0115C136.487 30.0638 136.041 28.2213 135.332 26.5107L133.39 27.5378L126.275 31.3546L119.422 35.2501V43.4886L126.117 39.6718L133.075 35.9336L136.593 34.0645C136.672 33.4064 136.672 32.7217 136.62 32.0381H136.619Z" fill="#FECA16"/>
<path d="M118.66 43.514L111.414 39.3814V31.1429L118.66 35.2755V43.514Z" fill="#FECA16"/>
<path d="M119.054 33.381L111.807 29.2484L119.342 25.1413L126.588 29.2484L119.054 33.381Z" fill="#FECA16"/>
<path d="M8.17197 33.8443C8.26851 33.7476 8.37832 33.6302 8.50262 33.4923H8.56416L9.32923 34.4468H20.6447L21.9275 32.8293V31.772H18.0587C17.2031 31.772 16.5974 31.5373 16.2378 31.0667C15.9481 30.6518 15.8033 30.1267 15.8033 29.4904C15.8033 28.0387 16.6106 27.3128 18.224 27.3128C18.8165 27.3128 19.4863 27.389 20.2308 27.5415V25.0106C19.4452 24.7759 18.6452 24.6586 17.8306 24.6586H17.6653C16.3693 24.6586 15.2591 25.0046 14.3347 25.6954C13.1896 26.5531 12.6176 27.7278 12.6176 29.2206C12.6176 29.7457 12.7069 30.3058 12.8867 30.901C13.011 31.247 13.1353 31.5373 13.2595 31.772H9.08064C9.06616 31.5784 9.06013 31.2881 9.06013 30.901V29.8848C9.06013 28.4198 8.59795 27.2088 7.67359 26.2555C6.63943 25.1909 5.27341 24.6586 3.57795 24.6586C2.94321 24.6586 2.44725 24.6997 2.08885 24.7832V27.3346C2.32295 27.2789 2.6536 27.2511 3.08199 27.2511C3.9098 27.2511 4.58195 27.5209 5.09843 28.0605C5.61612 28.6 5.87436 29.2908 5.87436 30.134V31.4817C5.87436 31.6752 5.77782 31.772 5.58475 31.772H0V34.4468H6.53686C7.14384 34.4335 7.68808 34.2327 8.17077 33.8455L8.17197 33.8443Z" fill="#211F1F"/>
<path d="M27.5834 33.658V19.597H24.3976V34.9646H25.97L27.5834 33.658Z" fill="#211F1F"/>
<path d="M64.0001 31.8748V24.9066H60.8144V31.4804C60.8144 31.674 60.7178 31.7708 60.5247 31.7708H56.4291C56.4158 31.4248 56.4086 31.1344 56.4086 30.8998V26.0885H53.2228V31.4804C53.2228 31.674 53.1263 31.7708 52.9332 31.7708H48.8376V31.5216C48.8231 31.0788 48.817 30.7546 48.817 30.5465V27.291H45.6313V31.4804C45.6313 31.674 45.5347 31.7708 45.3417 31.7708H39.5288V28.5359C39.5288 27.1676 38.9774 26.1164 37.8744 25.3832C37.1431 24.8993 36.2465 24.6574 35.1846 24.6574C33.7088 24.6574 32.4948 25.1413 31.5439 26.1091C30.7306 26.9523 30.3239 28.156 30.3239 29.7178C30.3239 30.9481 30.7101 32.0067 31.4824 32.891C32.379 33.9278 33.558 34.4468 35.0193 34.4468H36.2393C35.8809 35.982 34.7357 36.749 32.805 36.749C32.2257 36.749 31.6187 36.68 30.984 36.5421V37.6623L32.3705 39.3633C32.7012 39.4044 33.0185 39.425 33.3226 39.425C34.0262 39.425 34.6947 39.3415 35.3294 39.1757C36.2671 38.9398 37.0526 38.5539 37.6874 38.0144C38.7348 37.1567 39.3418 35.9687 39.5083 34.4468H46.2527C47.0806 34.4468 47.7491 34.1226 48.2595 33.4717H48.3211L49.1899 34.4468H53.8443C54.6721 34.4468 55.3406 34.1226 55.8511 33.4717H55.9126L56.7815 34.4468H61.4358C62.1393 34.4468 62.7427 34.1952 63.2459 33.6895C63.7491 33.185 64.0013 32.5801 64.0013 31.8748H64.0001ZM36.3419 31.7708H35.7216C34.218 31.7708 33.4662 31.0111 33.4662 29.4892C33.4662 28.8395 33.6219 28.3169 33.932 27.9237C34.2422 27.5294 34.6525 27.3322 35.1629 27.3322C35.4248 27.3322 35.6589 27.4084 35.8664 27.5608C36.1838 27.7955 36.3419 28.1282 36.3419 28.5564V31.7708Z" fill="#211F1F"/>
<path d="M4.34661 41.9328C4.13906 42.1409 4.03528 42.3986 4.03528 42.7034C4.03528 43.0083 4.13906 43.2551 4.34661 43.468C4.55417 43.6809 4.80638 43.7874 5.10203 43.7874C5.39768 43.7874 5.66557 43.6809 5.87795 43.468C6.09034 43.2551 6.19653 43.001 6.19653 42.7034C6.19653 42.4058 6.09034 42.153 5.87795 41.9389C5.66557 41.7259 5.40612 41.6195 5.10203 41.6195C4.79793 41.6195 4.55417 41.7235 4.34661 41.9316V41.9328Z" fill="#211F1F"/>
<path d="M1.85837 41.9328C1.64599 42.1409 1.53979 42.3986 1.53979 42.7034C1.53979 43.0083 1.64599 43.2551 1.85837 43.468C2.07076 43.6809 2.32538 43.7874 2.62102 43.7874C2.91667 43.7874 3.18457 43.6809 3.39695 43.468C3.60934 43.2551 3.71553 43.001 3.71553 42.7034C3.71553 42.4058 3.60934 42.153 3.39695 41.9389C3.18457 41.7259 2.92633 41.6195 2.62102 41.6195C2.31572 41.6195 2.07076 41.7235 1.85837 41.9316V41.9328Z" fill="#211F1F"/>
<path d="M7.84618 51.7077C7.55053 51.7077 7.29591 51.8142 7.08353 52.0271C6.87115 52.24 6.76495 52.4989 6.76495 52.805C6.76495 53.111 6.87115 53.3554 7.08353 53.5695C7.29591 53.7824 7.55053 53.8889 7.84618 53.8889C8.14183 53.8889 8.40973 53.7824 8.62211 53.5695C8.83449 53.3566 8.94069 53.1013 8.94069 52.805C8.94069 52.5086 8.83449 52.24 8.62211 52.0271C8.40973 51.8142 8.15028 51.7077 7.84618 51.7077Z" fill="#211F1F"/>
<path d="M10.326 51.7077C10.0303 51.7077 9.77811 51.8142 9.57055 52.0271C9.36299 52.24 9.25922 52.4989 9.25922 52.805C9.25922 53.111 9.36299 53.3554 9.57055 53.5695C9.77811 53.7824 10.0303 53.8889 10.326 53.8889C10.6216 53.8889 10.8895 53.7824 11.1019 53.5695C11.3143 53.3566 11.4205 53.1013 11.4205 52.805C11.4205 52.5086 11.3143 52.24 11.1019 52.0271C10.8895 51.8142 10.6301 51.7077 10.326 51.7077Z" fill="#211F1F"/>
<path d="M15.0045 41.9328C14.7969 42.1409 14.6931 42.3986 14.6931 42.7034C14.6931 43.0083 14.7969 43.2551 15.0045 43.468C15.212 43.6809 15.469 43.7874 15.7731 43.7874C16.0772 43.7874 16.3222 43.6809 16.5358 43.468C16.7482 43.2551 16.8544 43.001 16.8544 42.7034C16.8544 42.4058 16.7482 42.153 16.5358 41.9389C16.3234 41.7259 16.0688 41.6195 15.7731 41.6195C15.4775 41.6195 15.212 41.7235 15.0045 41.9316V41.9328Z" fill="#211F1F"/>
<path d="M12.5234 41.9328C12.3159 42.1409 12.2121 42.3986 12.2121 42.7034C12.2121 43.0083 12.3159 43.2551 12.5234 43.468C12.731 43.6809 12.988 43.7874 13.2921 43.7874C13.5962 43.7874 13.8412 43.6809 14.0548 43.468C14.2672 43.2551 14.3734 43.001 14.3734 42.7034C14.3734 42.4058 14.2672 42.153 14.0548 41.9389C13.8424 41.7259 13.5878 41.6195 13.2921 41.6195C12.9965 41.6195 12.731 41.7235 12.5234 41.9316V41.9328Z" fill="#211F1F"/>
<path d="M37.9492 51.7077C37.6439 51.7077 37.3881 51.8142 37.1805 52.0271C36.973 52.24 36.8692 52.4989 36.8692 52.805C36.8692 53.111 36.973 53.3554 37.1805 53.5695C37.3881 53.7824 37.6451 53.8889 37.9492 53.8889C38.2533 53.8889 38.4983 53.7824 38.7119 53.5695C38.9243 53.3566 39.0305 53.1013 39.0305 52.805C39.0305 52.5086 38.9243 52.24 38.7119 52.0271C38.4995 51.8142 38.2449 51.7077 37.9492 51.7077Z" fill="#211F1F"/>
<path d="M40.9432 45.5524C40.1758 44.858 39.2381 44.5108 38.1291 44.5108C37.4546 44.5108 36.6557 44.6451 35.7314 44.9137V46.6231C36.4795 46.4283 37.1082 46.3315 37.6163 46.3315C38.1617 46.3315 38.642 46.4658 39.0571 46.7344C39.5832 47.0767 39.8475 47.5546 39.8475 48.1655V49.0825C39.8475 49.212 39.7824 49.2773 39.6532 49.2773H33.3058V49.2083C33.2962 48.9954 33.2926 48.843 33.2926 48.7498V44.679H31.1579V49.0837C31.1579 49.2132 31.0927 49.2785 30.9636 49.2785H28.2195C28.2098 49.0474 28.2062 48.8527 28.2062 48.6954V45.4714H26.0715V49.0837C26.0715 49.2132 26.0063 49.2785 25.8772 49.2785H23.1331V49.1817C23.1234 48.9966 23.1198 48.8575 23.1198 48.7643V46.2771H20.9851V49.0837C20.9851 49.2132 20.92 49.2785 20.7908 49.2785H16.6602C16.6506 49.2325 16.6457 49.1902 16.6457 49.1539V44.6802H14.511V49.0015C14.511 49.0849 14.4833 49.1503 14.4278 49.1962C14.3819 49.2519 14.3167 49.2797 14.2335 49.2797H11.4339C11.4242 49.2337 11.4194 49.1914 11.4194 49.1551V44.6814H9.28467V49.0027C9.28467 49.0861 9.26174 49.1515 9.21589 49.1974C9.17003 49.2531 9.10004 49.2809 9.00833 49.2809H6.41628C6.34266 49.2809 6.28716 49.2628 6.24975 49.2253C6.21234 49.1878 6.19424 49.1418 6.19424 49.0861V44.3064H5.12749L4.55912 44.7516C4.09694 44.5568 3.62994 44.46 3.15931 44.46C2.29047 44.46 1.56522 44.7612 0.983577 45.3637C0.33677 46.0303 0.0133667 46.8735 0.0133667 47.8921C0.0133667 48.7256 0.225751 49.4442 0.65052 50.0455C1.17665 50.8149 1.9019 51.1984 2.82625 51.1984H2.86728C3.50444 51.1984 4.04988 50.971 4.5024 50.5173C4.89097 50.8875 5.32056 51.0726 5.79119 51.0726H9.69979C10.2537 51.0726 10.7026 50.8597 11.0441 50.4338H11.0851L11.6945 51.0726H14.9104C15.4643 51.0726 15.9181 50.8597 16.2692 50.4338H16.297L16.9064 51.0726H21.3966C21.9505 51.0726 22.3994 50.8548 22.7409 50.4193H22.7819L23.2948 51.0726H26.483C27.0369 51.0726 27.4858 50.8548 27.8273 50.4193H27.8683L28.3812 51.0726H31.5694C32.1232 51.0726 32.5721 50.8548 32.9137 50.4193H32.9547L33.4675 51.0726H40.259C40.7393 51.0726 41.1508 50.9008 41.4923 50.5584C41.8254 50.2245 41.9907 49.8217 41.9907 49.3499V47.932C41.9907 46.9969 41.6395 46.2045 40.9372 45.5561L40.9432 45.5524ZM4.04867 49.4007C3.83629 49.4467 3.65166 49.4696 3.49478 49.4696C3.08811 49.4696 2.75747 49.322 2.50406 49.0244C2.24944 48.7281 2.12273 48.3482 2.12273 47.8848C2.12273 47.3937 2.23858 47.009 2.46906 46.7319C2.69955 46.4537 3.01812 46.3146 3.42479 46.3146C3.61908 46.3146 3.82663 46.3424 4.04867 46.398V49.3995V49.4007Z" fill="#211F1F"/>
<path d="M57.7963 49.0813C57.7963 49.1466 57.7734 49.1974 57.7275 49.2337C57.6901 49.2616 57.6443 49.2761 57.5887 49.2761H54.7204C54.7107 49.2301 54.7059 49.1878 54.7059 49.1515V41.1198H52.5712V49.0813C52.5712 49.1466 52.5434 49.1974 52.4879 49.2337C52.4601 49.2616 52.4191 49.2761 52.3636 49.2761H49.7305V47.1082C49.7305 46.1912 49.3613 45.4871 48.6215 44.9959C48.1316 44.6717 47.5307 44.5096 46.8199 44.5096C45.8316 44.5096 45.0182 44.8338 44.3811 45.4823C43.8356 46.0472 43.5629 46.8529 43.5629 47.8994C43.5629 48.7244 43.8212 49.4321 44.3389 50.0249C44.9398 50.7193 45.729 51.0665 46.7089 51.0665H47.527C47.2869 52.0948 46.5194 52.609 45.2258 52.609C44.8372 52.609 44.4306 52.563 44.0058 52.4698V53.2199L44.935 54.3595C45.157 54.3873 45.3694 54.4006 45.5721 54.4006C46.044 54.4006 46.4917 54.345 46.9164 54.2337C47.5451 54.0764 48.0713 53.8163 48.496 53.4558C49.1984 52.8812 49.605 52.0851 49.716 51.0653H52.973C53.5269 51.0653 53.9806 50.8524 54.3318 50.4266H54.3595L54.9557 51.0653H58.1994C58.7448 51.0653 59.1925 50.8572 59.5436 50.4399C59.8019 50.1156 59.9322 49.7503 59.9322 49.3426V41.1174H57.7975V49.0789L57.7963 49.0813ZM47.5958 49.2761H47.1795C46.1719 49.2761 45.6687 48.7668 45.6687 47.7481C45.6687 47.3126 45.7724 46.963 45.98 46.6993C46.1876 46.4355 46.4627 46.3037 46.8042 46.3037C46.9792 46.3037 47.1373 46.3545 47.276 46.4561C47.4884 46.6134 47.5946 46.836 47.5946 47.1227V49.2761H47.5958Z" fill="#211F1F"/>
<path d="M61.8847 41.1198V51.4149H62.9382L64.0194 50.5403V41.1198H61.8847Z" fill="#211F1F"/>
</g>
<defs>
<clipPath id="clip0_1_97">
<rect width="100%" height="100%" fill="white"/>
</clipPath>
</defs>
</svg>
