<svg width="20" height="20" viewBox="0 0 20 20" fill="none" xmlns="http://www.w3.org/2000/svg">
<g clip-path="url(#clip0_9_487)">
<path fill-rule="evenodd" clip-rule="evenodd" d="M17.0544 2.90644C15.1827 1.0332 12.6936 0.00105288 10.0416 0C4.57735 0 0.13011 4.44554 0.127923 9.90983C0.127195 11.6565 0.583713 13.3615 1.45121 14.8644L0.0447998 20L5.30019 18.6219C6.74815 19.4114 8.37844 19.8275 10.0376 19.8282H10.0417C15.5054 19.8282 19.9531 15.3821 19.9553 9.91774C19.9563 7.26966 18.9261 4.77968 17.0544 2.90644ZM10.0417 18.1543H10.0383C8.55983 18.1538 7.10964 17.7567 5.84456 17.0062L5.54365 16.8276L2.42507 17.6455L3.25749 14.6058L3.06155 14.2942C2.23674 12.9827 1.80109 11.4668 1.80174 9.91045C1.80354 5.36875 5.49994 1.67381 10.045 1.67381C12.2458 1.67465 14.3147 2.53259 15.8704 4.08955C17.4261 5.64652 18.2823 7.71611 18.2815 9.91709C18.2796 14.4591 14.5833 18.1543 10.0417 18.1543ZM14.5614 11.9851C14.3137 11.8612 13.0959 11.2621 12.8688 11.1795C12.6417 11.0968 12.4766 11.0555 12.3115 11.3034C12.1464 11.5513 11.6716 12.1091 11.5271 12.2744C11.3826 12.4396 11.2381 12.4603 10.9904 12.3363C10.7427 12.2124 9.94459 11.9509 8.99842 11.1073C8.26208 10.4507 7.76491 9.63973 7.62042 9.39184C7.47593 9.14393 7.60506 9.00989 7.72905 8.88646C7.84047 8.7755 7.97675 8.59724 8.10061 8.45261C8.22445 8.30802 8.26573 8.20473 8.34828 8.03948C8.43087 7.8742 8.38959 7.72958 8.32766 7.60564C8.26573 7.4817 7.77036 6.26284 7.56391 5.76704C7.36287 5.28417 7.15863 5.3495 7.00659 5.34194C6.86226 5.33476 6.69696 5.33322 6.53185 5.33322C6.36671 5.33322 6.09836 5.39521 5.87128 5.64309C5.64424 5.89101 5.00436 6.4901 5.00436 7.70893C5.00436 8.92776 5.89194 10.1053 6.0158 10.2705C6.13963 10.4358 7.76248 12.9371 10.2473 14.0097C10.8383 14.2648 11.2997 14.4171 11.6595 14.5313C12.2529 14.7197 12.7929 14.6932 13.2197 14.6294C13.6956 14.5583 14.6852 14.0303 14.8917 13.4519C15.0981 12.8735 15.0981 12.3777 15.0362 12.2744C14.9743 12.1711 14.8091 12.1091 14.5614 11.9851Z" fill="white"/>
</g>
<defs>
<clipPath id="clip0_9_487">
<rect width="20" height="20" fill="transparent"/>
</clipPath>
</defs>
</svg>
