<svg width="27" height="27" viewBox="0 0 27 27" fill="none" xmlns="http://www.w3.org/2000/svg">
<g clip-path="url(#clip0_6493_29658)">
<path d="M0 27L2.322 20.0345C1.14378 18.0528 0.465517 15.7401 0.465517 13.2672C0.465517 5.94 6.40552 0 13.7328 0C21.06 0 27 5.94 27 13.2672C27 20.5945 21.06 26.5345 13.7328 26.5345C11.5034 26.5345 9.40391 25.9819 7.56 25.0108L0 27Z" fill="white"/>
<path d="M22.1973 17.6827C21.5847 16.5249 19.3255 15.201 19.3255 15.201C18.8144 14.9096 18.1976 14.877 17.9061 15.3965C17.9061 15.3965 17.172 16.2768 16.9854 16.4034C16.1325 16.9811 15.3425 16.9588 14.5451 16.1614L12.6919 14.3081L10.8387 12.4549C10.0412 11.6575 10.0189 10.8675 10.5966 10.0147C10.7232 9.828 11.6035 9.09388 11.6035 9.09388C12.123 8.802 12.0904 8.18566 11.799 7.67452C11.799 7.67452 10.4751 5.41536 9.31736 4.80274C8.82484 4.54205 8.22013 4.63329 7.8263 5.02712L7.00792 5.8455C4.41174 8.44169 5.69005 11.3726 8.28623 13.9688L10.659 16.3415L13.0317 18.7143C15.6279 21.3104 18.5588 22.5888 21.155 19.9926L21.9734 19.1742C22.3672 18.7794 22.458 18.1747 22.1973 17.6827Z" fill="currentColor"/>
</g>
<defs>
<clipPath id="clip0_6493_29658">
<rect width="27" height="27" fill="transparent"/>
</clipPath>
</defs>
</svg>
