<svg width="100%" height="100%" viewBox="0 0 80 65" fill="none" xmlns="http://www.w3.org/2000/svg">
  <path
    d="M60.0197 56.0645L46.0124 52.7697C43.7131 52.2161 42.286 49.923 42.841 47.6561L46.1446 33.6861C46.6996 31.3929 48.9989 29.9696 51.2718 30.5231L65.279 33.8179C67.5783 34.3715 69.0055 36.6646 68.4505 38.9315L65.1469 52.9015C64.6183 55.1946 62.319 56.618 60.0197 56.0645Z"
    fill="#E0E0E0" />
  <path
    d="M54.549 48.7632L55.474 43.4651L51.3512 40.0649L50.5583 44.6249C50.5319 44.8358 50.5319 45.0466 50.6111 45.2311C50.6904 45.4157 50.7961 45.6002 50.9811 45.7583L54.549 48.7632ZM55.3155 48.895L59.7027 47.3135C59.9141 47.2344 60.0991 47.1026 60.2312 46.9444C60.3634 46.7863 60.4427 46.6018 60.4955 46.3909L61.3148 41.7782L56.2669 43.6233L55.3155 48.895ZM58.8569 41.8045L60.9448 41.0665L57.4298 38.1407C57.2448 38.0089 57.0598 37.9298 56.8483 37.8771C56.6369 37.8508 56.4519 37.8508 56.2405 37.9298L54.8133 38.457L58.8569 41.8045ZM55.9498 42.8852L57.9848 42.1472L53.9147 38.747L51.9062 39.5113L55.9498 42.8852Z"
    fill="#9E9E9E" />
  <path
    d="M35.7581 19.5316L26.5609 21.2976C25.0545 21.5876 23.6009 20.6123 23.3102 19.1099L21.5394 9.93714C21.2487 8.43471 22.2266 6.98499 23.733 6.69505L32.9302 4.92903C34.4367 4.63909 35.8903 5.61435 36.181 7.11679L37.9517 16.2895C38.2424 17.792 37.2646 19.2417 35.7581 19.5316Z"
    fill="#E0E0E0" />
  <path
    d="M28.411 17.0803C28.0939 17.133 27.7767 17.0803 27.5124 16.9221C27.2217 16.764 27.0631 16.5268 26.9839 16.1841L26.6403 16.2632C26.5081 16.2895 26.4024 16.2632 26.2967 16.1841C26.191 16.105 26.1381 16.026 26.1117 15.8942L25.3188 11.835C25.266 11.5977 25.3188 11.3869 25.451 11.176C25.5831 10.9651 25.7681 10.8333 26.006 10.807L30.6575 9.91078C30.8953 9.85807 31.1067 9.91078 31.3182 10.0426C31.5296 10.1744 31.6618 10.3589 31.6882 10.5961L31.7939 11.2024L32.2696 11.0969C32.4018 11.0706 32.5339 11.0706 32.6925 11.0969C32.8246 11.1233 32.9568 11.2023 33.0361 11.2814L34.4896 12.573C34.5161 12.5993 34.5425 12.6521 34.5689 12.6784C34.5954 12.7048 34.6218 12.7575 34.6218 12.8102L34.8861 14.1281C34.9125 14.2599 34.8861 14.3654 34.8068 14.4708C34.7275 14.5762 34.6482 14.629 34.5161 14.6553L34.1725 14.7344C34.2253 15.0507 34.1461 15.3406 33.9611 15.6042C33.7761 15.8678 33.5118 16.026 33.1946 16.0787C32.8775 16.1314 32.5603 16.0787 32.296 15.9205C32.0053 15.7624 31.8468 15.5251 31.7675 15.1825L29.3889 15.6306C29.4417 15.9469 29.3624 16.2368 29.1774 16.5004C28.9924 16.8694 28.7282 17.0276 28.411 17.0803ZM28.2789 16.4213C28.4374 16.395 28.5696 16.3159 28.6489 16.1841C28.7282 16.0523 28.7546 15.8942 28.7282 15.7624C28.7017 15.6042 28.6224 15.4988 28.4903 15.3933C28.3582 15.2879 28.1996 15.2616 28.0674 15.2879C27.9089 15.3143 27.7767 15.3933 27.6974 15.5251C27.6181 15.6569 27.5653 15.8151 27.6181 15.9469C27.6446 16.105 27.7239 16.2105 27.856 16.3159C27.9617 16.4213 28.1203 16.4477 28.2789 16.4213ZM33.0625 15.4988C33.2211 15.4724 33.3532 15.3933 33.4325 15.2616C33.5118 15.1298 33.5382 14.9716 33.5118 14.8398C33.4853 14.6817 33.4061 14.5762 33.2739 14.4708C33.1418 14.3654 32.9832 14.339 32.851 14.3654C32.6925 14.3917 32.5603 14.4708 32.481 14.6026C32.4018 14.7344 32.3489 14.8925 32.4018 15.0243C32.4282 15.1825 32.5075 15.2879 32.6396 15.3933C32.7718 15.4988 32.9039 15.5251 33.0625 15.4988ZM32.2696 13.5483L33.8289 13.2583L32.481 12.0458L32.0053 12.1513L32.2696 13.5483Z"
    fill="#9E9E9E" />
  <path opacity="0.3"
    d="M65.2528 21.5349C66.5478 30.3122 60.4428 38.4834 51.6155 39.7749C42.8147 41.0665 34.6218 34.9777 33.3268 26.174C32.0318 17.3966 38.1368 9.22547 46.9641 7.9339C53.4127 7.01136 59.782 10.0162 63.1121 15.5779C64.2221 17.3966 64.9357 19.4262 65.2528 21.5349Z"
    fill="white" />
  <path opacity="0.4"
    d="M55.6591 9.06731L36.8682 34.2133C36.7097 34.0288 36.5511 33.8443 36.4189 33.6334C35.4411 32.3682 34.6746 30.9712 34.1196 29.4951L50.3469 7.77575C52.1705 7.90754 53.9677 8.32928 55.6591 9.06731Z"
    fill="white" />
  <path opacity="0.4"
    d="M63.3234 15.9205L45.6689 39.5641C43.2639 39.0105 40.991 37.9298 39.0881 36.3747L58.3812 10.5434C60.4162 11.9404 62.1076 13.7855 63.3234 15.9205Z"
    fill="white" />
  <path
    d="M63.3233 11.6768C56.584 3.92741 44.7967 3.08394 37.0267 9.80535C29.2566 16.5268 28.4109 28.2826 35.1502 36.032C41.8896 43.7814 53.6768 44.6249 61.4469 37.9035C61.4469 37.9035 61.4469 37.9035 61.4733 37.8771C69.2434 31.1557 70.0627 19.4262 63.3233 11.6768ZM38.1367 33.4753C32.8245 27.3601 33.4588 18.1083 39.5903 12.7839C45.7218 7.45945 54.9983 8.11841 60.3369 14.2336C65.6491 20.3487 65.0148 29.6006 58.8833 34.925C52.7518 40.2494 43.4753 39.5904 38.1367 33.4753C38.1631 33.4753 38.1631 33.4753 38.1367 33.4753Z"
    fill="currentColor" />
  <path opacity="0.1"
    d="M63.3233 11.6768C56.584 3.92741 44.7967 3.08394 37.0267 9.80535C29.2566 16.5268 28.4109 28.2826 35.1502 36.032C41.8896 43.7814 53.6768 44.6249 61.4469 37.9035C61.4469 37.9035 61.4469 37.9035 61.4733 37.8771C69.2434 31.1557 70.0627 19.4262 63.3233 11.6768ZM38.1367 33.4753C32.8245 27.3601 33.4588 18.1083 39.5903 12.7839C45.7218 7.45945 54.9983 8.11841 60.3369 14.2336C65.6491 20.3487 65.0148 29.6006 58.8833 34.925C52.7518 40.2494 43.4753 39.5904 38.1367 33.4753C38.1631 33.4753 38.1631 33.4753 38.1367 33.4753Z"
    fill="currentColor" />
  <path
    d="M38.0839 36.0057C36.0225 38.2461 33.8817 40.3812 31.7146 42.5162C29.5474 44.6513 27.3538 46.7072 25.1338 48.7632C22.9138 50.8191 20.6673 52.8487 18.3945 54.8256C17.258 55.8272 16.1216 56.8289 14.9851 57.8041C14.4301 58.3313 13.7958 58.7794 13.1087 59.0957C12.7387 59.2802 12.3687 59.412 11.9723 59.5174C11.5494 59.6492 11.0737 59.7019 10.6244 59.7019C9.25009 59.7019 8.1665 58.5949 8.1665 57.2243C8.1665 57.1188 8.1665 57.0134 8.19293 56.9079C8.24579 56.4599 8.37793 56.0381 8.56294 55.6164C8.72151 55.2474 8.90651 54.8783 9.14437 54.562C9.56723 53.9294 10.0958 53.3759 10.7037 52.9015C11.8401 51.9262 13.003 50.9246 14.1394 49.9493C16.4387 47.9988 18.7909 46.0746 21.1166 44.1504C23.4688 42.2526 25.8474 40.3812 28.2524 38.5361C30.6574 36.691 33.0889 34.8986 35.5996 33.159C36.4453 32.5791 37.6082 32.7899 38.1896 33.6334C38.7446 34.3978 38.6653 35.3731 38.0839 36.0057Z"
    fill="currentColor" />
  <path opacity="0.1"
    d="M38.0839 36.0057C36.0225 38.2461 33.8817 40.3812 31.7146 42.5162C29.5474 44.6513 27.3538 46.7072 25.1338 48.7632C22.9138 50.8191 20.6673 52.8487 18.3945 54.8256C17.258 55.8272 16.1216 56.8289 14.9851 57.8041C14.4301 58.3313 13.7958 58.7794 13.1087 59.0957C12.7387 59.2802 12.3687 59.412 11.9723 59.5174C11.5494 59.6492 11.0737 59.7019 10.6244 59.7019C9.25009 59.7019 8.1665 58.5949 8.1665 57.2243C8.1665 57.1188 8.1665 57.0134 8.19293 56.9079C8.24579 56.4599 8.37793 56.0381 8.56294 55.6164C8.72151 55.2474 8.90651 54.8783 9.14437 54.562C9.56723 53.9294 10.0958 53.3759 10.7037 52.9015C11.8401 51.9262 13.003 50.9246 14.1394 49.9493C16.4387 47.9988 18.7909 46.0746 21.1166 44.1504C23.4688 42.2526 25.8474 40.3812 28.2524 38.5361C30.6574 36.691 33.0889 34.8986 35.5996 33.159C36.4453 32.5791 37.6082 32.7899 38.1896 33.6334C38.7446 34.3978 38.6653 35.3731 38.0839 36.0057Z"
    fill="currentColor" />
  <path
    d="M27.5124 50.3447L17.0466 52.9015C15.3287 53.3232 13.5844 52.2689 13.188 50.5556L10.6244 40.1176C10.2015 38.4043 11.2587 36.6646 12.9766 36.2693L23.4424 33.7125C25.1602 33.2908 26.9046 34.3451 27.301 36.0584L29.8646 46.4964C30.2874 48.1833 29.2303 49.923 27.5124 50.3447Z"
    fill="#E0E0E0" />
  <path
    d="M24.0502 40.9611L18.4473 41.91C17.998 41.9627 17.628 42.1472 17.3373 42.4371C17.0466 42.7007 16.9144 43.0434 16.9673 43.4388L17.4959 46.47L17.7602 43.307C17.7866 43.1225 17.8659 42.938 17.998 42.8062C18.1302 42.6744 18.3152 42.5689 18.5266 42.5426L23.5745 41.6728C23.8388 41.62 24.1031 41.6991 24.3409 41.91C24.5524 42.0945 24.6581 42.3581 24.6316 42.648L24.4202 45.2575C24.3938 45.5738 24.2616 45.811 24.1295 45.9692C23.9445 46.1273 23.7331 46.2328 23.4159 46.2855L17.6809 47.2607C17.443 47.2871 17.2316 47.2344 17.0202 47.1026C16.8352 46.9444 16.703 46.7599 16.6501 46.5227L15.8309 41.6728C15.778 41.4355 15.8309 41.1983 15.9894 41.0138C16.148 40.8293 16.333 40.6975 16.5709 40.6448L18.7645 40.2758C18.8702 40.2494 19.0023 40.2494 19.1345 40.3021C19.2666 40.3285 19.3459 40.3812 19.4516 40.4339L19.9273 40.7766L23.0988 40.223C23.3366 40.1703 23.5745 40.223 23.7595 40.3812C23.8916 40.5393 23.9974 40.7238 24.0502 40.9611Z"
    fill="#9E9E9E" />
</svg>