<svg width="100%" height="100%" viewBox="0 0 48 48" fill="none" xmlns="http://www.w3.org/2000/svg">
<path d="M10.9196 34.6739C13.0008 33.3594 15.0569 32.3746 17.088 31.7195C19.1192 31.0645 21.3254 30.737 23.7065 30.737C26.0877 30.737 28.3116 31.0739 30.3783 31.7478C32.445 32.4217 34.5 33.3971 36.5435 34.6739C37.9725 32.8551 38.9812 31.0718 39.5696 29.324C40.158 27.5763 40.4522 25.7132 40.4522 23.7348C40.4522 18.991 38.8477 15.0142 35.6387 11.8042C32.4296 8.59415 28.4539 6.98915 23.7115 6.98915C18.9691 6.98915 14.9917 8.59415 11.7794 11.8042C8.56707 15.0142 6.9609 18.991 6.9609 23.7348C6.9609 25.7116 7.25898 27.5716 7.85515 29.3148C8.45132 31.0581 9.4728 32.8444 10.9196 34.6739ZM23.6973 25.4326C21.7106 25.4326 20.0456 24.7571 18.7021 23.406C17.3587 22.0548 16.687 20.3921 16.687 18.4179C16.687 16.4437 17.3618 14.7794 18.7115 13.425C20.0611 12.0707 21.7292 11.3935 23.7159 11.3935C25.7025 11.3935 27.3675 12.0738 28.711 13.4343C30.0544 14.7949 30.7261 16.4623 30.7261 18.4365C30.7261 20.4107 30.0513 22.0703 28.7016 23.4153C27.352 24.7602 25.6839 25.4326 23.6973 25.4326ZM23.6863 44.4413C20.8394 44.4413 18.1536 43.8996 15.629 42.816C13.1043 41.7324 10.9029 40.2467 9.0248 38.3591C7.14667 36.4714 5.673 34.2726 4.6038 31.7628C3.5346 29.2531 3 26.5698 3 23.7129C3 20.856 3.54383 18.1712 4.6315 15.6583C5.7192 13.1455 7.20435 10.9562 9.08695 9.0902C10.9696 7.22426 13.1664 5.74275 15.6775 4.64565C18.1885 3.54855 20.8732 3 23.7316 3C26.5899 3 29.2746 3.54855 31.7856 4.64565C34.2967 5.74275 36.4852 7.22426 38.3512 9.0902C40.2171 10.9562 41.6986 13.1473 42.7957 15.6637C43.8928 18.18 44.4413 20.866 44.4413 23.7215C44.4413 26.577 43.8928 29.2591 42.7957 31.7677C41.6986 34.2762 40.2171 36.4718 38.3512 38.3544C36.4852 40.237 34.2919 41.7221 31.7712 42.8098C29.2506 43.8975 26.5556 44.4413 23.6863 44.4413Z" fill="currentColor"/>
</svg>
