<svg width="100%" height="100%" viewBox="0 0 142 44" fill="none" xmlns="http://www.w3.org/2000/svg">
<path d="M141.058 38.8055C141.058 39.3593 140.954 39.9076 140.751 40.4192C140.548 40.9308 140.251 41.3955 139.876 41.7869C139.501 42.1783 139.056 42.4886 138.567 42.7001C138.077 42.9116 137.553 43.0202 137.023 43.0196H4.97689C3.90665 43.0208 2.87978 42.5775 2.12212 41.7872C1.36446 40.997 0.93804 39.9244 0.936646 38.8055V5.19894C0.93804 4.0795 1.36429 3.00639 2.1218 2.21524C2.87931 1.42409 3.90616 0.979569 4.97689 0.979279H137.022C137.552 0.979279 138.077 1.08843 138.566 1.3005C139.056 1.51257 139.501 1.82341 139.876 2.21526C140.25 2.6071 140.547 3.07228 140.75 3.58423C140.953 4.09617 141.057 4.64486 141.057 5.19894L141.058 38.8055Z" fill="white"/>
<path d="M141.058 38.8055C141.058 39.3593 140.954 39.9076 140.751 40.4192C140.548 40.9308 140.251 41.3955 139.876 41.7869C139.501 42.1783 139.056 42.4886 138.567 42.7001C138.077 42.9116 137.553 43.0202 137.023 43.0196H4.97689C3.90665 43.0208 2.87978 42.5775 2.12212 41.7872C1.36446 40.997 0.93804 39.9244 0.936646 38.8055V5.19894C0.93804 4.0795 1.36429 3.00639 2.1218 2.21524C2.87931 1.42409 3.90616 0.979569 4.97689 0.979279H137.022C137.552 0.979279 138.077 1.08843 138.566 1.3005C139.056 1.51257 139.501 1.82341 139.876 2.21526C140.25 2.6071 140.547 3.07228 140.75 3.58423C140.953 4.09617 141.057 4.64486 141.057 5.19894L141.058 38.8055Z" fill="black"/>
<path d="M31.7076 21.7684C31.6771 18.2221 34.4849 16.4968 34.6133 16.4165C33.0231 13.9925 30.5583 13.6614 29.6922 13.6349C27.6221 13.4072 25.614 14.93 24.5595 14.93C23.4839 14.93 21.86 13.657 20.1098 13.6944C17.8576 13.7307 15.7507 15.0939 14.5951 17.2109C12.2103 21.5274 13.9889 27.8707 16.2737 31.3597C17.4167 33.0696 18.7522 34.9764 20.5003 34.9093C22.2105 34.8367 22.8493 33.7705 24.9131 33.7705C26.958 33.7705 27.5579 34.9093 29.3407 34.8664C31.1761 34.8367 32.3317 33.1499 33.4346 31.4257C34.7554 29.4683 35.2858 27.5384 35.3069 27.4393C35.2648 27.4239 31.7434 26.0177 31.7076 21.7684ZM28.3398 11.3397C29.2596 10.1371 29.889 8.50093 29.7143 6.84058C28.383 6.90219 26.718 7.80334 25.7593 8.97956C24.911 10.016 24.1533 11.7149 24.349 13.3126C25.8445 13.4292 27.38 12.5236 28.3398 11.3397Z" fill="white"/>
<path d="M56.4783 34.6639H54.0882L52.779 30.3629H48.2283L46.9812 34.6639H44.6542L49.1639 20.0211H51.9486L56.4783 34.6639ZM52.3843 28.5584L51.2003 24.7348C51.0751 24.3442 50.8394 23.4243 50.4942 21.9763H50.4521C50.3131 22.5991 50.0911 23.519 49.7869 24.7348L48.6229 28.5584H52.3843ZM68.0529 29.2549C68.0529 31.0505 67.5867 32.4699 66.6532 33.5119C65.8175 34.4395 64.7788 34.9027 63.5401 34.9027C62.2024 34.9027 61.2405 34.4043 60.6564 33.4052V38.9452H58.4126V27.5758C58.4126 26.448 58.3842 25.2916 58.3295 24.1054H60.3028L60.428 25.779H60.4701C61.2184 24.518 62.354 23.8876 63.8779 23.8876C65.0692 23.8876 66.0638 24.3794 66.8594 25.3642C67.654 26.3512 68.0529 27.6473 68.0529 29.2549ZM65.767 29.3407C65.767 28.313 65.546 27.4658 65.1019 26.7979C64.6167 26.1036 63.9652 25.7559 63.1486 25.7559C62.595 25.7559 62.0919 25.9495 61.6425 26.3313C61.1921 26.7165 60.8974 27.2193 60.7596 27.8421C60.698 28.075 60.663 28.3147 60.6554 28.5562V30.3177C60.6554 31.0847 60.8806 31.7327 61.331 32.2631C61.7815 32.7912 62.3666 33.0564 63.0865 33.0564C63.9316 33.0564 64.5893 32.7142 65.0598 32.0353C65.5313 31.3542 65.767 30.4564 65.767 29.3407ZM79.6685 29.2549C79.6685 31.0505 79.2023 32.4699 78.2688 33.5119C77.4321 34.4395 76.3944 34.9027 75.1547 34.9027C73.817 34.9027 72.8551 34.4043 72.271 33.4052V38.9452H70.0272V27.5758C70.0272 26.448 69.9988 25.2916 69.9441 24.1054H71.9174L72.0426 25.779H72.0847C72.832 24.518 73.9675 23.8876 75.4925 23.8876C76.6828 23.8876 77.6773 24.3794 78.4751 25.3642C79.2686 26.3512 79.6685 27.6473 79.6685 29.2549ZM77.3816 29.3407C77.3816 28.313 77.1595 27.4658 76.7154 26.7979C76.2303 26.1036 75.5809 25.7559 74.7642 25.7559C74.2106 25.7559 73.7076 25.9495 73.2561 26.3313C72.8057 26.7165 72.512 27.2193 72.3742 27.8421C72.3057 28.1325 72.2689 28.3691 72.2689 28.5562V30.3177C72.2689 31.0847 72.4952 31.7327 72.9435 32.2631C73.394 32.7901 73.9791 33.0564 74.7011 33.0564C75.5472 33.0564 76.205 32.7142 76.6744 32.0353C77.1459 31.3542 77.3816 30.4564 77.3816 29.3407ZM92.6555 30.5565C92.6555 31.8032 92.2388 32.8165 91.4105 33.5988C90.4991 34.4527 89.2267 34.8807 87.5954 34.8807C86.0884 34.8807 84.8802 34.577 83.9688 33.9685L84.4876 32.0133C85.4716 32.6229 86.5525 32.9266 87.7291 32.9266C88.5752 32.9266 89.233 32.7263 89.7024 32.3291C90.1728 31.9308 90.4107 31.3982 90.4107 30.7337C90.4107 30.1384 90.2139 29.64 89.8276 29.2339C89.4393 28.829 88.7973 28.4516 87.8954 28.105C85.4432 27.1489 84.2161 25.7504 84.2161 23.9107C84.2161 22.7092 84.6497 21.7255 85.5148 20.9564C86.3799 20.1884 87.527 19.8044 88.9541 19.8044C90.2286 19.8044 91.2905 20.0365 92.1335 20.4997L91.5705 22.4121C90.7769 21.9631 89.8813 21.7387 88.8794 21.7387C88.088 21.7387 87.467 21.9422 87.0229 22.3472C86.6493 22.7091 86.4599 23.1504 86.4599 23.6741C86.4599 24.2518 86.6756 24.7315 87.105 25.1078C87.4776 25.4544 88.1574 25.8318 89.1404 26.2367C90.3465 26.7451 91.2326 27.337 91.7999 28.017C92.3713 28.697 92.6555 29.5453 92.6555 30.5565ZM100.093 25.8659H97.6198V30.9922C97.6198 32.2961 98.0555 32.9464 98.929 32.9464C99.33 32.9464 99.6626 32.9112 99.9257 32.8374L99.9878 34.6188C99.5458 34.7916 98.9638 34.8785 98.2429 34.8785C97.3567 34.8785 96.6642 34.5957 96.1643 34.0302C95.6665 33.4646 95.416 32.5172 95.416 31.1837V25.8615H93.9426V24.101H95.416V22.1678L97.6198 21.4724V24.101H100.093V25.8659ZM111.23 29.2978C111.23 30.9207 110.786 32.2532 109.9 33.2952C108.972 34.368 107.739 34.9027 106.201 34.9027C104.717 34.9027 103.538 34.3889 102.658 33.3623C101.778 32.3335 101.338 31.0373 101.338 29.4738C101.338 27.8377 101.793 26.4975 102.699 25.4555C103.607 24.4124 104.83 23.8909 106.368 23.8909C107.849 23.8909 109.04 24.4058 109.941 25.4335C110.801 26.4304 111.23 27.7177 111.23 29.2978ZM108.904 29.3517C108.904 28.3845 108.704 27.5549 108.303 26.8606C107.833 26.0222 107.159 25.6029 106.287 25.6029C105.388 25.6029 104.698 26.0222 104.229 26.8606C103.827 27.5549 103.627 28.3988 103.627 29.3957C103.627 30.364 103.827 31.1958 104.229 31.8879C104.714 32.7263 105.391 33.1455 106.268 33.1455C107.125 33.1455 107.798 32.7175 108.284 31.867C108.697 31.1562 108.904 30.321 108.904 29.3517ZM118.526 26.1685C118.293 26.1245 118.056 26.1027 117.819 26.1036C117.03 26.1036 116.419 26.4139 115.99 27.0388C115.617 27.589 115.43 28.2844 115.43 29.1239V34.6639H113.186V27.4305C113.188 26.3222 113.167 25.2139 113.121 24.1065H115.075L115.157 26.1267H115.22C115.457 25.4324 115.83 24.8723 116.341 24.4531C116.81 24.0868 117.378 23.8884 117.963 23.8876C118.171 23.8876 118.358 23.903 118.524 23.9305L118.526 26.1685ZM128.561 28.8851C128.567 29.2418 128.539 29.5981 128.479 29.9491H121.748C121.773 30.9922 122.099 31.791 122.724 32.3412C123.292 32.8319 124.025 33.0784 124.926 33.0784C125.923 33.0784 126.832 32.9134 127.65 32.58L128.001 34.2073C127.046 34.643 125.918 34.8598 124.616 34.8598C123.05 34.8598 121.82 34.3779 120.926 33.4162C120.033 32.4534 119.586 31.1595 119.586 29.5387C119.586 27.9477 120.002 26.6218 120.834 25.5644C121.706 24.4355 122.883 23.8711 124.365 23.8711C125.821 23.8711 126.923 24.4355 127.671 25.5644C128.263 26.459 128.561 27.5681 128.561 28.8851ZM126.422 28.2767C126.437 27.5802 126.29 26.9805 125.986 26.4733C125.598 25.8197 125 25.494 124.199 25.494C123.465 25.494 122.868 25.812 122.413 26.4502C122.039 26.9574 121.817 27.567 121.749 28.2745L126.422 28.2767Z" fill="white"/>
<path d="M47.581 14.8442C46.9569 14.8442 46.417 14.8123 45.9677 14.7584V7.67901C46.5962 7.5775 47.2313 7.52747 47.8673 7.52937C50.4405 7.52937 51.6255 8.85303 51.6255 11.0107C51.6255 13.4996 50.2258 14.8442 47.581 14.8442ZM47.9578 8.43712C47.6105 8.43712 47.3148 8.45913 47.0695 8.51194V13.8935C47.2021 13.9155 47.4568 13.9254 47.8147 13.9254C49.5007 13.9254 50.4605 12.922 50.4605 11.0426C50.4605 9.36687 49.5922 8.43712 47.9578 8.43712ZM55.3185 14.8981C53.8682 14.8981 52.9284 13.7659 52.9284 12.2288C52.9284 10.6267 53.8882 9.48461 55.4006 9.48461C56.8298 9.48461 57.7906 10.5629 57.7906 12.144C57.7906 13.7659 56.8003 14.8981 55.3185 14.8981ZM55.3606 10.3274C54.5639 10.3274 54.0535 11.1065 54.0535 12.1958C54.0535 13.2641 54.5744 14.0432 55.35 14.0432C56.1257 14.0432 56.6466 13.2102 56.6466 12.1737C56.6466 11.1175 56.1362 10.3274 55.3606 10.3274ZM66.0606 9.59134L64.5083 14.7804H63.4969L62.8539 12.5269C62.694 11.9757 62.5609 11.4164 62.455 10.8512H62.4339C62.3529 11.4167 62.1993 11.9834 62.0361 12.5269L61.3521 14.7804H60.3301L58.8694 9.59134H60.0028L60.5648 12.0582C60.6974 12.6458 60.809 13.2003 60.9016 13.7241H60.9227C61.0037 13.2873 61.1363 12.7415 61.331 12.0692L62.0361 9.59244H62.9349L63.6095 12.0164C63.7726 12.604 63.9052 13.1805 64.0084 13.7252H64.0378C64.1094 13.1915 64.222 12.6249 64.3746 12.0164L64.9777 9.59244L66.0606 9.59134ZM71.7753 14.7804H70.6724V11.8007C70.6724 10.8831 70.3356 10.4232 69.6715 10.4232C69.0179 10.4232 68.5686 11.0107 68.5686 11.694V14.7804H67.4656V11.0745C67.4656 10.6157 67.4551 10.1239 67.4246 9.59024H68.3949L68.4465 10.3913H68.477C68.7738 9.8367 69.3758 9.48461 70.0504 9.48461C71.0923 9.48461 71.7764 10.3175 71.7764 11.6731L71.7753 14.7804ZM74.8168 14.7804H73.7128V7.21028H74.8168V14.7804ZM78.8382 14.8981C77.389 14.8981 76.4481 13.7659 76.4481 12.2288C76.4481 10.6267 77.4079 9.48461 78.9192 9.48461C80.3494 9.48461 81.3093 10.5629 81.3093 12.144C81.3103 13.7659 80.3189 14.8981 78.8382 14.8981ZM78.8792 10.3274C78.0825 10.3274 77.5721 11.1065 77.5721 12.1958C77.5721 13.2641 78.0941 14.0432 78.8676 14.0432C79.6443 14.0432 80.1642 13.2102 80.1642 12.1737C80.1653 11.1175 79.6559 10.3274 78.8792 10.3274ZM85.6579 14.7804L85.5779 14.1829H85.5484C85.2117 14.6637 84.7202 14.8981 84.0971 14.8981C83.2078 14.8981 82.5764 14.2467 82.5764 13.3709C82.5764 12.0901 83.6383 11.4277 85.4769 11.4277V11.332C85.4769 10.6487 85.1306 10.3065 84.4465 10.3065C83.9572 10.3065 83.5278 10.4353 83.15 10.6916L82.9258 9.93353C83.3846 9.63425 83.9572 9.48461 84.6297 9.48461C85.9263 9.48461 86.5809 10.1998 86.5809 11.6313V13.5425C86.5809 14.0663 86.603 14.4723 86.6524 14.7815L85.6579 14.7804ZM85.5063 12.1958C84.2813 12.1958 83.6667 12.506 83.6667 13.2421C83.6667 13.7868 83.9835 14.0531 84.4234 14.0531C84.9843 14.0531 85.5063 13.6052 85.5063 12.9968V12.1958ZM91.9367 14.7804L91.8851 13.9474H91.8546C91.5378 14.5768 91.0053 14.8981 90.2612 14.8981C89.0646 14.8981 88.1785 13.7978 88.1785 12.2497C88.1785 10.6267 89.0972 9.48351 90.3517 9.48351C91.0158 9.48351 91.4862 9.71787 91.7514 10.1888H91.7736V7.21028H92.8775V13.3819C92.8775 13.8836 92.8891 14.3534 92.9186 14.7804H91.9367ZM91.7736 11.727C91.7736 11.0008 91.3136 10.3814 90.6117 10.3814C89.7939 10.3814 89.294 11.1395 89.294 12.2068C89.294 13.2531 89.8129 13.9694 90.5896 13.9694C91.2831 13.9694 91.7736 13.339 91.7736 12.5919V11.727ZM99.8773 14.8981C98.4281 14.8981 97.4882 13.7659 97.4882 12.2288C97.4882 10.6267 98.4481 9.48461 99.9593 9.48461C101.39 9.48461 102.349 10.5629 102.349 12.144C102.35 13.7659 101.36 14.8981 99.8773 14.8981ZM99.9183 10.3274C99.1227 10.3274 98.6122 11.1065 98.6122 12.1958C98.6122 13.2641 99.1332 14.0432 99.9078 14.0432C100.684 14.0432 101.204 13.2102 101.204 12.1737C101.206 11.1175 100.696 10.3274 99.9183 10.3274ZM108.281 14.7804H107.177V11.8007C107.177 10.8831 106.84 10.4232 106.176 10.4232C105.522 10.4232 105.074 11.0107 105.074 11.694V14.7804H103.97V11.0745C103.97 10.6157 103.96 10.1239 103.929 9.59024H104.899L104.951 10.3913H104.982C105.277 9.8367 105.88 9.48351 106.554 9.48351C107.596 9.48351 108.281 10.3164 108.281 11.672V14.7804ZM115.702 10.4562H114.488V12.9759C114.488 13.6173 114.701 13.9375 115.13 13.9375C115.325 13.9375 115.488 13.9155 115.619 13.8836L115.65 14.7595C115.436 14.8453 115.15 14.8882 114.794 14.8882C113.925 14.8882 113.405 14.3865 113.405 13.0727V10.4562H112.681V9.59134H113.405V8.64068L114.488 8.29848V9.59024H115.702V10.4562ZM121.54 14.7804H120.439V11.8228C120.439 10.8941 120.103 10.4243 119.438 10.4243C118.866 10.4243 118.334 10.8303 118.334 11.6522V14.7804H117.232V7.21028H118.334V10.3274H118.356C118.703 9.76188 119.206 9.48351 119.848 9.48351C120.898 9.48351 121.54 10.3373 121.54 11.694V14.7804ZM127.522 12.4631H124.213C124.234 13.4457 124.856 14.0002 125.776 14.0002C126.266 14.0002 126.716 13.9144 127.114 13.7549L127.286 14.5559C126.816 14.7694 126.264 14.8761 125.621 14.8761C124.068 14.8761 123.15 13.8506 123.15 12.2607C123.15 10.6696 124.09 9.4736 125.497 9.4736C126.765 9.4736 127.56 10.4562 127.56 11.9405C127.567 12.1157 127.555 12.2911 127.522 12.4631ZM126.511 11.6412C126.511 10.8402 126.125 10.2746 125.42 10.2746C124.786 10.2746 124.285 10.8512 124.214 11.6412H126.511Z" fill="white"/>
</svg>
