<svg width="100%" height="100%" viewBox="0 0 48 48" fill="none" xmlns="http://www.w3.org/2000/svg">
  <mask id="mask0_1163_18807" style="mask-type:alpha" maskUnits="userSpaceOnUse" x="0" y="0" width="100%" height="100%">
    <rect width="100%" height="100%" fill="#D9D9D9" />
  </mask>
  <g mask="url(#mask0_1163_18807)">
    <rect x="4.77289" y="4.77289" width="39.0042" height="39.0042" fill="currentColor" />
    <path
      d="M3 42.0042V6.54583C3 5.57073 3.3472 4.73598 4.04159 4.04159C4.73598 3.3472 5.57073 3 6.54583 3H42.0042C42.9793 3 43.814 3.3472 44.5084 4.04159C45.2028 4.73598 45.55 5.57073 45.55 6.54583V42.0042C45.55 42.9793 45.2028 43.814 44.5084 44.5084C43.814 45.2028 42.9793 45.55 42.0042 45.55H6.54583C5.57073 45.55 4.73598 45.2028 4.04159 44.5084C3.3472 43.814 3 42.9793 3 42.0042ZM26.0479 26.0479V42.0042H42.0042V26.0479H26.0479ZM26.0479 22.5021H42.0042V6.54583H26.0479V22.5021ZM22.5021 22.5021V6.54583H6.54583V22.5021H22.5021ZM22.5021 26.0479H6.54583V42.0042H22.5021V26.0479Z"
      fill="#211F1F" />
  </g>
</svg>