<svg width="100%" height="100%" viewBox="0 0 122 122" fill="none" xmlns="http://www.w3.org/2000/svg">
  <g clip-path="url(#clip0_181_2148)">
    <path
      d="M114.185 97.3395L113.056 99.8142C111.233 103.809 108.584 107.369 105.285 110.147C102.723 112.318 99.8142 114.055 96.6014 115.227L94.0832 116.182C71.637 124.648 46.7594 123.867 24.8775 113.968L22.4028 112.839C21.4476 112.405 20.5359 111.927 19.6676 111.406C13.8932 108.02 9.3779 102.723 6.99 96.3843L6.03484 93.8228C-2.43136 71.3765 -1.64986 46.4989 8.24907 24.6171L9.3779 22.1423C12.5473 15.0655 18.4953 9.5516 25.7893 6.77296L28.3074 5.8178C50.7537 -2.6484 75.6313 -1.8669 97.5131 8.03203L99.9879 9.16086C107.108 12.3737 112.665 18.2783 115.401 25.6157L116.356 28.1338C124.865 50.5801 124.041 75.5011 114.185 97.3395Z"
      fill="#E0E0E0" />
    <path
      d="M105.241 110.147C102.68 112.318 99.7709 114.055 96.5581 115.227L94.0399 116.182C71.5937 124.648 46.7161 123.867 24.8342 113.968L22.3595 112.839C21.4043 112.405 20.4926 111.927 19.6243 111.406C22.2292 104.764 27.7431 99.4234 34.82 97.2092L53.3588 91.348V88.3088C51.0577 86.9629 48.9737 85.3999 47.2371 84.1843C47.1068 84.0975 46.9766 84.0106 46.8897 83.9238C45.9346 83.2291 45.0663 82.4476 44.3282 81.5359C42.7652 79.6256 41.7232 77.3245 41.289 74.8932L40.2905 68.9886C37.2079 68.9886 34.6897 66.4704 34.6897 63.3878V50.3195C34.6897 49.3644 34.7332 48.3658 34.82 47.454C34.9068 46.5423 35.0371 45.6305 35.2542 44.7188C35.4712 43.7202 35.7317 42.7216 36.0357 41.7665C36.904 40.3337 37.9026 38.9878 39.0314 37.7288C44.3716 31.6071 51.7958 27.9167 59.8712 27.3957C60.5659 27.3523 61.2606 27.3088 61.9552 27.3088C68.0769 27.3088 73.9816 29.1323 78.9744 32.5188C83.9239 35.8619 87.788 40.5942 90.0456 46.1081C90.1759 46.4555 90.3495 46.8462 90.4798 47.1935C90.5666 48.1053 90.6535 49.0604 90.6535 49.9722C90.6535 50.1024 90.6535 50.2327 90.6535 50.3629V63.3878C90.6535 64.6903 90.2193 65.8626 89.4812 66.8177C88.4826 68.1202 86.8762 68.9886 85.0527 68.9886L84.0542 74.8932C83.8371 76.2391 83.4029 77.4982 82.8385 78.7138C81.8399 80.7978 80.3204 82.6213 78.41 83.9672C78.3232 84.054 78.193 84.1409 78.0627 84.1843C76.326 85.3565 74.2855 86.9195 71.941 88.3088V91.348L72.2015 91.4348L72.9396 91.6519L90.4364 97.2092C97.2093 99.3366 102.463 104.112 105.241 110.147Z"
      fill="#9E9E9E" />
    <path
      d="M64.8207 99.3801L64.7773 99.4235L64.3865 99.0328L64.2997 98.9459C61.7381 96.7751 58.9595 94.6043 56.2677 92.5203C48.6264 86.5723 40.6812 80.4071 36.2093 72.4185L36.1659 72.3751L36.1225 72.3317L35.9054 71.941C35.862 71.8541 35.7751 71.7239 35.6883 71.5936C35.6449 71.5502 35.6449 71.5068 35.6449 71.5068C35.6015 71.4634 35.6015 71.42 35.5581 71.3331L35.5146 71.2029C35.4712 71.116 35.4278 70.9858 35.341 70.9424C35.2976 70.8555 35.2541 70.7253 35.1673 70.6385C35.1239 70.5516 35.0805 70.4214 34.9936 70.378C34.9502 70.3345 34.9502 70.2477 34.9068 70.2043C34.8634 70.1175 34.82 69.9872 34.7332 69.9004L34.6897 69.7701V69.7267C33.778 67.6861 33.1267 65.4285 32.6492 62.9538C32.4755 61.9552 32.3453 61 32.2584 60.0883L32.215 59.8278C31.1296 43.4598 43.5467 29.2192 59.8712 28.1338C60.5225 28.0904 61.2171 28.047 61.9118 28.047C67.8598 28.047 73.6342 29.8271 78.5403 33.1701C83.4029 36.4698 87.1367 41.0719 89.3509 46.4555C90.5666 49.4079 91.3047 52.5338 91.5218 55.7466V55.8335C91.6086 57.0491 91.6086 58.1345 91.5652 59.2634C91.4783 61.521 91.0876 63.7787 90.4364 65.9929C90.4364 66.0363 90.3929 66.0797 90.3929 66.1232L90.2627 66.6007C90.2193 66.6442 90.2193 66.731 90.2193 66.7744L90.0456 67.2086C90.0022 67.2954 90.0022 67.3822 89.9588 67.4257C89.9154 67.4691 89.9154 67.5993 89.8719 67.6427C89.8285 67.6861 89.8285 67.7296 89.8285 67.8164C89.7851 67.8598 89.7851 67.9032 89.7851 67.9901C89.7417 68.0335 89.7417 68.1203 89.6983 68.1637C89.6549 68.2071 89.6549 68.2506 89.6549 68.3374V68.3808C89.6114 68.5111 89.568 68.6413 89.4812 68.7716L89.4378 68.8584C86.0513 77.368 79.0178 84.5317 72.2449 91.4783C69.9004 93.9096 67.4257 96.4278 65.168 98.9025L64.8207 99.5972V99.3801Z"
      fill="#9E9E9E" />
    <path
      d="M92.3466 55.7032V55.573C92.1295 52.6641 91.5217 49.842 90.5665 47.1502C90.4363 46.8029 90.306 46.4121 90.1324 46.0648C87.8747 40.5075 84.0107 35.8185 79.0612 32.4755C74.0683 29.089 68.1637 27.2655 62.042 27.2655C61.3473 27.2655 60.6527 27.3089 59.958 27.3523C51.8391 27.9167 44.4583 31.5637 39.1181 37.6854C37.9893 38.9445 36.9907 40.3338 36.1224 41.7232C32.8228 47.0634 31.2598 53.3153 31.6939 59.7409L31.7373 60.2619C31.8242 61.1303 31.9544 62.042 32.0847 62.9538C32.5188 65.4285 33.2135 67.6861 34.0818 69.7267V69.7701L34.2121 70.0306C34.2555 70.1175 34.2989 70.2477 34.3857 70.378C34.4292 70.4214 34.4292 70.5082 34.4726 70.5516C34.516 70.6385 34.5594 70.7687 34.6462 70.8555C34.6897 70.9424 34.7331 71.0726 34.8199 71.1594C34.8633 71.2463 34.9067 71.3765 34.9502 71.4634L34.9936 71.5936C35.037 71.637 35.037 71.6804 35.0804 71.7673C35.1238 71.8107 35.1238 71.8107 35.1238 71.8541C35.2107 71.9844 35.2541 72.1146 35.3409 72.2449C35.3843 72.3317 35.4277 72.3751 35.4277 72.4619C35.4712 72.5488 35.5146 72.5922 35.5146 72.679V72.7659L35.558 72.8093C39.6825 80.0598 46.4989 85.8342 53.4455 91.2612C54.227 91.8691 55.0085 92.4769 55.8334 93.0847C58.4818 95.1687 61.2605 97.2961 63.822 99.5103L63.9089 99.5972L64.8206 100.509L64.9075 100.422L65.2114 100.726L65.906 99.2933C68.1203 96.7751 70.5516 94.3438 72.8961 91.9559C72.9395 91.9125 73.0263 91.8256 73.0697 91.7822C79.8427 84.879 86.7893 77.7153 90.2192 69.1189L90.2626 69.0755L90.306 69.032V68.9886C90.3494 68.8584 90.3929 68.6847 90.4797 68.5979V68.5545C90.4797 68.5111 90.4797 68.4676 90.5231 68.3808C90.5665 68.294 90.5665 68.2506 90.6099 68.1637C90.6534 68.1203 90.6534 68.0769 90.6534 67.9901C90.6534 67.9466 90.6534 67.9032 90.6968 67.9032V67.8598C90.7402 67.773 90.7402 67.6861 90.7836 67.6427C90.827 67.5993 90.827 67.5125 90.8704 67.4256L90.9139 67.252L90.9573 67.1217V67.0783C90.9573 67.0349 91.0007 67.0349 91.0007 66.9915C91.0441 66.9046 91.0441 66.8178 91.0875 66.7744C91.1309 66.6876 91.1309 66.6007 91.1744 66.5139C91.2178 66.4705 91.2178 66.3837 91.2178 66.3402C91.2178 66.2968 91.2612 66.21 91.2612 66.1232C91.9124 63.8655 92.3032 61.521 92.39 59.2199C92.39 58.0477 92.39 56.9189 92.3466 55.7032ZM89.5245 66.9481C89.4811 67.0783 89.4377 67.2086 89.3509 67.3822C89.3075 67.4691 89.264 67.5559 89.264 67.6427C89.2206 67.773 89.1772 67.9032 89.1338 67.9901C89.0904 68.1637 89.0035 68.294 88.9601 68.4242C88.9601 68.4676 88.9167 68.4676 88.9167 68.5111C87.484 72.1146 85.3566 75.5011 82.9252 78.7139C81.5359 80.494 80.0598 82.2306 78.4968 83.9673C76.4128 86.2249 74.242 88.4826 72.0712 90.6968C69.5964 93.215 67.1217 95.7765 64.7772 98.3381H64.7338C61.0868 95.2555 57.1793 92.3032 53.4021 89.3075C51.1879 87.5708 48.9736 85.7908 46.9331 83.9239C46.0647 83.1424 45.1964 82.3609 44.3715 81.536C41.3758 78.6271 38.7708 75.5011 36.8171 72.0278C36.8171 71.9844 36.7736 71.9844 36.7736 71.9844C36.6868 71.8541 36.6 71.7239 36.5566 71.5936C36.4697 71.4634 36.4263 71.3765 36.3829 71.2463C36.3395 71.1595 36.2961 71.0726 36.2526 70.9858C36.1658 70.8555 36.1224 70.7253 36.0356 70.595C35.9921 70.5082 35.9487 70.378 35.9053 70.2911C35.8619 70.2043 35.8185 70.1175 35.7751 70.0306C35.6882 69.9004 35.6448 69.7267 35.558 69.553V69.4662C34.4726 67.0349 33.8647 64.6036 33.5174 62.7367C33.1701 60.9132 33.1267 59.6541 33.1267 59.6541C32.8228 55.3559 33.5174 51.2313 34.9502 47.4541C38.8576 37.1644 48.4092 29.5666 60.0882 28.7851C60.7395 28.7417 61.3907 28.6982 62.0854 28.6982C74.0249 28.6982 84.5317 36.0356 88.9167 46.6726C89.785 48.8434 90.4363 51.1445 90.7836 53.5324C90.8704 54.2705 90.9573 55.0086 91.0441 55.7466V55.7901C91.1309 56.9189 91.1309 58.0477 91.0875 59.1331C91.0441 60.0883 90.9573 61 90.827 61.9118C90.6534 63.2143 90.3494 64.5167 89.9587 65.7758C89.9587 65.8192 89.9587 65.8192 89.9587 65.8192C89.9153 65.9495 89.8719 66.1666 89.8284 66.3402C89.785 66.4271 89.7416 66.5573 89.7416 66.6441C89.7416 66.6876 89.6982 66.7744 89.6548 66.8612C89.5245 66.8612 89.5245 66.9046 89.5245 66.9481Z"
      fill="#9E9E9E" />
    <path
      d="M90.9573 55.79V55.7466C90.7402 52.5338 90.0021 49.4947 88.8299 46.6726L85.617 48.3658L73.8512 54.6612L62.5195 61.0868V74.6762L73.5907 68.3808L85.096 62.2157L90.9138 59.1331C91.0441 58.0477 91.0441 56.9189 90.9573 55.79Z"
      fill="#E0E0E0" />
    <path d="M61.2605 74.763L49.2776 67.9466V54.3138L61.2605 61.1302V74.763Z" fill="#E0E0E0" />
    <path d="M61.8684 58.0477L49.8855 51.2313L62.346 44.4149L74.3289 51.2313L61.8684 58.0477Z" fill="#E0E0E0" />
  </g>
  <defs>
    <clipPath id="clip0_181_2148">
      <rect width="100%" height="100%" fill="white" />
    </clipPath>
  </defs>
</svg>