<svg width="100%" height="100%" viewBox="0 0 14 14" fill="none" xmlns="http://www.w3.org/2000/svg">
<path d="M10.9303 13.3709C9.74287 13.3709 8.54088 13.0886 7.32428 12.5241C6.10769 11.9596 4.98356 11.1615 3.95189 10.1299C2.91049 9.08846 2.10754 7.95703 1.54304 6.73557C0.978538 5.51411 0.696289 4.31455 0.696289 3.13689C0.696289 2.85185 0.790487 2.61027 0.978884 2.41214C1.16728 2.21401 1.40886 2.11495 1.70363 2.11495H3.7329C4.03462 2.11495 4.28037 2.19525 4.47016 2.35584C4.65995 2.51643 4.79377 2.74758 4.87163 3.04929L5.25017 4.64995C5.2898 4.9065 5.28528 5.1321 5.23661 5.32675C5.18795 5.52141 5.08464 5.68797 4.92669 5.82642L3.39712 7.21004C3.61124 7.56042 3.8424 7.89133 4.09058 8.20278C4.33877 8.51423 4.61372 8.81594 4.91543 9.10792C5.23661 9.44857 5.56022 9.74542 5.88627 9.99847C6.21232 10.2515 6.54566 10.4656 6.88631 10.6408L8.34622 9.16632C8.52141 8.99113 8.7095 8.87434 8.91049 8.81594C9.11148 8.75754 9.33217 8.75754 9.57255 8.81594L11.0033 9.15172C11.305 9.23931 11.5361 9.38065 11.6967 9.57574C11.8573 9.77082 11.9376 10.0139 11.9376 10.305V12.3635C11.9376 12.6486 11.8385 12.8877 11.6404 13.081C11.4423 13.2742 11.2056 13.3709 10.9303 13.3709ZM7.70386 2.21714C7.52137 2.21714 7.36869 2.15546 7.24581 2.0321C7.12294 1.90873 7.0615 1.7603 7.0615 1.58683C7.0615 1.41334 7.12294 1.26334 7.24581 1.13681C7.36869 1.01028 7.52137 0.947021 7.70386 0.947021H12.4778C12.6505 0.947021 12.8008 1.01114 12.9285 1.13936C13.0563 1.2676 13.1201 1.41846 13.1201 1.59194C13.1201 1.76542 13.0563 1.913 12.9285 2.03466C12.8008 2.15631 12.6505 2.21714 12.4778 2.21714H7.70386ZM7.70386 4.39241C7.52137 4.39241 7.36869 4.33073 7.24581 4.20737C7.12294 4.084 7.0615 3.9307 7.0615 3.7475C7.0615 3.57401 7.12294 3.42644 7.24581 3.30478C7.36869 3.18312 7.52137 3.12229 7.70386 3.12229H12.4778C12.6505 3.12229 12.8008 3.18397 12.9285 3.30733C13.0563 3.4307 13.1201 3.57913 13.1201 3.7526C13.1201 3.93582 13.0563 4.08826 12.9285 4.20992C12.8008 4.33158 12.6505 4.39241 12.4778 4.39241H7.70386ZM7.70386 6.55308C7.52137 6.55308 7.36869 6.4914 7.24581 6.36804C7.12294 6.24466 7.0615 6.09137 7.0615 5.90816C7.0615 5.73468 7.12294 5.5871 7.24581 5.46545C7.36869 5.34379 7.52137 5.28296 7.70386 5.28296H12.4778C12.6505 5.28296 12.8008 5.34464 12.9285 5.468C13.0563 5.59137 13.1201 5.7398 13.1201 5.91327C13.1201 6.09649 13.0563 6.24893 12.9285 6.37059C12.8008 6.49225 12.6505 6.55308 12.4778 6.55308H7.70386Z" fill="#211F1F"/>
</svg>
