<svg width="100%" height="100%" viewBox="0 0 259 231" fill="none" xmlns="http://www.w3.org/2000/svg">
  <path fill-rule="evenodd" clip-rule="evenodd"
    d="M138.96 156.032H99.7214C96.9595 156.032 94.6989 153.765 94.6989 150.994V95.0373C94.6989 92.2662 96.9595 90 99.7214 90H138.96C141.723 90 143.984 92.2662 143.984 95.0373V150.994C143.984 153.765 141.723 156.032 138.96 156.032Z"
    fill="#AFAFAF" />
  <path fill-rule="evenodd" clip-rule="evenodd"
    d="M135.611 158.425H96.372C93.6102 158.425 91.3495 156.157 91.3495 153.386V97.4298C91.3495 94.6587 93.6102 92.3925 96.372 92.3925H135.611C138.374 92.3925 140.634 94.6587 140.634 97.4298V153.386C140.634 156.157 138.374 158.425 135.611 158.425Z"
    fill="#F6F6F6" />
  <path fill-rule="evenodd" clip-rule="evenodd"
    d="M132.353 160.313H93.0329C90.2654 160.313 88 158.055 88 155.296V99.5711C88 96.8115 90.2654 94.5546 93.0329 94.5546H132.353C135.121 94.5546 137.387 96.8115 137.387 99.5711V155.296C137.387 158.055 135.121 160.313 132.353 160.313Z"
    fill="#F6F6F6" />
  <path fill-rule="evenodd" clip-rule="evenodd"
    d="M132.353 160.313H93.0329C90.2654 160.313 88 158.055 88 155.296V99.5711C88 96.8115 90.2654 94.5546 93.0329 94.5546H132.353C135.121 94.5546 137.387 96.8115 137.387 99.5711V155.296C137.387 158.055 135.121 160.313 132.353 160.313Z"
    fill="#E0E0E0" />
  <path fill-rule="evenodd" clip-rule="evenodd"
    d="M126.685 111.532H97.6427C96.8133 111.532 96.1344 110.886 96.1344 110.097C96.1344 109.307 96.8133 108.661 97.6427 108.661H126.685C127.515 108.661 128.194 109.307 128.194 110.097C128.194 110.886 127.515 111.532 126.685 111.532Z"
    fill="#AFAFAF" />
  <path fill-rule="evenodd" clip-rule="evenodd"
    d="M126.685 120.145H97.6427C96.8133 120.145 96.1344 119.499 96.1344 118.71C96.1344 117.92 96.8133 117.274 97.6427 117.274H126.685C127.515 117.274 128.194 117.92 128.194 118.71C128.194 119.499 127.515 120.145 126.685 120.145Z"
    fill="#AFAFAF" />
  <path fill-rule="evenodd" clip-rule="evenodd"
    d="M126.685 128.758H97.6427C96.8133 128.758 96.1344 128.112 96.1344 127.323C96.1344 126.534 96.8133 125.887 97.6427 125.887H126.685C127.515 125.887 128.194 126.534 128.194 127.323C128.194 128.112 127.515 128.758 126.685 128.758Z"
    fill="#AFAFAF" />
  <path fill-rule="evenodd" clip-rule="evenodd"
    d="M126.685 137.371H97.6427C96.8133 137.371 96.1344 136.725 96.1344 135.936C96.1344 135.146 96.8133 134.5 97.6427 134.5H126.685C127.515 134.5 128.194 135.146 128.194 135.936C128.194 136.725 127.515 137.371 126.685 137.371Z"
    fill="#AFAFAF" />
  <path fill-rule="evenodd" clip-rule="evenodd"
    d="M112.802 145.984H97.6492C96.8162 145.984 96.1344 145.338 96.1344 144.549C96.1344 143.759 96.8162 143.113 97.6492 143.113H112.802C113.635 143.113 114.317 143.759 114.317 144.549C114.317 145.338 113.635 145.984 112.802 145.984Z"
    fill="#AFAFAF" />
  <path fill-rule="evenodd" clip-rule="evenodd"
    d="M143.388 134.853C137.581 140.659 128.59 141.314 122.063 136.831C121.229 136.248 120.435 135.593 119.695 134.853C119.314 134.473 118.954 134.081 118.616 133.668C117.939 132.844 117.346 131.965 116.86 131.056C116.004 129.522 115.422 127.894 115.104 126.212C114.079 120.935 115.612 115.255 119.695 111.174C123.788 107.081 129.468 105.558 134.746 106.573C136.428 106.901 138.057 107.483 139.591 108.329C140.501 108.826 141.368 109.419 142.193 110.095C142.605 110.433 142.997 110.793 143.377 111.174C144.119 111.914 144.784 112.707 145.356 113.542C149.841 120.067 149.184 129.057 143.388 134.853Z"
    fill="white" fill-opacity="0.1" />
  <path fill-rule="evenodd" clip-rule="evenodd"
    d="M141.763 133.709C135.721 139.752 125.93 139.751 119.887 133.709C113.852 127.674 113.852 117.882 119.895 111.84C125.93 105.805 135.721 105.805 141.756 111.84C147.798 117.882 147.798 127.674 141.763 133.709ZM144.864 108.736C137.109 100.981 124.542 100.981 116.787 108.736C109.033 116.49 109.026 129.065 116.78 136.82C123.838 143.875 134.901 144.512 142.682 138.719C143.442 138.152 144.173 137.517 144.872 136.82C145.569 136.121 146.204 135.39 146.769 134.63C152.563 126.847 151.921 115.793 144.864 108.736Z"
    fill="#AFAFAF" />
  <path fill-rule="evenodd" clip-rule="evenodd"
    d="M175.384 166.053L175.058 166.378C172.904 168.533 169.377 168.533 167.222 166.378L147.333 146.49L155.495 138.328L175.384 158.216C177.539 160.372 177.539 163.898 175.384 166.053Z"
    fill="#FECA16" />
  <path fill-rule="evenodd" clip-rule="evenodd"
    d="M147.198 134.021L153.075 139.899L148.903 144.07L143.027 138.193C143.802 137.615 144.548 136.966 145.262 136.255C145.973 135.544 146.621 134.797 147.198 134.021Z"
    fill="#AFAFAF" />
  <path fill-rule="evenodd" clip-rule="evenodd"
    d="M175.086 157.972L166.976 166.081L165.516 164.62L173.625 156.511L175.086 157.972Z" fill="#FECA16" />
  <path fill-rule="evenodd" clip-rule="evenodd"
    d="M155.946 138.609L147.614 146.941L146.376 145.703L154.708 137.371L155.946 138.609Z" fill="#FECA16" />
  <path fill-rule="evenodd" clip-rule="evenodd"
    d="M137.763 109.761L117.33 130.194C116.561 128.814 116.037 127.351 115.753 125.838L133.408 108.183C134.92 108.478 136.384 109 137.763 109.761Z"
    fill="white" fill-opacity="0.5" />
  <path fill-rule="evenodd" clip-rule="evenodd"
    d="M144.462 114.618L122.372 135.457C121.58 134.936 120.827 134.35 120.125 133.688C119.764 133.347 119.422 132.997 119.102 132.628L141.462 111.532C141.853 111.835 142.225 112.158 142.586 112.499C143.288 113.161 143.919 113.87 144.462 114.618Z"
    fill="white" fill-opacity="0.5" />
  <path fill-rule="evenodd" clip-rule="evenodd"
    d="M233.531 126.608C233.531 183.929 187.062 230.398 129.741 230.398C72.4203 230.398 25.9523 183.929 25.9523 126.608C25.9523 69.2874 72.4203 22.8184 129.741 22.8184C187.062 22.8184 233.531 69.2874 233.531 126.608Z"
    stroke="#FECA16" stroke-dasharray="5.02 5.02" />
  <path fill-rule="evenodd" clip-rule="evenodd"
    d="M206.816 126.608C206.816 169.175 172.308 203.683 129.741 203.683C87.1735 203.683 52.6675 169.175 52.6675 126.608C52.6675 84.0414 87.1735 49.5334 129.741 49.5334C172.308 49.5334 206.816 84.0414 206.816 126.608Z"
    stroke="#FECA16" stroke-dasharray="5.05 5.05" />
  <path d="M6.34485 140.582L4.41785 140.523" stroke="#E0E0E0" stroke-linecap="round" />
  <path d="M4.96244 136.929L3.58044 138.22" stroke="#E0E0E0" stroke-linecap="round" />
  <path d="M1.36042 135.26L1.33142 137.144" stroke="#E0E0E0" stroke-linecap="round" />
  <path d="M0.984375 145.375L1.01337 143.491" stroke="#E0E0E0" stroke-linecap="round" />
  <path d="M4.69686 144.081L3.35486 142.707" stroke="#E0E0E0" stroke-linecap="round" />
  <path d="M257.648 113.722L256.801 114.639" stroke="#E0E0E0" stroke-linecap="round" />
  <path d="M253.671 114.519L254.31 115.108" stroke="#E0E0E0" stroke-linecap="round" />
  <path d="M253.026 118.584L253.873 117.667" stroke="#E0E0E0" stroke-linecap="round" />
  <path d="M257.002 117.787L256.364 117.198" stroke="#E0E0E0" stroke-linecap="round" />
  <path d="M180.07 5.9468L178.021 5.8918" stroke="#E0E0E0" stroke-linecap="round" />
  <path d="M174.769 1L174.738 2.751" stroke="#E0E0E0" stroke-linecap="round" />
  <path d="M169.067 5.4541L171.116 5.5081" stroke="#E0E0E0" stroke-linecap="round" />
  <path d="M174.368 10.4009L174.399 8.6499" stroke="#E0E0E0" stroke-linecap="round" />
  <path fill-rule="evenodd" clip-rule="evenodd"
    d="M28.337 195.006C26.863 195.447 24.408 197.613 23.568 200.181C23.427 197.795 21.912 194.796 20.245 194.364C22.279 193.645 24.482 191.002 25.068 188.775C24.962 191.109 27.081 194.498 28.337 195.006Z"
    fill="#FECA16" />
  <path fill-rule="evenodd" clip-rule="evenodd"
    d="M62.8595 15.3257C61.7225 15.5267 59.7075 16.9267 58.8595 18.7667C58.9605 16.9777 58.0915 14.6127 56.8875 14.1467C58.4645 13.7867 60.3345 12.0087 60.9635 10.4007C60.6825 12.1307 61.9675 14.8387 62.8595 15.3257Z"
    fill="#FECA16" />
  <path fill-rule="evenodd" clip-rule="evenodd"
    d="M213.56 28.3169C212.041 28.2839 210.837 27.0269 210.871 25.5089C210.904 23.9909 212.161 22.7869 213.678 22.8199C215.197 22.8529 216.401 24.1099 216.368 25.6279C216.334 27.1459 215.078 28.3499 213.56 28.3169Z"
    fill="#E0E0E0" />
  <path fill-rule="evenodd" clip-rule="evenodd"
    d="M213.567 208.469C212.246 208.441 211.198 207.346 211.226 206.025C211.254 204.703 212.349 203.655 213.671 203.683C214.993 203.712 216.041 204.806 216.012 206.128C215.983 207.449 214.889 208.498 213.567 208.469Z"
    fill="#FECA16" />
  <path fill-rule="evenodd" clip-rule="evenodd"
    d="M14.8223 64.8033C14.0043 64.7853 13.3553 64.1083 13.3733 63.2893C13.3903 62.4713 14.0683 61.8233 14.8863 61.8403C15.7043 61.8583 16.3533 62.5353 16.3363 63.3533C16.3183 64.1723 15.6403 64.8213 14.8223 64.8033Z"
    stroke="#E0E0E0" stroke-linecap="round" />
</svg>
