<svg width="100%" height="100%" viewBox="0 0 264 231" fill="none" xmlns="http://www.w3.org/2000/svg">
<path fill-rule="evenodd" clip-rule="evenodd" d="M167.802 155.943L167.035 158.972L91.3218 139.806L92.0878 136.777C98.1458 138.31 102.845 132.475 103.605 129.477L107.974 112.214C111.434 99.6514 122.874 90.9584 135.906 90.9904C137.022 86.8234 141.306 84.3514 145.472 85.4684C149.639 86.5854 152.112 90.8684 150.994 95.0354C162.423 101.414 168.281 114.563 165.378 127.325L161.147 144.043C160.249 147.586 164.774 155.176 167.802 155.943Z" fill="#E0E0E0"/>
<path fill-rule="evenodd" clip-rule="evenodd" d="M115.57 149.167C116.297 156.897 123.152 162.575 130.882 161.849C135.092 161.454 138.901 159.184 141.253 155.668L115.57 149.167Z" fill="#FECA16"/>
<path fill-rule="evenodd" clip-rule="evenodd" d="M238.531 126.608C238.531 183.929 192.062 230.398 134.741 230.398C77.4203 230.398 30.9523 183.929 30.9523 126.608C30.9523 69.2874 77.4203 22.8184 134.741 22.8184C192.062 22.8184 238.531 69.2874 238.531 126.608Z" stroke="#FECA16" stroke-dasharray="5.02 5.02"/>
<path fill-rule="evenodd" clip-rule="evenodd" d="M211.816 126.608C211.816 169.175 177.308 203.683 134.741 203.683C92.1735 203.683 57.6675 169.175 57.6675 126.608C57.6675 84.0414 92.1735 49.5334 134.741 49.5334C177.308 49.5334 211.816 84.0414 211.816 126.608Z" stroke="#FECA16" stroke-dasharray="5.05 5.05"/>
<path fill-rule="evenodd" clip-rule="evenodd" d="M115.576 149.185C116.303 156.915 123.158 162.593 130.888 161.867C135.098 161.472 138.907 159.202 141.259 155.686L115.576 149.185Z" fill="#FECA16"/>
<path fill-rule="evenodd" clip-rule="evenodd" d="M176.622 102.74C178.385 104.861 179.709 107.359 180.609 110.007C181.526 112.656 181.974 115.47 182.02 118.286C182.02 119.695 181.919 121.102 181.737 122.497C181.497 123.885 181.22 125.263 180.784 126.598C179.941 129.269 178.667 131.802 176.931 133.958C176.856 134.051 176.722 134.065 176.629 133.991C176.557 133.932 176.533 133.836 176.561 133.752C177.465 131.179 178.214 128.641 178.717 126.066C178.81 125.416 178.938 124.776 179.046 124.133C179.12 123.484 179.218 122.84 179.274 122.192C179.316 121.543 179.4 120.898 179.427 120.249C179.437 119.599 179.468 118.95 179.465 118.301C179.48 115.702 179.19 113.107 178.685 110.531C178.166 107.953 177.385 105.414 176.447 102.841C176.428 102.788 176.455 102.729 176.508 102.71C176.55 102.694 176.595 102.708 176.622 102.74Z" fill="#FECA16"/>
<path fill-rule="evenodd" clip-rule="evenodd" d="M186.552 103.641C188.254 105.602 189.536 107.928 190.429 110.397C191.324 112.869 191.841 115.495 191.933 118.137C192.033 120.778 191.711 123.433 191.005 125.962C190.3 128.49 189.201 130.906 187.651 132.988C187.641 133.001 187.622 133.004 187.61 132.995C187.6 132.987 187.596 132.974 187.599 132.963C188.241 130.457 188.779 128.019 189.105 125.568C189.431 123.118 189.538 120.669 189.447 118.229C189.347 115.79 189.052 113.359 188.533 110.946C188.016 108.53 187.285 106.146 186.452 103.699C186.442 103.668 186.458 103.635 186.489 103.624C186.512 103.616 186.537 103.623 186.552 103.641Z" fill="#FECA16"/>
<path fill-rule="evenodd" clip-rule="evenodd" d="M95.792 116.155C95.252 113.466 95.246 110.657 95.674 107.911C96.088 105.158 96.978 102.474 98.214 99.9673C99.48 97.4753 101.098 95.1563 103.052 93.1723C104.992 91.1813 107.242 89.4943 109.724 88.3163C109.769 88.2953 109.821 88.3143 109.842 88.3583C109.859 88.3943 109.85 88.4363 109.821 88.4623C107.802 90.2953 105.943 92.2063 104.3 94.2753C102.669 96.3483 101.226 98.5513 100.06 100.896C98.862 103.226 97.948 105.695 97.253 108.242C96.569 110.795 96.147 113.43 95.878 116.151C95.875 116.174 95.854 116.192 95.83 116.19C95.811 116.188 95.796 116.173 95.792 116.155Z" fill="#FECA16"/>
<path fill-rule="evenodd" clip-rule="evenodd" d="M87.3155 110.839C86.8045 108.314 86.7955 105.683 87.1665 103.107C87.5495 100.531 88.3145 98.0004 89.4435 95.6434C90.5605 93.2824 92.0025 91.0734 93.7375 89.1384C95.4645 87.2004 97.4605 85.5064 99.6845 84.2264C97.8685 86.0344 96.2005 87.9204 94.7455 89.9484C93.2955 91.9784 92.0345 94.1194 91.0125 96.3714C90.0005 98.6264 89.1885 100.968 88.6095 103.385C88.0145 105.801 87.6575 108.28 87.4005 110.835C87.3975 110.858 87.3775 110.875 87.3525 110.873C87.3345 110.871 87.3185 110.857 87.3155 110.839Z" fill="#FECA16"/>
<path d="M11.3448 140.582L9.41779 140.523" stroke="#E0E0E0" stroke-linecap="round"/>
<path d="M9.96238 136.929L8.58038 138.22" stroke="#E0E0E0" stroke-linecap="round"/>
<path d="M6.36042 135.26L6.33142 137.144" stroke="#E0E0E0" stroke-linecap="round"/>
<path d="M2.64801 136.554L3.99001 137.928" stroke="#E0E0E0" stroke-linecap="round"/>
<path d="M1 140.052L2.926 140.111" stroke="#E0E0E0" stroke-linecap="round"/>
<path d="M2.3819 143.706L3.7649 142.415" stroke="#E0E0E0" stroke-linecap="round"/>
<path d="M5.98438 145.375L6.01337 143.491" stroke="#E0E0E0" stroke-linecap="round"/>
<path d="M9.6968 144.081L8.3548 142.707" stroke="#E0E0E0" stroke-linecap="round"/>
<path d="M262.648 113.722L261.801 114.639" stroke="#E0E0E0" stroke-linecap="round"/>
<path d="M258.671 114.519L259.31 115.108" stroke="#E0E0E0" stroke-linecap="round"/>
<path d="M258.026 118.584L258.873 117.667" stroke="#E0E0E0" stroke-linecap="round"/>
<path d="M262.002 117.787L261.364 117.198" stroke="#E0E0E0" stroke-linecap="round"/>
<path d="M185.07 5.94685L183.021 5.89185" stroke="#E0E0E0" stroke-linecap="round"/>
<path d="M179.769 1L179.738 2.751" stroke="#E0E0E0" stroke-linecap="round"/>
<path d="M174.066 5.4541L176.115 5.5081" stroke="#E0E0E0" stroke-linecap="round"/>
<path d="M179.368 10.4009L179.399 8.6499" stroke="#E0E0E0" stroke-linecap="round"/>
<path fill-rule="evenodd" clip-rule="evenodd" d="M33.337 195.006C31.863 195.447 29.408 197.613 28.568 200.181C28.427 197.795 26.912 194.796 25.245 194.364C27.279 193.645 29.482 191.002 30.068 188.775C29.962 191.109 32.081 194.498 33.337 195.006Z" fill="#FECA16"/>
<path fill-rule="evenodd" clip-rule="evenodd" d="M67.8594 15.3258C66.7224 15.5268 64.7074 16.9268 63.8594 18.7668C63.9604 16.9778 63.0914 14.6128 61.8874 14.1468C63.4644 13.7868 65.3344 12.0088 65.9634 10.4008C65.6824 12.1308 66.9674 14.8388 67.8594 15.3258Z" fill="#FECA16"/>
<path fill-rule="evenodd" clip-rule="evenodd" d="M218.56 28.3169C217.041 28.2839 215.837 27.0269 215.871 25.5089C215.904 23.9909 217.161 22.7869 218.678 22.8199C220.197 22.8529 221.401 24.1099 221.368 25.6279C221.334 27.1459 220.078 28.3499 218.56 28.3169Z" fill="#E0E0E0"/>
<path fill-rule="evenodd" clip-rule="evenodd" d="M218.566 208.469C217.245 208.441 216.197 207.346 216.225 206.025C216.253 204.703 217.348 203.655 218.67 203.683C219.992 203.712 221.04 204.806 221.011 206.128C220.982 207.449 219.888 208.498 218.566 208.469Z" fill="#FECA16"/>
<path fill-rule="evenodd" clip-rule="evenodd" d="M19.8223 64.8033C19.0043 64.7853 18.3553 64.1083 18.3733 63.2893C18.3903 62.4713 19.0683 61.8233 19.8863 61.8403C20.7043 61.8583 21.3533 62.5353 21.3363 63.3533C21.3183 64.1723 20.6403 64.8213 19.8223 64.8033Z" stroke="#E0E0E0" stroke-linecap="round"/>
</svg>
