<svg width="100%" height="100%" viewBox="0 0 48 48" fill="none" xmlns="http://www.w3.org/2000/svg">
<mask id="mask0_1326_5869" style="mask-type:alpha" maskUnits="userSpaceOnUse" x="0" y="0" width="100%" height="100%">
<rect width="100%" height="100%" fill="#D9D9D9"/>
</mask>
<g mask="url(#mask0_1326_5869)">
<path d="M19.85 23.25C17.2833 23.25 15.1833 22.4333 13.55 20.8C11.9166 19.1667 11.1 17.0667 11.1 14.5C11.1 11.9333 11.9166 9.83333 13.55 8.2C15.1833 6.56667 17.2833 5.75 19.85 5.75C22.4166 5.75 24.525 6.56667 26.175 8.2C27.825 9.83333 28.65 11.9333 28.65 14.5C28.65 17.0667 27.825 19.1667 26.175 20.8C24.525 22.4333 22.4166 23.25 19.85 23.25ZM7.29998 41.9C5.96664 41.9 4.84998 41.4417 3.94998 40.525C3.04998 39.6083 2.59998 38.5 2.59998 37.2V35.85C2.59998 34.5167 2.95831 33.2667 3.67498 32.1C4.39164 30.9333 5.39998 30.05 6.69998 29.45C9.09998 28.3833 11.3916 27.6 13.575 27.1C15.7583 26.6 17.85 26.35 19.85 26.35C20.8166 26.35 22.0333 26.4417 23.5 26.625C24.9666 26.8083 26.2666 27.05 27.4 27.35L24.95 29.9C23.5833 31.3 22.8916 32.9667 22.875 34.9C22.8583 36.8333 23.55 38.4833 24.95 39.85L27 41.9H7.29998ZM32.25 36.9L41.7 27.5C42.0333 27.1333 42.4333 26.95 42.9 26.95C43.3666 26.95 43.7833 27.1333 44.15 27.5C44.5166 27.8667 44.7 28.2833 44.7 28.75C44.7 29.2167 44.5166 29.6333 44.15 30L33.95 40.2C33.4833 40.6667 32.925 40.9 32.275 40.9C31.625 40.9 31.0666 40.6667 30.6 40.2L26.05 35.65C25.6833 35.2833 25.5 34.875 25.5 34.425C25.5 33.975 25.7 33.5667 26.1 33.2C26.4333 32.8333 26.8333 32.65 27.3 32.65C27.7666 32.65 28.1833 32.8333 28.55 33.2L32.25 36.9Z" fill="currentColor"/>
</g>
</svg>
