<svg width="100%" height="100%" viewBox="0 0 142 42" fill="none" xmlns="http://www.w3.org/2000/svg">
<path d="M136.741 42H5.25926C2.31407 42 0 39.69 0 36.75V5.25C0 2.31 2.31407 0 5.25926 0H136.741C139.686 0 142 2.31 142 5.25V36.75C142 39.69 139.686 42 136.741 42Z" fill="black"/>
<path d="M49.8578 10.71C49.8578 11.55 49.6474 12.285 49.1215 12.81C48.4904 13.44 47.7541 13.755 46.8074 13.755C45.8608 13.755 45.1245 13.44 44.4934 12.81C43.8622 12.18 43.5467 11.445 43.5467 10.5C43.5467 9.55501 43.8622 8.82001 44.4934 8.19001C45.1245 7.56001 45.8608 7.24501 46.8074 7.24501C47.2282 7.24501 47.6489 7.35001 48.0697 7.56001C48.4904 7.77001 48.8059 7.98001 49.0163 8.29501L48.4904 8.82001C48.0697 8.29501 47.5437 8.08501 46.8074 8.08501C46.1763 8.08501 45.5452 8.29501 45.1245 8.82001C44.5985 9.24001 44.3882 9.87001 44.3882 10.605C44.3882 11.34 44.5985 11.97 45.1245 12.39C45.6504 12.81 46.1763 13.125 46.8074 13.125C47.5437 13.125 48.0697 12.915 48.5956 12.39C48.9111 12.075 49.1215 11.655 49.1215 11.13H46.8074V10.29H49.8578V10.71ZM54.6963 8.08501H51.8563V10.08H54.4859V10.815H51.8563V12.81H54.6963V13.65H51.0148V7.35001H54.6963V8.08501ZM58.1674 13.65H57.3259V8.08501H55.5378V7.35001H59.9556V8.08501H58.1674V13.65ZM63.006 13.65V7.35001H63.8474V13.65H63.006ZM67.4237 13.65H66.5822V8.08501H64.7941V7.35001H69.1067V8.08501H67.3185V13.65H67.4237ZM77.4163 12.81C76.7852 13.44 76.0489 13.755 75.1022 13.755C74.1556 13.755 73.4193 13.44 72.7882 12.81C72.1571 12.18 71.8415 11.445 71.8415 10.5C71.8415 9.55501 72.1571 8.82001 72.7882 8.19001C73.4193 7.56001 74.1556 7.24501 75.1022 7.24501C76.0489 7.24501 76.7852 7.56001 77.4163 8.19001C78.0474 8.82001 78.363 9.55501 78.363 10.5C78.363 11.445 78.0474 12.18 77.4163 12.81ZM73.4193 12.285C73.84 12.705 74.4711 13.02 75.1022 13.02C75.7334 13.02 76.3645 12.81 76.7852 12.285C77.206 11.865 77.5215 11.235 77.5215 10.5C77.5215 9.76501 77.3111 9.13501 76.7852 8.71501C76.3645 8.29501 75.7334 7.98001 75.1022 7.98001C74.4711 7.98001 73.84 8.19001 73.4193 8.71501C72.9985 9.13501 72.683 9.76501 72.683 10.5C72.683 11.235 72.8934 11.865 73.4193 12.285ZM79.52 13.65V7.35001H80.4667L83.5171 12.285V7.35001H84.3585V13.65H83.5171L80.2563 8.50501V13.65H79.52Z" fill="white"/>
<path d="M71.6311 22.89C69.1066 22.89 67.1081 24.78 67.1081 27.405C67.1081 29.925 69.1066 31.92 71.6311 31.92C74.1555 31.92 76.154 30.03 76.154 27.405C76.154 24.675 74.1555 22.89 71.6311 22.89ZM71.6311 30.03C70.2637 30.03 69.1066 28.875 69.1066 27.3C69.1066 25.725 70.2637 24.57 71.6311 24.57C72.9985 24.57 74.1555 25.62 74.1555 27.3C74.1555 28.875 72.9985 30.03 71.6311 30.03ZM61.8489 22.89C59.3244 22.89 57.3259 24.78 57.3259 27.405C57.3259 29.925 59.3244 31.92 61.8489 31.92C64.3733 31.92 66.3718 30.03 66.3718 27.405C66.3718 24.675 64.3733 22.89 61.8489 22.89ZM61.8489 30.03C60.4815 30.03 59.3244 28.875 59.3244 27.3C59.3244 25.725 60.4815 24.57 61.8489 24.57C63.2163 24.57 64.3733 25.62 64.3733 27.3C64.3733 28.875 63.2163 30.03 61.8489 30.03ZM50.1733 24.255V26.145H54.6963C54.5911 27.195 54.1703 28.035 53.6444 28.56C53.0133 29.19 51.9615 29.925 50.1733 29.925C47.3333 29.925 45.2296 27.72 45.2296 24.885C45.2296 22.05 47.4385 19.845 50.1733 19.845C51.6459 19.845 52.8029 20.475 53.6444 21.21L55.0118 19.845C53.8548 18.795 52.3822 17.955 50.2785 17.955C46.4918 17.955 43.2311 21.105 43.2311 24.885C43.2311 28.665 46.4918 31.815 50.2785 31.815C52.3822 31.815 53.8548 31.185 55.117 29.82C56.3792 28.56 56.8 26.775 56.8 25.41C56.8 24.99 56.8 24.57 56.6948 24.255H50.1733ZM97.9274 25.725C97.5066 24.675 96.4548 22.89 94.1407 22.89C91.8266 22.89 89.9333 24.675 89.9333 27.405C89.9333 29.925 91.8266 31.92 94.3511 31.92C96.3496 31.92 97.6118 30.66 98.0326 29.925L96.56 28.875C96.034 29.61 95.4029 30.135 94.3511 30.135C93.2992 30.135 92.6681 29.715 92.1422 28.77L98.1378 26.25L97.9274 25.725ZM91.8266 27.195C91.8266 25.515 93.194 24.57 94.1407 24.57C94.877 24.57 95.6133 24.99 95.8237 25.515L91.8266 27.195ZM86.8829 31.5H88.8815V18.375H86.8829V31.5ZM83.7274 23.835C83.2015 23.31 82.36 22.785 81.3081 22.785C79.0992 22.785 76.9955 24.78 76.9955 27.3C76.9955 29.82 78.994 31.71 81.3081 31.71C82.36 31.71 83.2015 31.185 83.6222 30.66H83.7274V31.29C83.7274 32.97 82.7807 33.915 81.3081 33.915C80.1511 33.915 79.3096 33.075 79.0992 32.34L77.4163 33.075C77.9422 34.23 79.2044 35.7 81.4133 35.7C83.7274 35.7 85.6207 34.335 85.6207 31.08V23.1H83.7274V23.835ZM81.4133 30.03C80.0459 30.03 78.8889 28.875 78.8889 27.3C78.8889 25.725 80.0459 24.57 81.4133 24.57C82.7807 24.57 83.8326 25.725 83.8326 27.3C83.8326 28.875 82.7807 30.03 81.4133 30.03ZM107.078 18.375H102.345V31.5H104.344V26.565H107.078C109.287 26.565 111.391 24.99 111.391 22.47C111.391 19.95 109.287 18.375 107.078 18.375ZM107.184 24.675H104.344V20.16H107.184C108.656 20.16 109.498 21.42 109.498 22.365C109.393 23.52 108.551 24.675 107.184 24.675ZM119.28 22.785C117.807 22.785 116.335 23.415 115.809 24.78L117.597 25.515C118.018 24.78 118.649 24.57 119.385 24.57C120.437 24.57 121.384 25.2 121.489 26.25V26.355C121.173 26.145 120.332 25.83 119.49 25.83C117.597 25.83 115.704 26.88 115.704 28.77C115.704 30.555 117.281 31.71 118.964 31.71C120.332 31.71 120.963 31.08 121.489 30.45H121.594V31.5H123.487V26.46C123.277 24.15 121.489 22.785 119.28 22.785ZM119.07 30.03C118.438 30.03 117.492 29.715 117.492 28.875C117.492 27.825 118.649 27.51 119.596 27.51C120.437 27.51 120.858 27.72 121.384 27.93C121.173 29.19 120.121 30.03 119.07 30.03ZM130.114 23.1L127.905 28.77H127.8L125.486 23.1H123.382L126.853 31.08L124.855 35.49H126.853L132.218 23.1H130.114ZM112.443 31.5H114.441V18.375H112.443V31.5Z" fill="white"/>
<path d="M10.9392 7.87502C10.6237 8.19002 10.5185 8.71501 10.5185 9.34501V32.55C10.5185 33.18 10.7289 33.705 11.0444 34.02L11.1496 34.125L24.1926 21.105V20.895L10.9392 7.87502Z" fill="url(#paint0_linear_26_53)"/>
<path d="M28.4 25.515L24.0874 21.21V20.895L28.4 16.59L28.5052 16.695L33.6593 19.635C35.1318 20.475 35.1318 21.84 33.6593 22.68L28.4 25.515Z" fill="url(#paint1_linear_26_53)"/>
<path d="M28.5051 25.41L24.0874 21L10.9392 34.125C11.4651 34.65 12.2014 34.65 13.1481 34.23L28.5051 25.41Z" fill="url(#paint2_linear_26_53)"/>
<path d="M28.5051 16.59L13.1481 7.87501C12.2014 7.35001 11.4651 7.45501 10.9392 7.98001L24.0874 21L28.5051 16.59Z" fill="url(#paint3_linear_26_53)"/>
<path opacity="0.2" d="M28.4 25.305L13.1481 33.915C12.3066 34.44 11.5703 34.335 11.0444 33.915L10.9392 34.02L11.0444 34.125C11.5703 34.545 12.3066 34.65 13.1481 34.125L28.4 25.305Z" fill="black"/>
<path opacity="0.12" d="M10.9392 33.915C10.6237 33.6 10.5185 33.075 10.5185 32.445V32.55C10.5185 33.18 10.7289 33.705 11.0444 34.02V33.915H10.9392ZM33.6592 22.365L28.4 25.305L28.5052 25.41L33.6592 22.47C34.3955 22.05 34.7111 21.525 34.7111 21C34.7111 21.525 34.2903 21.945 33.6592 22.365Z" fill="black"/>
<path opacity="0.25" d="M13.1481 7.98001L33.6592 19.635C34.2903 20.055 34.7111 20.475 34.7111 21C34.7111 20.475 34.3955 19.95 33.6592 19.53L13.1481 7.87501C11.6755 7.03501 10.5185 7.66501 10.5185 9.34501V9.45001C10.5185 7.87501 11.6755 7.14001 13.1481 7.98001Z" fill="white"/>
<defs>
<linearGradient id="paint0_linear_26_53" x1="22.9303" y1="9.14552" x2="5.30822" y2="26.7977" gradientUnits="userSpaceOnUse">
<stop stop-color="#00A0FF"/>
<stop offset="0.007" stop-color="#00A1FF"/>
<stop offset="0.26" stop-color="#00BEFF"/>
<stop offset="0.512" stop-color="#00D2FF"/>
<stop offset="0.76" stop-color="#00DFFF"/>
<stop offset="1" stop-color="#00E3FF"/>
</linearGradient>
<linearGradient id="paint1_linear_26_53" x1="35.5884" y1="21.0011" x2="10.1367" y2="21.0011" gradientUnits="userSpaceOnUse">
<stop stop-color="#FFE000"/>
<stop offset="0.409" stop-color="#FFBD00"/>
<stop offset="0.775" stop-color="#FFA500"/>
<stop offset="1" stop-color="#FF9C00"/>
</linearGradient>
<linearGradient id="paint2_linear_26_53" x1="26.1143" y1="23.4108" x2="2.21841" y2="47.3488" gradientUnits="userSpaceOnUse">
<stop stop-color="#FF3A44"/>
<stop offset="1" stop-color="#C31162"/>
</linearGradient>
<linearGradient id="paint3_linear_26_53" x1="7.67531" y1="0.184808" x2="18.3464" y2="10.8748" gradientUnits="userSpaceOnUse">
<stop stop-color="#32A071"/>
<stop offset="0.069" stop-color="#2DA771"/>
<stop offset="0.476" stop-color="#15CF74"/>
<stop offset="0.801" stop-color="#06E775"/>
<stop offset="1" stop-color="#00F076"/>
</linearGradient>
</defs>
</svg>
