<svg width="100%" height="100%" viewBox="0 0 18 18" fill="none" xmlns="http://www.w3.org/2000/svg">
<path d="M9.03787 12.3775C9.20294 12.3775 9.34675 12.3161 9.46929 12.1933C9.59183 12.0705 9.65309 11.9248 9.65309 11.7562C9.65309 11.5877 9.59169 11.4439 9.46889 11.3248C9.34607 11.2058 9.20076 11.1462 9.03296 11.1462C8.86516 11.1462 8.72135 11.2057 8.60154 11.3246C8.48172 11.4434 8.42182 11.589 8.42182 11.7611C8.42182 11.927 8.48221 12.0712 8.603 12.1937C8.72379 12.3163 8.86875 12.3775 9.03787 12.3775ZM9.00089 15C8.16884 15 7.3894 14.8437 6.66256 14.531C5.93573 14.2183 5.29993 13.7896 4.75517 13.2448C4.21042 12.7001 3.78171 12.0643 3.46902 11.3375C3.15634 10.6107 3 9.83085 3 8.99798C3 8.16511 3.15634 7.3849 3.46902 6.65735C3.78171 5.92979 4.21 5.29591 4.7539 4.7557C5.29779 4.21548 5.93334 3.78781 6.66055 3.47269C7.38774 3.15756 8.16801 3 9.00134 3C9.83466 3 10.6154 3.15735 11.3436 3.47205C12.0718 3.78675 12.7058 4.21385 13.2456 4.75334C13.7854 5.29283 14.2128 5.92723 14.5277 6.65654C14.8426 7.38585 15 8.16708 15 9.00024C15 9.83304 14.8424 10.6128 14.5273 11.3396C14.2122 12.0663 13.7845 12.7008 13.2443 13.2431C12.7041 13.7855 12.0698 14.2139 11.3415 14.5283C10.6131 14.8428 9.83294 15 9.00089 15ZM9.01983 6.52894C9.27841 6.52894 9.50651 6.60984 9.70413 6.77165C9.90176 6.93346 10.0006 7.13742 10.0006 7.38353C10.0006 7.61615 9.93187 7.82036 9.79447 7.99615C9.65709 8.17195 9.50148 8.33167 9.32765 8.47531C9.10565 8.66416 8.91124 8.87333 8.74442 9.10282C8.57761 9.33231 8.49421 9.58708 8.49421 9.86713C8.49421 9.98718 8.54048 10.0833 8.63301 10.1555C8.72555 10.2276 8.8335 10.2637 8.95688 10.2637C9.08907 10.2637 9.2 10.2196 9.28965 10.1315C9.3793 10.0434 9.44316 9.93595 9.48125 9.80921C9.51566 9.62288 9.58866 9.4544 9.70025 9.30379C9.81185 9.15317 9.94559 9.01696 10.1015 8.89517C10.3351 8.70549 10.5264 8.47731 10.6754 8.21062C10.8244 7.94393 10.8989 7.66203 10.8989 7.36493C10.8989 6.87181 10.7206 6.45676 10.3641 6.11977C10.0076 5.78278 9.5847 5.61429 9.09539 5.61429C8.73172 5.61429 8.38712 5.69077 8.06157 5.84372C7.73603 5.99669 7.46373 6.21859 7.24466 6.50942C7.17164 6.61685 7.13874 6.73417 7.14595 6.86138C7.15317 6.98858 7.20858 7.09159 7.3122 7.17039C7.43875 7.25306 7.5706 7.27855 7.70776 7.24687C7.84491 7.21519 7.95829 7.1408 8.0479 7.02372C8.16005 6.87274 8.30139 6.75253 8.47191 6.66309C8.64244 6.57366 8.82508 6.52894 9.01983 6.52894Z" fill="currentColor"/>
</svg>
