<svg width="100%" height="100%" viewBox="0 0 47 48" fill="none" xmlns="http://www.w3.org/2000/svg">
<path d="M11.8957 25.8109L18.2979 32.2413C18.6921 32.6355 18.8809 33.0986 18.8642 33.6305C18.8475 34.1624 18.6421 34.6254 18.2479 35.0196C17.8537 35.4138 17.3823 35.6109 16.8337 35.6109C16.2852 35.6109 15.8138 35.4138 15.4196 35.0196L5.6196 25.2479C5.41523 25.0435 5.26088 24.8203 5.15655 24.5783C5.05218 24.3363 5 24.087 5 23.8305C5 23.5739 5.05218 23.3246 5.15655 23.0826C5.26088 22.8406 5.41523 22.6174 5.6196 22.4131L15.4696 12.5913C15.8638 12.1971 16.3352 12 16.8837 12C17.4323 12 17.9037 12.1971 18.2979 12.5913C18.6921 12.9855 18.8892 13.4569 18.8892 14.0055C18.8892 14.554 18.6921 15.0254 18.2979 15.4196L11.8957 21.85H39.6631C40.2283 21.85 40.7044 22.0388 41.0914 22.4163C41.4783 22.7938 41.6718 23.2652 41.6718 23.8305C41.6718 24.3957 41.4783 24.8671 41.0914 25.2446C40.7044 25.6221 40.2283 25.8109 39.6631 25.8109H11.8957Z" fill="currentColor"/>
</svg>
