<svg width="100%" height="100%" viewBox="0 0 48 48" fill="none" xmlns="http://www.w3.org/2000/svg">
  <mask id="mask0_966_4276" style="mask-type:alpha" maskUnits="userSpaceOnUse" x="0" y="0" width="100%" height="100%">
    <rect width="100%" height="100%" fill="#D9D9D9" />
  </mask>
  <g mask="url(#mask0_966_4276)">
    <path
      d="M23.9755 44.05C23.5585 44.05 23.1235 43.975 22.6705 43.825C22.2175 43.675 21.8274 43.45 21.5 43.15C19.9 41.8167 18.2333 40.3083 16.5 38.625C14.7667 36.9417 13.175 35.125 11.725 33.175C10.275 31.225 9.08333 29.1583 8.15 26.975C7.21667 24.7917 6.75 22.55 6.75 20.25C6.75 14.926 8.48755 10.67 11.9627 7.48201C15.4377 4.29401 19.4502 2.70001 24 2.70001C28.5498 2.70001 32.5706 4.29401 36.0624 7.48201C39.5541 10.67 41.3 14.926 41.3 20.25C41.3 22.55 40.825 24.7917 39.875 26.975C38.925 29.1583 37.725 31.225 36.275 33.175C34.825 35.125 33.2333 36.9417 31.5 38.625C29.7667 40.3083 28.1167 41.8167 26.55 43.15C26.1848 43.45 25.7687 43.675 25.3017 43.825C24.8346 43.975 24.3926 44.05 23.9755 44.05ZM24.0044 23.85C25.1015 23.85 26.025 23.4819 26.775 22.7456C27.525 22.0093 27.9 21.0926 27.9 19.9956C27.9 18.8985 27.5235 17.975 26.7706 17.225C26.0176 16.475 25.0926 16.1 23.9956 16.1C22.8985 16.1 21.9833 16.4765 21.25 17.2295C20.5167 17.9824 20.15 18.9074 20.15 20.0045C20.15 21.1015 20.5182 22.0167 21.2544 22.75C21.9907 23.4833 22.9074 23.85 24.0044 23.85Z"
      fill="currentColor" />
  </g>
</svg>