<svg width="100%" height="100%" viewBox="0 0 121 121" fill="none" xmlns="http://www.w3.org/2000/svg">
  <g clip-path="url(#clip0_83_23)">
    <path
      d="M98.9958 9.08558L96.5413 7.96601C74.8819 -1.85179 50.1652 -2.62687 27.9029 5.76992L25.4054 6.71725C18.1282 9.47313 12.2719 14.9418 9.08546 22.0468L7.96589 24.5012C-1.85191 46.1607 -2.627 70.8774 5.7698 93.1397L6.71713 95.6372C9.473 102.871 14.9417 108.771 22.0036 111.957L24.4581 113.077C46.1175 122.894 70.8342 123.67 93.0965 115.273L95.594 114.325C102.828 111.57 108.727 106.101 111.914 99.039L113.034 96.5845C122.851 74.9251 123.626 50.2084 115.23 27.9461L114.282 25.4486C111.569 18.1283 106.058 12.2721 98.9958 9.08558Z"
      fill="currentColor" />
    <path
      d="M63.342 95.5943L63.2989 95.6374L62.9114 95.2498L62.8252 95.1637C60.2847 93.0107 57.5288 90.8577 54.859 88.7908C47.2804 82.8915 39.4003 76.7769 34.9651 68.8537L34.922 68.8107L34.879 68.7676L34.6637 68.3801C34.6206 68.294 34.5345 68.1648 34.4484 68.0356C34.4053 67.9925 34.4053 67.9495 34.4053 67.9495C34.3622 67.9064 34.3622 67.8633 34.3192 67.7772L34.2761 67.6481C34.2331 67.5619 34.19 67.4328 34.1039 67.3897C34.0608 67.3036 34.0178 67.1744 33.9316 67.0883C33.8886 67.0021 33.8455 66.873 33.7594 66.8299C33.7163 66.7868 33.7163 66.7007 33.6733 66.6577C33.6302 66.5715 33.5872 66.4424 33.501 66.3562L33.458 66.2271V66.184C32.5537 64.1601 31.9078 61.921 31.4341 59.4666C31.2619 58.4762 31.1327 57.5288 31.0466 56.6246L31.0035 56.3662C29.927 40.1324 42.2423 26.0086 58.4331 24.932C59.079 24.889 59.7679 24.8459 60.4569 24.8459C66.3562 24.8459 72.0832 26.6114 76.9491 29.9271C81.7718 33.1997 85.4751 37.7641 87.6711 43.1036C88.8768 46.0317 89.6089 49.132 89.8242 52.3185V52.4046C89.9103 53.6103 89.9103 54.6868 89.8672 55.8064C89.7811 58.0456 89.3936 60.2847 88.7477 62.4808C88.7477 62.5239 88.7046 62.5669 88.7046 62.61L88.5754 63.0836C88.5323 63.1267 88.5323 63.2128 88.5323 63.2559L88.3601 63.6865C88.317 63.7726 88.317 63.8587 88.274 63.9018C88.2309 63.9879 88.2309 64.074 88.1879 64.1171C88.1448 64.1601 88.1448 64.2032 88.1448 64.2893C88.1017 64.3324 88.1017 64.3755 88.1017 64.4616C88.0587 64.5046 88.0587 64.5908 88.0156 64.6338C87.9726 64.6769 87.9726 64.7199 87.9726 64.8061V64.8491C87.9295 64.9783 87.8864 65.1075 87.8003 65.2367L87.7573 65.3228C84.3985 73.7626 77.4227 80.8676 70.7053 87.7573C68.38 90.1687 65.9256 92.6662 63.6864 95.1206L63.342 95.8096V95.5943Z"
      fill="#211F1F" />
    <path
      d="M63.342 95.5943L63.2989 95.6374L62.9114 95.2498L62.8252 95.1637C60.2847 93.0107 57.5288 90.8577 54.859 88.7908C47.2804 82.8915 39.4003 76.7769 34.9651 68.8537L34.922 68.8107L34.879 68.7676L34.6637 68.3801C34.6206 68.294 34.5345 68.1648 34.4484 68.0356C34.4053 67.9925 34.4053 67.9495 34.4053 67.9495C34.3622 67.9064 34.3622 67.8633 34.3192 67.7772L34.2761 67.6481C34.2331 67.5619 34.19 67.4328 34.1039 67.3897C34.0608 67.3036 34.0178 67.1744 33.9316 67.0883C33.8886 67.0021 33.8455 66.873 33.7594 66.8299C33.7163 66.7868 33.7163 66.7007 33.6733 66.6577C33.6302 66.5715 33.5872 66.4424 33.501 66.3562L33.458 66.2271V66.184C32.5537 64.1601 31.9078 61.921 31.4341 59.4666C31.2619 58.4762 31.1327 57.5288 31.0466 56.6246L31.0035 56.3662C29.927 40.1324 42.2423 26.0086 58.4331 24.932C59.079 24.889 59.7679 24.8459 60.4569 24.8459C66.3562 24.8459 72.0832 26.6114 76.9491 29.9271C81.7718 33.1997 85.4751 37.7641 87.6711 43.1036C88.8768 46.0317 89.6089 49.132 89.8242 52.3185V52.4046C89.9103 53.6103 89.9103 54.6868 89.8672 55.8064C89.7811 58.0456 89.3936 60.2847 88.7477 62.4808C88.7477 62.5239 88.7046 62.5669 88.7046 62.61L88.5754 63.0836C88.5323 63.1267 88.5323 63.2128 88.5323 63.2559L88.3601 63.6865C88.317 63.7726 88.317 63.8587 88.274 63.9018C88.2309 63.9879 88.2309 64.074 88.1879 64.1171C88.1448 64.1601 88.1448 64.2032 88.1448 64.2893C88.1017 64.3324 88.1017 64.3755 88.1017 64.4616C88.0587 64.5046 88.0587 64.5908 88.0156 64.6338C87.9726 64.6769 87.9726 64.7199 87.9726 64.8061V64.8491C87.9295 64.9783 87.8864 65.1075 87.8003 65.2367L87.7573 65.3228C84.3985 73.7626 77.4227 80.8676 70.7053 87.7573C68.38 90.1687 65.9256 92.6662 63.6864 95.1206L63.342 95.8096V95.5943Z"
      fill="black" fill-opacity="0.2" />
    <path
      d="M60.543 25.5349C72.3847 25.5349 82.8053 32.8121 87.1544 43.3619C88.274 46.1609 89.006 49.1751 89.2644 52.3616V52.4046C89.3505 53.5242 89.3505 54.6438 89.3074 55.7203C89.2213 58.0025 88.8338 60.1986 88.1879 62.3086C88.1879 62.3516 88.1879 62.3516 88.1879 62.3516C88.1448 62.5239 88.1017 62.6961 88.0156 62.8683C87.9726 62.9545 87.9295 63.0836 87.9295 63.1698C87.8864 63.2559 87.8434 63.3851 87.8434 63.5142C87.8003 63.6865 87.7573 63.7726 87.6711 63.9449C87.6281 64.031 87.585 64.1171 87.585 64.2032C87.542 64.3324 87.4989 64.4616 87.4558 64.5477C87.4128 64.7199 87.3267 64.8491 87.2836 64.9783C87.2836 65.0214 87.2405 65.0214 87.2405 65.0644C82.7622 76.3032 71.911 85.0445 63.2989 94.647L63.2558 94.6039V94.647C53.438 86.2502 41.4672 79.0591 35.5249 68.5523C35.5249 68.5093 35.4818 68.5093 35.4818 68.5093C35.3957 68.3801 35.3096 68.2509 35.2665 68.1217C35.1804 67.9925 35.1373 67.9064 35.0943 67.7772C35.0512 67.6911 35.0082 67.605 34.9651 67.5189C34.879 67.3897 34.8359 67.2605 34.7498 67.1313C34.7067 67.0452 34.6637 66.916 34.5775 66.8299C34.5345 66.7438 34.4914 66.6577 34.4484 66.5715C34.3622 66.3993 34.2761 66.2701 34.2331 66.0979V66.0548C33.1566 63.6434 32.5537 61.232 32.2092 59.3804C31.8647 57.5719 31.8217 56.3231 31.8217 56.3231C30.7882 40.3908 42.759 26.6975 58.6053 25.621C59.2512 25.5349 59.8971 25.5349 60.543 25.5349ZM60.543 24.1139C59.8541 24.1139 59.1651 24.157 58.4761 24.2C50.4238 24.7598 43.1035 28.3769 37.8071 34.4484C32.5106 40.5199 29.884 48.2708 30.4437 56.3231L30.4868 56.8399C30.5729 57.7011 30.7021 58.6054 30.8313 59.5096C31.3049 61.9641 31.9509 64.2032 32.8121 66.2271V66.2701L32.9412 66.5285C32.9843 66.6146 33.0274 66.7438 33.1135 66.873C33.1566 66.916 33.1566 67.0021 33.1996 67.0452C33.2427 67.1313 33.2857 67.2605 33.3719 67.3466C33.4149 67.4328 33.458 67.5619 33.5441 67.6481C33.5872 67.7342 33.6302 67.8634 33.7163 67.9495L33.7594 68.0787C33.8025 68.1217 33.8025 68.1648 33.8455 68.2509C33.8886 68.294 33.8886 68.294 33.8886 68.337C33.9747 68.4662 34.0608 68.5954 34.1039 68.7246C34.1469 68.8107 34.19 68.8538 34.19 68.9399C34.2331 69.026 34.2761 69.0691 34.2761 69.1552L34.3192 69.2413L34.3622 69.2844C38.8836 77.2936 46.8067 83.4513 54.4284 89.3936C57.0982 91.4605 59.811 93.5705 62.3946 95.7666L62.4808 95.8527L63.385 96.757L63.4711 96.6708L63.7726 96.9292L64.4615 95.5082C66.6576 93.0537 69.069 90.5993 71.3943 88.231C78.1978 81.2982 85.1736 74.1502 88.6185 65.5812L88.6615 65.5381L88.7046 65.495V65.452C88.7477 65.3228 88.7907 65.1936 88.8768 65.0644V65.0214V64.9783C88.9199 64.9352 88.9199 64.8922 88.9199 64.8061C88.963 64.7199 88.963 64.6769 89.006 64.5908C89.0491 64.5477 89.0491 64.5046 89.0491 64.4185C89.0491 64.3755 89.0921 64.3324 89.0921 64.3324V64.2893V64.2463C89.1352 64.1602 89.1352 64.074 89.1783 64.031C89.2213 63.9879 89.2213 63.9018 89.2644 63.8157L89.3074 63.6434L89.3505 63.5142V63.4712V63.4281C89.3505 63.3851 89.3936 63.3851 89.3936 63.342C89.4366 63.2559 89.4366 63.1698 89.4797 63.1267C89.5227 63.0406 89.5227 62.9545 89.5658 62.8683C89.6089 62.8253 89.6089 62.7392 89.6089 62.6961C89.6519 62.653 89.6519 62.5669 89.6519 62.4808C90.2978 60.2417 90.6854 57.9164 90.7715 55.6342C90.8146 54.5146 90.8146 53.395 90.7284 52.1893V52.1463V52.1032C90.5131 48.8306 89.7811 45.6872 88.5324 42.673C86.2932 37.1612 82.4608 32.5107 77.5519 29.195C72.4708 25.9224 66.6146 24.1139 60.543 24.1139Z"
      fill="#211F1F" />
    <path
      d="M60.543 25.5349C72.3847 25.5349 82.8053 32.8121 87.1544 43.3619C88.274 46.1609 89.006 49.1751 89.2644 52.3616V52.4046C89.3505 53.5242 89.3505 54.6438 89.3074 55.7203C89.2213 58.0025 88.8338 60.1986 88.1879 62.3086C88.1879 62.3516 88.1879 62.3516 88.1879 62.3516C88.1448 62.5239 88.1017 62.6961 88.0156 62.8683C87.9726 62.9545 87.9295 63.0836 87.9295 63.1698C87.8864 63.2559 87.8434 63.3851 87.8434 63.5142C87.8003 63.6865 87.7573 63.7726 87.6711 63.9449C87.6281 64.031 87.585 64.1171 87.585 64.2032C87.542 64.3324 87.4989 64.4616 87.4558 64.5477C87.4128 64.7199 87.3267 64.8491 87.2836 64.9783C87.2836 65.0214 87.2405 65.0214 87.2405 65.0644C82.7622 76.3032 71.911 85.0445 63.2989 94.647L63.2558 94.6039V94.647C53.438 86.2502 41.4672 79.0591 35.5249 68.5523C35.5249 68.5093 35.4818 68.5093 35.4818 68.5093C35.3957 68.3801 35.3096 68.2509 35.2665 68.1217C35.1804 67.9925 35.1373 67.9064 35.0943 67.7772C35.0512 67.6911 35.0082 67.605 34.9651 67.5189C34.879 67.3897 34.8359 67.2605 34.7498 67.1313C34.7067 67.0452 34.6637 66.916 34.5775 66.8299C34.5345 66.7438 34.4914 66.6577 34.4484 66.5715C34.3622 66.3993 34.2761 66.2701 34.2331 66.0979V66.0548C33.1566 63.6434 32.5537 61.232 32.2092 59.3804C31.8647 57.5719 31.8217 56.3231 31.8217 56.3231C30.7882 40.3908 42.759 26.6975 58.6053 25.621C59.2512 25.5349 59.8971 25.5349 60.543 25.5349ZM60.543 24.1139C59.8541 24.1139 59.1651 24.157 58.4761 24.2C50.4238 24.7598 43.1035 28.3769 37.8071 34.4484C32.5106 40.5199 29.884 48.2708 30.4437 56.3231L30.4868 56.8399C30.5729 57.7011 30.7021 58.6054 30.8313 59.5096C31.3049 61.9641 31.9509 64.2032 32.8121 66.2271V66.2701L32.9412 66.5285C32.9843 66.6146 33.0274 66.7438 33.1135 66.873C33.1566 66.916 33.1566 67.0021 33.1996 67.0452C33.2427 67.1313 33.2857 67.2605 33.3719 67.3466C33.4149 67.4328 33.458 67.5619 33.5441 67.6481C33.5872 67.7342 33.6302 67.8634 33.7163 67.9495L33.7594 68.0787C33.8025 68.1217 33.8025 68.1648 33.8455 68.2509C33.8886 68.294 33.8886 68.294 33.8886 68.337C33.9747 68.4662 34.0608 68.5954 34.1039 68.7246C34.1469 68.8107 34.19 68.8538 34.19 68.9399C34.2331 69.026 34.2761 69.0691 34.2761 69.1552L34.3192 69.2413L34.3622 69.2844C38.8836 77.2936 46.8067 83.4513 54.4284 89.3936C57.0982 91.4605 59.811 93.5705 62.3946 95.7666L62.4808 95.8527L63.385 96.757L63.4711 96.6708L63.7726 96.9292L64.4615 95.5082C66.6576 93.0537 69.069 90.5993 71.3943 88.231C78.1978 81.2982 85.1736 74.1502 88.6185 65.5812L88.6615 65.5381L88.7046 65.495V65.452C88.7477 65.3228 88.7907 65.1936 88.8768 65.0644V65.0214V64.9783C88.9199 64.9352 88.9199 64.8922 88.9199 64.8061C88.963 64.7199 88.963 64.6769 89.006 64.5908C89.0491 64.5477 89.0491 64.5046 89.0491 64.4185C89.0491 64.3755 89.0921 64.3324 89.0921 64.3324V64.2893V64.2463C89.1352 64.1602 89.1352 64.074 89.1783 64.031C89.2213 63.9879 89.2213 63.9018 89.2644 63.8157L89.3074 63.6434L89.3505 63.5142V63.4712V63.4281C89.3505 63.3851 89.3936 63.3851 89.3936 63.342C89.4366 63.2559 89.4366 63.1698 89.4797 63.1267C89.5227 63.0406 89.5227 62.9545 89.5658 62.8683C89.6089 62.8253 89.6089 62.7392 89.6089 62.6961C89.6519 62.653 89.6519 62.5669 89.6519 62.4808C90.2978 60.2417 90.6854 57.9164 90.7715 55.6342C90.8146 54.5146 90.8146 53.395 90.7284 52.1893V52.1463V52.1032C90.5131 48.8306 89.7811 45.6872 88.5324 42.673C86.2932 37.1612 82.4608 32.5107 77.5519 29.195C72.4708 25.9224 66.6146 24.1139 60.543 24.1139Z"
      fill="black" fill-opacity="0.2" />
    <path
      d="M89.2212 52.4046V52.3616C89.0059 49.1751 88.2739 46.1609 87.1113 43.3619L83.9248 45.0413L72.2554 51.2851L61.0166 57.658V71.136L71.997 64.8922L83.4081 58.7776L89.1782 55.7203C89.3074 54.6438 89.3073 53.5242 89.2212 52.4046Z"
      fill="currentColor" />
    <path d="M59.768 71.179L47.8833 64.4185V50.9406L59.768 57.7011V71.179Z" fill="currentColor" />
    <path d="M60.4138 54.6007L48.5291 47.8402L60.8874 41.1228L72.7721 47.8402L60.4138 54.6007Z" fill="currentColor" />
  </g>
  <defs>
    <clipPath id="clip0_83_23">
      <rect width="100%" height="100%" fill="white" />
    </clipPath>
  </defs>
</svg>