<svg width="100%" height="100%" viewBox="0 0 48 48" fill="none" xmlns="http://www.w3.org/2000/svg">
<mask id="mask0_1603_8285" style="mask-type:alpha" maskUnits="userSpaceOnUse" x="0" y="0" width="100%" height="100%">
<rect width="100%" height="100%" fill="#D9D9D9"/>
</mask>
<g mask="url(#mask0_1603_8285)">
<path d="M7.45 41.25C6.14833 41.25 5.03958 40.7921 4.12375 39.8763C3.20792 38.9604 2.75 37.8517 2.75 36.55V11.45C2.75 10.1346 3.20792 9.01406 4.12375 8.08846C5.03958 7.16283 6.14833 6.70001 7.45 6.70001H40.55C41.8654 6.70001 42.986 7.16283 43.9116 8.08846C44.8372 9.01406 45.3 10.1346 45.3 11.45V36.55C45.3 37.8517 44.8372 38.9604 43.9116 39.8763C42.986 40.7921 41.8654 41.25 40.55 41.25H7.45ZM24 26C24.2333 26 24.45 25.9667 24.65 25.9C24.85 25.8333 25.069 25.7325 25.307 25.5975L39.85 15.85C40.0167 15.7667 40.175 15.6042 40.325 15.3625C40.475 15.1208 40.55 14.8456 40.55 14.5368C40.55 13.9578 40.275 13.482 39.725 13.1092C39.175 12.7364 38.6167 12.75 38.05 13.15L24 22.35L10 13.15C9.43333 12.7833 8.86667 12.75 8.3 13.05C7.73333 13.35 7.45 13.8307 7.45 14.4921C7.45 14.7875 7.53333 15.0544 7.7 15.2926C7.86667 15.5309 8.03648 15.7178 8.20945 15.8533L22.6941 25.5976C22.9314 25.7325 23.15 25.8333 23.35 25.9C23.55 25.9667 23.7667 26 24 26Z" fill="currentColor"/>
</g>
</svg>
