<svg width="100%" height="100%" viewBox="0 0 48 48" fill="none" xmlns="http://www.w3.org/2000/svg">
<mask id="mask0_966_4270" style="mask-type:alpha" maskUnits="userSpaceOnUse" x="0" y="0" width="100%" height="100%">
<rect width="100%" height="100%" fill="#D9D9D9"/>
</mask>
<g mask="url(#mask0_966_4270)">
<path d="M29.05 42.75L17.45 38.65L8 42.5C7.56667 42.6334 7.16667 42.6667 6.8 42.6C6.43333 42.5333 6.1 42.4 5.8 42.2C5.46667 42 5.20833 41.7417 5.025 41.425C4.84167 41.1083 4.75 40.7333 4.75 40.3V11.45C4.75 10.75 4.95 10.1167 5.35 9.55001C5.75 8.98335 6.28333 8.58335 6.95 8.35001L15.9 5.20001C16.1333 5.13335 16.3833 5.07501 16.65 5.02501C16.9167 4.97501 17.1833 4.95001 17.45 4.95001C17.7167 4.95001 17.9833 4.97501 18.25 5.02501C18.5167 5.07501 18.7667 5.13335 19 5.20001L30.6 9.30001L40.05 5.45001C40.45 5.31668 40.8333 5.27501 41.2 5.32501C41.5667 5.37501 41.9 5.50001 42.2 5.70001C42.5333 5.90001 42.8 6.16668 43 6.50001C43.2 6.83335 43.3 7.21668 43.3 7.65001V36.85C43.3 37.5167 43.0917 38.0917 42.675 38.575C42.2583 39.0583 41.7333 39.4 41.1 39.6L32.15 42.75C31.9167 42.85 31.6667 42.925 31.4 42.975C31.1333 43.025 30.8667 43.05 30.6 43.05C30.3333 43.05 30.0667 43.025 29.8 42.975C29.5333 42.925 29.2833 42.85 29.05 42.75ZM28.9 37.7V13.5L19.1 10.2V34.4L28.9 37.7Z" fill="currentColor"/>
</g>
</svg>
