<svg width="100%" height="100%" viewBox="0 0 48 48" fill="none" xmlns="http://www.w3.org/2000/svg">
<mask id="mask0_1122_16122" style="mask-type:alpha" maskUnits="userSpaceOnUse" x="0" y="0" width="100%" height="100%">
<rect width="100%" height="100%" fill="#D9D9D9"/>
</mask>
<g mask="url(#mask0_1122_16122)">
<path d="M9.23914 26.95C8.44637 26.95 7.75832 26.6617 7.17499 26.085C6.59165 25.5083 6.29999 24.8151 6.29999 24.0053C6.29999 23.1684 6.58954 22.4667 7.16864 21.9C7.74774 21.3333 8.44389 21.05 9.25709 21.05C10.039 21.05 10.7333 21.3316 11.34 21.8947C11.9467 22.4578 12.25 23.1495 12.25 23.9697C12.25 24.7899 11.9464 25.4917 11.3391 26.075C10.7319 26.6583 10.0319 26.95 9.23914 26.95ZM24.0303 26.95C23.2101 26.95 22.5083 26.6617 21.925 26.085C21.3417 25.5083 21.05 24.8151 21.05 24.0053C21.05 23.1684 21.3383 22.4667 21.915 21.9C22.4917 21.3333 23.1849 21.05 23.9947 21.05C24.8316 21.05 25.5333 21.3316 26.1 21.8947C26.6667 22.4578 26.95 23.1495 26.95 23.9697C26.95 24.7899 26.6684 25.4917 26.1053 26.075C25.5422 26.6583 24.8505 26.95 24.0303 26.95ZM38.7447 26.95C37.9173 26.95 37.2113 26.6617 36.6267 26.085C36.0422 25.5083 35.75 24.8151 35.75 24.0053C35.75 23.1684 36.0446 22.4667 36.6338 21.9C37.2231 21.3333 37.9314 21.05 38.7588 21.05C39.5863 21.05 40.2917 21.3316 40.875 21.8947C41.4583 22.4578 41.75 23.1495 41.75 23.9697C41.75 24.7899 41.456 25.4917 40.8679 26.075C40.2799 26.6583 39.5721 26.95 38.7447 26.95Z" fill="currentColor"/>
</g>
</svg>
