<svg width="100%" height="100%" viewBox="0 0 48 48" fill="none" xmlns="http://www.w3.org/2000/svg">
  <mask id="mask0_1163_18794" style="mask-type:alpha" maskUnits="userSpaceOnUse" x="0" y="0" width="100%" height="100%">
    <rect width="100%" height="100%" fill="#D9D9D9" />
  </mask>
  <g mask="url(#mask0_1163_18794)">
    <path
      d="M34.9762 37.4452H13.1039L12.5952 18.1964L16.1558 11.1047L23.7857 8.06543L30.9069 10.0916L34.9762 16.1702V37.4452Z"
      fill="currentColor" />
    <path
      d="M8.60227 39.1675C8.1483 39.1675 7.76776 39.0137 7.46065 38.7061C7.15355 38.3985 7 38.0173 7 37.5626C7 37.1078 7.15355 36.7297 7.46065 36.4283C7.76776 36.1269 8.1483 35.9762 8.60227 35.9762H11.2727V19.8073C11.2727 16.8288 12.154 14.1605 13.9165 11.8025C15.679 9.44455 18.0023 7.96417 20.8864 7.36137V6.19125C20.8864 5.30479 21.1979 4.5513 21.821 3.93078C22.4441 3.31026 23.2008 3 24.0909 3C24.9811 3 25.7377 3.31026 26.3608 3.93078C26.9839 4.5513 27.2955 5.30479 27.2955 6.19125V7.36137C30.1796 7.96417 32.5029 9.44455 34.2654 11.8025C36.0279 14.1605 36.9091 16.8288 36.9091 19.8073V35.9762H39.5796C40.0335 35.9762 40.4141 36.1301 40.7212 36.4377C41.0283 36.7453 41.1818 37.1265 41.1818 37.5812C41.1818 38.0359 41.0283 38.414 40.7212 38.7154C40.4141 39.0168 40.0335 39.1675 39.5796 39.1675H8.60227ZM24.0909 45.55C22.9159 45.55 21.91 45.1334 21.0733 44.3001C20.2366 43.4668 19.8182 42.4651 19.8182 41.295H28.3636C28.3636 42.4651 27.9453 43.4668 27.1085 44.3001C26.2718 45.1334 25.2659 45.55 24.0909 45.55ZM14.4773 35.9762H33.7046V19.8073C33.7046 17.1479 32.7699 14.8874 30.9006 13.0258C29.0313 11.1643 26.7614 10.2335 24.0909 10.2335C21.4205 10.2335 19.1506 11.1643 17.2813 13.0258C15.4119 14.8874 14.4773 17.1479 14.4773 19.8073V35.9762Z"
      fill="#211F1F" />
  </g>
</svg>