<svg width="100%" height="100%" viewBox="0 0 48 48" fill="none" xmlns="http://www.w3.org/2000/svg">
<path d="M5.89999 41.3C4.79999 41.3 3.89999 40.9 3.09999 40.1C2.29999 39.3 1.89999 38.4 1.89999 37.2V11.7C1.89999 11.3 1.99999 10.8 2.09999 10.4C2.29999 9.99999 2.49999 9.49999 2.79999 9.19999L5.99999 4.89999C6.29999 4.39999 6.79999 3.99999 7.29999 3.79999C7.79999 3.59999 8.39999 3.39999 9.09999 3.39999H32.5C33.1 3.39999 33.6 3.49999 34.2 3.79999C34.7 3.99999 35.2 4.39999 35.6 4.79999L38.9 8.99999C39.2 9.39999 39.4 9.79999 39.5 10.3C39.7 10.8 39.7 11.2 39.7 11.7V22.8C38.9 22.5 38.1 22.3 37.3 22.1C36.5 21.9 35.7 21.9 34.9 21.9C33.9 21.9 32.9 22 31.9 22.3C30.9 22.6 30.1 23 29.2 23.4V13.9H12.2V27.8C12.2 28.6 12.5 29.2 13.2 29.6C13.8 30 14.5 30 15.2 29.7L20.7 26.9L24.2 28.7C23.8 29.5 23.5 30.2 23.3 31.1C23.1 31.9 23 32.8 23 33.7C23 35.2 23.2 36.5 23.7 37.9C24.2 39.2 24.9 40.4 25.9 41.4C26.2 41.3 5.89999 41.3 5.89999 41.3ZM7.39999 9.89999H34.2L32.4 7.59999H9.09999L7.39999 9.89999Z" fill="currentColor"/>
<path d="M46.1 42.1L42.1 38.1C42.6 37.4 42.9 36.7 43.2 35.9C43.4 35.1 43.6 34.3 43.6 33.4C43.6 30.9 42.7 28.8 40.9 27C39.1 25.2 37 24.3 34.5 24.3C32 24.3 29.8 25.2 28.1 27C26.3 28.8 25.5 30.9 25.5 33.4C25.5 35.9 26.4 38.1 28.1 39.9C29.9 41.7 32 42.6 34.5 42.6C35.4 42.6 36.2 42.5 37 42.3C37.8 42.1 38.5 41.7 39.2 41.3L43.2 45.3C43.6 45.7 44.1 45.9 44.7 45.9C45.3 45.9 45.8 45.7 46.2 45.3C46.6 44.9 46.8 44.4 46.8 43.8C46.7 43 46.5 42.5 46.1 42.1ZM38 36.9C37 37.8 35.9 38.3 34.5 38.3C33.1 38.3 31.9 37.8 31 36.9C30.1 36 29.6 34.8 29.6 33.3C29.6 31.9 30.1 30.8 31 29.8C31.9 28.9 33.1 28.4 34.5 28.4C35.9 28.4 37 28.9 38 29.8C39 30.8 39.4 31.9 39.4 33.3C39.4 34.7 38.9 35.9 38 36.9Z" fill="#211F1F"/>
</svg>
