<svg width="100%" height="100%" viewBox="0 0 48 48" fill="none" xmlns="http://www.w3.org/2000/svg">
<mask id="mask0_1611_1296" style="mask-type:alpha" maskUnits="userSpaceOnUse" x="0" y="0" width="100%" height="100%">
<rect width="100%" height="100%" fill="#D9D9D9"/>
</mask>
<g mask="url(#mask0_1611_1296)">
<path d="M36.347 45.15C34.4657 45.15 32.8541 44.4769 31.5125 43.1306C30.1708 41.7843 29.5 40.1751 29.5 38.3028C29.5 38.0691 29.525 37.7745 29.575 37.419C29.625 37.0635 29.7 36.7238 29.8 36.4L16.5 28.65C15.9 29.3167 15.1775 29.85 14.3327 30.25C13.4878 30.65 12.6177 30.85 11.7224 30.85C9.81338 30.85 8.19073 30.1782 6.85443 28.8346C5.51813 27.4909 4.84998 25.8784 4.84998 23.9971C4.84998 22.1157 5.51813 20.5042 6.85443 19.1625C8.19073 17.8208 9.81338 17.15 11.7224 17.15C12.6177 17.15 13.4711 17.325 14.2827 17.675C15.0942 18.025 15.8333 18.5333 16.5 19.2L29.8 11.55C29.7 11.281 29.625 10.9738 29.575 10.6284C29.525 10.283 29.5 9.96707 29.5 9.68071C29.5 7.81301 30.1718 6.20764 31.5154 4.86461C32.8591 3.52154 34.4716 2.85001 36.3529 2.85001C38.2343 2.85001 39.8458 3.52182 41.1875 4.86546C42.5291 6.20909 43.2 7.82159 43.2 9.70296C43.2 11.5843 42.5318 13.1958 41.1955 14.5375C39.8592 15.8792 38.2366 16.55 36.3276 16.55C35.4205 16.55 34.5545 16.4172 33.7296 16.1516C32.9048 15.8859 32.2115 15.4187 31.65 14.75L18.3 22C18.4 22.3 18.4666 22.6504 18.5 23.0512C18.5333 23.4519 18.55 23.7722 18.55 24.0121C18.55 24.2519 18.5333 24.5182 18.5 24.811C18.4666 25.1037 18.4 25.4167 18.3 25.75L31.65 33.2C32.2115 32.6313 32.8827 32.1974 33.6635 31.8985C34.4442 31.5995 35.3322 31.45 36.3276 31.45C38.2366 31.45 39.8592 32.1218 41.1955 33.4655C42.5318 34.8091 43.2 36.4216 43.2 38.303C43.2 40.1843 42.5282 41.7958 41.1845 43.1375C39.8409 44.4792 38.2284 45.15 36.347 45.15Z" fill="currentColor"/>
</g>
</svg>
