<svg width="100%" height="100%" viewBox="0 0 80 81" fill="none" xmlns="http://www.w3.org/2000/svg">
<g clip-path="url(#clip0_79_345)">
<path d="M65.4376 6.00346L63.8154 5.25775C49.503 -1.21813 33.1629 -1.72835 18.445 3.81867L16.7966 4.44663C11.9822 6.26511 8.10975 9.8759 6.00346 14.5726L5.25775 16.1948C-1.21813 30.5202 -1.72835 46.8604 3.81867 61.5783L4.44663 63.2267C6.26511 68.0149 9.88899 71.9135 14.5464 74.0198L16.1686 74.7655C30.4941 81.2414 46.8342 81.7516 61.539 76.2046L63.1874 75.5766C67.9757 73.7582 71.8743 70.1343 73.9806 65.4769L74.7263 63.8546C81.2152 49.5423 81.7255 33.2022 76.1784 18.4842L75.5505 16.8358C73.7582 11.9822 70.1081 8.10975 65.4376 6.00346Z" fill="#FDC917"/>
<path d="M27.9822 56.0836C26.36 56.0836 24.9601 55.5341 23.7958 54.4483C22.6184 53.3493 22.0166 51.9888 21.9904 50.3665H20.2373C19.6748 50.3665 19.1907 50.1703 18.8113 49.7909C18.4188 49.3984 18.2357 48.9274 18.2357 48.3649V27.9037C18.2357 26.8702 18.6282 25.9413 19.4131 25.1433C20.1981 24.3453 21.1269 23.9397 22.1866 23.9397H45.9184C47.0043 23.9397 47.9332 24.3322 48.7181 25.104C49.5031 25.889 49.8825 26.8179 49.8825 27.9037V31.6977H52.8522C53.4802 31.6977 54.0689 31.8285 54.6314 32.1032C55.194 32.378 55.6519 32.7574 56.0182 33.2545L61.4082 40.3845C61.4998 40.5677 61.5914 40.7639 61.6568 40.9601C61.7222 41.1564 61.7614 41.3788 61.7614 41.5881V48.3649C61.7614 48.9405 61.5652 49.4115 61.1858 49.804C60.8064 50.1964 60.3354 50.3796 59.8121 50.3796H57.9675C57.9282 52.0149 57.3264 53.3755 56.1621 54.4614C54.9977 55.5472 53.5979 56.0967 51.9757 56.0967C50.3534 56.0967 48.9667 55.5472 47.8023 54.4614C46.638 53.3624 46.0362 52.0018 45.9969 50.3796H33.9348C33.8955 52.0018 33.3068 53.3493 32.1425 54.4483C31.0043 55.5341 29.6175 56.0836 27.9822 56.0836ZM27.9822 52.7083C28.7148 52.7083 29.3297 52.4466 29.853 51.9103C30.3763 51.387 30.6249 50.759 30.6249 50.0395C30.6249 49.3199 30.3632 48.6919 29.8399 48.1556C29.3166 47.6192 28.6887 47.3575 27.9691 47.3575C27.2365 47.3575 26.6085 47.6192 26.0852 48.1556C25.5619 48.6789 25.3003 49.3068 25.3003 50.0264C25.3003 50.7459 25.5619 51.3739 26.0852 51.9103C26.6085 52.4466 27.2496 52.7083 27.9822 52.7083ZM51.9757 52.7083C52.7083 52.7083 53.3232 52.4466 53.8465 51.9103C54.3698 51.387 54.6184 50.759 54.6184 50.0395C54.6184 49.3199 54.3567 48.6919 53.8334 48.1556C53.3101 47.6192 52.6821 47.3575 51.9626 47.3575C51.23 47.3575 50.602 47.6192 50.0787 48.1556C49.5554 48.6919 49.2937 49.3068 49.2937 50.0264C49.2937 50.7459 49.5554 51.3739 50.0787 51.9103C50.6151 52.4466 51.243 52.7083 51.9757 52.7083ZM49.8825 42.5824H58.046L52.8522 35.6748H49.8955V42.5824H49.8825Z" fill="#211F1F"/>
</g>
<defs>
<clipPath id="clip0_79_345">
<rect width="79.9958" height="80.0233" fill="white"/>
</clipPath>
</defs>
</svg>
