<svg width="100%" height="100%" viewBox="0 0 14 14" fill="none" xmlns="http://www.w3.org/2000/svg">
<mask id="mask0_2107_7645" style="mask-type:alpha" maskUnits="userSpaceOnUse" x="0" y="0" width="100%" height="100%">
<rect y="14" width="100%" height="100%" transform="rotate(-90 0 14)" fill="#D9D9D9"/>
</mask>
<g mask="url(#mask0_2107_7645)">
<path d="M13.1979 6.99795C13.1979 7.85484 13.0371 8.65996 12.7154 9.41331C12.3938 10.1667 11.9514 10.8249 11.3882 11.3881C10.825 11.9513 10.1674 12.3938 9.41534 12.7154C8.66334 13.0371 7.85889 13.1979 7.00199 13.1979C6.13537 13.1979 5.32539 13.0371 4.57204 12.7154C3.81868 12.3938 3.16259 11.9521 2.60374 11.3904C2.04489 10.8288 1.60247 10.1716 1.27647 9.41884C0.950473 8.66611 0.787475 7.8609 0.787475 7.00318C0.787475 6.13576 0.950099 5.32479 1.27535 4.57029C1.60058 3.81579 2.04198 3.15949 2.59954 2.60136C3.1571 2.04324 3.81275 1.60139 4.5665 1.27581C5.32023 0.950243 6.13139 0.78746 6.99998 0.78746C7.85821 0.78746 8.66393 0.950457 9.41712 1.27645C10.1703 1.60245 10.8279 2.04487 11.3899 2.60373C11.9519 3.16257 12.3938 3.818 12.7154 4.57001C13.0371 5.32202 13.1979 6.13133 13.1979 6.99795ZM9.98956 9.18746L9.04061 7.14295C9.01213 7.09137 9.00032 7.04492 9.00518 7.0036C9.01004 6.96229 9.0222 6.91732 9.04164 6.86871L9.98956 4.79788C10.0576 4.67149 10.0382 4.55482 9.93123 4.44788C9.82428 4.34093 9.69303 4.31176 9.53748 4.36038L3.95206 6.69371C3.82567 6.75204 3.76248 6.85413 3.76248 6.99996C3.76248 7.14579 3.82567 7.24788 3.95206 7.30621L9.53748 9.63954C9.69303 9.68815 9.82428 9.65899 9.93123 9.55204C10.0382 9.4451 10.0576 9.32357 9.98956 9.18746Z" fill="#FECA16"/>
</g>
</svg>
