<svg width="100%" height="100%" viewBox="0 0 37 37" fill="none" xmlns="http://www.w3.org/2000/svg">
<path d="M27.9281 9.2637C26.2672 8.18079 25.0684 6.44812 24.6945 4.4283C24.6137 3.9919 24.5693 3.54278 24.5693 3.08325H19.2684L19.26 24.3274C19.1708 26.7063 17.2128 28.6157 14.8125 28.6157C14.0665 28.6157 13.364 28.4292 12.7456 28.1037C11.3272 27.3573 10.3566 25.8707 10.3566 24.1598C10.3566 21.7027 12.3556 19.7037 14.8125 19.7037C15.2712 19.7037 15.7111 19.7794 16.1273 19.9097V14.4981C15.6966 14.4395 15.259 14.4028 14.8125 14.4028C9.43251 14.4028 5.05573 18.7798 5.05573 24.1598C5.05573 27.4607 6.70493 30.3819 9.22097 32.1483C10.8058 33.2609 12.7335 33.9166 14.8125 33.9166C20.1925 33.9166 24.5693 29.5399 24.5693 24.1598V13.3872C26.6484 14.8795 29.1956 15.7588 31.9442 15.7588V10.458C30.4636 10.458 29.0846 10.0178 27.9281 9.2637Z" fill="white"/>
</svg>
